<svg width="32" height="32" viewBox="0 0 32 32" fill="none" xmlns="http://www.w3.org/2000/svg">
<g clip-path="url(#clip0_268_70346)">
<path d="M16 32C24.8366 32 32 24.8366 32 16C32 7.16344 24.8366 0 16 0C7.16344 0 0 7.16344 0 16C0 24.8366 7.16344 32 16 32Z" fill="#8DC351"/>
<path d="M21.2066 10.534C20.4306 8.56199 18.4846 8.38399 16.2186 8.82399L15.4116 6.01099L13.6996 6.50199L14.4856 9.24199C14.0356 9.36999 13.5776 9.51199 13.1226 9.65199L12.3326 6.89399L10.6216 7.38399L11.4266 10.197C11.0586 10.311 10.6966 10.423 10.3416 10.525L10.3386 10.515L7.97656 11.192L8.50156 13.022C8.50156 13.022 9.75956 12.634 9.74456 12.664C10.4386 12.465 10.7796 12.803 10.9446 13.132L11.8646 16.336C11.9116 16.323 11.9746 16.307 12.0486 16.296L11.8676 16.348L13.1546 20.838C13.1866 21.065 13.1586 21.45 12.6746 21.59C12.7016 21.603 11.4286 21.946 11.4286 21.946L11.6756 24.089L13.9036 23.449C14.3186 23.332 14.7286 23.222 15.1296 23.109L15.9466 25.954L17.6566 25.464L16.8496 22.649C17.3083 22.5273 17.7656 22.4006 18.2216 22.269L19.0236 25.072L20.7366 24.581L19.9226 21.741C22.7536 20.75 24.5606 19.447 24.0356 16.671C23.6136 14.437 22.3116 13.759 20.5646 13.835C21.4126 13.045 21.7776 11.977 21.2066 10.535V10.534ZM20.5566 17.304C21.1666 19.431 17.4566 20.233 16.2966 20.567L15.2156 16.797C16.3756 16.464 19.9196 15.087 20.5556 17.305L20.5566 17.304ZM18.2346 12.214C18.7886 14.149 15.6876 14.794 14.7206 15.071L13.7406 11.652C14.7066 11.375 17.6556 10.197 18.2346 12.215V12.214Z" fill="white"/>
</g>
<defs>
<clipPath id="clip0_268_70346">
<rect width="32" height="32" fill="white"/>
</clipPath>
</defs>
</svg>
