<svg width="32" height="32" viewBox="0 0 32 32" fill="none" xmlns="http://www.w3.org/2000/svg">
<g clip-path="url(#clip0_268_70353)">
<path d="M16 32C24.8366 32 32 24.8366 32 16C32 7.16344 24.8366 0 16 0C7.16344 0 0 7.16344 0 16C0 24.8366 7.16344 32 16 32Z" fill="#F3BA2F"/>
<path fill-rule="evenodd" clip-rule="evenodd" d="M16.0002 6.40039L10.1022 12.2987L12.2717 14.4683L16.0002 10.7398L19.7309 14.4702L21.9004 12.3008L16.0002 6.40039ZM6.40039 16L8.56979 18.1694L10.7395 15.9999L8.56995 13.8305L6.40039 16ZM12.2717 17.5323L16.0002 21.2607L19.7307 17.5303L21.9013 19.6987L21.9004 19.7L16.0002 25.6L10.102 19.7018L10.0988 19.6988L12.2717 17.5323ZM21.2613 16.001L23.4307 18.1704L25.6004 16.001L23.4307 13.8314L21.2613 16.001ZM14.3732 15.4245L16.0002 13.7975L18.2018 15.9991H18.2009L18.2028 16.0001L18.2018 16.0013L16.0002 18.2029L13.8006 16.0033L13.7976 16.0001L13.8006 15.9971L14.1863 15.6115L14.3731 15.4245H14.3732Z" fill="white"/>
</g>
<defs>
<clipPath id="clip0_268_70353">
<rect width="32" height="32" fill="white"/>
</clipPath>
</defs>
</svg>
