<svg width="32" height="32" viewBox="0 0 32 32" fill="none" xmlns="http://www.w3.org/2000/svg">
<g clip-path="url(#clip0_268_70345)">
<path d="M16 32C24.8366 32 32 24.8366 32 16C32 7.16344 24.8366 0 16 0C7.16344 0 0 7.16344 0 16C0 24.8366 7.16344 32 16 32Z" fill="#F7931A"/>
<path d="M22.5506 12.3714C22.3812 10.2588 20.5703 9.52319 18.2747 9.28544L18.3204 6.35887L16.5399 6.33181L16.4947 9.18125C16.0267 9.17314 15.5488 9.17554 15.0718 9.17772L15.1178 6.30962L13.3371 6.28158L13.2912 9.20717C12.9055 9.20865 12.526 9.21071 12.157 9.20422L12.1569 9.195L9.70005 9.15595L9.67052 11.0582C9.67052 11.0582 10.9868 11.0537 10.9645 11.0773C11.686 11.0891 11.9137 11.5114 11.9767 11.8746L11.925 15.2081C11.9745 15.2089 12.039 15.2124 12.1133 15.2228L11.9248 15.2205L11.8517 19.8907C11.816 20.1166 11.6769 20.4765 11.1722 20.4698C11.1954 20.49 9.87799 20.4496 9.87799 20.4496L9.49075 22.5707L11.8093 22.607C12.2403 22.6145 12.6645 22.6287 13.0804 22.6376L13.0351 25.5969L14.8146 25.6242L14.8603 22.6977C15.3488 22.7144 15.8217 22.7255 16.2834 22.733L16.2369 25.6474L18.0174 25.6745L18.064 22.721C21.0618 22.5961 23.1691 21.8746 23.4734 19.0665C23.7193 16.8059 22.67 15.778 20.9764 15.3437C22.018 14.8343 22.6775 13.9179 22.5506 12.3714ZM19.9589 18.6607C19.9265 20.8726 16.1424 20.5614 14.935 20.5437L14.9976 16.6224C16.2055 16.642 19.996 16.3542 19.9589 18.6607ZM19.2175 13.1154C19.1859 15.128 16.0311 14.8427 15.0264 14.8271L15.0819 11.272C16.0866 11.2876 19.2504 11.0163 19.2175 13.1154Z" fill="white"/>
</g>
<defs>
<clipPath id="clip0_268_70345">
<rect width="32" height="32" fill="white"/>
</clipPath>
</defs>
</svg>
