<svg width="20" height="20" viewBox="0 0 20 20" fill="none" xmlns="http://www.w3.org/2000/svg">
<rect width="20" height="20" rx="10" fill="#12A87A"/>
<path d="M9.61657 16.2727V3.54545H10.4319V16.2727H9.61657ZM12.167 7.4929C12.114 7.02225 11.8952 6.65767 11.5107 6.39915C11.1263 6.13731 10.6424 6.00639 10.059 6.00639C9.64142 6.00639 9.28016 6.07268 8.97523 6.20526C8.67031 6.33452 8.43333 6.51349 8.26429 6.74219C8.09857 6.96757 8.01571 7.22443 8.01571 7.51278C8.01571 7.75473 8.07206 7.96354 8.18475 8.1392C8.30075 8.31487 8.45156 8.46236 8.63716 8.58168C8.82608 8.69768 9.02826 8.79545 9.2437 8.875C9.45913 8.95123 9.66628 9.0142 9.86515 9.06392L10.8595 9.32244C11.1843 9.40199 11.5174 9.50971 11.8588 9.6456C12.2001 9.78149 12.5167 9.96046 12.8083 10.1825C13.1 10.4046 13.3353 10.6797 13.5143 11.0078C13.6966 11.3359 13.7877 11.7287 13.7877 12.1861C13.7877 12.7628 13.6386 13.2749 13.3403 13.7223C13.0453 14.1697 12.6161 14.5227 12.0526 14.7812C11.4925 15.0398 10.8147 15.169 10.0193 15.169C9.25695 15.169 8.59739 15.0481 8.04057 14.8061C7.48375 14.5642 7.04791 14.2211 6.73304 13.777C6.41818 13.3295 6.24417 12.7992 6.21103 12.1861H7.75222C7.78205 12.554 7.90137 12.8606 8.11017 13.1058C8.3223 13.3478 8.59242 13.5284 8.92054 13.6477C9.25198 13.7637 9.61491 13.8217 10.0093 13.8217C10.4435 13.8217 10.8296 13.7538 11.1677 13.6179C11.5091 13.4787 11.7776 13.2865 11.9731 13.0412C12.1686 12.7926 12.2664 12.5026 12.2664 12.1712C12.2664 11.8696 12.1802 11.6226 12.0079 11.4304C11.8389 11.2382 11.6085 11.0791 11.3169 10.9531C11.0285 10.8272 10.702 10.7161 10.3374 10.62L9.13432 10.2919C8.31898 10.0698 7.67267 9.74337 7.1954 9.3125C6.72144 8.88163 6.48446 8.31155 6.48446 7.60227C6.48446 7.01562 6.64355 6.50355 6.96174 6.06605C7.27992 5.62855 7.71079 5.28883 8.25435 5.04688C8.79791 4.80161 9.41107 4.67898 10.0938 4.67898C10.7832 4.67898 11.3914 4.79995 11.9184 5.0419C12.4487 5.28385 12.8663 5.61695 13.1713 6.04119C13.4762 6.46212 13.6353 6.94602 13.6485 7.4929H12.167Z" fill="white"/>
</svg>
