<svg width="16" height="16" viewBox="0 0 16 16" fill="none" xmlns="http://www.w3.org/2000/svg">
    <rect width="16" height="16" rx="8" fill="#12A87A"/>
    <path d="M7.69335 13.0182V2.83636H8.34562V13.0182H7.69335ZM9.73369 5.99432C9.69127 5.6178 9.51627 5.32614 9.20869 5.11932C8.90112 4.90985 8.51399 4.80511 8.04733 4.80511C7.71324 4.80511 7.42422 4.85814 7.18028 4.9642C6.93634 5.06761 6.74676 5.2108 6.61153 5.39375C6.47896 5.57405 6.41267 5.77955 6.41267 6.01023C6.41267 6.20379 6.45774 6.37083 6.5479 6.51136C6.6407 6.65189 6.76134 6.76989 6.90983 6.86534C7.06096 6.95814 7.22271 7.03636 7.39506 7.1C7.5674 7.16098 7.73312 7.21136 7.89221 7.25114L8.68767 7.45795C8.94752 7.52159 9.21399 7.60777 9.4871 7.71648C9.76021 7.82519 10.0134 7.96837 10.2468 8.14602C10.4801 8.32367 10.6684 8.54375 10.8115 8.80625C10.9574 9.06875 11.0303 9.38295 11.0303 9.74886C11.0303 10.2102 10.911 10.6199 10.6723 10.9778C10.4363 11.3358 10.093 11.6182 9.64221 11.825C9.19411 12.0318 8.65187 12.1352 8.01551 12.1352C7.40566 12.1352 6.87801 12.0384 6.43256 11.8449C5.9871 11.6513 5.63843 11.3769 5.38653 11.0216C5.13464 10.6636 4.99543 10.2394 4.96892 9.74886H6.20187C6.22574 10.0432 6.32119 10.2884 6.48824 10.4847C6.65793 10.6782 6.87403 10.8227 7.13653 10.9182C7.40168 11.011 7.69202 11.0574 8.00756 11.0574C8.3549 11.0574 8.66381 11.003 8.93426 10.8943C9.20737 10.783 9.42214 10.6292 9.57858 10.433C9.73502 10.2341 9.81324 10.0021 9.81324 9.73693C9.81324 9.49564 9.7443 9.29811 9.60642 9.14432C9.47119 8.99053 9.28691 8.86326 9.05358 8.7625C8.8229 8.66174 8.56172 8.57292 8.27006 8.49602L7.30756 8.23352C6.65528 8.05587 6.13824 7.7947 5.75642 7.45C5.37725 7.1053 5.18767 6.64924 5.18767 6.08182C5.18767 5.6125 5.31494 5.20284 5.56949 4.85284C5.82403 4.50284 6.16873 4.23106 6.60358 4.0375C7.03843 3.84129 7.52896 3.74318 8.07517 3.74318C8.62668 3.74318 9.11324 3.83996 9.53483 4.03352C9.95907 4.22708 10.2932 4.49356 10.5371 4.83295C10.781 5.1697 10.9083 5.55682 10.9189 5.99432H9.73369Z" fill="white"/>
</svg>
