<svg width="44" height="44" viewBox="0 0 44 44" fill="none" xmlns="http://www.w3.org/2000/svg">
    <g filter="url(#filter0_b_268_64782)">
        <rect width="44" height="44" rx="8" fill="#5271FF" fill-opacity="0.5"/>
        <path d="M29.5 21.5834C29.5029 22.6832 29.2459 23.7683 28.75 24.75C28.162 25.9265 27.2581 26.916 26.1395 27.6078C25.021 28.2995 23.7319 28.6662 22.4167 28.6667C21.3168 28.6696 20.2318 28.4126 19.25 27.9167L14.5 29.5L16.0833 24.75C15.5874 23.7683 15.3305 22.6832 15.3333 21.5834C15.3338 20.2682 15.7005 18.9791 16.3923 17.8605C17.084 16.7419 18.0735 15.838 19.25 15.25C20.2318 14.7541 21.3168 14.4972 22.4167 14.5H22.8333C24.5703 14.5959 26.2109 15.329 27.4409 16.5591C28.671 17.7892 29.4042 19.4297 29.5 21.1667V21.5834Z" stroke="white" stroke-width="1.67" stroke-linecap="round" stroke-linejoin="round"/>
    </g>
    <defs>
        <filter id="filter0_b_268_64782" x="-20" y="-20" width="84" height="84" filterUnits="userSpaceOnUse" color-interpolation-filters="sRGB">
            <feFlood flood-opacity="0" result="BackgroundImageFix"/>
            <feGaussianBlur in="BackgroundImageFix" stdDeviation="10"/>
            <feComposite in2="SourceAlpha" operator="in" result="effect1_backgroundBlur_268_64782"/>
            <feBlend mode="normal" in="SourceGraphic" in2="effect1_backgroundBlur_268_64782" result="shape"/>
        </filter>
    </defs>
</svg>
