<svg width="44" height="44" viewBox="0 0 44 44" fill="none" xmlns="http://www.w3.org/2000/svg">
    <rect width="44" height="44" rx="8" fill="#202430"/>
    <path d="M29.5 21.5833C29.5029 22.6832 29.2459 23.7682 28.75 24.75C28.162 25.9265 27.2581 26.916 26.1395 27.6077C25.021 28.2995 23.7319 28.6662 22.4167 28.6667C21.3168 28.6695 20.2318 28.4126 19.25 27.9167L14.5 29.5L16.0833 24.75C15.5874 23.7682 15.3305 22.6832 15.3333 21.5833C15.3338 20.2681 15.7005 18.979 16.3923 17.8605C17.084 16.7419 18.0735 15.838 19.25 15.25C20.2318 14.7541 21.3168 14.4971 22.4167 14.5H22.8333C24.5703 14.5958 26.2109 15.329 27.4409 16.559C28.671 17.7891 29.4042 19.4297 29.5 21.1667V21.5833Z" stroke="#4A4E62" stroke-width="1.67" stroke-linecap="round" stroke-linejoin="round"/>
</svg>
