<svg width="16" height="16" viewBox="0 0 16 16" fill="none" xmlns="http://www.w3.org/2000/svg">
    <path d="M15.7818 5.09092V4.94546C15.7818 3.7091 12.5818 2.69092 8.58182 2.69092C4.58182 2.69092 1.38182 3.7091 1.38182 4.94546V5.09092V5.01819V6.9091C1.38182 7.34546 1.81818 7.7091 2.61818 8.14546C2.61818 8.14546 4.50909 9.3091 8.65454 9.3091C10.4 9.3091 12.0727 9.09092 13.7455 8.5091C15.0545 8.07274 15.8545 7.41819 15.8545 6.9091L15.7818 5.09092ZM3.2 4.58183C3.70909 3.85455 5.96364 3.34546 8.58182 3.34546C11.2 3.34546 13.5273 3.92728 14.0364 4.58183C14.1091 4.65455 14.1091 4.80001 14.1091 4.87274V5.16365C14.0364 5.09092 13.8909 5.01819 13.8182 4.94546C13.0182 4.36365 10.9818 4.07274 8.58182 4.07274C6.18182 4.07274 4.21818 4.36365 3.41818 4.94546C3.27273 5.01819 3.2 5.09092 3.05455 5.23637V4.87274C3.05455 4.80001 3.12727 4.65455 3.2 4.58183ZM14.4727 9.3091V11.2C14.4727 11.7091 13.6727 12.2909 12.3636 12.8C10.6909 13.3818 9.01818 13.6 7.27273 13.6C3.12727 13.4546 1.23636 12.3636 1.23636 12.3636C0.436364 11.9273 0 11.4909 0 11.1273V9.09092C0 8.72728 0.436364 8.29092 1.09091 7.92728V8.00001C1.09091 8.43637 1.6 8.87274 2.47273 9.3091C2.47273 9.3091 4.36364 10.3273 8.36364 10.4727C10.1091 10.5455 11.8545 10.2546 13.4545 9.67274C13.8182 9.52728 14.1091 9.38183 14.4727 9.3091Z" fill="#4A4E62"/>
</svg>
