<svg width="20" height="20" viewBox="0 0 20 20" fill="none" xmlns="http://www.w3.org/2000/svg">
<path d="M11.8129 3.51853C11.8139 2.49537 9.72756 1.66666 7.15693 1.66666C4.5863 1.66666 2.50186 2.49629 2.5 3.51853M2.5 3.51853C2.5 4.54169 4.58444 5.3704 7.15693 5.3704C9.72942 5.3704 11.8139 4.54169 11.8139 3.51853L11.8139 10.7037M2.5 3.51853V14.6297C2.50093 15.6528 4.58537 16.4816 7.15693 16.4816C8.40406 16.4816 9.5301 16.2843 10.3656 15.9667M2.50093 7.22225C2.50093 8.24541 4.58538 9.07413 7.15787 9.07413C9.73036 9.07413 11.8148 8.24541 11.8148 7.22225M10.4214 12.2455C9.58133 12.5742 8.42921 12.7779 7.15693 12.7779C4.58537 12.7779 2.50093 11.9492 2.50093 10.926M17.106 11.2205C18.7424 12.8474 18.7424 15.4863 17.106 17.1132C15.4696 18.74 12.8151 18.74 11.1787 17.1132C9.54221 15.4863 9.54221 12.8474 11.1787 11.2205C12.8151 9.59365 15.4696 9.59365 17.106 11.2205Z" stroke="#4A4E62" stroke-width="1.67" stroke-linecap="round" stroke-linejoin="round"/>
</svg>
