<svg width="20" height="20" viewBox="0 0 20 20" fill="none" xmlns="http://www.w3.org/2000/svg">
<g id="Coinflip">
<path id="Vector" d="M19.7273 6.36364V6.18182C19.7273 4.63637 15.7273 3.36364 10.7273 3.36364C5.72727 3.36364 1.72727 4.63637 1.72727 6.18182V6.36364V6.27273V8.63637C1.72727 9.18182 2.27273 9.63637 3.27273 10.1818C3.27273 10.1818 5.63636 11.6364 10.8182 11.6364C13 11.6364 15.0909 11.3636 17.1818 10.6364C18.8182 10.0909 19.8182 9.27273 19.8182 8.63637L19.7273 6.36364ZM4 5.72728C4.63636 4.81819 7.45455 4.18182 10.7273 4.18182C14 4.18182 16.9091 4.90909 17.5455 5.72728C17.6364 5.81819 17.6364 6 17.6364 6.09091V6.45455C17.5455 6.36364 17.3636 6.27273 17.2727 6.18182C16.2727 5.45455 13.7273 5.09091 10.7273 5.09091C7.72727 5.09091 5.27273 5.45455 4.27273 6.18182C4.09091 6.27273 4 6.36364 3.81818 6.54546V6.09091C3.81818 6 3.90909 5.81819 4 5.72728ZM18.0909 11.6364V14C18.0909 14.6364 17.0909 15.3636 15.4545 16C13.3636 16.7273 11.2727 17 9.09091 17C3.90909 16.8182 1.54545 15.4545 1.54545 15.4545C0.545455 14.9091 0 14.3636 0 13.9091V11.3636C0 10.9091 0.545455 10.3636 1.36364 9.90909V10C1.36364 10.5455 2 11.0909 3.09091 11.6364C3.09091 11.6364 5.45455 12.9091 10.4545 13.0909C12.6364 13.1818 14.8182 12.8182 16.8182 12.0909C17.2727 11.9091 17.6364 11.7273 18.0909 11.6364Z" fill="white"/>
</g>
</svg>
