<svg width="20" height="20" viewBox="0 0 20 20" fill="none" xmlns="http://www.w3.org/2000/svg">
<g clip-path="url(#clip0_352_9661)">
<path d="M4.16602 12.5H3.33268C2.89065 12.5 2.46673 12.3244 2.15417 12.0118C1.84161 11.6992 1.66602 11.2753 1.66602 10.8333V3.33329C1.66602 2.89127 1.84161 2.46734 2.15417 2.15478C2.46673 1.84222 2.89065 1.66663 3.33268 1.66663H10.8327C11.2747 1.66663 11.6986 1.84222 12.0112 2.15478C12.3238 2.46734 12.4993 2.89127 12.4993 3.33329V4.16663M9.16602 7.49996H16.666C17.5865 7.49996 18.3327 8.24615 18.3327 9.16663V16.6666C18.3327 17.5871 17.5865 18.3333 16.666 18.3333H9.16602C8.24554 18.3333 7.49935 17.5871 7.49935 16.6666V9.16663C7.49935 8.24615 8.24554 7.49996 9.16602 7.49996Z" stroke="#667085" stroke-width="1.66667" stroke-linecap="round" stroke-linejoin="round"/>
</g>
<defs>
<clipPath id="clip0_352_9661">
<rect width="20" height="20" fill="white"/>
</clipPath>
</defs>
</svg>
