<svg width="16" height="16" viewBox="0 0 16 16" fill="none" xmlns="http://www.w3.org/2000/svg">
<g id="copy" clip-path="url(#clip0_268_81389)">
<path id="Icon" d="M3.33301 9.99998H2.66634C2.31272 9.99998 1.97358 9.8595 1.72353 9.60946C1.47348 9.35941 1.33301 9.02027 1.33301 8.66665V2.66665C1.33301 2.31302 1.47348 1.97389 1.72353 1.72384C1.97358 1.47379 2.31272 1.33331 2.66634 1.33331H8.66634C9.01996 1.33331 9.3591 1.47379 9.60915 1.72384C9.8592 1.97389 9.99967 2.31302 9.99967 2.66665V3.33331M7.33301 5.99998H13.333C14.0694 5.99998 14.6663 6.59693 14.6663 7.33331V13.3333C14.6663 14.0697 14.0694 14.6666 13.333 14.6666H7.33301C6.59663 14.6666 5.99967 14.0697 5.99967 13.3333V7.33331C5.99967 6.59693 6.59663 5.99998 7.33301 5.99998Z" stroke="#41B196" stroke-width="1.33" stroke-linecap="round" stroke-linejoin="round"/>
</g>
<defs>
<clipPath id="clip0_268_81389">
<rect width="16" height="16" fill="white"/>
</clipPath>
</defs>
</svg>
