<svg width="20" height="20" viewBox="0 0 20 20" fill="none" xmlns="http://www.w3.org/2000/svg">
<g clip-path="url(#clip0_335_3462)">
<path d="M4.97625 1.78001L0 9.48125L4.225 17.7263L9.20125 10.025L4.97625 1.78001ZM2.48125 9.98876C2.08437 9.98876 1.7625 9.66688 1.7625 9.27C1.7625 8.87313 2.08437 8.55125 2.48125 8.55125C2.87812 8.55125 3.2 8.87313 3.2 9.27C3.2 9.66688 2.87812 9.98876 2.48125 9.98876ZM4.22188 13.4194C3.825 13.4194 3.50312 13.0975 3.50312 12.7006C3.50312 12.3038 3.825 11.9819 4.22188 11.9819C4.61875 11.9819 4.94063 12.3038 4.94063 12.7006C4.94063 13.0975 4.61875 13.4194 4.22188 13.4194ZM4.45813 6.96376C4.06125 6.96376 3.73937 6.64188 3.73937 6.245C3.73937 5.84813 4.06125 5.52626 4.45813 5.52626C4.855 5.52626 5.17688 5.84813 5.17688 6.245C5.17688 6.64188 4.855 6.96376 4.45813 6.96376ZM6.37125 10.5431C5.97438 10.5431 5.65312 10.2219 5.65312 9.825C5.65312 9.42813 5.97438 9.10625 6.37125 9.10625C6.76813 9.10625 7.09 9.42813 7.09 9.825C7.09 10.2219 6.76813 10.5438 6.37125 10.5438V10.5431ZM10.2356 10.6925L5.1625 18.5438L14.7713 19.0256L19.8444 11.1738L10.2356 10.6925ZM9.71375 17.2788C9.31687 17.2788 8.99562 16.9569 8.99562 16.5606C8.99562 16.1644 9.3175 15.8425 9.71375 15.8425C10.1106 15.8425 10.4319 16.1644 10.4319 16.5606C10.4319 16.9569 10.11 17.2788 9.71375 17.2788ZM15.47 14.1375C15.0731 14.1375 14.7519 13.8156 14.7519 13.4194C14.7519 13.0231 15.0738 12.7013 15.47 12.7013C15.8669 12.7013 16.1881 13.0231 16.1881 13.4194C16.1881 13.8156 15.8663 14.1375 15.47 14.1375ZM15.6512 1.46063L5.94812 0.97438L10.2969 9.46251L20 9.94813L15.6512 1.46063ZM13.35 6.23188C12.9531 6.23188 12.6312 5.91001 12.6312 5.51313C12.6312 5.11626 12.9531 4.79438 13.35 4.79438C13.7469 4.79438 14.0688 5.11626 14.0688 5.51313C14.0688 5.91001 13.7469 6.23188 13.35 6.23188Z" fill="#4A4E62"/>
</g>
<defs>
<clipPath id="clip0_335_3462">
<rect width="20" height="20" fill="white"/>
</clipPath>
</defs>
</svg>
