<svg width="16" height="16" viewBox="0 0 16 16" fill="none" xmlns="http://www.w3.org/2000/svg">
    <g clip-path="url(#clip0_268_86720)">
        <path d="M3.981 1.42404L0 7.58504L3.38 14.181L7.361 8.02004L3.981 1.42404ZM1.985 7.99104C1.6675 7.99104 1.41 7.73354 1.41 7.41604C1.41 7.09854 1.6675 6.84104 1.985 6.84104C2.3025 6.84104 2.56 7.09854 2.56 7.41604C2.56 7.73354 2.3025 7.99104 1.985 7.99104ZM3.3775 10.7355C3.06 10.7355 2.8025 10.478 2.8025 10.1605C2.8025 9.84304 3.06 9.58554 3.3775 9.58554C3.695 9.58554 3.9525 9.84304 3.9525 10.1605C3.9525 10.478 3.695 10.7355 3.3775 10.7355ZM3.5665 5.57104C3.249 5.57104 2.9915 5.31354 2.9915 4.99604C2.9915 4.67854 3.249 4.42104 3.5665 4.42104C3.884 4.42104 4.1415 4.67854 4.1415 4.99604C4.1415 5.31354 3.884 5.57104 3.5665 5.57104ZM5.097 8.43454C4.7795 8.43454 4.5225 8.17754 4.5225 7.86004C4.5225 7.54254 4.7795 7.28504 5.097 7.28504C5.4145 7.28504 5.672 7.54254 5.672 7.86004C5.672 8.17754 5.4145 8.43504 5.097 8.43504V8.43454ZM8.1885 8.55404L4.13 14.835L11.817 15.2205L15.8755 8.93904L8.1885 8.55404ZM7.771 13.823C7.4535 13.823 7.1965 13.5655 7.1965 13.2485C7.1965 12.9315 7.454 12.674 7.771 12.674C8.0885 12.674 8.3455 12.9315 8.3455 13.2485C8.3455 13.5655 8.088 13.823 7.771 13.823ZM12.376 11.31C12.0585 11.31 11.8015 11.0525 11.8015 10.7355C11.8015 10.4185 12.059 10.161 12.376 10.161C12.6935 10.161 12.9505 10.4185 12.9505 10.7355C12.9505 11.0525 12.693 11.31 12.376 11.31ZM12.521 1.16854L4.7585 0.779541L8.2375 7.57004L16 7.95854L12.521 1.16854ZM10.68 4.98554C10.3625 4.98554 10.105 4.72804 10.105 4.41054C10.105 4.09304 10.3625 3.83554 10.68 3.83554C10.9975 3.83554 11.255 4.09304 11.255 4.41054C11.255 4.72804 10.9975 4.98554 10.68 4.98554Z" fill="#4A4E62"/>
    </g>
    <defs>
        <clipPath id="clip0_268_86720">
            <rect width="16" height="16" fill="white"/>
        </clipPath>
    </defs>
</svg>
