<svg width="20" height="20" viewBox="0 0 20 20" fill="none" xmlns="http://www.w3.org/2000/svg">
<path d="M11.6673 1.66666H5.00065C4.55862 1.66666 4.1347 1.84226 3.82214 2.15482C3.50958 2.46738 3.33398 2.8913 3.33398 3.33333V16.6667C3.33398 17.1087 3.50958 17.5326 3.82214 17.8452C4.1347 18.1577 4.55862 18.3333 5.00065 18.3333H15.0007C15.4427 18.3333 15.8666 18.1577 16.1792 17.8452C16.4917 17.5326 16.6673 17.1087 16.6673 16.6667V6.66666M11.6673 1.66666L16.6673 6.66666M11.6673 1.66666V6.66666H16.6673M13.334 10.8333H6.66732M13.334 14.1667H6.66732M8.33398 7.5H6.66732" stroke="white" stroke-width="1.67" stroke-linecap="round" stroke-linejoin="round"/>
</svg>
