<svg width="16" height="16" viewBox="0 0 16 16" fill="none" xmlns="http://www.w3.org/2000/svg">
<rect width="16" height="16" rx="8" fill="#12A87A"/>
<path d="M7.69286 13.0182V2.83636H8.34514V13.0182H7.69286ZM9.7332 5.99432C9.69078 5.6178 9.51578 5.32614 9.2082 5.11932C8.90063 4.90985 8.51351 4.80511 8.04684 4.80511C7.71275 4.80511 7.42373 4.85814 7.17979 4.9642C6.93585 5.06761 6.74627 5.2108 6.61104 5.39375C6.47847 5.57405 6.41218 5.77955 6.41218 6.01023C6.41218 6.20379 6.45726 6.37083 6.54741 6.51136C6.64021 6.65189 6.76085 6.76989 6.90934 6.86534C7.06048 6.95814 7.22222 7.03636 7.39457 7.1C7.56692 7.16098 7.73264 7.21136 7.89173 7.25114L8.68718 7.45795C8.94703 7.52159 9.21351 7.60777 9.48661 7.71648C9.75972 7.82519 10.0129 7.96837 10.2463 8.14602C10.4796 8.32367 10.6679 8.54375 10.811 8.80625C10.9569 9.06875 11.0298 9.38295 11.0298 9.74886C11.0298 10.2102 10.9105 10.6199 10.6718 10.9778C10.4359 11.3358 10.0925 11.6182 9.64173 11.825C9.19362 12.0318 8.65139 12.1352 8.01502 12.1352C7.40517 12.1352 6.87752 12.0384 6.43207 11.8449C5.98661 11.6513 5.63794 11.3769 5.38604 11.0216C5.13415 10.6636 4.99495 10.2394 4.96843 9.74886H6.20139C6.22525 10.0432 6.3207 10.2884 6.48775 10.4847C6.65745 10.6782 6.87354 10.8227 7.13604 10.9182C7.4012 11.011 7.69154 11.0574 8.00707 11.0574C8.35442 11.0574 8.66332 11.003 8.93377 10.8943C9.20688 10.783 9.42165 10.6292 9.57809 10.433C9.73453 10.2341 9.81275 10.0021 9.81275 9.73693C9.81275 9.49564 9.74381 9.29811 9.60593 9.14432C9.4707 8.99053 9.28642 8.86326 9.05309 8.7625C8.82241 8.66174 8.56123 8.57292 8.26957 8.49602L7.30707 8.23352C6.65479 8.05587 6.13775 7.7947 5.75593 7.45C5.37676 7.1053 5.18718 6.64924 5.18718 6.08182C5.18718 5.6125 5.31445 5.20284 5.569 4.85284C5.82354 4.50284 6.16824 4.23106 6.60309 4.0375C7.03794 3.84129 7.52847 3.74318 8.07468 3.74318C8.6262 3.74318 9.11275 3.83996 9.53434 4.03352C9.95858 4.22708 10.2927 4.49356 10.5366 4.83295C10.7806 5.1697 10.9078 5.55682 10.9184 5.99432H9.7332Z" fill="white"/>
</svg>
