<svg width="56" height="56" viewBox="0 0 56 56" fill="none" xmlns="http://www.w3.org/2000/svg">
<rect x="4" y="4" width="48" height="48" rx="24" fill="#263475"/>
<path d="M24.5 27V30M23 28.5L26 28.5" stroke="#718BFF" stroke-width="2" stroke-linecap="round" stroke-linejoin="round"/>
<path d="M36.8349 28.8603L35.8625 29.0939V29.0939L36.8349 28.8603ZM37.9197 33.3766L38.8921 33.1431L37.9197 33.3766ZM32.2434 35.3466L33.1366 34.897L33.1366 34.897L32.2434 35.3466ZM32.1154 35.0923L31.2221 35.5418V35.5418L32.1154 35.0923ZM19.1651 28.8603L20.1375 29.0939L19.1651 28.8603ZM18.0803 33.3766L17.1079 33.1431L18.0803 33.3766ZM23.7566 35.3466L22.8634 34.897L22.8634 34.897L23.7566 35.3466ZM23.8846 35.0923L24.7779 35.5418L24.7779 35.5418L23.8846 35.0923ZM20.3441 36.9225L20.5656 35.9473H20.5656L20.3441 36.9225ZM35.6559 36.9225L35.4344 35.9473L35.6559 36.9225ZM35.0453 24.1937L34.3518 24.9142L34.3518 24.9142L35.0453 24.1937ZM34.3198 23.6337L33.7978 24.4867L33.7978 24.4867L34.3198 23.6337ZM20.9547 24.1937L20.2613 23.4732L20.2613 23.4732L20.9547 24.1937ZM21.6802 23.6337L22.2022 24.4867L22.2022 24.4867L21.6802 23.6337ZM35.8625 29.0939L36.9474 33.6102L38.8921 33.1431L37.8072 28.6268L35.8625 29.0939ZM33.1366 34.897L33.0086 34.6427L31.2221 35.5418L31.3501 35.7962L33.1366 34.897ZM29.0636 32.2399H26.9364V34.2399H29.0636V32.2399ZM18.1928 28.6268L17.1079 33.1431L19.0526 33.6102L20.1375 29.0939L18.1928 28.6268ZM24.6499 35.7962L24.7779 35.5418L22.9914 34.6427L22.8634 34.897L24.6499 35.7962ZM26.7568 24H29.2432V22H26.7568V24ZM20.1227 37.8977C21.9335 38.3089 23.8158 37.4535 24.6499 35.7962L22.8634 34.897C22.4546 35.7092 21.5065 36.161 20.5656 35.9473L20.1227 37.8977ZM17.1079 33.1431C16.591 35.295 17.9708 37.409 20.1227 37.8977L20.5656 35.9473C19.4545 35.695 18.8068 34.6335 19.0526 33.6102L17.1079 33.1431ZM26.9364 32.2399C25.272 32.2399 23.7365 33.1622 22.9914 34.6427L24.7779 35.5418C25.1739 34.755 26.0065 34.2399 26.9364 34.2399V32.2399ZM33.0086 34.6427C32.2635 33.1622 30.728 32.2399 29.0636 32.2399V34.2399C29.9935 34.2399 30.8261 34.755 31.2221 35.5418L33.0086 34.6427ZM35.4344 35.9473C34.4935 36.161 33.5454 35.7092 33.1366 34.897L31.3501 35.7962C32.1842 37.4535 34.0665 38.3089 35.8773 37.8977L35.4344 35.9473ZM36.9474 33.6102C37.1932 34.6335 36.5455 35.695 35.4344 35.9473L35.8773 37.8977C38.0292 37.409 39.409 35.295 38.8921 33.1431L36.9474 33.6102ZM37.8072 28.6268C37.5055 27.3705 37.2626 26.354 36.9793 25.551C36.6888 24.7274 36.3275 24.0399 35.7387 23.4732L34.3518 24.9142C34.6328 25.1847 34.8596 25.554 35.0932 26.2162C35.334 26.899 35.5511 27.7972 35.8625 29.0939L37.8072 28.6268ZM29.2432 24C30.61 24 31.5626 24.0011 32.3052 24.0744C33.0288 24.1458 33.4581 24.2788 33.7978 24.4867L34.8417 22.7807C34.1458 22.3549 33.3838 22.1711 32.5015 22.084C31.6381 21.9989 30.5703 22 29.2432 22V24ZM35.7387 23.4732C35.4661 23.2108 35.1652 22.9787 34.8417 22.7807L33.7978 24.4867C33.9985 24.6094 34.1842 24.7529 34.3518 24.9142L35.7387 23.4732ZM20.1375 29.0939C20.4489 27.7972 20.666 26.899 20.9068 26.2162C21.1404 25.554 21.3672 25.1847 21.6482 24.9142L20.2613 23.4732C19.6725 24.0399 19.3112 24.7274 19.0207 25.551C18.7374 26.354 18.4945 27.3705 18.1928 28.6268L20.1375 29.0939ZM26.7568 22C25.4297 22 24.3619 21.9989 23.4985 22.084C22.6162 22.1711 21.8542 22.3549 21.1583 22.7807L22.2022 24.4867C22.5419 24.2788 22.9712 24.1458 23.6948 24.0744C24.4374 24.0011 25.39 24 26.7568 24V22ZM21.6482 24.9142C21.8158 24.7529 22.0015 24.6094 22.2022 24.4867L21.1583 22.7807C20.8348 22.9787 20.5339 23.2108 20.2613 23.4732L21.6482 24.9142Z" fill="#718BFF"/>
<path d="M28 23V22C28 21.4477 28.4477 21 29 21H30C30.5523 21 31 20.5523 31 20V19" stroke="#718BFF" stroke-width="2" stroke-linecap="round" stroke-linejoin="round"/>
<path d="M32 27C32 27.5523 31.5523 28 31 28C30.4477 28 30 27.5523 30 27C30 26.4477 30.4477 26 31 26C31.5523 26 32 26.4477 32 27Z" fill="#718BFF"/>
<path d="M34 30C34 30.5523 33.5523 31 33 31C32.4477 31 32 30.5523 32 30C32 29.4477 32.4477 29 33 29C33.5523 29 34 29.4477 34 30Z" fill="#718BFF"/>
<rect x="4" y="4" width="48" height="48" rx="24" stroke="#202843" stroke-width="8"/>
</svg>
