<svg width="100" height="92" viewBox="0 0 100 92" fill="none" xmlns="http://www.w3.org/2000/svg">
<g id="Group">
<path id="Vector" d="M24.8813 4.90003L0 43.4063L21.125 84.6313L46.0062 46.125L24.8813 4.90003ZM12.4062 45.9438C10.4219 45.9438 8.8125 44.3344 8.8125 42.35C8.8125 40.3657 10.4219 38.7563 12.4062 38.7563C14.3906 38.7563 16 40.3657 16 42.35C16 44.3344 14.3906 45.9438 12.4062 45.9438ZM21.1094 63.0969C19.125 63.0969 17.5156 61.4875 17.5156 59.5031C17.5156 57.5188 19.125 55.9094 21.1094 55.9094C23.0938 55.9094 24.7031 57.5188 24.7031 59.5031C24.7031 61.4875 23.0938 63.0969 21.1094 63.0969ZM22.2906 30.8188C20.3062 30.8188 18.6969 29.2094 18.6969 27.225C18.6969 25.2407 20.3062 23.6313 22.2906 23.6313C24.275 23.6313 25.8844 25.2407 25.8844 27.225C25.8844 29.2094 24.275 30.8188 22.2906 30.8188ZM31.8563 48.7156C29.8719 48.7156 28.2656 47.1094 28.2656 45.125C28.2656 43.1407 29.8719 41.5313 31.8563 41.5313C33.8406 41.5313 35.45 43.1407 35.45 45.125C35.45 47.1094 33.8406 48.7188 31.8563 48.7188V48.7156ZM51.1781 49.4625L25.8125 88.7188L73.8563 91.1281L99.2219 51.8688L51.1781 49.4625ZM48.5687 82.3938C46.5844 82.3938 44.9781 80.7844 44.9781 78.8031C44.9781 76.8219 46.5875 75.2125 48.5687 75.2125C50.5531 75.2125 52.1594 76.8219 52.1594 78.8031C52.1594 80.7844 50.55 82.3938 48.5687 82.3938ZM77.35 66.6875C75.3656 66.6875 73.7594 65.0781 73.7594 63.0969C73.7594 61.1157 75.3688 59.5063 77.35 59.5063C79.3344 59.5063 80.9406 61.1157 80.9406 63.0969C80.9406 65.0781 79.3313 66.6875 77.35 66.6875ZM78.2562 3.30315L29.7406 0.871902L51.4844 43.3125L100 45.7407L78.2562 3.30315ZM66.75 27.1594C64.7656 27.1594 63.1562 25.55 63.1562 23.5657C63.1562 21.5813 64.7656 19.9719 66.75 19.9719C68.7344 19.9719 70.3438 21.5813 70.3438 23.5657C70.3438 25.55 68.7344 27.1594 66.75 27.1594Z" fill="#202430"/>
</g>
</svg>
