<svg width="20" height="20" viewBox="0 0 20 20" fill="none" xmlns="http://www.w3.org/2000/svg">
<g clip-path="url(#clip0_268_98141)">
<path d="M7.57435 7.5C7.77027 6.94305 8.15698 6.47342 8.66598 6.17428C9.17498 5.87513 9.77343 5.76578 10.3553 5.86559C10.9372 5.9654 11.465 6.26793 11.8452 6.7196C12.2255 7.17127 12.4336 7.74293 12.4327 8.33333C12.4327 10 9.93268 10.8333 9.93268 10.8333M9.99935 14.1667H10.0077M18.3327 10C18.3327 14.6024 14.6017 18.3333 9.99935 18.3333C5.39698 18.3333 1.66602 14.6024 1.66602 10C1.66602 5.39762 5.39698 1.66666 9.99935 1.66666C14.6017 1.66666 18.3327 5.39762 18.3327 10Z" stroke="white" stroke-width="1.67" stroke-linecap="round" stroke-linejoin="round"/>
</g>
<defs>
<clipPath id="clip0_268_98141">
<rect width="20" height="20" fill="white"/>
</clipPath>
</defs>
</svg>
