<svg width="16" height="16" viewBox="0 0 16 16" fill="none" xmlns="http://www.w3.org/2000/svg">
    <g clip-path="url(#clip0_268_86715)">
        <path d="M11.9948 9.629C11.6893 9.629 11.3933 9.6725 11.1138 9.753L8.51581 4.0585H10.8823C12.2798 4.0585 13.4123 2.926 13.4123 1.5285V0H10.4483C9.05081 0 7.91831 1.1325 7.91831 2.53V2.9635C7.91831 1.9625 7.10681 1.151 6.10581 1.151H3.84931V2.246C3.84931 3.247 4.66081 4.0585 5.66181 4.0585H7.48481L4.88781 9.753C4.62431 9.6745 4.32181 9.629 4.00881 9.629C4.00781 9.629 4.00731 9.629 4.00631 9.629C2.24931 9.629 0.820312 11.058 0.820312 12.8145C0.820312 14.571 2.24931 16 4.00581 16C5.76231 16 7.19131 14.571 7.19131 12.8145C7.19131 11.697 6.61281 10.712 5.73931 10.143L7.99981 5.1875L10.2603 10.143C9.38131 10.7195 8.80881 11.7 8.80831 12.814C8.80831 14.57 10.2373 15.9995 11.9938 15.9995C13.7503 15.9995 15.1793 14.5705 15.1793 12.814C15.1793 11.0575 13.7503 9.6285 11.9938 9.6285L11.9948 9.629Z" fill="#4A4E62"/>
    </g>
    <defs>
        <clipPath id="clip0_268_86715">
            <rect width="16" height="16" fill="white"/>
        </clipPath>
    </defs>
</svg>
