<svg width="44" height="44" viewBox="0 0 44 44" fill="none" xmlns="http://www.w3.org/2000/svg">
    <rect width="44" height="44" rx="8" fill="#202843"/>
    <path d="M26.993 24.0362C26.6112 24.0362 26.2412 24.0906 25.8918 24.1912L22.6443 17.0731H25.6024C27.3493 17.0731 28.7649 15.6575 28.7649 13.9106V12H25.0599C23.313 12 21.8974 13.4156 21.8974 15.1625V15.7044C21.8974 14.4531 20.883 13.4388 19.6318 13.4388H16.8112V14.8075C16.8112 16.0588 17.8255 17.0731 19.0768 17.0731H21.3555L18.1093 24.1912C17.7799 24.0931 17.4018 24.0362 17.0105 24.0362C17.0093 24.0362 17.0087 24.0362 17.0074 24.0362C14.8112 24.0362 13.0249 25.8225 13.0249 28.0181C13.0249 30.2137 14.8112 32 17.0068 32C19.2024 32 20.9887 30.2137 20.9887 28.0181C20.9887 26.6213 20.2655 25.39 19.1737 24.6787L21.9993 18.4844L24.8249 24.6787C23.7262 25.3994 23.0105 26.625 23.0099 28.0175C23.0099 30.2125 24.7962 31.9994 26.9918 31.9994C29.1874 31.9994 30.9737 30.2131 30.9737 28.0175C30.9737 25.8219 29.1874 24.0356 26.9918 24.0356L26.993 24.0362Z" fill="#5271FF"/>
</svg>
