<svg width="32" height="32" viewBox="0 0 32 32" fill="none" xmlns="http://www.w3.org/2000/svg">
<rect width="32" height="32" rx="8" fill="url(#paint0_linear_335_3574)"/>
<rect x="0.5" y="0.5" width="31" height="31" rx="7.5" stroke="url(#paint1_linear_335_3574)" stroke-opacity="0.15"/>
<path d="M19.6189 5.83691C19.0739 6.10943 18.1541 6.75666 17.6091 7.33577L16.6553 8.35771H18.1201C18.9376 8.32365 20.0958 8.42584 20.6749 8.5621C21.5947 8.76649 21.765 8.69836 21.9694 8.01706C22.0716 7.57422 22.1738 6.82479 22.1738 6.27976C22.1738 5.53033 22.0375 5.36 21.4244 5.36C20.9815 5.39407 20.198 5.59846 19.6189 5.83691Z" fill="white"/>
<path d="M16.1446 9.10714C12.9084 9.78844 9.16131 11.8323 7.25368 14.0465C5.99328 15.4432 5.95921 15.6476 6.77677 16.3289C7.38994 16.908 10.9327 17.3849 10.9327 16.908C10.9327 16.7377 11.2393 16.6014 11.614 16.6014C11.9887 16.6014 12.2953 16.4311 12.2953 16.2267C12.2953 16.0223 12.5337 15.9201 12.8063 16.0564C13.0788 16.1586 13.3172 16.0904 13.3172 15.9201C13.3172 15.7157 13.6579 15.5795 14.0326 15.5795C14.7139 15.5795 14.6798 15.6476 13.726 16.6014C13.1128 17.1465 12.4997 17.6234 12.2953 17.6234C11.8524 17.6234 11.8524 18.2025 12.2612 18.475C12.4656 18.5772 13.8282 18.2365 15.3611 17.7256C17.405 17.0443 18.2566 16.908 18.6654 17.1465C19.7555 17.8277 19.9599 18.509 19.5511 20.4167C19.3467 21.4046 19.2104 22.2562 19.2445 22.3243C19.3126 22.3584 19.9599 21.9496 20.7434 21.3705C22.4466 20.1442 23.8092 17.8959 24.0817 15.8179C24.3542 13.9444 24.0817 13.8422 22.0719 14.8982C20.9478 15.5113 20.6071 15.5454 19.4489 15.2048C18.6995 14.9663 18.0863 14.6597 18.0863 14.4894C18.0863 13.8762 20.6071 13.1268 22.2422 13.2631C23.8773 13.3652 23.9114 13.3312 23.707 12.5136C23.0598 9.9247 19.6533 8.39178 16.1446 9.10714ZM13.9304 12.4796C13.5897 13.0246 11.3755 13.6718 11.0008 13.3312C10.7964 13.1949 13.4194 11.8664 13.9304 11.8323C14.237 11.8323 14.271 11.9686 13.9304 12.4796Z" fill="white"/>
<path d="M17.6778 20.9958C16.8943 21.4386 16.6218 21.4727 16.0427 21.098C15.6679 20.8936 14.8163 20.6892 14.135 20.6892H12.9087L13.9306 21.643C14.9866 22.6309 15.8723 25.0836 15.5998 26.1736C15.3614 27.0593 16.1449 26.6165 16.8262 25.4923C17.1327 24.9473 17.4053 24.266 17.4053 23.9594C17.4053 23.6869 17.7459 22.8012 18.1206 22.0518C18.5294 21.2683 18.8019 20.6211 18.7338 20.5529C18.6657 20.5189 18.1887 20.6892 17.6778 20.9958Z" fill="white"/>
<defs>
<linearGradient id="paint0_linear_335_3574" x1="16" y1="0" x2="16" y2="32" gradientUnits="userSpaceOnUse">
<stop stop-color="#617DFF"/>
<stop offset="1" stop-color="#5271FF"/>
</linearGradient>
<linearGradient id="paint1_linear_335_3574" x1="16" y1="0" x2="16" y2="32" gradientUnits="userSpaceOnUse">
<stop stop-color="white"/>
<stop offset="1" stop-color="white" stop-opacity="0"/>
</linearGradient>
</defs>
</svg>
