<svg width="978" height="407" viewBox="0 0 978 407" fill="none" xmlns="http://www.w3.org/2000/svg">
<g clip-path="url(#clip0_268_70384)">
<rect x="0.903882" y="-1.15056" width="81.3494" height="81.3494" rx="13.5582" stroke="white" stroke-opacity="0.05" stroke-width="1.80776"/>
<rect x="81.3494" y="-2.05447" width="83.1571" height="83.1571" rx="14.4621" fill="white" fill-opacity="0.03"/>
<g clip-path="url(#clip1_268_70384)">
<path d="M131.954 43.2052C131.264 43.2052 130.595 43.3034 129.964 43.4854L124.093 30.6175H129.44C132.598 30.6175 135.158 28.0584 135.158 24.9004V21.4465H128.46C125.302 21.4465 122.743 24.0056 122.743 27.1635V28.1431C122.743 25.8811 120.909 24.0474 118.647 24.0474H113.548V26.5218C113.548 28.7837 115.382 30.6175 117.644 30.6175H121.763L115.895 43.4854C115.299 43.308 114.616 43.2052 113.908 43.2052C113.906 43.2052 113.905 43.2052 113.903 43.2052C109.932 43.2052 106.703 46.4343 106.703 50.4034C106.703 54.3726 109.932 57.6017 113.902 57.6017C117.871 57.6017 121.1 54.3726 121.1 50.4034C121.1 47.8782 119.793 45.6524 117.819 44.3666L122.927 33.1687L128.035 44.3666C126.049 45.6694 124.755 47.885 124.754 50.4023C124.754 54.3704 127.983 57.6006 131.952 57.6006C135.921 57.6006 139.15 54.3715 139.15 50.4023C139.15 46.4331 135.921 43.204 131.952 43.204L131.954 43.2052Z" fill="white" fill-opacity="0.03"/>
</g>
<rect x="163.603" y="-1.15059" width="81.3494" height="81.3494" rx="13.5582" stroke="white" stroke-opacity="0.05" stroke-width="1.80776"/>
<rect x="244.048" y="-2.05447" width="83.1571" height="83.1571" rx="14.4621" fill="white" fill-opacity="0.03"/>
<g clip-path="url(#clip2_268_70384)">
<path d="M276.545 24.6643L267.549 38.5863L275.187 53.4913L284.183 39.5693L276.545 24.6643ZM272.035 39.5038C271.317 39.5038 270.735 38.9219 270.735 38.2044C270.735 37.487 271.317 36.9051 272.035 36.9051C272.752 36.9051 273.334 37.487 273.334 38.2044C273.334 38.9219 272.752 39.5038 272.035 39.5038ZM275.181 45.7055C274.464 45.7055 273.882 45.1236 273.882 44.4062C273.882 43.6887 274.464 43.1069 275.181 43.1069C275.899 43.1069 276.48 43.6887 276.48 44.4062C276.48 45.1236 275.899 45.7055 275.181 45.7055ZM275.608 34.0353C274.891 34.0353 274.309 33.4534 274.309 32.7359C274.309 32.0185 274.891 31.4366 275.608 31.4366C276.326 31.4366 276.908 32.0185 276.908 32.7359C276.908 33.4534 276.326 34.0353 275.608 34.0353ZM279.067 40.5059C278.349 40.5059 277.769 39.9252 277.769 39.2077C277.769 38.4903 278.349 37.9084 279.067 37.9084C279.784 37.9084 280.366 38.4903 280.366 39.2077C280.366 39.9252 279.784 40.5071 279.067 40.5071V40.5059ZM286.053 40.776L276.882 54.9692L294.252 55.8403L303.423 41.646L286.053 40.776ZM285.109 52.6824C284.392 52.6824 283.811 52.1005 283.811 51.3842C283.811 50.6678 284.393 50.086 285.109 50.086C285.827 50.086 286.407 50.6678 286.407 51.3842C286.407 52.1005 285.826 52.6824 285.109 52.6824ZM295.515 47.0037C294.798 47.0037 294.217 46.4218 294.217 45.7055C294.217 44.9892 294.799 44.4073 295.515 44.4073C296.233 44.4073 296.813 44.9892 296.813 45.7055C296.813 46.4218 296.231 47.0037 295.515 47.0037ZM295.843 24.0869L278.302 23.2079L286.163 38.5524L303.704 39.4303L295.843 24.0869ZM291.683 32.7122C290.965 32.7122 290.383 32.1303 290.383 31.4129C290.383 30.6954 290.965 30.1136 291.683 30.1136C292.4 30.1136 292.982 30.6954 292.982 31.4129C292.982 32.1303 292.4 32.7122 291.683 32.7122Z" fill="white" fill-opacity="0.03"/>
</g>
<rect x="326.301" y="-1.15059" width="81.3494" height="81.3494" rx="13.5582" stroke="white" stroke-opacity="0.05" stroke-width="1.80776"/>
<rect x="406.747" y="-2.05447" width="83.1571" height="83.1571" rx="14.4621" fill="white" fill-opacity="0.03"/>
<g clip-path="url(#clip3_268_70384)">
<path d="M465.91 32.9504V32.6217C465.91 29.8279 458.679 27.5271 449.64 27.5271C440.601 27.5271 433.37 29.8279 433.37 32.6217V32.9504V32.7861V37.059C433.37 38.045 434.356 38.8667 436.164 39.8528C436.164 39.8528 440.437 42.4822 449.804 42.4822C453.749 42.4822 457.529 41.9892 461.308 40.6745C464.267 39.6884 466.074 38.2093 466.074 37.059L465.91 32.9504ZM437.479 31.8C438.629 30.1566 443.724 29.0062 449.64 29.0062C455.556 29.0062 460.815 30.3209 461.966 31.8C462.13 31.9643 462.13 32.293 462.13 32.4574V33.1147C461.966 32.9504 461.637 32.7861 461.473 32.6217C459.665 31.307 455.063 30.6496 449.64 30.6496C444.217 30.6496 439.78 31.307 437.972 32.6217C437.643 32.7861 437.479 32.9504 437.15 33.2791V32.4574C437.15 32.293 437.314 31.9643 437.479 31.8ZM462.952 42.4822V46.7551C462.952 47.9055 461.144 49.2203 458.186 50.3707C454.406 51.6854 450.626 52.1784 446.682 52.1784C437.314 51.8497 433.042 49.3846 433.042 49.3846C431.234 48.3986 430.248 47.4125 430.248 46.5908V41.9892C430.248 41.1675 431.234 40.1815 432.713 39.3597V39.5241C432.713 40.5101 433.863 41.4962 435.835 42.4822C435.835 42.4822 440.108 44.783 449.147 45.1117C453.091 45.2761 457.036 44.6187 460.651 43.304C461.473 42.9753 462.13 42.6466 462.952 42.4822Z" fill="white" fill-opacity="0.03"/>
</g>
<rect x="489" y="-1.15059" width="81.3494" height="81.3494" rx="13.5582" stroke="white" stroke-opacity="0.05" stroke-width="1.80776"/>
<rect x="569.446" y="-2.05447" width="83.1571" height="83.1571" rx="14.4621" fill="white" fill-opacity="0.03"/>
<path d="M618.969 19.9875C617.984 20.4802 616.321 21.6502 615.336 22.6971L613.611 24.5446H616.259C617.737 24.483 619.831 24.6677 620.878 24.914C622.541 25.2835 622.849 25.1604 623.218 23.9287C623.403 23.1282 623.588 21.7734 623.588 20.7881C623.588 19.4333 623.341 19.1254 622.233 19.1254C621.432 19.187 620.016 19.5565 618.969 19.9875Z" fill="white" fill-opacity="0.03"/>
<path d="M612.688 25.8993C606.838 27.131 600.064 30.8258 596.615 34.8286C594.337 37.3535 594.275 37.7229 595.753 38.9546C596.862 40.0014 603.266 40.8636 603.266 40.0014C603.266 39.6935 603.82 39.4472 604.498 39.4472C605.175 39.4472 605.729 39.1393 605.729 38.7698C605.729 38.4003 606.16 38.2156 606.653 38.4619C607.146 38.6467 607.577 38.5235 607.577 38.2156C607.577 37.8461 608.193 37.5998 608.87 37.5998C610.102 37.5998 610.04 37.7229 608.316 39.4472C607.207 40.4325 606.099 41.2947 605.729 41.2947C604.929 41.2947 604.929 42.3415 605.668 42.8342C606.037 43.0189 608.501 42.4031 611.272 41.4794C614.967 40.2478 616.506 40.0014 617.245 40.4325C619.216 41.6641 619.585 42.8958 618.846 46.3443C618.477 48.1302 618.23 49.6697 618.292 49.7929C618.415 49.8544 619.585 49.1155 621.002 48.0686C624.081 45.8517 626.544 41.7873 627.036 38.0308C627.529 34.6439 627.036 34.4591 623.403 36.3682C621.371 37.4766 620.755 37.5382 618.661 36.9224C617.307 36.4913 616.198 35.9371 616.198 35.6292C616.198 34.5207 620.755 33.1659 623.711 33.4123C626.667 33.597 626.729 33.5354 626.359 32.0575C625.189 27.3773 619.031 24.6061 612.688 25.8993ZM608.685 31.9959C608.069 32.9812 604.067 34.1512 603.389 33.5354C603.02 33.2891 607.762 30.8874 608.685 30.8258C609.24 30.8258 609.301 31.0722 608.685 31.9959Z" fill="white" fill-opacity="0.03"/>
<path d="M615.459 47.3912C614.043 48.1918 613.55 48.2533 612.503 47.5759C611.826 47.2065 610.287 46.837 609.055 46.837H606.838L608.685 48.5612C610.594 50.3471 612.196 54.7809 611.703 56.7515C611.272 58.3527 612.688 57.5521 613.92 55.5199C614.474 54.5346 614.967 53.303 614.967 52.7488C614.967 52.2561 615.583 50.655 616.26 49.3002C616.999 47.8838 617.492 46.7138 617.368 46.5906C617.245 46.5291 616.383 46.837 615.459 47.3912Z" fill="white" fill-opacity="0.03"/>
<rect x="651.699" y="-1.15059" width="81.3494" height="81.3494" rx="13.5582" stroke="white" stroke-opacity="0.05" stroke-width="1.80776"/>
<rect x="732.144" y="-2.05447" width="83.1571" height="83.1571" rx="14.4621" fill="white" fill-opacity="0.03"/>
<g clip-path="url(#clip4_268_70384)">
<path d="M772.66 26.8231C771.357 26.9316 770.152 27.2197 769.027 27.6626L769.113 27.6321L767.684 24.6628C769.146 24.055 770.839 23.6482 772.612 23.5285L772.662 23.5262V26.822L772.66 26.8231ZM767.27 28.5202C766.181 29.163 765.245 29.9155 764.431 30.7832L764.424 30.79L761.846 28.7326C762.982 27.4829 764.3 26.4243 765.762 25.5904L765.84 25.5498L767.27 28.5202ZM763.151 32.3899C762.508 33.3322 761.97 34.418 761.594 35.5761L761.568 35.6665L758.352 34.9321C758.883 33.1797 759.64 31.651 760.605 30.2816L760.571 30.3324L763.151 32.3899ZM761.111 37.6618C761.028 38.2086 760.98 38.8402 760.98 39.482C760.98 40.1237 761.028 40.7553 761.12 41.3722L761.111 41.3022L757.899 42.0343C757.768 41.2638 757.692 40.3768 757.692 39.4718C757.692 38.5736 757.767 37.6912 757.909 36.8336L757.897 36.9263L761.111 37.6607V37.6618ZM761.566 43.2952C761.929 44.4511 762.458 45.5583 763.143 46.5763L760.563 48.6326C759.635 47.3119 758.88 45.7832 758.383 44.1426L758.353 44.0285L761.566 43.2964V43.2952ZM772.656 52.1476L772.654 55.4445C770.831 55.3259 769.137 54.918 767.568 54.265L767.674 54.3034L769.106 51.333C770.147 51.7499 771.352 52.0392 772.61 52.1442L772.656 52.1476ZM778.25 51.3386L779.679 54.3079C778.216 54.9158 776.52 55.3225 774.745 55.4411L774.697 55.4434L774.699 52.1476C776.003 52.0392 777.209 51.751 778.337 51.3081L778.25 51.3386ZM782.939 48.1841L785.517 50.2427C784.38 51.4923 783.061 52.551 781.598 53.3825L781.52 53.4232L780.092 50.4528C781.181 49.81 782.118 49.0575 782.933 48.1897L782.939 48.183V48.1841ZM785.796 43.3088L789.013 44.0443C788.481 45.7967 787.724 47.3231 786.758 48.6937L786.792 48.6428L784.213 46.5854C784.892 45.5753 785.429 44.4691 785.796 43.3088ZM786.256 37.6731L789.469 36.9432C789.601 37.7126 789.676 38.5984 789.676 39.5023C789.676 40.4017 789.602 41.2841 789.459 42.1439L789.472 42.0513L786.256 41.3157C786.34 40.7689 786.387 40.1373 786.387 39.4944C786.387 38.8515 786.34 38.2211 786.248 37.6042L786.257 37.6742L786.256 37.6731ZM784.229 32.3989L786.808 30.346C787.736 31.6668 788.489 33.1966 788.986 34.8372L789.015 34.9501L785.803 35.68C785.405 34.4293 784.871 33.3424 784.201 32.3537L784.229 32.3978V32.3989ZM780.108 28.5281L781.541 25.5588C783.08 26.4367 784.395 27.4954 785.522 28.7314L785.533 28.7439L782.954 30.7968C782.132 29.9223 781.196 29.1698 780.166 28.5597L780.108 28.5281ZM764.42 48.1751C765.241 49.0473 766.178 49.7998 767.207 50.4099L767.266 50.4427L765.833 53.4153C764.294 52.5385 762.977 51.4799 761.85 50.2449L761.839 50.2325L764.418 48.1762L764.42 48.1751ZM774.458 37.4313L778.016 33.5378L779.631 35.1535L775.736 38.7103V40.2582L779.631 43.8161L778.015 45.4318L774.457 41.5383H772.909L769.352 45.4318L767.737 43.8161L771.63 40.2582V38.7103L767.737 35.1535L769.352 33.5378L772.909 37.4313H774.458ZM791.106 34.8179C788.529 25.204 778.629 19.487 769.016 22.0619C759.403 24.6368 753.687 34.5377 756.262 44.1505C758.838 53.7644 768.738 59.4815 778.351 56.9043C787.965 54.3305 793.68 44.4296 791.104 34.8157L791.106 34.8179ZM778.267 27.64C777.224 27.222 776.015 26.9316 774.754 26.8265L774.708 26.8231V23.5262C776.534 23.6448 778.233 24.0538 779.805 24.708L779.7 24.6696L778.267 27.64Z" fill="white" fill-opacity="0.03"/>
</g>
<rect x="814.398" y="-1.15059" width="81.3494" height="81.3494" rx="13.5582" stroke="white" stroke-opacity="0.05" stroke-width="1.80776"/>
<rect x="894.843" y="-2.05447" width="83.1571" height="83.1571" rx="14.4621" fill="white" fill-opacity="0.03"/>
<path d="M944.366 19.9875C943.381 20.4802 941.718 21.6502 940.733 22.6971L939.009 24.5446H941.657C943.135 24.483 945.229 24.6677 946.275 24.914C947.938 25.2835 948.246 25.1604 948.616 23.9287C948.8 23.1282 948.985 21.7734 948.985 20.7881C948.985 19.4333 948.739 19.1254 947.63 19.1254C946.83 19.187 945.413 19.5565 944.366 19.9875Z" fill="white" fill-opacity="0.03"/>
<path d="M938.085 25.8993C932.235 27.131 925.461 30.8258 922.013 34.8286C919.734 37.3535 919.673 37.7229 921.151 38.9546C922.259 40.0014 928.663 40.8636 928.663 40.0014C928.663 39.6935 929.218 39.4472 929.895 39.4472C930.572 39.4472 931.127 39.1393 931.127 38.7698C931.127 38.4003 931.558 38.2156 932.05 38.4619C932.543 38.6467 932.974 38.5235 932.974 38.2156C932.974 37.8461 933.59 37.5998 934.267 37.5998C935.499 37.5998 935.437 37.7229 933.713 39.4472C932.605 40.4325 931.496 41.2947 931.127 41.2947C930.326 41.2947 930.326 42.3415 931.065 42.8342C931.435 43.0189 933.898 42.4031 936.669 41.4794C940.364 40.2478 941.903 40.0014 942.642 40.4325C944.613 41.6641 944.982 42.8958 944.244 46.3443C943.874 48.1302 943.628 49.6697 943.689 49.7929C943.812 49.8544 944.982 49.1155 946.399 48.0686C949.478 45.8517 951.941 41.7873 952.434 38.0308C952.926 34.6439 952.434 34.4591 948.801 36.3682C946.768 37.4766 946.153 37.5382 944.059 36.9224C942.704 36.4913 941.596 35.9371 941.596 35.6292C941.596 34.5207 946.153 33.1659 949.108 33.4123C952.064 33.597 952.126 33.5354 951.756 32.0575C950.586 27.3773 944.428 24.6061 938.085 25.8993ZM934.083 31.9959C933.467 32.9812 929.464 34.1512 928.787 33.5354C928.417 33.2891 933.159 30.8874 934.083 30.8258C934.637 30.8258 934.698 31.0722 934.083 31.9959Z" fill="white" fill-opacity="0.03"/>
<path d="M940.857 47.3912C939.44 48.1918 938.948 48.2533 937.901 47.5759C937.224 47.2065 935.684 46.837 934.452 46.837H932.235L934.083 48.5612C935.992 50.3471 937.593 54.7809 937.1 56.7515C936.669 58.3527 938.086 57.5521 939.317 55.5199C939.872 54.5346 940.364 53.303 940.364 52.7488C940.364 52.2561 940.98 50.655 941.657 49.3002C942.396 47.8838 942.889 46.7138 942.766 46.5906C942.643 46.5291 941.781 46.837 940.857 47.3912Z" fill="white" fill-opacity="0.03"/>
<rect y="79.2949" width="83.1571" height="83.1571" rx="14.4621" fill="white" fill-opacity="0.03"/>
<path d="M49.5236 101.337C48.5383 101.83 46.8756 103 45.8903 104.047L44.166 105.894H46.814C48.292 105.832 50.3857 106.017 51.4326 106.263C53.0953 106.633 53.4032 106.51 53.7727 105.278C53.9574 104.478 54.1422 103.123 54.1422 102.137C54.1422 100.783 53.8959 100.475 52.7874 100.475C51.9868 100.536 50.5705 100.906 49.5236 101.337Z" fill="white" fill-opacity="0.03"/>
<path d="M43.2425 107.249C37.3923 108.48 30.6183 112.175 27.1698 116.178C24.8913 118.703 24.8297 119.072 26.3077 120.304C27.4161 121.351 33.8206 122.213 33.8206 121.351C33.8206 121.043 34.3748 120.797 35.0522 120.797C35.7296 120.797 36.2838 120.489 36.2838 120.119C36.2838 119.75 36.7149 119.565 37.2075 119.811C37.7002 119.996 38.1312 119.873 38.1312 119.565C38.1312 119.196 38.7471 118.949 39.4245 118.949C40.6561 118.949 40.5945 119.072 38.8702 120.797C37.7618 121.782 36.6533 122.644 36.2838 122.644C35.4833 122.644 35.4833 123.691 36.2222 124.184C36.5917 124.368 39.055 123.753 41.8261 122.829C45.521 121.597 47.0605 121.351 47.7995 121.782C49.7701 123.014 50.1396 124.245 49.4006 127.694C49.0311 129.48 48.7848 131.019 48.8464 131.142C48.9695 131.204 50.1396 130.465 51.556 129.418C54.635 127.201 57.0983 123.137 57.5909 119.38C58.0836 115.993 57.5909 115.809 53.9576 117.718C51.9254 118.826 51.3096 118.888 49.2159 118.272C47.8611 117.841 46.7526 117.286 46.7526 116.979C46.7526 115.87 51.3096 114.515 54.2655 114.762C57.2214 114.946 57.283 114.885 56.9135 113.407C55.7435 108.727 49.5854 105.956 43.2425 107.249ZM39.2397 113.345C38.6239 114.331 34.6211 115.501 33.9437 114.885C33.5742 114.638 38.316 112.237 39.2397 112.175C39.7939 112.175 39.8555 112.422 39.2397 113.345Z" fill="white" fill-opacity="0.03"/>
<path d="M46.0138 128.741C44.5974 129.541 44.1048 129.603 43.0579 128.925C42.3805 128.556 40.841 128.186 39.6094 128.186H37.3924L39.2399 129.911C41.1489 131.696 42.75 136.13 42.2573 138.101C41.8263 139.702 43.2426 138.901 44.4743 136.869C45.0285 135.884 45.5211 134.652 45.5211 134.098C45.5211 133.606 46.137 132.004 46.8144 130.65C47.5533 129.233 48.046 128.063 47.9228 127.94C47.7997 127.878 46.9375 128.186 46.0138 128.741Z" fill="white" fill-opacity="0.03"/>
<rect x="82.2532" y="80.1988" width="81.3494" height="81.3494" rx="13.5582" stroke="white" stroke-opacity="0.05" stroke-width="1.80776"/>
<rect x="162.699" y="79.2949" width="83.1571" height="83.1571" rx="14.4621" fill="white" fill-opacity="0.03"/>
<g clip-path="url(#clip5_268_70384)">
<path d="M203.214 108.172C201.911 108.281 200.707 108.569 199.582 109.012L199.667 108.981L198.238 106.012C199.7 105.404 201.394 104.998 203.167 104.878L203.216 104.876V108.171L203.214 108.172ZM197.825 109.87C196.735 110.512 195.8 111.265 194.985 112.133L194.978 112.139L192.4 110.082C193.537 108.832 194.854 107.774 196.316 106.94L196.394 106.899L197.825 109.87ZM193.705 113.739C193.062 114.682 192.524 115.767 192.148 116.925L192.122 117.016L188.907 116.281C189.438 114.529 190.195 113 191.16 111.631L191.126 111.682L193.705 113.739ZM191.666 119.011C191.582 119.558 191.535 120.19 191.535 120.831C191.535 121.473 191.582 122.105 191.675 122.722L191.666 122.652L188.454 123.384C188.323 122.613 188.247 121.726 188.247 120.821C188.247 119.923 188.321 119.041 188.464 118.183L188.451 118.276L191.666 119.01V119.011ZM192.12 124.645C192.484 125.8 193.013 126.908 193.697 127.926L191.118 129.982C190.189 128.661 189.434 127.133 188.937 125.492L188.908 125.378L192.12 124.646V124.645ZM203.211 133.497L203.208 136.794C201.386 136.675 199.691 136.267 198.123 135.614L198.228 135.653L199.661 132.682C200.701 133.099 201.907 133.389 203.164 133.494L203.211 133.497ZM208.804 132.688L210.234 135.657C208.771 136.265 207.075 136.672 205.3 136.791L205.251 136.793L205.253 133.497C206.557 133.389 207.764 133.1 208.891 132.658L208.804 132.688ZM213.493 129.533L216.072 131.592C214.934 132.842 213.615 133.9 212.152 134.732L212.074 134.773L210.646 131.802C211.735 131.159 212.672 130.407 213.488 129.539L213.493 129.532V129.533ZM216.351 124.658L219.567 125.394C219.035 127.146 218.278 128.673 217.312 130.043L217.346 129.992L214.768 127.935C215.447 126.925 215.984 125.819 216.351 124.658ZM216.811 119.022L220.024 118.293C220.155 119.062 220.231 119.948 220.231 120.852C220.231 121.751 220.156 122.633 220.014 123.493L220.026 123.401L216.811 122.665C216.894 122.118 216.942 121.487 216.942 120.844C216.942 120.201 216.894 119.57 216.803 118.954L216.812 119.024L216.811 119.022ZM214.784 113.748L217.362 111.695C218.291 113.016 219.043 114.546 219.54 116.187L219.57 116.3L216.358 117.029C215.96 115.779 215.425 114.692 214.755 113.703L214.784 113.747V113.748ZM210.662 109.877L212.096 106.908C213.635 107.786 214.95 108.845 216.076 110.081L216.088 110.093L213.508 112.146C212.687 111.272 211.75 110.519 210.721 109.909L210.662 109.877ZM194.974 129.524C195.795 130.397 196.732 131.149 197.761 131.759L197.82 131.792L196.387 134.765C194.849 133.888 193.531 132.829 192.405 131.594L192.393 131.582L194.973 129.526L194.974 129.524ZM205.013 118.781L208.571 114.887L210.185 116.503L206.291 120.06V121.608L210.185 125.165L208.569 126.781L205.012 122.888H203.464L199.907 126.781L198.291 125.165L202.185 121.608V120.06L198.291 116.503L199.907 114.887L203.464 118.781H205.013ZM221.66 116.167C219.084 106.553 209.183 100.836 199.57 103.411C189.957 105.986 184.242 115.887 186.816 125.5C189.393 135.114 199.292 140.831 208.905 138.254C218.519 135.68 224.235 125.779 221.659 116.165L221.66 116.167ZM208.821 108.989C207.779 108.571 206.57 108.281 205.309 108.176L205.262 108.172V104.876C207.088 104.994 208.788 105.403 210.359 106.057L210.254 106.019L208.821 108.989Z" fill="white" fill-opacity="0.03"/>
</g>
<rect x="244.952" y="80.1988" width="81.3494" height="81.3494" rx="13.5582" stroke="white" stroke-opacity="0.05" stroke-width="1.80776"/>
<rect x="325.397" y="79.2949" width="83.1571" height="83.1571" rx="14.4621" fill="white" fill-opacity="0.03"/>
<path d="M374.921 101.337C373.936 101.83 372.273 103 371.288 104.047L369.563 105.894H372.211C373.689 105.832 375.783 106.017 376.83 106.263C378.493 106.633 378.801 106.51 379.17 105.278C379.355 104.478 379.54 103.123 379.54 102.137C379.54 100.783 379.293 100.475 378.185 100.475C377.384 100.536 375.968 100.906 374.921 101.337Z" fill="white" fill-opacity="0.03"/>
<path d="M368.64 107.249C362.79 108.48 356.016 112.175 352.567 116.178C350.289 118.703 350.227 119.072 351.705 120.304C352.814 121.351 359.218 122.213 359.218 121.351C359.218 121.043 359.772 120.797 360.45 120.797C361.127 120.797 361.681 120.489 361.681 120.119C361.681 119.75 362.112 119.565 362.605 119.811C363.098 119.996 363.529 119.873 363.529 119.565C363.529 119.196 364.144 118.949 364.822 118.949C366.053 118.949 365.992 119.072 364.268 120.797C363.159 121.782 362.051 122.644 361.681 122.644C360.881 122.644 360.881 123.691 361.62 124.184C361.989 124.368 364.452 123.753 367.224 122.829C370.918 121.597 372.458 121.351 373.197 121.782C375.168 123.014 375.537 124.245 374.798 127.694C374.429 129.48 374.182 131.019 374.244 131.142C374.367 131.204 375.537 130.465 376.953 129.418C380.032 127.201 382.496 123.137 382.988 119.38C383.481 115.993 382.988 115.809 379.355 117.718C377.323 118.826 376.707 118.888 374.613 118.272C373.258 117.841 372.15 117.286 372.15 116.979C372.15 115.87 376.707 114.515 379.663 114.762C382.619 114.946 382.68 114.885 382.311 113.407C381.141 108.727 374.983 105.956 368.64 107.249ZM364.637 113.345C364.021 114.331 360.019 115.501 359.341 114.885C358.972 114.638 363.713 112.237 364.637 112.175C365.191 112.175 365.253 112.422 364.637 113.345Z" fill="white" fill-opacity="0.03"/>
<path d="M371.411 128.741C369.995 129.541 369.502 129.603 368.455 128.925C367.778 128.556 366.238 128.186 365.007 128.186H362.79L364.637 129.911C366.546 131.696 368.147 136.13 367.655 138.101C367.224 139.702 368.64 138.901 369.872 136.869C370.426 135.884 370.919 134.652 370.919 134.098C370.919 133.606 371.534 132.004 372.212 130.65C372.951 129.233 373.443 128.063 373.32 127.94C373.197 127.878 372.335 128.186 371.411 128.741Z" fill="white" fill-opacity="0.03"/>
<rect x="407.651" y="80.1988" width="81.3494" height="81.3494" rx="13.5582" stroke="white" stroke-opacity="0.05" stroke-width="1.80776"/>
<rect x="488.096" y="79.2949" width="83.1571" height="83.1571" rx="14.4621" fill="white" fill-opacity="0.03"/>
<g clip-path="url(#clip6_268_70384)">
<path d="M538.701 124.555C538.011 124.555 537.342 124.653 536.71 124.835L530.84 111.967H536.187C539.345 111.967 541.904 109.408 541.904 106.25V102.796H535.207C532.049 102.796 529.489 105.355 529.489 108.513V109.492C529.489 107.23 527.656 105.397 525.394 105.397H520.295V107.871C520.295 110.133 522.128 111.967 524.39 111.967H528.51L522.641 124.835C522.046 124.657 521.362 124.555 520.655 124.555C520.653 124.555 520.652 124.555 520.649 124.555C516.679 124.555 513.45 127.784 513.45 131.753C513.45 135.722 516.679 138.951 520.648 138.951C524.618 138.951 527.847 135.722 527.847 131.753C527.847 129.228 526.539 127.002 524.566 125.716L529.674 114.518L534.782 125.716C532.795 127.019 531.502 129.234 531.501 131.752C531.501 135.72 534.73 138.95 538.699 138.95C542.668 138.95 545.897 135.721 545.897 131.752C545.897 127.782 542.668 124.553 538.699 124.553L538.701 124.555Z" fill="white" fill-opacity="0.03"/>
</g>
<rect x="570.349" y="80.1988" width="81.3494" height="81.3494" rx="13.5582" stroke="white" stroke-opacity="0.05" stroke-width="1.80776"/>
<rect x="650.795" y="79.2949" width="83.1571" height="83.1571" rx="14.4621" fill="white" fill-opacity="0.03"/>
<g clip-path="url(#clip7_268_70384)">
<path d="M683.292 106.014L674.296 119.936L681.934 134.841L690.929 120.919L683.292 106.014ZM678.781 120.853C678.064 120.853 677.482 120.271 677.482 119.554C677.482 118.836 678.064 118.254 678.781 118.254C679.499 118.254 680.081 118.836 680.081 119.554C680.081 120.271 679.499 120.853 678.781 120.853ZM681.928 127.055C681.21 127.055 680.629 126.473 680.629 125.756C680.629 125.038 681.21 124.456 681.928 124.456C682.645 124.456 683.227 125.038 683.227 125.756C683.227 126.473 682.645 127.055 681.928 127.055ZM682.355 115.385C681.638 115.385 681.056 114.803 681.056 114.085C681.056 113.368 681.638 112.786 682.355 112.786C683.072 112.786 683.654 113.368 683.654 114.085C683.654 114.803 683.072 115.385 682.355 115.385ZM685.813 121.855C685.096 121.855 684.515 121.275 684.515 120.557C684.515 119.84 685.096 119.258 685.813 119.258C686.531 119.258 687.113 119.84 687.113 120.557C687.113 121.275 686.531 121.856 685.813 121.856V121.855ZM692.799 122.125L683.628 136.319L700.999 137.19L710.17 122.995L692.799 122.125ZM691.856 134.032C691.138 134.032 690.558 133.45 690.558 132.734C690.558 132.017 691.14 131.435 691.856 131.435C692.573 131.435 693.154 132.017 693.154 132.734C693.154 133.45 692.572 134.032 691.856 134.032ZM702.262 128.353C701.544 128.353 700.964 127.771 700.964 127.055C700.964 126.339 701.546 125.757 702.262 125.757C702.979 125.757 703.56 126.339 703.56 127.055C703.56 127.771 702.978 128.353 702.262 128.353ZM702.59 105.436L685.049 104.557L692.91 119.902L710.451 120.78L702.59 105.436ZM698.429 114.062C697.712 114.062 697.13 113.48 697.13 112.762C697.13 112.045 697.712 111.463 698.429 111.463C699.147 111.463 699.729 112.045 699.729 112.762C699.729 113.48 699.147 114.062 698.429 114.062Z" fill="white" fill-opacity="0.03"/>
</g>
<rect x="733.048" y="80.1988" width="81.3494" height="81.3494" rx="13.5582" stroke="white" stroke-opacity="0.05" stroke-width="1.80776"/>
<rect x="813.494" y="79.2949" width="83.1571" height="83.1571" rx="14.4621" fill="white" fill-opacity="0.03"/>
<g clip-path="url(#clip8_268_70384)">
<path d="M872.657 114.3V113.971C872.657 111.177 865.426 108.876 856.387 108.876C847.348 108.876 840.117 111.177 840.117 113.971V114.3V114.135V118.408C840.117 119.394 841.103 120.216 842.911 121.202C842.911 121.202 847.184 123.832 856.551 123.832C860.495 123.832 864.275 123.339 868.055 122.024C871.013 121.038 872.821 119.559 872.821 118.408L872.657 114.3ZM844.226 113.149C845.376 111.506 850.471 110.356 856.387 110.356C862.303 110.356 867.562 111.67 868.713 113.149C868.877 113.314 868.877 113.642 868.877 113.807V114.464C868.713 114.3 868.384 114.135 868.22 113.971C866.412 112.656 861.81 111.999 856.387 111.999C850.964 111.999 846.526 112.656 844.719 113.971C844.39 114.135 844.226 114.3 843.897 114.628V113.807C843.897 113.642 844.061 113.314 844.226 113.149ZM869.699 123.832V128.105C869.699 129.255 867.891 130.57 864.933 131.72C861.153 133.035 857.373 133.528 853.429 133.528C844.061 133.199 839.788 130.734 839.788 130.734C837.981 129.748 836.995 128.762 836.995 127.94V123.339C836.995 122.517 837.981 121.531 839.46 120.709V120.873C839.46 121.86 840.61 122.846 842.582 123.832C842.582 123.832 846.855 126.132 855.894 126.461C859.838 126.625 863.782 125.968 867.398 124.653C868.22 124.325 868.877 123.996 869.699 123.832Z" fill="white" fill-opacity="0.03"/>
</g>
<rect x="895.747" y="80.1988" width="81.3494" height="81.3494" rx="13.5582" stroke="white" stroke-opacity="0.05" stroke-width="1.80776"/>
<rect x="0.903882" y="161.548" width="81.3494" height="81.3494" rx="13.5582" stroke="white" stroke-opacity="0.05" stroke-width="1.80776"/>
<rect x="81.3494" y="160.644" width="83.1571" height="83.1571" rx="14.4621" fill="white" fill-opacity="0.03"/>
<g clip-path="url(#clip9_268_70384)">
<path d="M113.846 187.363L104.85 201.285L112.488 216.19L121.484 202.268L113.846 187.363ZM109.336 202.202C108.618 202.202 108.036 201.621 108.036 200.903C108.036 200.186 108.618 199.604 109.336 199.604C110.053 199.604 110.635 200.186 110.635 200.903C110.635 201.621 110.053 202.202 109.336 202.202ZM112.482 208.404C111.765 208.404 111.183 207.822 111.183 207.105C111.183 206.387 111.765 205.806 112.482 205.806C113.2 205.806 113.782 206.387 113.782 207.105C113.782 207.822 113.2 208.404 112.482 208.404ZM112.91 196.734C112.192 196.734 111.61 196.152 111.61 195.435C111.61 194.717 112.192 194.135 112.91 194.135C113.627 194.135 114.209 194.717 114.209 195.435C114.209 196.152 113.627 196.734 112.91 196.734ZM116.368 203.205C115.651 203.205 115.07 202.624 115.07 201.906C115.07 201.189 115.651 200.607 116.368 200.607C117.085 200.607 117.667 201.189 117.667 201.906C117.667 202.624 117.085 203.206 116.368 203.206V203.205ZM123.354 203.475L114.183 217.668L131.553 218.539L140.724 204.345L123.354 203.475ZM122.41 215.381C121.693 215.381 121.112 214.799 121.112 214.083C121.112 213.367 121.694 212.785 122.41 212.785C123.128 212.785 123.709 213.367 123.709 214.083C123.709 214.799 123.127 215.381 122.41 215.381ZM132.816 209.702C132.099 209.702 131.518 209.121 131.518 208.404C131.518 207.688 132.1 207.106 132.816 207.106C133.534 207.106 134.115 207.688 134.115 208.404C134.115 209.121 133.533 209.702 132.816 209.702ZM133.144 186.786L115.603 185.907L123.465 201.251L141.006 202.129L133.144 186.786ZM128.984 195.411C128.266 195.411 127.685 194.829 127.685 194.112C127.685 193.394 128.266 192.812 128.984 192.812C129.701 192.812 130.283 193.394 130.283 194.112C130.283 194.829 129.701 195.411 128.984 195.411Z" fill="white" fill-opacity="0.03"/>
</g>
<rect x="163.603" y="161.548" width="81.3494" height="81.3494" rx="13.5582" stroke="white" stroke-opacity="0.05" stroke-width="1.80776"/>
<rect x="244.048" y="160.644" width="83.1571" height="83.1571" rx="14.4621" fill="white" fill-opacity="0.03"/>
<g clip-path="url(#clip10_268_70384)">
<path d="M303.211 195.649V195.32C303.211 192.527 295.98 190.226 286.941 190.226C277.903 190.226 270.672 192.527 270.672 195.32V195.649V195.485V199.758C270.672 200.744 271.658 201.565 273.465 202.551C273.465 202.551 277.738 205.181 287.106 205.181C291.05 205.181 294.83 204.688 298.61 203.373C301.568 202.387 303.376 200.908 303.376 199.758L303.211 195.649ZM274.78 194.499C275.93 192.855 281.025 191.705 286.941 191.705C292.858 191.705 298.117 193.02 299.267 194.499C299.431 194.663 299.431 194.992 299.431 195.156V195.813C299.267 195.649 298.938 195.485 298.774 195.32C296.966 194.006 292.365 193.348 286.941 193.348C281.518 193.348 277.081 194.006 275.273 195.32C274.944 195.485 274.78 195.649 274.451 195.978V195.156C274.451 194.992 274.616 194.663 274.78 194.499ZM300.253 205.181V209.454C300.253 210.604 298.445 211.919 295.487 213.069C291.707 214.384 287.927 214.877 283.983 214.877C274.616 214.548 270.343 212.083 270.343 212.083C268.535 211.097 267.549 210.111 267.549 209.29V204.688C267.549 203.866 268.535 202.88 270.014 202.058V202.223C270.014 203.209 271.165 204.195 273.137 205.181C273.137 205.181 277.41 207.482 286.448 207.81C290.393 207.975 294.337 207.317 297.952 206.003C298.774 205.674 299.431 205.345 300.253 205.181Z" fill="white" fill-opacity="0.03"/>
</g>
<rect x="326.301" y="161.548" width="81.3494" height="81.3494" rx="13.5582" stroke="white" stroke-opacity="0.05" stroke-width="1.80776"/>
<rect x="406.747" y="160.644" width="83.1571" height="83.1571" rx="14.4621" fill="white" fill-opacity="0.03"/>
<g clip-path="url(#clip11_268_70384)">
<path d="M447.262 189.522C445.959 189.63 444.755 189.918 443.63 190.361L443.715 190.331L442.286 187.362C443.748 186.754 445.442 186.347 447.215 186.227L447.264 186.225V189.521L447.262 189.522ZM441.873 191.219C440.784 191.862 439.848 192.614 439.033 193.482L439.027 193.489L436.448 191.431C437.585 190.182 438.902 189.123 440.364 188.289L440.442 188.248L441.873 191.219ZM437.753 195.089C437.11 196.031 436.573 197.117 436.196 198.275L436.17 198.365L432.955 197.631C433.486 195.878 434.243 194.35 435.208 192.98L435.174 193.031L437.753 195.089ZM435.714 200.361C435.63 200.907 435.583 201.539 435.583 202.181C435.583 202.822 435.63 203.454 435.723 204.071L435.714 204.001L432.502 204.733C432.371 203.962 432.295 203.076 432.295 202.171C432.295 201.272 432.37 200.39 432.512 199.532L432.499 199.625L435.714 200.359V200.361ZM436.168 205.994C436.532 207.15 437.061 208.257 437.745 209.275L435.166 211.331C434.237 210.011 433.482 208.482 432.985 206.841L432.956 206.727L436.168 205.995V205.994ZM447.259 214.846L447.256 218.143C445.434 218.025 443.739 217.617 442.171 216.964L442.276 217.002L443.709 214.032C444.749 214.449 445.955 214.738 447.212 214.843L447.259 214.846ZM452.853 214.037L454.282 217.007C452.819 217.614 451.123 218.021 449.348 218.14L449.299 218.142L449.301 214.846C450.605 214.738 451.812 214.45 452.94 214.007L452.853 214.037ZM457.541 210.883L460.12 212.941C458.982 214.191 457.664 215.25 456.2 216.081L456.122 216.122L454.694 213.152C455.783 212.509 456.72 211.756 457.536 210.888L457.541 210.882V210.883ZM460.399 206.007L463.616 206.743C463.083 208.495 462.326 210.022 461.36 211.392L461.394 211.342L458.816 209.284C459.495 208.274 460.032 207.168 460.399 206.007ZM460.859 200.372L464.072 199.642C464.203 200.411 464.279 201.297 464.279 202.201C464.279 203.1 464.204 203.983 464.062 204.843L464.074 204.75L460.859 204.014C460.942 203.468 460.99 202.836 460.99 202.193C460.99 201.55 460.942 200.92 460.851 200.303L460.86 200.373L460.859 200.372ZM458.832 195.098L461.41 193.045C462.339 194.366 463.091 195.895 463.588 197.536L463.618 197.649L460.406 198.379C460.008 197.128 459.474 196.041 458.804 195.052L458.832 195.097V195.098ZM454.71 191.227L456.144 188.258C457.683 189.135 458.998 190.194 460.124 191.43L460.136 191.443L457.556 193.496C456.735 192.621 455.798 191.869 454.769 191.258L454.71 191.227ZM439.022 210.874C439.843 211.746 440.78 212.499 441.809 213.109L441.868 213.141L440.436 216.114C438.897 215.237 437.579 214.179 436.453 212.944L436.441 212.931L439.021 210.875L439.022 210.874ZM449.061 200.13L452.619 196.237L454.233 197.852L450.339 201.409V202.957L454.233 206.515L452.618 208.13L449.06 204.237H447.512L443.955 208.13L442.339 206.515L446.233 202.957V201.409L442.339 197.852L443.955 196.237L447.512 200.13H449.061ZM465.708 197.517C463.132 187.903 453.231 182.186 443.618 184.761C434.006 187.336 428.29 197.236 430.865 206.849C433.441 216.463 443.34 222.18 452.953 219.603C462.567 217.029 468.283 207.128 465.707 197.514L465.708 197.517ZM452.87 190.339C451.827 189.921 450.618 189.63 449.357 189.525L449.311 189.522V186.225C451.136 186.344 452.836 186.753 454.407 187.407L454.302 187.368L452.87 190.339Z" fill="white" fill-opacity="0.03"/>
</g>
<rect x="489" y="161.548" width="81.3494" height="81.3494" rx="13.5582" stroke="white" stroke-opacity="0.05" stroke-width="1.80776"/>
<rect x="569.446" y="160.644" width="83.1571" height="83.1571" rx="14.4621" fill="white" fill-opacity="0.03"/>
<path d="M618.969 182.686C617.984 183.179 616.321 184.349 615.336 185.396L613.611 187.243H616.259C617.737 187.182 619.831 187.366 620.878 187.613C622.541 187.982 622.849 187.859 623.218 186.628C623.403 185.827 623.588 184.472 623.588 183.487C623.588 182.132 623.341 181.824 622.233 181.824C621.432 181.886 620.016 182.255 618.969 182.686Z" fill="white" fill-opacity="0.03"/>
<path d="M612.688 188.598C606.838 189.83 600.064 193.525 596.615 197.527C594.337 200.052 594.275 200.422 595.753 201.653C596.862 202.7 603.266 203.562 603.266 202.7C603.266 202.392 603.82 202.146 604.498 202.146C605.175 202.146 605.729 201.838 605.729 201.469C605.729 201.099 606.16 200.914 606.653 201.161C607.146 201.345 607.577 201.222 607.577 200.914C607.577 200.545 608.193 200.299 608.87 200.299C610.102 200.299 610.04 200.422 608.316 202.146C607.207 203.131 606.099 203.993 605.729 203.993C604.929 203.993 604.929 205.04 605.668 205.533C606.037 205.718 608.501 205.102 611.272 204.178C614.967 202.947 616.506 202.7 617.245 203.131C619.216 204.363 619.585 205.595 618.846 209.043C618.477 210.829 618.23 212.368 618.292 212.492C618.415 212.553 619.585 211.814 621.002 210.767C624.081 208.55 626.544 204.486 627.036 200.73C627.529 197.343 627.036 197.158 623.403 199.067C621.371 200.175 620.755 200.237 618.661 199.621C617.307 199.19 616.198 198.636 616.198 198.328C616.198 197.219 620.755 195.865 623.711 196.111C626.667 196.296 626.729 196.234 626.359 194.756C625.189 190.076 619.031 187.305 612.688 188.598ZM608.685 194.695C608.069 195.68 604.067 196.85 603.389 196.234C603.02 195.988 607.762 193.586 608.685 193.525C609.24 193.525 609.301 193.771 608.685 194.695Z" fill="white" fill-opacity="0.03"/>
<path d="M615.459 210.09C614.043 210.891 613.55 210.952 612.503 210.275C611.826 209.905 610.287 209.536 609.055 209.536H606.838L608.685 211.26C610.594 213.046 612.196 217.48 611.703 219.45C611.272 221.051 612.688 220.251 613.92 218.219C614.474 217.233 614.967 216.002 614.967 215.448C614.967 214.955 615.583 213.354 616.26 211.999C616.999 210.583 617.492 209.413 617.368 209.289C617.245 209.228 616.383 209.536 615.459 210.09Z" fill="white" fill-opacity="0.03"/>
<rect x="651.699" y="161.548" width="81.3494" height="81.3494" rx="13.5582" stroke="white" stroke-opacity="0.05" stroke-width="1.80776"/>
<rect x="732.144" y="160.644" width="83.1571" height="83.1571" rx="14.4621" fill="white" fill-opacity="0.03"/>
<path d="M781.668 182.686C780.682 183.179 779.02 184.349 778.034 185.396L776.31 187.243H778.958C780.436 187.182 782.53 187.366 783.577 187.613C785.239 187.982 785.547 187.859 785.917 186.628C786.102 185.827 786.286 184.472 786.286 183.487C786.286 182.132 786.04 181.824 784.932 181.824C784.131 181.886 782.715 182.255 781.668 182.686Z" fill="white" fill-opacity="0.03"/>
<path d="M775.387 188.598C769.537 189.83 762.763 193.525 759.314 197.527C757.036 200.052 756.974 200.422 758.452 201.653C759.56 202.7 765.965 203.562 765.965 202.7C765.965 202.392 766.519 202.146 767.196 202.146C767.874 202.146 768.428 201.838 768.428 201.469C768.428 201.099 768.859 200.914 769.352 201.161C769.844 201.345 770.276 201.222 770.276 200.914C770.276 200.545 770.891 200.299 771.569 200.299C772.8 200.299 772.739 200.422 771.015 202.146C769.906 203.131 768.798 203.993 768.428 203.993C767.628 203.993 767.628 205.04 768.367 205.533C768.736 205.718 771.199 205.102 773.97 204.178C777.665 202.947 779.205 202.7 779.944 203.131C781.914 204.363 782.284 205.595 781.545 209.043C781.175 210.829 780.929 212.368 780.991 212.492C781.114 212.553 782.284 211.814 783.7 210.767C786.779 208.55 789.243 204.486 789.735 200.73C790.228 197.343 789.735 197.158 786.102 199.067C784.07 200.175 783.454 200.237 781.36 199.621C780.005 199.19 778.897 198.636 778.897 198.328C778.897 197.219 783.454 195.865 786.41 196.111C789.366 196.296 789.427 196.234 789.058 194.756C787.888 190.076 781.73 187.305 775.387 188.598ZM771.384 194.695C770.768 195.68 766.765 196.85 766.088 196.234C765.719 195.988 770.46 193.586 771.384 193.525C771.938 193.525 772 193.771 771.384 194.695Z" fill="white" fill-opacity="0.03"/>
<path d="M778.158 210.09C776.742 210.891 776.249 210.952 775.202 210.275C774.525 209.905 772.985 209.536 771.754 209.536H769.537L771.384 211.26C773.293 213.046 774.894 217.48 774.402 219.45C773.971 221.051 775.387 220.251 776.619 218.219C777.173 217.233 777.665 216.002 777.665 215.448C777.665 214.955 778.281 213.354 778.959 211.999C779.698 210.583 780.19 209.413 780.067 209.289C779.944 209.228 779.082 209.536 778.158 210.09Z" fill="white" fill-opacity="0.03"/>
<rect x="814.398" y="161.548" width="81.3494" height="81.3494" rx="13.5582" stroke="white" stroke-opacity="0.05" stroke-width="1.80776"/>
<rect x="894.843" y="160.644" width="83.1571" height="83.1571" rx="14.4621" fill="white" fill-opacity="0.03"/>
<g clip-path="url(#clip12_268_70384)">
<path d="M945.448 205.904C944.758 205.904 944.089 206.002 943.457 206.184L937.586 193.316H942.934C946.092 193.316 948.651 190.757 948.651 187.599V184.145H941.953C938.795 184.145 936.236 186.704 936.236 189.862V190.842C936.236 188.58 934.403 186.746 932.141 186.746H927.042V189.22C927.042 191.482 928.875 193.316 931.137 193.316H935.257L929.388 206.184C928.793 206.007 928.109 205.904 927.402 205.904C927.4 205.904 927.399 205.904 927.396 205.904C923.426 205.904 920.197 209.133 920.197 213.102C920.197 217.071 923.426 220.3 927.395 220.3C931.364 220.3 934.593 217.071 934.593 213.102C934.593 210.577 933.286 208.351 931.312 207.065L936.42 195.867L941.529 207.065C939.542 208.368 938.249 210.584 938.247 213.101C938.247 217.069 941.477 220.299 945.446 220.299C949.415 220.299 952.644 217.07 952.644 213.101C952.644 209.132 949.415 205.903 945.446 205.903L945.448 205.904Z" fill="white" fill-opacity="0.03"/>
</g>
<rect y="241.994" width="83.1571" height="83.1571" rx="14.4621" fill="white" fill-opacity="0.03"/>
<path d="M49.5236 264.036C48.5383 264.528 46.8756 265.698 45.8903 266.745L44.166 268.593H46.814C48.292 268.531 50.3857 268.716 51.4326 268.962C53.0953 269.332 53.4032 269.208 53.7727 267.977C53.9574 267.176 54.1422 265.822 54.1422 264.836C54.1422 263.481 53.8959 263.174 52.7874 263.174C51.9868 263.235 50.5705 263.605 49.5236 264.036Z" fill="white" fill-opacity="0.03"/>
<path d="M43.2425 269.947C37.3923 271.179 30.6183 274.874 27.1698 278.877C24.8913 281.402 24.8297 281.771 26.3077 283.003C27.4161 284.05 33.8206 284.912 33.8206 284.05C33.8206 283.742 34.3748 283.495 35.0522 283.495C35.7296 283.495 36.2838 283.187 36.2838 282.818C36.2838 282.448 36.7149 282.264 37.2075 282.51C37.7002 282.695 38.1312 282.572 38.1312 282.264C38.1312 281.894 38.7471 281.648 39.4245 281.648C40.6561 281.648 40.5945 281.771 38.8702 283.495C37.7618 284.481 36.6533 285.343 36.2838 285.343C35.4833 285.343 35.4833 286.39 36.2222 286.882C36.5917 287.067 39.055 286.451 41.8261 285.527C45.521 284.296 47.0605 284.05 47.7995 284.481C49.7701 285.712 50.1396 286.944 49.4006 290.392C49.0311 292.178 48.7848 293.718 48.8464 293.841C48.9695 293.903 50.1396 293.164 51.556 292.117C54.635 289.9 57.0983 285.835 57.5909 282.079C58.0836 278.692 57.5909 278.507 53.9576 280.416C51.9254 281.525 51.3096 281.586 49.2159 280.97C47.8611 280.539 46.7526 279.985 46.7526 279.677C46.7526 278.569 51.3096 277.214 54.2655 277.46C57.2214 277.645 57.283 277.584 56.9135 276.106C55.7435 271.425 49.5854 268.654 43.2425 269.947ZM39.2397 276.044C38.6239 277.029 34.6211 278.199 33.9437 277.584C33.5742 277.337 38.316 274.936 39.2397 274.874C39.7939 274.874 39.8555 275.12 39.2397 276.044Z" fill="white" fill-opacity="0.03"/>
<path d="M46.0138 291.439C44.5974 292.24 44.1048 292.301 43.0579 291.624C42.3805 291.255 40.841 290.885 39.6094 290.885H37.3924L39.2399 292.609C41.1489 294.395 42.75 298.829 42.2573 300.8C41.8263 302.401 43.2426 301.6 44.4743 299.568C45.0285 298.583 45.5211 297.351 45.5211 296.797C45.5211 296.304 46.137 294.703 46.8144 293.348C47.5533 291.932 48.046 290.762 47.9228 290.639C47.7997 290.577 46.9375 290.885 46.0138 291.439Z" fill="white" fill-opacity="0.03"/>
<rect x="82.2532" y="242.898" width="81.3494" height="81.3494" rx="13.5582" stroke="white" stroke-opacity="0.05" stroke-width="1.80776"/>
<rect x="162.699" y="241.994" width="83.1571" height="83.1571" rx="14.4621" fill="white" fill-opacity="0.03"/>
<g clip-path="url(#clip13_268_70384)">
<path d="M213.304 287.253C212.613 287.253 211.945 287.352 211.313 287.533L205.442 274.666H210.79C213.948 274.666 216.507 272.106 216.507 268.948V265.495H209.809C206.651 265.495 204.092 268.054 204.092 271.212V272.191C204.092 269.929 202.258 268.095 199.996 268.095H194.897V270.57C194.897 272.832 196.731 274.666 198.993 274.666H203.112L197.244 287.533C196.649 287.356 195.965 287.253 195.258 287.253C195.255 287.253 195.254 287.253 195.252 287.253C191.282 287.253 188.053 290.482 188.053 294.452C188.053 298.421 191.282 301.65 195.251 301.65C199.22 301.65 202.449 298.421 202.449 294.452C202.449 291.926 201.142 289.7 199.168 288.415L204.276 277.217L209.384 288.415C207.398 289.717 206.104 291.933 206.103 294.45C206.103 298.418 209.332 301.649 213.301 301.649C217.271 301.649 220.5 298.42 220.5 294.45C220.5 290.481 217.271 287.252 213.301 287.252L213.304 287.253Z" fill="white" fill-opacity="0.03"/>
</g>
<rect x="244.952" y="242.898" width="81.3494" height="81.3494" rx="13.5582" stroke="white" stroke-opacity="0.05" stroke-width="1.80776"/>
<rect x="325.397" y="241.994" width="83.1571" height="83.1571" rx="14.4621" fill="white" fill-opacity="0.03"/>
<path d="M374.921 264.036C373.936 264.528 372.273 265.698 371.288 266.745L369.563 268.593H372.211C373.689 268.531 375.783 268.716 376.83 268.962C378.493 269.332 378.801 269.208 379.17 267.977C379.355 267.176 379.54 265.822 379.54 264.836C379.54 263.481 379.293 263.174 378.185 263.174C377.384 263.235 375.968 263.605 374.921 264.036Z" fill="white" fill-opacity="0.03"/>
<path d="M368.64 269.947C362.79 271.179 356.016 274.874 352.567 278.877C350.289 281.402 350.227 281.771 351.705 283.003C352.814 284.05 359.218 284.912 359.218 284.05C359.218 283.742 359.772 283.495 360.45 283.495C361.127 283.495 361.681 283.187 361.681 282.818C361.681 282.448 362.112 282.264 362.605 282.51C363.098 282.695 363.529 282.572 363.529 282.264C363.529 281.894 364.144 281.648 364.822 281.648C366.053 281.648 365.992 281.771 364.268 283.495C363.159 284.481 362.051 285.343 361.681 285.343C360.881 285.343 360.881 286.39 361.62 286.882C361.989 287.067 364.452 286.451 367.224 285.527C370.918 284.296 372.458 284.05 373.197 284.481C375.168 285.712 375.537 286.944 374.798 290.392C374.429 292.178 374.182 293.718 374.244 293.841C374.367 293.903 375.537 293.164 376.953 292.117C380.032 289.9 382.496 285.835 382.988 282.079C383.481 278.692 382.988 278.507 379.355 280.416C377.323 281.525 376.707 281.586 374.613 280.97C373.258 280.539 372.15 279.985 372.15 279.677C372.15 278.569 376.707 277.214 379.663 277.46C382.619 277.645 382.68 277.584 382.311 276.106C381.141 271.425 374.983 268.654 368.64 269.947ZM364.637 276.044C364.021 277.029 360.019 278.199 359.341 277.584C358.972 277.337 363.713 274.936 364.637 274.874C365.191 274.874 365.253 275.12 364.637 276.044Z" fill="white" fill-opacity="0.03"/>
<path d="M371.411 291.439C369.995 292.24 369.502 292.301 368.455 291.624C367.778 291.255 366.238 290.885 365.007 290.885H362.79L364.637 292.609C366.546 294.395 368.147 298.829 367.655 300.8C367.224 302.401 368.64 301.6 369.872 299.568C370.426 298.583 370.919 297.351 370.919 296.797C370.919 296.304 371.534 294.703 372.212 293.348C372.951 291.932 373.443 290.762 373.32 290.639C373.197 290.577 372.335 290.885 371.411 291.439Z" fill="white" fill-opacity="0.03"/>
<rect x="407.651" y="242.898" width="81.3494" height="81.3494" rx="13.5582" stroke="white" stroke-opacity="0.05" stroke-width="1.80776"/>
<rect x="488.096" y="241.994" width="83.1571" height="83.1571" rx="14.4621" fill="white" fill-opacity="0.03"/>
<g clip-path="url(#clip14_268_70384)">
<path d="M547.259 276.998V276.67C547.259 273.876 540.028 271.575 530.989 271.575C521.951 271.575 514.72 273.876 514.72 276.67V276.998V276.834V281.107C514.72 282.093 515.706 282.915 517.513 283.901C517.513 283.901 521.786 286.53 531.154 286.53C535.098 286.53 538.878 286.037 542.658 284.723C545.616 283.737 547.424 282.257 547.424 281.107L547.259 276.998ZM518.828 275.848C519.979 274.205 525.073 273.054 530.989 273.054C536.906 273.054 542.165 274.369 543.315 275.848C543.479 276.012 543.479 276.341 543.479 276.505V277.163C543.315 276.998 542.986 276.834 542.822 276.67C541.014 275.355 536.413 274.698 530.989 274.698C525.566 274.698 521.129 275.355 519.321 276.67C518.993 276.834 518.828 276.998 518.499 277.327V276.505C518.499 276.341 518.664 276.012 518.828 275.848ZM544.301 286.53V290.803C544.301 291.954 542.493 293.268 539.535 294.419C535.755 295.733 531.976 296.227 528.031 296.227C518.664 295.898 514.391 293.433 514.391 293.433C512.583 292.447 511.597 291.461 511.597 290.639V286.037C511.597 285.216 512.583 284.23 514.062 283.408V283.572C514.062 284.558 515.213 285.544 517.185 286.53C517.185 286.53 521.458 288.831 530.496 289.16C534.441 289.324 538.385 288.667 542 287.352C542.822 287.023 543.479 286.695 544.301 286.53Z" fill="white" fill-opacity="0.03"/>
</g>
<rect x="570.349" y="242.898" width="81.3494" height="81.3494" rx="13.5582" stroke="white" stroke-opacity="0.05" stroke-width="1.80776"/>
<rect x="650.795" y="241.994" width="83.1571" height="83.1571" rx="14.4621" fill="white" fill-opacity="0.03"/>
<g clip-path="url(#clip15_268_70384)">
<path d="M683.292 268.712L674.296 282.634L681.934 297.539L690.929 283.617L683.292 268.712ZM678.781 283.552C678.064 283.552 677.482 282.97 677.482 282.253C677.482 281.535 678.064 280.953 678.781 280.953C679.499 280.953 680.081 281.535 680.081 282.253C680.081 282.97 679.499 283.552 678.781 283.552ZM681.928 289.754C681.21 289.754 680.629 289.172 680.629 288.454C680.629 287.737 681.21 287.155 681.928 287.155C682.645 287.155 683.227 287.737 683.227 288.454C683.227 289.172 682.645 289.754 681.928 289.754ZM682.355 278.083C681.638 278.083 681.056 277.501 681.056 276.784C681.056 276.067 681.638 275.485 682.355 275.485C683.072 275.485 683.654 276.067 683.654 276.784C683.654 277.501 683.072 278.083 682.355 278.083ZM685.813 284.554C685.096 284.554 684.515 283.973 684.515 283.256C684.515 282.538 685.096 281.956 685.813 281.956C686.531 281.956 687.113 282.538 687.113 283.256C687.113 283.973 686.531 284.555 685.813 284.555V284.554ZM692.799 284.824L683.628 299.017L700.999 299.888L710.17 285.694L692.799 284.824ZM691.856 296.73C691.138 296.73 690.558 296.149 690.558 295.432C690.558 294.716 691.14 294.134 691.856 294.134C692.573 294.134 693.154 294.716 693.154 295.432C693.154 296.149 692.572 296.73 691.856 296.73ZM702.262 291.052C701.544 291.052 700.964 290.47 700.964 289.754C700.964 289.037 701.546 288.455 702.262 288.455C702.979 288.455 703.56 289.037 703.56 289.754C703.56 290.47 702.978 291.052 702.262 291.052ZM702.59 268.135L685.049 267.256L692.91 282.601L710.451 283.478L702.59 268.135ZM698.429 276.76C697.712 276.76 697.13 276.178 697.13 275.461C697.13 274.744 697.712 274.162 698.429 274.162C699.147 274.162 699.729 274.744 699.729 275.461C699.729 276.178 699.147 276.76 698.429 276.76Z" fill="white" fill-opacity="0.03"/>
</g>
<rect x="733.048" y="242.898" width="81.3494" height="81.3494" rx="13.5582" stroke="white" stroke-opacity="0.05" stroke-width="1.80776"/>
<rect x="813.494" y="241.994" width="83.1571" height="83.1571" rx="14.4621" fill="white" fill-opacity="0.03"/>
<g clip-path="url(#clip16_268_70384)">
<path d="M854.009 270.871C852.706 270.98 851.502 271.268 850.376 271.711L850.462 271.68L849.033 268.711C850.495 268.103 852.189 267.696 853.961 267.577L854.011 267.574V270.87L854.009 270.871ZM848.62 272.568C847.53 273.211 846.595 273.964 845.78 274.831L845.773 274.838L843.195 272.781C844.332 271.531 845.649 270.472 847.111 269.639L847.189 269.598L848.62 272.568ZM844.5 276.438C843.857 277.38 843.319 278.466 842.943 279.624L842.917 279.715L839.702 278.98C840.233 277.228 840.99 275.699 841.955 274.33L841.921 274.381L844.5 276.438ZM842.461 281.71C842.377 282.257 842.33 282.888 842.33 283.53C842.33 284.172 842.377 284.803 842.47 285.42L842.461 285.35L839.249 286.082C839.117 285.312 839.042 284.425 839.042 283.52C839.042 282.622 839.116 281.739 839.259 280.882L839.246 280.974L842.461 281.709V281.71ZM842.915 287.343C843.279 288.499 843.807 289.606 844.492 290.624L841.913 292.681C840.984 291.36 840.229 289.831 839.732 288.191L839.703 288.077L842.915 287.344V287.343ZM854.006 296.196L854.003 299.493C852.181 299.374 850.486 298.966 848.918 298.313L849.023 298.351L850.456 295.381C851.496 295.798 852.702 296.087 853.959 296.192L854.006 296.196ZM859.599 295.387L861.029 298.356C859.566 298.964 857.87 299.371 856.095 299.489L856.046 299.491L856.048 296.196C857.352 296.087 858.559 295.799 859.686 295.356L859.599 295.387ZM864.288 292.232L866.867 294.291C865.729 295.54 864.41 296.599 862.947 297.431L862.869 297.471L861.441 294.501C862.53 293.858 863.467 293.106 864.283 292.238L864.288 292.231V292.232ZM867.146 287.357L870.362 288.092C869.83 289.845 869.073 291.371 868.107 292.742L868.141 292.691L865.563 290.633C866.242 289.623 866.779 288.517 867.146 287.357ZM867.606 281.721L870.819 280.991C870.95 281.761 871.026 282.647 871.026 283.55C871.026 284.45 870.951 285.332 870.809 286.192L870.821 286.099L867.606 285.364C867.689 284.817 867.737 284.185 867.737 283.542C867.737 282.9 867.689 282.269 867.598 281.652L867.607 281.722L867.606 281.721ZM865.579 276.447L868.157 274.394C869.086 275.715 869.838 277.245 870.335 278.885L870.365 278.998L867.152 279.728C866.755 278.477 866.22 277.39 865.55 276.402L865.579 276.446V276.447ZM861.457 272.576L862.891 269.607C864.43 270.485 865.745 271.543 866.871 272.78L866.882 272.792L864.303 274.845C863.482 273.97 862.545 273.218 861.516 272.608L861.457 272.576ZM845.769 292.223C846.59 293.095 847.527 293.848 848.556 294.458L848.615 294.491L847.182 297.463C845.643 296.587 844.326 295.528 843.2 294.293L843.188 294.281L845.768 292.224L845.769 292.223ZM855.808 281.479L859.366 277.586L860.98 279.202L857.085 282.758V284.306L860.98 287.864L859.364 289.48L855.807 285.586H854.259L850.702 289.48L849.086 287.864L852.98 284.306V282.758L849.086 279.202L850.702 277.586L854.259 281.479H855.808ZM872.455 278.866C869.879 269.252 859.978 263.535 850.365 266.11C840.752 268.685 835.036 278.586 837.611 288.199C840.187 297.813 850.087 303.53 859.7 300.952C869.314 298.379 875.03 288.478 872.454 278.864L872.455 278.866ZM859.616 271.688C858.574 271.27 857.365 270.98 856.104 270.875L856.057 270.871V267.574C857.883 267.693 859.582 268.102 861.154 268.756L861.049 268.718L859.616 271.688Z" fill="white" fill-opacity="0.03"/>
</g>
<rect x="895.747" y="242.898" width="81.3494" height="81.3494" rx="13.5582" stroke="white" stroke-opacity="0.05" stroke-width="1.80776"/>
<rect x="0.903882" y="324.247" width="81.3494" height="81.3494" rx="13.5582" stroke="white" stroke-opacity="0.05" stroke-width="1.80776"/>
<rect x="81.3494" y="323.343" width="83.1571" height="83.1571" rx="14.4621" fill="white" fill-opacity="0.03"/>
<g clip-path="url(#clip17_268_70384)">
<path d="M140.513 358.348V358.019C140.513 355.225 133.281 352.925 124.243 352.925C115.204 352.925 107.973 355.225 107.973 358.019V358.348V358.184V362.456C107.973 363.442 108.959 364.264 110.767 365.25C110.767 365.25 115.039 367.88 124.407 367.88C128.351 367.88 132.131 367.387 135.911 366.072C138.869 365.086 140.677 363.607 140.677 362.456L140.513 358.348ZM112.081 357.197C113.232 355.554 118.326 354.404 124.243 354.404C130.159 354.404 135.418 355.718 136.568 357.197C136.733 357.362 136.733 357.69 136.733 357.855V358.512C136.568 358.348 136.24 358.184 136.075 358.019C134.268 356.704 129.666 356.047 124.243 356.047C118.819 356.047 114.382 356.704 112.574 358.019C112.246 358.184 112.081 358.348 111.753 358.677V357.855C111.753 357.69 111.917 357.362 112.081 357.197ZM137.554 367.88V372.153C137.554 373.303 135.747 374.618 132.788 375.768C129.009 377.083 125.229 377.576 121.284 377.576C111.917 377.247 107.644 374.782 107.644 374.782C105.836 373.796 104.85 372.81 104.85 371.988V367.387C104.85 366.565 105.836 365.579 107.315 364.757V364.922C107.315 365.908 108.466 366.894 110.438 367.88C110.438 367.88 114.711 370.18 123.75 370.509C127.694 370.674 131.638 370.016 135.254 368.701C136.075 368.373 136.733 368.044 137.554 367.88Z" fill="white" fill-opacity="0.03"/>
</g>
<rect x="163.603" y="324.247" width="81.3494" height="81.3494" rx="13.5582" stroke="white" stroke-opacity="0.05" stroke-width="1.80776"/>
<rect x="244.048" y="323.343" width="83.1571" height="83.1571" rx="14.4621" fill="white" fill-opacity="0.03"/>
<g clip-path="url(#clip18_268_70384)">
<path d="M276.545 350.062L267.549 363.984L275.187 378.889L284.183 364.967L276.545 350.062ZM272.035 364.901C271.317 364.901 270.735 364.319 270.735 363.602C270.735 362.884 271.317 362.303 272.035 362.303C272.752 362.303 273.334 362.884 273.334 363.602C273.334 364.319 272.752 364.901 272.035 364.901ZM275.181 371.103C274.464 371.103 273.882 370.521 273.882 369.804C273.882 369.086 274.464 368.504 275.181 368.504C275.899 368.504 276.48 369.086 276.48 369.804C276.48 370.521 275.899 371.103 275.181 371.103ZM275.608 359.433C274.891 359.433 274.309 358.851 274.309 358.133C274.309 357.416 274.891 356.834 275.608 356.834C276.326 356.834 276.908 357.416 276.908 358.133C276.908 358.851 276.326 359.433 275.608 359.433ZM279.067 365.903C278.349 365.903 277.769 365.323 277.769 364.605C277.769 363.888 278.349 363.306 279.067 363.306C279.784 363.306 280.366 363.888 280.366 364.605C280.366 365.323 279.784 365.905 279.067 365.905V365.903ZM286.053 366.173L276.882 380.367L294.252 381.238L303.423 367.043L286.053 366.173ZM285.109 378.08C284.392 378.08 283.811 377.498 283.811 376.782C283.811 376.065 284.393 375.483 285.109 375.483C285.827 375.483 286.407 376.065 286.407 376.782C286.407 377.498 285.826 378.08 285.109 378.08ZM295.515 372.401C294.798 372.401 294.217 371.819 294.217 371.103C294.217 370.387 294.799 369.805 295.515 369.805C296.233 369.805 296.813 370.387 296.813 371.103C296.813 371.819 296.231 372.401 295.515 372.401ZM295.843 349.484L278.302 348.605L286.163 363.95L303.704 364.828L295.843 349.484ZM291.683 358.11C290.965 358.11 290.383 357.528 290.383 356.81C290.383 356.093 290.965 355.511 291.683 355.511C292.4 355.511 292.982 356.093 292.982 356.81C292.982 357.528 292.4 358.11 291.683 358.11Z" fill="white" fill-opacity="0.03"/>
</g>
<rect x="326.301" y="324.247" width="81.3494" height="81.3494" rx="13.5582" stroke="white" stroke-opacity="0.05" stroke-width="1.80776"/>
<rect x="406.747" y="323.343" width="83.1571" height="83.1571" rx="14.4621" fill="white" fill-opacity="0.03"/>
<g clip-path="url(#clip19_268_70384)">
<path d="M447.262 352.221C445.959 352.329 444.755 352.617 443.63 353.06L443.715 353.03L442.286 350.06C443.748 349.452 445.442 349.046 447.215 348.926L447.264 348.924V352.219L447.262 352.221ZM441.873 353.918C440.784 354.56 439.848 355.313 439.033 356.181L439.027 356.187L436.448 354.13C437.585 352.88 438.902 351.822 440.364 350.988L440.442 350.947L441.873 353.918ZM437.753 357.787C437.11 358.73 436.573 359.815 436.196 360.974L436.17 361.064L432.955 360.33C433.486 358.577 434.243 357.048 435.208 355.679L435.174 355.73L437.753 357.787ZM435.714 363.059C435.63 363.606 435.583 364.238 435.583 364.879C435.583 365.521 435.63 366.153 435.723 366.77L435.714 366.7L432.502 367.432C432.371 366.661 432.295 365.774 432.295 364.869C432.295 363.971 432.37 363.089 432.512 362.231L432.499 362.324L435.714 363.058V363.059ZM436.168 368.693C436.532 369.849 437.061 370.956 437.745 371.974L435.166 374.03C434.237 372.709 433.482 371.181 432.985 369.54L432.956 369.426L436.168 368.694V368.693ZM447.259 377.545L447.256 380.842C445.434 380.723 443.739 380.315 442.171 379.662L442.276 379.701L443.709 376.73C444.749 377.147 445.955 377.437 447.212 377.542L447.259 377.545ZM452.853 376.736L454.282 379.705C452.819 380.313 451.123 380.72 449.348 380.839L449.299 380.841L449.301 377.545C450.605 377.437 451.812 377.148 452.94 376.706L452.853 376.736ZM457.541 373.582L460.12 375.64C458.982 376.89 457.664 377.948 456.2 378.78L456.122 378.821L454.694 375.85C455.783 375.207 456.72 374.455 457.536 373.587L457.541 373.58V373.582ZM460.399 368.706L463.616 369.442C463.083 371.194 462.326 372.721 461.36 374.091L461.394 374.04L458.816 371.983C459.495 370.973 460.032 369.867 460.399 368.706ZM460.859 363.071L464.072 362.341C464.203 363.11 464.279 363.996 464.279 364.9C464.279 365.799 464.204 366.682 464.062 367.541L464.074 367.449L460.859 366.713C460.942 366.166 460.99 365.535 460.99 364.892C460.99 364.249 460.942 363.619 460.851 363.002L460.86 363.072L460.859 363.071ZM458.832 357.796L461.41 355.743C462.339 357.064 463.091 358.594 463.588 360.235L463.618 360.348L460.406 361.077C460.008 359.827 459.474 358.74 458.804 357.751L458.832 357.795V357.796ZM454.71 353.926L456.144 350.956C457.683 351.834 458.998 352.893 460.124 354.129L460.136 354.141L457.556 356.194C456.735 355.32 455.798 354.567 454.769 353.957L454.71 353.926ZM439.022 373.573C439.843 374.445 440.78 375.197 441.809 375.807L441.868 375.84L440.436 378.813C438.897 377.936 437.579 376.877 436.453 375.642L436.441 375.63L439.021 373.574L439.022 373.573ZM449.061 362.829L452.619 358.935L454.233 360.551L450.339 364.108V365.656L454.233 369.214L452.618 370.829L449.06 366.936H447.512L443.955 370.829L442.339 369.214L446.233 365.656V364.108L442.339 360.551L443.955 358.935L447.512 362.829H449.061ZM465.708 360.215C463.132 350.601 453.231 344.884 443.618 347.459C434.006 350.034 428.29 359.935 430.865 369.548C433.441 379.162 443.34 384.879 452.953 382.302C462.567 379.728 468.283 369.827 465.707 360.213L465.708 360.215ZM452.87 353.037C451.827 352.619 450.618 352.329 449.357 352.224L449.311 352.221V348.924C451.136 349.042 452.836 349.451 454.407 350.105L454.302 350.067L452.87 353.037Z" fill="white" fill-opacity="0.03"/>
</g>
<rect x="489" y="324.247" width="81.3494" height="81.3494" rx="13.5582" stroke="white" stroke-opacity="0.05" stroke-width="1.80776"/>
<rect x="569.446" y="323.343" width="83.1571" height="83.1571" rx="14.4621" fill="white" fill-opacity="0.03"/>
<path d="M618.969 345.385C617.984 345.878 616.321 347.048 615.336 348.095L613.611 349.942H616.259C617.737 349.88 619.831 350.065 620.878 350.312C622.541 350.681 622.849 350.558 623.218 349.326C623.403 348.526 623.588 347.171 623.588 346.186C623.588 344.831 623.341 344.523 622.233 344.523C621.432 344.584 620.016 344.954 618.969 345.385Z" fill="white" fill-opacity="0.03"/>
<path d="M612.688 351.297C606.838 352.528 600.064 356.223 596.615 360.226C594.337 362.751 594.275 363.12 595.753 364.352C596.862 365.399 603.266 366.261 603.266 365.399C603.266 365.091 603.82 364.845 604.498 364.845C605.175 364.845 605.729 364.537 605.729 364.167C605.729 363.798 606.16 363.613 606.653 363.859C607.146 364.044 607.577 363.921 607.577 363.613C607.577 363.244 608.193 362.997 608.87 362.997C610.102 362.997 610.04 363.12 608.316 364.845C607.207 365.83 606.099 366.692 605.729 366.692C604.929 366.692 604.929 367.739 605.668 368.232C606.037 368.416 608.501 367.801 611.272 366.877C614.967 365.645 616.506 365.399 617.245 365.83C619.216 367.062 619.585 368.293 618.846 371.742C618.477 373.528 618.23 375.067 618.292 375.19C618.415 375.252 619.585 374.513 621.002 373.466C624.081 371.249 626.544 367.185 627.036 363.428C627.529 360.041 627.036 359.857 623.403 361.766C621.371 362.874 620.755 362.936 618.661 362.32C617.307 361.889 616.198 361.335 616.198 361.027C616.198 359.918 620.755 358.563 623.711 358.81C626.667 358.994 626.729 358.933 626.359 357.455C625.189 352.775 619.031 350.004 612.688 351.297ZM608.685 357.393C608.069 358.379 604.067 359.549 603.389 358.933C603.02 358.687 607.762 356.285 608.685 356.223C609.24 356.223 609.301 356.47 608.685 357.393Z" fill="white" fill-opacity="0.03"/>
<path d="M615.459 372.789C614.043 373.589 613.55 373.651 612.503 372.973C611.826 372.604 610.287 372.234 609.055 372.234H606.838L608.685 373.959C610.594 375.745 612.196 380.178 611.703 382.149C611.272 383.75 612.688 382.95 613.92 380.917C614.474 379.932 614.967 378.7 614.967 378.146C614.967 377.654 615.583 376.052 616.26 374.698C616.999 373.281 617.492 372.111 617.368 371.988C617.245 371.927 616.383 372.234 615.459 372.789Z" fill="white" fill-opacity="0.03"/>
<rect x="651.699" y="324.247" width="81.3494" height="81.3494" rx="13.5582" stroke="white" stroke-opacity="0.05" stroke-width="1.80776"/>
<rect x="732.144" y="323.343" width="83.1571" height="83.1571" rx="14.4621" fill="white" fill-opacity="0.03"/>
<g clip-path="url(#clip20_268_70384)">
<path d="M782.749 368.603C782.059 368.603 781.39 368.701 780.758 368.883L774.888 356.015H780.235C783.393 356.015 785.952 353.456 785.952 350.298V346.844H779.255C776.097 346.844 773.538 349.403 773.538 352.561V353.541C773.538 351.279 771.704 349.445 769.442 349.445H764.343V351.919C764.343 354.181 766.177 356.015 768.439 356.015H772.558L766.69 368.883C766.094 368.705 765.411 368.603 764.703 368.603C764.701 368.603 764.7 368.603 764.698 368.603C760.727 368.603 757.498 371.832 757.498 375.801C757.498 379.77 760.727 382.999 764.696 382.999C768.666 382.999 771.895 379.77 771.895 375.801C771.895 373.276 770.588 371.05 768.614 369.764L773.722 358.566L778.83 369.764C776.843 371.067 775.55 373.282 775.549 375.8C775.549 379.768 778.778 382.998 782.747 382.998C786.716 382.998 789.945 379.769 789.945 375.8C789.945 371.831 786.716 368.601 782.747 368.601L782.749 368.603Z" fill="white" fill-opacity="0.03"/>
</g>
<rect x="814.398" y="324.247" width="81.3494" height="81.3494" rx="13.5582" stroke="white" stroke-opacity="0.05" stroke-width="1.80776"/>
<rect x="894.843" y="323.343" width="83.1571" height="83.1571" rx="14.4621" fill="white" fill-opacity="0.03"/>
<path d="M944.366 345.385C943.381 345.878 941.718 347.048 940.733 348.095L939.009 349.942H941.657C943.135 349.88 945.229 350.065 946.275 350.312C947.938 350.681 948.246 350.558 948.616 349.326C948.8 348.526 948.985 347.171 948.985 346.186C948.985 344.831 948.739 344.523 947.63 344.523C946.83 344.584 945.413 344.954 944.366 345.385Z" fill="white" fill-opacity="0.03"/>
<path d="M938.085 351.297C932.235 352.528 925.461 356.223 922.013 360.226C919.734 362.751 919.673 363.12 921.151 364.352C922.259 365.399 928.663 366.261 928.663 365.399C928.663 365.091 929.218 364.845 929.895 364.845C930.572 364.845 931.127 364.537 931.127 364.167C931.127 363.798 931.558 363.613 932.05 363.859C932.543 364.044 932.974 363.921 932.974 363.613C932.974 363.244 933.59 362.997 934.267 362.997C935.499 362.997 935.437 363.12 933.713 364.845C932.605 365.83 931.496 366.692 931.127 366.692C930.326 366.692 930.326 367.739 931.065 368.232C931.435 368.416 933.898 367.801 936.669 366.877C940.364 365.645 941.903 365.399 942.642 365.83C944.613 367.062 944.982 368.293 944.244 371.742C943.874 373.528 943.628 375.067 943.689 375.19C943.812 375.252 944.982 374.513 946.399 373.466C949.478 371.249 951.941 367.185 952.434 363.428C952.926 360.041 952.434 359.857 948.801 361.766C946.768 362.874 946.153 362.936 944.059 362.32C942.704 361.889 941.596 361.335 941.596 361.027C941.596 359.918 946.153 358.563 949.108 358.81C952.064 358.994 952.126 358.933 951.756 357.455C950.586 352.775 944.428 350.004 938.085 351.297ZM934.083 357.393C933.467 358.379 929.464 359.549 928.787 358.933C928.417 358.687 933.159 356.285 934.083 356.223C934.637 356.223 934.698 356.47 934.083 357.393Z" fill="white" fill-opacity="0.03"/>
<path d="M940.857 372.789C939.44 373.589 938.948 373.651 937.901 372.973C937.224 372.604 935.684 372.234 934.452 372.234H932.235L934.083 373.959C935.992 375.745 937.593 380.178 937.1 382.149C936.669 383.75 938.086 382.95 939.317 380.917C939.872 379.932 940.364 378.7 940.364 378.146C940.364 377.654 940.98 376.052 941.657 374.698C942.396 373.281 942.889 372.111 942.766 371.988C942.643 371.927 941.781 372.234 940.857 372.789Z" fill="white" fill-opacity="0.03"/>
</g>
<defs>
<clipPath id="clip0_268_70384">
<rect y="-571.5" width="978" height="978" rx="489" fill="white"/>
</clipPath>
<clipPath id="clip1_268_70384">
<rect width="36.1553" height="36.1553" fill="white" transform="translate(104.85 21.4465)"/>
</clipPath>
<clipPath id="clip2_268_70384">
<rect width="36.1553" height="36.1553" fill="white" transform="translate(267.549 21.4465)"/>
</clipPath>
<clipPath id="clip3_268_70384">
<rect width="36.1553" height="36.1553" fill="white" transform="translate(430.248 21.4465)"/>
</clipPath>
<clipPath id="clip4_268_70384">
<rect width="36.1553" height="36.1553" fill="white" transform="translate(755.645 21.4465)"/>
</clipPath>
<clipPath id="clip5_268_70384">
<rect width="36.1553" height="36.1553" fill="white" transform="translate(186.2 102.796)"/>
</clipPath>
<clipPath id="clip6_268_70384">
<rect width="36.1553" height="36.1553" fill="white" transform="translate(511.597 102.796)"/>
</clipPath>
<clipPath id="clip7_268_70384">
<rect width="36.1553" height="36.1553" fill="white" transform="translate(674.296 102.796)"/>
</clipPath>
<clipPath id="clip8_268_70384">
<rect width="36.1553" height="36.1553" fill="white" transform="translate(836.995 102.796)"/>
</clipPath>
<clipPath id="clip9_268_70384">
<rect width="36.1553" height="36.1553" fill="white" transform="translate(104.85 184.145)"/>
</clipPath>
<clipPath id="clip10_268_70384">
<rect width="36.1553" height="36.1553" fill="white" transform="translate(267.549 184.145)"/>
</clipPath>
<clipPath id="clip11_268_70384">
<rect width="36.1553" height="36.1553" fill="white" transform="translate(430.248 184.145)"/>
</clipPath>
<clipPath id="clip12_268_70384">
<rect width="36.1553" height="36.1553" fill="white" transform="translate(918.344 184.145)"/>
</clipPath>
<clipPath id="clip13_268_70384">
<rect width="36.1553" height="36.1553" fill="white" transform="translate(186.2 265.495)"/>
</clipPath>
<clipPath id="clip14_268_70384">
<rect width="36.1553" height="36.1553" fill="white" transform="translate(511.597 265.495)"/>
</clipPath>
<clipPath id="clip15_268_70384">
<rect width="36.1553" height="36.1553" fill="white" transform="translate(674.296 265.495)"/>
</clipPath>
<clipPath id="clip16_268_70384">
<rect width="36.1553" height="36.1553" fill="white" transform="translate(836.995 265.495)"/>
</clipPath>
<clipPath id="clip17_268_70384">
<rect width="36.1553" height="36.1553" fill="white" transform="translate(104.85 346.844)"/>
</clipPath>
<clipPath id="clip18_268_70384">
<rect width="36.1553" height="36.1553" fill="white" transform="translate(267.549 346.844)"/>
</clipPath>
<clipPath id="clip19_268_70384">
<rect width="36.1553" height="36.1553" fill="white" transform="translate(430.248 346.844)"/>
</clipPath>
<clipPath id="clip20_268_70384">
<rect width="36.1553" height="36.1553" fill="white" transform="translate(755.645 346.844)"/>
</clipPath>
</defs>
</svg>
