<svg width="20" height="20" viewBox="0 0 20 20" fill="none" xmlns="http://www.w3.org/2000/svg">
<g clip-path="url(#clip0_344_640)">
<path d="M16.667 10V18.3333H3.33366V10M10.0003 18.3333V5.83333M10.0003 5.83333H6.25033C5.69779 5.83333 5.16789 5.61384 4.77719 5.22314C4.38649 4.83244 4.16699 4.30253 4.16699 3.75C4.16699 3.19747 4.38649 2.66756 4.77719 2.27686C5.16789 1.88616 5.69779 1.66667 6.25033 1.66667C9.16699 1.66667 10.0003 5.83333 10.0003 5.83333ZM10.0003 5.83333H13.7503C14.3029 5.83333 14.8328 5.61384 15.2235 5.22314C15.6142 4.83244 15.8337 4.30253 15.8337 3.75C15.8337 3.19747 15.6142 2.66756 15.2235 2.27686C14.8328 1.88616 14.3029 1.66667 13.7503 1.66667C10.8337 1.66667 10.0003 5.83333 10.0003 5.83333ZM1.66699 5.83333H18.3337V10H1.66699V5.83333Z" stroke="#4A4E62" stroke-width="1.67" stroke-linecap="round" stroke-linejoin="round"/>
</g>
<defs>
<clipPath id="clip0_344_640">
<rect width="20" height="20" fill="white"/>
</clipPath>
</defs>
</svg>
