<svg width="16" height="16" viewBox="0 0 16 16" fill="none" xmlns="http://www.w3.org/2000/svg">
    <g clip-path="url(#clip0_1702_5156)">
        <path d="M13.3333 8V14.6667H2.66659V8M7.99992 14.6667V4.66666M7.99992 4.66666H4.99992C4.55789 4.66666 4.13397 4.49107 3.82141 4.17851C3.50885 3.86595 3.33325 3.44202 3.33325 2.99999C3.33325 2.55797 3.50885 2.13404 3.82141 1.82148C4.13397 1.50892 4.55789 1.33333 4.99992 1.33333C7.33325 1.33333 7.99992 4.66666 7.99992 4.66666ZM7.99992 4.66666H10.9999C11.4419 4.66666 11.8659 4.49107 12.1784 4.17851C12.491 3.86595 12.6666 3.44202 12.6666 2.99999C12.6666 2.55797 12.491 2.13404 12.1784 1.82148C11.8659 1.50892 11.4419 1.33333 10.9999 1.33333C8.66659 1.33333 7.99992 4.66666 7.99992 4.66666ZM1.33325 4.66666H14.6666V8H1.33325V4.66666Z" stroke="#555A71" stroke-width="1.5" stroke-linecap="round" stroke-linejoin="round"/>
    </g>
    <defs>
        <clipPath id="clip0_1702_5156">
            <rect width="16" height="16" fill="white"/>
        </clipPath>
    </defs>
</svg>
