<svg width="20" height="20" viewBox="0 0 20 20" fill="none" xmlns="http://www.w3.org/2000/svg">
<g clip-path="url(#clip0_352_9665)">
<path d="M0.833984 3.33337V8.33337M0.833984 8.33337H5.83398M0.833984 8.33337L4.70065 4.70004C5.85141 3.55122 7.34436 2.80751 8.95455 2.58097C10.5647 2.35442 12.2049 2.65732 13.628 3.44401C15.0511 4.2307 16.1799 5.45857 16.8445 6.94262C17.5091 8.42667 17.6733 10.0865 17.3125 11.672C16.9517 13.2575 16.0854 14.6828 14.8441 15.7332C13.6028 16.7835 12.0538 17.402 10.4304 17.4954C8.80705 17.5889 7.1973 17.1522 5.8437 16.2512C4.4901 15.3502 3.46598 14.0337 2.92565 12.5" stroke="white" stroke-width="2" stroke-linecap="round" stroke-linejoin="round"/>
</g>
<defs>
<clipPath id="clip0_352_9665">
<rect width="20" height="20" fill="white"/>
</clipPath>
</defs>
</svg>
