<svg width="20" height="20" viewBox="0 0 20 20" fill="none" xmlns="http://www.w3.org/2000/svg">
<g clip-path="url(#clip0_335_3453)">
<path d="M9.41212 2.97421C8.6915 3.03421 8.02525 3.19358 7.40275 3.43858L7.45025 3.42171L6.65962 1.77921C7.46837 1.44296 8.40525 1.21796 9.38587 1.15171L9.41337 1.15046V2.97358L9.41212 2.97421ZM6.43087 3.91296C5.82837 4.26858 5.31087 4.68483 4.86025 5.16483L4.8565 5.16858L3.43025 4.03046C4.059 3.33921 4.78775 2.75358 5.5965 2.29233L5.63962 2.26983L6.43087 3.91296ZM4.15212 6.05358C3.7965 6.57483 3.499 7.17546 3.29087 7.81608L3.2765 7.86608L1.49775 7.45983C1.7915 6.49046 2.21025 5.64483 2.744 4.88733L2.72525 4.91546L4.15212 6.05358ZM3.024 8.96983C2.97775 9.27233 2.9515 9.62171 2.9515 9.97671C2.9515 10.3317 2.97775 10.6811 3.029 11.0223L3.024 10.9836L1.24712 11.3886C1.17462 10.9623 1.13275 10.4717 1.13275 9.97108C1.13275 9.47421 1.174 8.98608 1.25275 8.51171L1.24587 8.56296L3.024 8.96921V8.96983ZM3.27525 12.0861C3.4765 12.7255 3.769 13.338 4.14775 13.9011L2.72087 15.0386C2.20712 14.308 1.78962 13.4623 1.51462 12.5548L1.49837 12.4917L3.27525 12.0867V12.0861ZM9.41025 16.983L9.409 18.8067C8.40087 18.7411 7.46337 18.5155 6.59587 18.1542L6.654 18.1755L7.4465 16.5323C8.02212 16.763 8.689 16.923 9.38462 16.9811L9.41025 16.983ZM12.5046 16.5355L13.2952 18.178C12.4859 18.5142 11.5477 18.7392 10.5659 18.8048L10.539 18.8061L10.5402 16.983C11.2615 16.923 11.929 16.7636 12.5527 16.5186L12.5046 16.5355ZM15.0984 14.7905L16.5246 15.9292C15.8952 16.6205 15.1659 17.2061 14.3565 17.6661L14.3134 17.6886L13.5234 16.0455C14.1259 15.6898 14.644 15.2736 15.0952 14.7936L15.0984 14.7898V14.7905ZM16.679 12.0936L18.4584 12.5005C18.164 13.4698 17.7452 14.3142 17.2109 15.0723L17.2296 15.0442L15.8034 13.9061C16.179 13.3473 16.4759 12.7355 16.679 12.0936ZM16.9334 8.97608L18.7109 8.57233C18.7834 8.99796 18.8252 9.48796 18.8252 9.98796C18.8252 10.4855 18.784 10.9736 18.7052 11.4492L18.7121 11.398L16.9334 10.9911C16.9796 10.6886 17.0059 10.3392 17.0059 9.98358C17.0059 9.62796 16.9796 9.27921 16.929 8.93796L16.934 8.97671L16.9334 8.97608ZM15.8121 6.05858L17.2384 4.92296C17.7521 5.65358 18.1684 6.49983 18.4434 7.40733L18.4596 7.46983L16.6827 7.87358C16.4627 7.18171 16.1671 6.58046 15.7965 6.03358L15.8121 6.05796V6.05858ZM13.5321 3.91733L14.3252 2.27483C15.1765 2.76046 15.904 3.34608 16.5271 4.02983L16.5334 4.03671L15.1065 5.17233C14.6521 4.68858 14.134 4.27233 13.5646 3.93483L13.5321 3.91733ZM4.854 14.7855C5.30837 15.268 5.8265 15.6842 6.39587 16.0217L6.42837 16.0398L5.63587 17.6842C4.78462 17.1992 4.05587 16.6136 3.43275 15.9305L3.4265 15.9236L4.85337 14.7861L4.854 14.7855ZM10.4071 8.84233L12.3752 6.68858L13.2684 7.58233L11.114 9.54983V10.4061L13.2684 12.3742L12.3746 13.268L10.4065 11.1142H9.55025L7.58275 13.268L6.689 12.3742L8.84275 10.4061V9.54983L6.689 7.58233L7.58275 6.68858L9.55025 8.84233H10.4071ZM19.6159 7.39671C18.1909 2.07858 12.714 -1.08392 7.3965 0.340458C2.079 1.76483 -1.08288 7.24171 0.341496 12.5592C1.7665 17.8773 7.24275 21.0398 12.5602 19.6142C17.8784 18.1905 21.0402 12.7136 19.6152 7.39546L19.6159 7.39671ZM12.514 3.42608C11.9371 3.19483 11.2684 3.03421 10.5709 2.97608L10.5452 2.97421V1.15046C11.5552 1.21608 12.4952 1.44233 13.3646 1.80421L13.3065 1.78296L12.514 3.42608Z" fill="#4A4E62"/>
</g>
<defs>
<clipPath id="clip0_335_3453">
<rect width="20" height="20" fill="white"/>
</clipPath>
</defs>
</svg>
