<svg width="56" height="56" viewBox="0 0 56 56" fill="none" xmlns="http://www.w3.org/2000/svg">
<rect x="4" y="4" width="48" height="48" rx="24" fill="#263475"/>
<path d="M27.1459 23.0225C27.5259 22.3408 27.7159 22 28 22C28.2841 22 28.4741 22.3408 28.8541 23.0225L28.9524 23.1989C29.0603 23.3926 29.1143 23.4894 29.1985 23.5533C29.2827 23.6172 29.3875 23.641 29.5972 23.6884L29.7881 23.7316C30.526 23.8986 30.895 23.982 30.9828 24.2643C31.0706 24.5466 30.819 24.8407 30.316 25.429L30.1858 25.5812C30.0429 25.7483 29.9714 25.8319 29.9392 25.9353C29.9071 26.0387 29.9179 26.1502 29.9395 26.3733L29.9592 26.5763C30.0352 27.3612 30.0733 27.7536 29.8435 27.9281C29.6136 28.1025 29.2682 27.9435 28.5773 27.6254L28.3986 27.5431C28.2022 27.4527 28.1041 27.4075 28 27.4075C27.8959 27.4075 27.7978 27.4527 27.6014 27.5431L27.4227 27.6254C26.7318 27.9435 26.3864 28.1025 26.1565 27.9281C25.9267 27.7536 25.9648 27.3612 26.0408 26.5763L26.0605 26.3733C26.0821 26.1502 26.0929 26.0387 26.0608 25.9353C26.0286 25.8319 25.9571 25.7483 25.8142 25.5812L25.684 25.429C25.181 24.8407 24.9294 24.5466 25.0172 24.2643C25.105 23.982 25.474 23.8986 26.2119 23.7316L26.4028 23.6884C26.6125 23.641 26.7173 23.6172 26.8015 23.5533C26.8857 23.4894 26.9397 23.3926 27.0476 23.1989L27.1459 23.0225Z" stroke="#718BFF" stroke-width="1.5"/>
<path d="M35 25C35 28.866 31.866 32 28 32C24.134 32 21 28.866 21 25C21 21.134 24.134 18 28 18C31.866 18 35 21.134 35 25Z" stroke="#718BFF" stroke-width="1.5"/>
<path d="M28 32.0678L24.2285 35.9728C23.6884 36.5321 23.4184 36.8117 23.1897 36.9084C22.6685 37.1289 22.0904 36.9402 21.8163 36.4602C21.696 36.2495 21.6585 35.8695 21.5835 35.1095C21.5412 34.6804 21.52 34.4658 21.4558 34.2861C21.3119 33.8838 21.0097 33.5708 20.6211 33.4219C20.4475 33.3554 20.2403 33.3335 19.8259 33.2896C19.0919 33.212 18.7249 33.1732 18.5214 33.0486C18.0577 32.7648 17.8755 32.1662 18.0884 31.6266C18.1819 31.3898 18.4519 31.1102 18.9921 30.5509L21.4558 28" stroke="#718BFF" stroke-width="1.5"/>
<path d="M28 32.0678L31.7715 35.9728C32.3116 36.5321 32.5816 36.8117 32.8103 36.9084C33.3315 37.1289 33.9096 36.9402 34.1837 36.4602C34.304 36.2495 34.3415 35.8695 34.4165 35.1095C34.4588 34.6804 34.48 34.4658 34.5442 34.2861C34.6881 33.8838 34.9903 33.5708 35.3789 33.4219C35.5525 33.3554 35.7597 33.3335 36.1741 33.2896C36.9081 33.212 37.2751 33.1732 37.4786 33.0486C37.9423 32.7648 38.1245 32.1662 37.9116 31.6266C37.8181 31.3898 37.5481 31.1102 37.0079 30.5509L34.5442 28" stroke="#718BFF" stroke-width="1.5"/>
<rect x="4" y="4" width="48" height="48" rx="24" stroke="#202843" stroke-width="8"/>
</svg>
