<svg width="16" height="16" viewBox="0 0 16 16" fill="none" xmlns="http://www.w3.org/2000/svg">
<g clip-path="url(#clip0_352_5564)">
<path d="M7.99984 10C9.10441 10 9.99984 9.10457 9.99984 8C9.99984 6.89544 9.10441 6 7.99984 6C6.89527 6 5.99984 6.89544 5.99984 8C5.99984 9.10457 6.89527 10 7.99984 10Z" stroke="#555A71" stroke-width="1.5" stroke-linecap="round" stroke-linejoin="round"/>
<path d="M12.9332 10C12.8444 10.2011 12.818 10.4241 12.8572 10.6404C12.8964 10.8567 12.9995 11.0562 13.1532 11.2133L13.1932 11.2533C13.3171 11.3772 13.4155 11.5242 13.4826 11.6861C13.5497 11.8479 13.5842 12.0215 13.5842 12.1967C13.5842 12.3719 13.5497 12.5454 13.4826 12.7073C13.4155 12.8691 13.3171 13.0162 13.1932 13.14C13.0693 13.264 12.9223 13.3623 12.7604 13.4294C12.5986 13.4965 12.4251 13.5311 12.2498 13.5311C12.0746 13.5311 11.9011 13.4965 11.7392 13.4294C11.5774 13.3623 11.4303 13.264 11.3065 13.14L11.2665 13.1C11.1094 12.9463 10.9098 12.8432 10.6936 12.804C10.4773 12.7648 10.2542 12.7913 10.0532 12.88C9.85599 12.9645 9.68783 13.1048 9.56937 13.2837C9.45092 13.4626 9.38736 13.6721 9.3865 13.8867V14C9.3865 14.3536 9.24603 14.6928 8.99598 14.9428C8.74593 15.1929 8.40679 15.3333 8.05317 15.3333C7.69955 15.3333 7.36041 15.1929 7.11036 14.9428C6.86031 14.6928 6.71984 14.3536 6.71984 14V13.94C6.71468 13.7193 6.64325 13.5053 6.51484 13.3258C6.38644 13.1463 6.20699 13.0095 5.99984 12.9333C5.79876 12.8446 5.57571 12.8181 5.35944 12.8573C5.14318 12.8965 4.94362 12.9996 4.7865 13.1533L4.7465 13.1933C4.62267 13.3173 4.47562 13.4157 4.31376 13.4828C4.15189 13.5498 3.97839 13.5844 3.80317 13.5844C3.62795 13.5844 3.45445 13.5498 3.29258 13.4828C3.13072 13.4157 2.98367 13.3173 2.85984 13.1933C2.73587 13.0695 2.63752 12.9225 2.57042 12.7606C2.50333 12.5987 2.46879 12.4252 2.46879 12.25C2.46879 12.0748 2.50333 11.9013 2.57042 11.7394C2.63752 11.5776 2.73587 11.4305 2.85984 11.3067L2.89984 11.2667C3.05353 11.1096 3.15663 10.91 3.19584 10.6937C3.23505 10.4775 3.20858 10.2544 3.11984 10.0533C3.03533 9.85616 2.89501 9.68799 2.71615 9.56954C2.53729 9.45109 2.32769 9.38753 2.11317 9.38667H1.99984C1.64622 9.38667 1.30708 9.2462 1.05703 8.99615C0.80698 8.7461 0.666504 8.40696 0.666504 8.05334C0.666504 7.69972 0.80698 7.36058 1.05703 7.11053C1.30708 6.86048 1.64622 6.72 1.99984 6.72H2.05984C2.2805 6.71484 2.49451 6.64342 2.67404 6.51501C2.85357 6.38661 2.99031 6.20716 3.0665 6C3.15525 5.79893 3.18172 5.57588 3.14251 5.35961C3.10329 5.14335 3.00019 4.94379 2.8465 4.78667L2.8065 4.74667C2.68254 4.62284 2.58419 4.47579 2.51709 4.31393C2.44999 4.15206 2.41545 3.97856 2.41545 3.80334C2.41545 3.62812 2.44999 3.45462 2.51709 3.29275C2.58419 3.13089 2.68254 2.98384 2.8065 2.86C2.93033 2.73604 3.07739 2.63769 3.23925 2.57059C3.40111 2.50349 3.57462 2.46896 3.74984 2.46896C3.92506 2.46896 4.09856 2.50349 4.26042 2.57059C4.42229 2.63769 4.56934 2.73604 4.69317 2.86L4.73317 2.9C4.89029 3.0537 5.08985 3.1568 5.30611 3.19601C5.52237 3.23522 5.74543 3.20875 5.9465 3.12H5.99984C6.19702 3.0355 6.36518 2.89518 6.48363 2.71632C6.60208 2.53746 6.66565 2.32786 6.6665 2.11334V2.00001C6.6665 1.64638 6.80698 1.30724 7.05703 1.0572C7.30708 0.807148 7.64621 0.666672 7.99984 0.666672C8.35346 0.666672 8.6926 0.807148 8.94265 1.0572C9.19269 1.30724 9.33317 1.64638 9.33317 2.00001V2.06C9.33403 2.27453 9.39759 2.48412 9.51604 2.66298C9.63449 2.84184 9.80266 2.98216 9.99984 3.06667C10.2009 3.15541 10.424 3.18189 10.6402 3.14267C10.8565 3.10346 11.0561 3.00036 11.2132 2.84667L11.2532 2.80667C11.377 2.6827 11.5241 2.58436 11.6859 2.51726C11.8478 2.45016 12.0213 2.41562 12.1965 2.41562C12.3717 2.41562 12.5452 2.45016 12.7071 2.51726C12.869 2.58436 13.016 2.6827 13.1398 2.80667C13.2638 2.9305 13.3622 3.07755 13.4292 3.23942C13.4963 3.40128 13.5309 3.57478 13.5309 3.75C13.5309 3.92523 13.4963 4.09873 13.4292 4.26059C13.3622 4.42246 13.2638 4.56951 13.1398 4.69334L13.0998 4.73334C12.9461 4.89046 12.843 5.09002 12.8038 5.30628C12.7646 5.52254 12.7911 5.74559 12.8798 5.94667V6C12.9643 6.19718 13.1047 6.36535 13.2835 6.4838C13.4624 6.60225 13.672 6.66582 13.8865 6.66667H13.9998C14.3535 6.66667 14.6926 6.80715 14.9426 7.0572C15.1927 7.30724 15.3332 7.64638 15.3332 8C15.3332 8.35363 15.1927 8.69276 14.9426 8.94281C14.6926 9.19286 14.3535 9.33334 13.9998 9.33334H13.9398C13.7253 9.33419 13.5157 9.39776 13.3369 9.51621C13.158 9.63466 13.0177 9.80283 12.9332 10Z" stroke="#555A71" stroke-width="1.5" stroke-linecap="round" stroke-linejoin="round"/>
</g>
<defs>
<clipPath id="clip0_352_5564">
<rect width="16" height="16" fill="white"/>
</clipPath>
</defs>
</svg>
