<svg width="20" height="20" viewBox="0 0 20 20" fill="none" xmlns="http://www.w3.org/2000/svg">
<path d="M17.5 10H15.8333C14.9129 10 14.1667 10.7462 14.1667 11.6667V13.3333C14.1667 14.2538 14.9129 15 15.8333 15C16.7538 15 17.5 14.2538 17.5 13.3333V10ZM17.5 10C17.5 5.85786 14.1421 2.5 10 2.5C5.85786 2.5 2.5 5.85786 2.5 10M2.5 10V13.3333C2.5 14.2538 3.24619 15 4.16667 15C5.08714 15 5.83333 14.2538 5.83333 13.3333V11.6667C5.83333 10.7462 5.08714 10 4.16667 10H2.5Z" stroke="#4A4E62" stroke-width="1.67" stroke-linecap="round" stroke-linejoin="round"/>
<path d="M17.5003 11.6667V15C17.5003 16.6667 16.9448 17.5 15.8337 17.5C14.7225 17.5 13.3337 17.5 11.667 17.5" stroke="#4A4E62" stroke-width="1.67" stroke-linecap="round" stroke-linejoin="round"/>
</svg>
