<svg width="40" height="40" viewBox="0 0 40 40" fill="none" xmlns="http://www.w3.org/2000/svg">
<rect width="40" height="40" rx="20" fill="#191C26"/>
<path fill-rule="evenodd" clip-rule="evenodd" d="M10.2909 19.7752C15.4916 17.5093 18.9596 16.0155 20.6948 15.2938C25.6492 13.2331 26.6787 12.8751 27.3497 12.8633C27.4972 12.8607 27.8272 12.8973 28.041 13.0707C28.2214 13.2171 28.2711 13.415 28.2949 13.5538C28.3186 13.6927 28.3482 14.009 28.3247 14.2561C28.0562 17.0771 26.8945 23.9227 26.3035 27.0822C26.0534 28.4191 25.561 28.8674 25.0843 28.9113C24.0483 29.0066 23.2616 28.2266 22.2582 27.5688C20.688 26.5396 19.801 25.8989 18.2769 24.8945C16.5155 23.7338 17.6573 23.0958 18.6611 22.0532C18.9238 21.7804 23.4885 17.6285 23.5768 17.2518C23.5879 17.2047 23.5981 17.0291 23.4938 16.9364C23.3895 16.8437 23.2355 16.8754 23.1244 16.9006C22.967 16.9364 20.4586 18.5943 15.5994 21.8744C14.8874 22.3633 14.2425 22.6015 13.6647 22.589C13.0277 22.5753 11.8024 22.2289 10.8916 21.9328C9.77431 21.5696 8.88636 21.3776 8.96368 20.7608C9.00395 20.4396 9.44635 20.111 10.2909 19.7752Z" fill="#3B3F51"/>
</svg>
