<svg width="48" height="48" viewBox="0 0 48 48" fill="none" xmlns="http://www.w3.org/2000/svg">
<rect width="48" height="48" rx="12" fill="#41B196" fill-opacity="0.15"/>
<path d="M23.9987 35.2983C22.4646 35.2983 21.1009 35.0355 19.9078 34.5099C18.7217 33.9844 17.7842 33.2528 17.0953 32.3153C16.4063 31.3778 16.0406 30.2947 15.998 29.0661H20.0036C20.0392 29.6555 20.2345 30.1705 20.5896 30.6108C20.9447 31.044 21.417 31.3814 22.0065 31.6229C22.596 31.8643 23.2565 31.9851 23.988 31.9851C24.7693 31.9851 25.4617 31.8501 26.0654 31.5803C26.6691 31.3033 27.1414 30.9197 27.4823 30.4297C27.8232 29.9396 27.9901 29.375 27.983 28.7358C27.9901 28.0753 27.8197 27.4929 27.4717 26.9886C27.1237 26.4844 26.6194 26.0902 25.9589 25.8061C25.3055 25.522 24.5171 25.38 23.5938 25.38H21.6656V22.3331H23.5938C24.3538 22.3331 25.0178 22.2017 25.586 21.9389C26.1613 21.6761 26.6123 21.3068 26.939 20.831C27.2657 20.348 27.4255 19.7905 27.4184 19.1584C27.4255 18.5405 27.287 18.0043 27.0029 17.5497C26.7259 17.0881 26.3318 16.7294 25.8204 16.4737C25.3161 16.218 24.7231 16.0902 24.0413 16.0902C23.3737 16.0902 22.7558 16.2109 22.1876 16.4524C21.6194 16.6939 21.1613 17.0384 20.8133 17.4858C20.4653 17.9261 20.2806 18.4517 20.2593 19.0625H16.4561C16.4845 17.8409 16.836 16.7685 17.5107 15.8452C18.1926 14.9148 19.1017 14.1903 20.238 13.6719C21.3744 13.1463 22.6492 12.8835 24.0626 12.8835C25.5186 12.8835 26.7828 13.157 27.8552 13.7038C28.9347 14.2436 29.7693 14.9716 30.3588 15.8878C30.9482 16.804 31.243 17.8161 31.243 18.924C31.2501 20.1527 30.8879 21.1825 30.1563 22.0135C29.4319 22.8445 28.4802 23.3878 27.3012 23.6435V23.8139C28.8353 24.027 30.0107 24.5952 30.8275 25.5185C31.6514 26.4347 32.0597 27.5746 32.0526 28.9382C32.0526 30.1598 31.7046 31.2536 31.0086 32.2195C30.3197 33.1783 29.368 33.9311 28.1535 34.478C26.9461 35.0249 25.5612 35.2983 23.9987 35.2983Z" fill="#41B196"/>
</svg>
