<svg width="36" height="36" viewBox="0 0 36 36" fill="none" xmlns="http://www.w3.org/2000/svg">
<path d="M10.5 12.9998H12.1667M12.1667 12.9998H25.5M12.1667 12.9998V24.6665C12.1667 25.1085 12.3423 25.5325 12.6548 25.845C12.9674 26.1576 13.3913 26.3332 13.8333 26.3332H22.1667C22.6087 26.3332 23.0326 26.1576 23.3452 25.845C23.6577 25.5325 23.8333 25.1085 23.8333 24.6665V12.9998H12.1667ZM14.6667 12.9998V11.3332C14.6667 10.8911 14.8423 10.4672 15.1548 10.1547C15.4674 9.8421 15.8913 9.6665 16.3333 9.6665H19.6667C20.1087 9.6665 20.5326 9.8421 20.8452 10.1547C21.1577 10.4672 21.3333 10.8911 21.3333 11.3332V12.9998M16.3333 17.1665V22.1665M19.6667 17.1665V22.1665" stroke="#353949" stroke-width="1.67" stroke-linecap="round" stroke-linejoin="round"/>
</svg>
