<svg width="48" height="48" viewBox="0 0 48 48" fill="none" xmlns="http://www.w3.org/2000/svg">
<rect width="48" height="48" rx="12" fill="#41B196" fill-opacity="0.15"/>
<path d="M16.6225 35V32.1449L24.1971 24.7195C24.9215 23.9879 25.5252 23.3381 26.0082 22.7699C26.4911 22.2017 26.8533 21.6513 27.0948 21.1186C27.3363 20.5859 27.457 20.0178 27.457 19.4141C27.457 18.7251 27.3008 18.1357 26.9883 17.6456C26.6758 17.1484 26.2461 16.7649 25.6992 16.495C25.1523 16.2251 24.5309 16.0902 23.8349 16.0902C23.1175 16.0902 22.489 16.2393 21.9492 16.5376C21.4094 16.8288 20.9904 17.2443 20.6921 17.7841C20.4009 18.3239 20.2553 18.9666 20.2553 19.7124H16.4947C16.4947 18.3274 16.8107 17.1236 17.4428 16.1009C18.0749 15.0781 18.945 14.2862 20.0529 13.7251C21.168 13.1641 22.4464 12.8835 23.8881 12.8835C25.3512 12.8835 26.6367 13.157 27.7447 13.7038C28.8526 14.2507 29.712 15 30.3228 15.9517C30.9407 16.9034 31.2496 17.9901 31.2496 19.2116C31.2496 20.0284 31.0934 20.831 30.7809 21.6193C30.4684 22.4077 29.918 23.2812 29.1296 24.2401C28.3484 25.1989 27.2511 26.3601 25.8377 27.7237L22.0771 31.5483V31.6974H31.5799V35H16.6225Z" fill="#41B196"/>
</svg>
