<svg width="32" height="32" viewBox="0 0 32 32" fill="none" xmlns="http://www.w3.org/2000/svg">
<g clip-path="url(#clip0_268_70350)">
<path d="M16 32C24.8366 32 32 24.8366 32 16C32 7.16344 24.8366 0 16 0C7.16344 0 0 7.16344 0 16C0 24.8366 7.16344 32 16 32Z" fill="#26A17B"/>
<path fill-rule="evenodd" clip-rule="evenodd" d="M17.9228 17.3831V17.3811C17.8128 17.3891 17.2458 17.4231 15.9808 17.4231C14.9708 17.4231 14.2598 17.3931 14.0098 17.3811V17.3841C10.1218 17.2131 7.21978 16.5361 7.21978 15.7261C7.21978 14.9171 10.1218 14.2401 14.0098 14.0661V16.7101C14.2638 16.7281 14.9918 16.7711 15.9978 16.7711C17.2048 16.7711 17.8098 16.7211 17.9228 16.7111V14.0681C21.8028 14.2411 24.6978 14.9181 24.6978 15.7261C24.6978 16.5361 21.8028 17.2111 17.9228 17.3831ZM17.9228 13.7931V11.4271H23.3368V7.81909H8.59578V11.4271H14.0098V13.7921C9.60978 13.9941 6.30078 14.8661 6.30078 15.9101C6.30078 16.9541 9.60978 17.8251 14.0098 18.0281V25.6101H17.9228V18.0261C22.3158 17.8241 25.6168 16.9531 25.6168 15.9101C25.6168 14.8671 22.3158 13.9961 17.9228 13.7931Z" fill="white"/>
</g>
<defs>
<clipPath id="clip0_268_70350">
<rect width="32" height="32" fill="white"/>
</clipPath>
</defs>
</svg>
