<svg width="20" height="20" viewBox="0 0 20 20" fill="none" xmlns="http://www.w3.org/2000/svg">
<g id="users" clip-path="url(#clip0_268_82417)">
<path id="Icon" d="M14.1663 17.5V15.8333C14.1663 14.9493 13.8152 14.1014 13.19 13.4763C12.5649 12.8512 11.7171 12.5 10.833 12.5H4.16634C3.28229 12.5 2.43444 12.8512 1.80932 13.4763C1.1842 14.1014 0.833008 14.9493 0.833008 15.8333V17.5M19.1663 17.5V15.8333C19.1658 15.0948 18.92 14.3773 18.4675 13.7936C18.015 13.2099 17.3814 12.793 16.6663 12.6083M13.333 2.60833C14.05 2.79192 14.6855 3.20892 15.1394 3.79359C15.5932 4.37827 15.8395 5.09736 15.8395 5.8375C15.8395 6.57764 15.5932 7.29673 15.1394 7.88141C14.6855 8.46608 14.05 8.88308 13.333 9.06667M10.833 5.83333C10.833 7.67428 9.34062 9.16667 7.49967 9.16667C5.65872 9.16667 4.16634 7.67428 4.16634 5.83333C4.16634 3.99238 5.65872 2.5 7.49967 2.5C9.34062 2.5 10.833 3.99238 10.833 5.83333Z" stroke="#4A4E62" stroke-width="1.67" stroke-linecap="round" stroke-linejoin="round"/>
</g>
<defs>
<clipPath id="clip0_268_82417">
<rect width="20" height="20" fill="white"/>
</clipPath>
</defs>
</svg>
