<svg width="56" height="56" viewBox="0 0 56 56" fill="none" xmlns="http://www.w3.org/2000/svg">
<rect x="4" y="4" width="48" height="48" rx="24" fill="#263475"/>
<path d="M35.8706 28.3884L34.8763 28.2815V28.2815L35.8706 28.3884ZM35.6872 30.0931L36.6815 30.2L35.6872 30.0931ZM20.3128 30.0931L19.3185 30.2L20.3128 30.0931ZM20.1294 28.3884L21.1237 28.2815L20.1294 28.3884ZM24.7601 26.934L25.6334 27.4211L24.7601 26.934ZM26.5495 23.7254L25.6762 23.2383L26.5495 23.7254ZM29.4505 23.7254L28.5771 24.2125L29.4505 23.7254ZM31.2399 26.934L32.1133 26.4469L32.1133 26.4469L31.2399 26.934ZM32.0038 27.9592L31.6008 28.8744L31.6008 28.8744L32.0038 27.9592ZM33.4705 27.2451L32.7648 26.5367L33.4705 27.2451ZM32.4533 28.0219L32.3163 27.0313H32.3163L32.4533 28.0219ZM22.5295 27.2451L21.8238 27.9536L22.5295 27.2451ZM23.5467 28.0219L23.6837 27.0313H23.6837L23.5467 28.0219ZM23.9962 27.9592L24.3992 28.8744L24.3992 28.8744L23.9962 27.9592ZM21.7121 36.1532L22.379 35.4081H22.379L21.7121 36.1532ZM34.2879 36.1532L33.621 35.4081L34.2879 36.1532ZM34.8645 25.9801L35.6212 25.3264L34.8645 25.9801ZM28.9077 22.7826L28.4532 21.8919L28.9077 22.7826ZM27.0923 22.7827L27.5468 21.8919L27.0923 22.7827ZM34.8763 28.2815L34.6929 29.9861L36.6815 30.2L36.8648 28.4954L34.8763 28.2815ZM29.0879 36H26.9121V38H29.0879V36ZM21.3071 29.9861L21.1237 28.2815L19.1352 28.4954L19.3185 30.2L21.3071 29.9861ZM25.6334 27.4211L27.4229 24.2125L25.6762 23.2383L23.8867 26.4469L25.6334 27.4211ZM28.5771 24.2125L30.3666 27.421L32.1133 26.4469L30.3238 23.2383L28.5771 24.2125ZM30.3666 27.421C30.5257 27.7063 30.6818 27.9888 30.8353 28.2075C30.9945 28.4341 31.2293 28.7108 31.6008 28.8744L32.4068 27.044C32.5236 27.0954 32.5463 27.1639 32.4721 27.0581C32.3922 26.9444 32.2937 26.7703 32.1133 26.4469L30.3666 27.421ZM32.7648 26.5367C32.5022 26.7982 32.3593 26.9388 32.251 27.0264C32.1502 27.108 32.1904 27.0487 32.3163 27.0313L32.5903 29.0124C32.992 28.9569 33.2936 28.7555 33.5089 28.5813C33.7167 28.4132 33.9445 28.1845 34.1762 27.9536L32.7648 26.5367ZM31.6008 28.8744C31.9115 29.0112 32.2541 29.0589 32.5903 29.0124L32.3163 27.0313C32.3469 27.0271 32.3782 27.0314 32.4068 27.044L31.6008 28.8744ZM21.8238 27.9536C22.0555 28.1845 22.2833 28.4132 22.4911 28.5813C22.7064 28.7555 23.008 28.9569 23.4097 29.0124L23.6837 27.0313C23.8096 27.0487 23.8498 27.108 23.749 27.0264C23.6407 26.9388 23.4978 26.7982 23.2352 26.5367L21.8238 27.9536ZM23.8867 26.4469C23.7063 26.7703 23.6078 26.9444 23.5279 27.0581C23.4537 27.1639 23.4764 27.0954 23.5932 27.044L24.3992 28.8744C24.7707 28.7108 25.0055 28.4341 25.1647 28.2075C25.3182 27.9888 25.4743 27.7063 25.6334 27.4211L23.8867 26.4469ZM23.4097 29.0124C23.7459 29.0589 24.0885 29.0112 24.3992 28.8744L23.5932 27.044C23.6218 27.0314 23.6531 27.0271 23.6837 27.0313L23.4097 29.0124ZM26.9121 36C25.4676 36 24.4794 35.9981 23.7303 35.9022C23.0092 35.81 22.643 35.6443 22.379 35.4081L21.0451 36.8983C21.7273 37.5088 22.5431 37.7666 23.4765 37.8861C24.3819 38.0019 25.5206 38 26.9121 38V36ZM19.3185 30.2C19.4657 31.5684 19.5847 32.9329 19.7873 34.039C19.8898 34.5985 20.0207 35.136 20.2055 35.6083C20.3883 36.0755 20.648 36.5428 21.0451 36.8983L22.379 35.4081C22.3031 35.3401 22.1892 35.1893 22.0681 34.8797C21.949 34.5753 21.8459 34.1773 21.7546 33.6787C21.5696 32.6687 21.462 31.4266 21.3071 29.9861L19.3185 30.2ZM34.6929 29.9861C34.538 31.4266 34.4304 32.6687 34.2454 33.6787C34.1541 34.1773 34.051 34.5753 33.9319 34.8797C33.8108 35.1893 33.6969 35.3401 33.621 35.4081L34.9549 36.8983C35.352 36.5428 35.6117 36.0755 35.7945 35.6083C35.9793 35.136 36.1102 34.5985 36.2127 34.039C36.4153 32.9329 36.5343 31.5684 36.6815 30.2L34.6929 29.9861ZM29.0879 38C30.4794 38 31.6181 38.0019 32.5235 37.8861C33.4569 37.7666 34.2727 37.5088 34.9549 36.8983L33.621 35.4081C33.357 35.6443 32.9908 35.81 32.2697 35.9022C31.5206 35.9981 30.5324 36 29.0879 36V38ZM27 21C27 20.4477 27.4477 20 28 20V18C26.3431 18 25 19.3431 25 21H27ZM28 20C28.5523 20 29 20.4477 29 21H31C31 19.3431 29.6569 18 28 18V20ZM36.5 25C36.5 25.2761 36.2761 25.5 36 25.5V27.5C37.3807 27.5 38.5 26.3807 38.5 25H36.5ZM35.5 25C35.5 24.7239 35.7239 24.5 36 24.5V22.5C34.6193 22.5 33.5 23.6193 33.5 25H35.5ZM36 24.5C36.2761 24.5 36.5 24.7239 36.5 25H38.5C38.5 23.6193 37.3807 22.5 36 22.5V24.5ZM20 25.5C19.7239 25.5 19.5 25.2761 19.5 25H17.5C17.5 26.3807 18.6193 27.5 20 27.5V25.5ZM19.5 25C19.5 24.7239 19.7239 24.5 20 24.5V22.5C18.6193 22.5 17.5 23.6193 17.5 25H19.5ZM20 24.5C20.2761 24.5 20.5 24.7239 20.5 25H22.5C22.5 23.6193 21.3807 22.5 20 22.5V24.5ZM36 25.5C35.998 25.5 35.9959 25.5 35.9939 25.5L35.9707 27.4998C35.9805 27.4999 35.9902 27.5 36 27.5V25.5ZM36.8648 28.4954C36.913 28.0471 36.956 27.649 36.9796 27.3157C37.0026 26.9913 37.013 26.6622 36.9734 26.3671L34.9911 26.6327C35.0023 26.716 35.0057 26.8764 34.9846 27.1743C34.9641 27.4633 34.9259 27.8203 34.8763 28.2815L36.8648 28.4954ZM35.9939 25.5C35.8456 25.4982 35.7132 25.4329 35.6212 25.3264L34.1077 26.6339C34.5587 27.1558 35.2258 27.4912 35.9707 27.4998L35.9939 25.5ZM35.6212 25.3264C35.545 25.2382 35.5 25.1256 35.5 25H33.5C33.5 25.6237 33.7297 26.1962 34.1077 26.6339L35.6212 25.3264ZM34.1762 27.9536C34.8656 27.2669 35.1888 26.9551 35.3897 26.8311L34.3392 25.1292C33.888 25.4077 33.3587 25.9451 32.7648 26.5367L34.1762 27.9536ZM20.5 25C20.5 25.1256 20.455 25.2382 20.3788 25.3264L21.8923 26.6339C22.2703 26.1962 22.5 25.6237 22.5 25H20.5ZM23.2352 26.5367C22.6413 25.9451 22.112 25.4077 21.6608 25.1292L20.6103 26.8311C20.8112 26.9551 21.1344 27.2669 21.8238 27.9536L23.2352 26.5367ZM20.3788 25.3264C20.2868 25.4329 20.1544 25.4982 20.0061 25.5L20.0293 27.4998C20.7742 27.4912 21.4413 27.1558 21.8923 26.6339L20.3788 25.3264ZM20.0061 25.5C20.0041 25.5 20.002 25.5 20 25.5V27.5C20.0098 27.5 20.0195 27.4999 20.0293 27.4998L20.0061 25.5ZM21.1237 28.2815C21.0741 27.8203 21.0359 27.4633 21.0154 27.1743C20.9943 26.8764 20.9977 26.716 21.0089 26.6327L19.0266 26.3671C18.987 26.6622 18.9974 26.9913 19.0204 27.3156C19.044 27.649 19.087 28.0471 19.1352 28.4954L21.1237 28.2815ZM29 21C29 21.3875 28.7799 21.7252 28.4532 21.8919L29.3621 23.6734C30.3322 23.1785 31 22.1681 31 21H29ZM28.4532 21.8919C28.3183 21.9607 28.1652 22 28 22V24C28.4884 24 28.9523 23.8825 29.3621 23.6734L28.4532 21.8919ZM30.3238 23.2383C30.1186 22.8703 29.9299 22.5314 29.7557 22.2527L28.0596 23.3126C28.2016 23.5398 28.3634 23.8294 28.5771 24.2125L30.3238 23.2383ZM28 22C27.8348 22 27.6817 21.9607 27.5468 21.8919L26.6379 23.6734C27.0477 23.8825 27.5116 24 28 24V22ZM27.5468 21.8919C27.2201 21.7252 27 21.3875 27 21H25C25 22.1681 25.6678 23.1785 26.6379 23.6734L27.5468 21.8919ZM27.4229 24.2125C27.6366 23.8294 27.7984 23.5398 27.9404 23.3126L26.2443 22.2527C26.0701 22.5314 25.8814 22.8703 25.6762 23.2383L27.4229 24.2125Z" fill="#718BFF"/>
<path d="M21 33.5H35" stroke="#718BFF" stroke-width="2" stroke-linecap="round"/>
<rect x="4" y="4" width="48" height="48" rx="24" stroke="#202843" stroke-width="8"/>
</svg>
