<svg width="160" height="100" viewBox="0 0 160 100" fill="none" xmlns="http://www.w3.org/2000/svg">
<g clip-path="url(#clip0_268_70293)">
<rect width="160" height="100" rx="8" fill="#202430"/>
<g clip-path="url(#clip1_268_70293)">
<g clip-path="url(#clip2_268_70293)">
<rect x="186.022" y="76.9331" width="22.3391" height="22.3391" rx="3.88506" transform="rotate(107.062 186.022 76.9331)" fill="white" fill-opacity="0.02"/>
<rect x="179.307" y="97.9856" width="21.8535" height="21.8535" rx="3.64224" transform="rotate(107.062 179.307 97.9856)" stroke="white" stroke-opacity="0.04" stroke-width="0.485633"/>
<rect x="184.367" y="7.84619" width="22.3391" height="22.3391" rx="3.88506" transform="rotate(107.062 184.367 7.84619)" fill="white" fill-opacity="0.02"/>
<rect x="177.652" y="28.8987" width="21.8535" height="21.8535" rx="3.64224" transform="rotate(107.062 177.652 28.8987)" stroke="white" stroke-opacity="0.04" stroke-width="0.485633"/>
<rect x="171.543" y="49.6294" width="22.3391" height="22.3391" rx="3.88506" transform="rotate(107.062 171.543 49.6294)" fill="white" fill-opacity="0.02"/>
<path d="M160.955 58.5313C161.1 56.9318 160.685 54.9009 159.929 53.6998C159.46 52.9156 159.37 52.8707 158.938 53.1531C158.581 53.3553 157.855 54.9321 158.077 55C158.156 55.0243 158.175 55.1861 158.122 55.36C158.068 55.534 158.104 55.7006 158.199 55.7297C158.294 55.7588 158.307 55.8841 158.205 55.9912C158.119 56.1032 158.116 56.2236 158.195 56.2478C158.29 56.277 158.305 56.4545 158.252 56.6285C158.155 56.9448 158.128 56.9193 157.821 56.3405C157.655 55.9782 157.521 55.6256 157.55 55.5307C157.613 55.3251 157.345 55.2426 157.16 55.3935C157.083 55.4739 157.047 56.155 157.066 56.9395C157.091 57.9855 157.033 58.4002 156.864 58.556C156.392 58.965 156.047 58.9628 155.22 58.5012C154.79 58.2656 154.414 58.081 154.378 58.0871C154.352 58.1139 154.45 58.4726 154.607 58.9189C154.933 59.8843 155.783 60.8373 156.709 61.2599C157.54 61.6534 157.626 61.5414 157.422 60.4579C157.298 59.8486 157.331 59.6856 157.654 59.1965C157.871 58.8825 158.101 58.6415 158.18 58.6658C158.465 58.7532 158.453 60.0303 158.157 60.77C157.877 61.5145 157.888 61.5352 158.296 61.5568C159.591 61.6252 160.788 60.2621 160.955 58.5313ZM159.705 57.0228C159.501 56.787 159.516 55.6668 159.727 55.5413C159.82 55.4659 160.063 56.8729 160.006 57.115C159.962 57.2573 159.894 57.2537 159.705 57.0228Z" fill="white" fill-opacity="0.02"/>
<path d="M155.218 57.5489C155.124 57.1221 155.147 56.9907 155.403 56.7753C155.552 56.6304 155.768 56.2642 155.865 55.9479L156.04 55.3785L155.451 55.7171C154.842 56.0666 153.577 56.1283 153.11 55.8464C152.733 55.6095 152.827 56.0364 153.252 56.5128C153.461 56.7328 153.738 56.9564 153.881 57.0001C154.007 57.0389 154.37 57.3233 154.664 57.6041C154.97 57.9055 155.232 58.1242 155.273 58.1023C155.298 58.0755 155.287 57.8298 155.218 57.5489Z" fill="white" fill-opacity="0.02"/>
<rect x="164.827" y="70.6819" width="21.8535" height="21.8535" rx="3.64224" transform="rotate(107.062 164.827 70.6819)" stroke="white" stroke-opacity="0.04" stroke-width="0.485633"/>
<rect x="158.718" y="91.4126" width="22.3391" height="22.3391" rx="3.88506" transform="rotate(107.062 158.718 91.4126)" fill="white" fill-opacity="0.02"/>
<g clip-path="url(#clip3_268_70293)">
<path d="M143.106 100.841C143.16 100.664 143.188 100.484 143.191 100.308L146.958 99.8143L146.537 101.188C146.288 101.999 146.743 102.858 147.554 103.106L148.441 103.379L148.969 101.659C149.218 100.848 148.763 99.9887 147.952 99.7398L147.7 99.6626C148.281 99.8409 148.896 99.5145 149.075 98.9336L149.477 97.6241L148.841 97.429C148.26 97.2507 147.645 97.5771 147.467 98.158L147.142 99.216L144.3 96.6946C144.392 96.5557 144.472 96.3882 144.528 96.2066C144.528 96.206 144.529 96.2057 144.529 96.2051C144.842 95.1855 144.267 94.1017 143.248 93.7888C142.228 93.476 141.144 94.0507 140.832 95.0701C140.519 96.0894 141.093 97.1732 142.113 97.4861C142.761 97.6851 143.436 97.5248 143.922 97.1193L146.395 99.3137L143.116 99.7429C142.938 99.1301 142.471 98.6232 141.825 98.4245C140.806 98.1118 139.722 98.6864 139.409 99.7058C139.096 100.725 139.671 101.809 140.69 102.122C141.71 102.435 142.793 101.86 143.106 100.841L143.106 100.841Z" fill="white" fill-opacity="0.02"/>
</g>
<rect x="169.888" y="-19.4575" width="22.3391" height="22.3391" rx="3.88506" transform="rotate(107.062 169.888 -19.4575)" fill="white" fill-opacity="0.02"/>
<rect x="163.172" y="1.59496" width="21.8535" height="21.8535" rx="3.64224" transform="rotate(107.062 163.172 1.59496)" stroke="white" stroke-opacity="0.04" stroke-width="0.485633"/>
<rect x="157.064" y="22.3257" width="22.3391" height="22.3391" rx="3.88506" transform="rotate(107.062 157.064 22.3257)" fill="white" fill-opacity="0.02"/>
<g clip-path="url(#clip4_268_70293)">
<path d="M143.411 34.7604L143.495 34.7863C144.213 35.0065 145.374 33.3308 146.086 31.0095C146.798 28.6882 146.778 26.6498 146.06 26.4296L145.976 26.4037L146.018 26.4167L144.921 26.0799C144.667 26.0022 144.379 26.1906 143.983 26.5772C143.983 26.5772 142.971 27.4672 142.232 29.8729C141.921 30.8859 141.75 31.8954 141.79 32.9698C141.81 33.8072 142.047 34.388 142.343 34.4787L143.411 34.7604ZM145.947 27.5495C146.279 27.9745 146.173 29.3735 145.706 30.8929C145.24 32.4123 144.488 33.6593 144.017 33.8381C143.962 33.8674 143.878 33.8415 143.835 33.8285L143.667 33.7767C143.722 33.7474 143.79 33.676 143.845 33.6467C144.325 33.2861 144.857 32.1562 145.284 30.7634C145.712 29.3706 145.893 28.1793 145.697 27.6114C145.681 27.514 145.652 27.4589 145.593 27.3485L145.804 27.4133C145.847 27.4263 145.918 27.4944 145.947 27.5495ZM141.196 33.2493L140.099 32.9125C139.803 32.8219 139.608 32.254 139.546 31.4036C139.506 30.3293 139.678 29.3197 139.988 28.3068C140.811 25.927 141.781 25.0239 141.781 25.0239C142.177 24.6374 142.508 24.4619 142.719 24.5267L143.901 24.8894C144.112 24.9541 144.287 25.2851 144.381 25.7297L144.339 25.7167C144.086 25.639 143.742 25.8567 143.333 26.2855C143.333 26.2855 142.406 27.2015 141.609 29.4968C141.256 30.4968 141.114 31.5616 141.166 32.5937C141.186 32.8306 141.219 33.0254 141.196 33.2493Z" fill="white" fill-opacity="0.02"/>
</g>
<rect x="150.348" y="43.3782" width="21.8535" height="21.8535" rx="3.64224" transform="rotate(107.062 150.348 43.3782)" stroke="white" stroke-opacity="0.04" stroke-width="0.485633"/>
<rect x="144.239" y="64.1089" width="22.3391" height="22.3391" rx="3.88506" transform="rotate(107.062 144.239 64.1089)" fill="white" fill-opacity="0.02"/>
<g clip-path="url(#clip5_268_70293)">
<path d="M133.63 72.2377C133.705 71.8946 133.726 71.5626 133.7 71.2387L133.702 71.2631L134.577 71.1301C134.618 71.5535 134.589 72.0205 134.48 72.4852L134.476 72.4981L133.63 72.2384L133.63 72.2377ZM133.619 70.7199C133.539 70.3895 133.42 70.0899 133.261 69.8123L133.26 69.81L133.992 69.3101C134.223 69.7005 134.391 70.1222 134.49 70.5634L134.494 70.5867L133.619 70.7199ZM132.95 69.3569C132.758 69.1175 132.522 68.8938 132.254 68.7059L132.233 68.6921L132.675 67.9242C133.083 68.1987 133.416 68.5136 133.692 68.8694L133.681 68.8567L132.95 69.3569ZM131.757 68.4176C131.623 68.3531 131.464 68.2911 131.299 68.2405C131.135 68.1899 130.969 68.1523 130.803 68.1275L130.822 68.1307L130.887 67.2481C131.095 67.2751 131.329 67.3256 131.561 67.3969C131.792 67.4677 132.013 67.5564 132.222 67.6606L132.199 67.6501L131.757 68.4177L131.757 68.4176ZM130.274 68.0902C129.948 68.0926 129.622 68.1411 129.307 68.2367L128.982 67.4122C129.395 67.2778 129.847 67.2044 130.307 67.2061L130.339 67.2075L130.274 68.0902L130.274 68.0902ZM127.126 70.2407L126.28 69.9802C126.454 69.5216 126.692 69.1185 126.984 68.7672L126.965 68.7912L127.615 69.3932C127.426 69.6276 127.257 69.9144 127.131 70.2291L127.126 70.2407ZM126.893 71.7411L126.018 71.8741C125.977 71.4504 126.006 70.9828 126.116 70.5176L126.119 70.5049L126.965 70.7653C126.89 71.1087 126.869 71.4413 126.894 71.7658L126.893 71.7411ZM127.334 73.1939L126.602 73.6938C126.371 73.3031 126.203 72.881 126.104 72.4397L126.1 72.4165L126.976 72.2838C127.055 72.6142 127.174 72.9141 127.333 73.192L127.334 73.194L127.334 73.1939ZM128.361 74.312L127.918 75.0801C127.51 74.8053 127.178 74.4906 126.902 74.1344L126.912 74.1472L127.644 73.6472C127.85 73.9012 128.092 74.1262 128.361 74.312ZM129.772 74.8743L129.706 75.757C129.498 75.73 129.264 75.6797 129.032 75.6084C128.801 75.5375 128.581 75.4488 128.371 75.3445L128.394 75.355L128.836 74.5872C128.97 74.6517 129.128 74.7137 129.294 74.7644C129.459 74.8151 129.624 74.8526 129.79 74.8777L129.771 74.8745L129.772 74.8743ZM131.286 74.7695L131.61 75.5934C131.197 75.7278 130.745 75.8005 130.285 75.7988L130.253 75.7975L130.319 74.915C130.672 74.9115 130.993 74.8599 131.3 74.7658L131.286 74.7695L131.286 74.7695ZM132.605 74.0161L133.254 74.6183C132.908 74.9443 132.532 75.1986 132.126 75.3905L132.122 75.3924L131.798 74.5681C132.087 74.4261 132.354 74.2449 132.592 74.0286L132.605 74.0161ZM128.796 68.4386C128.507 68.5807 128.24 68.762 128.002 68.9782L127.989 68.9907L127.339 68.3885C127.685 68.0624 128.061 67.8075 128.467 67.6156L128.471 67.6136L128.796 68.4382L128.796 68.4386ZM130.764 71.8635L131.483 73.0841L130.941 73.3714L130.334 72.0908L129.937 71.9688L128.716 72.6886L128.429 72.1463L129.709 71.5395L129.831 71.1419L129.111 69.9216L129.654 69.634L130.261 70.9144L130.658 71.0364L131.878 70.3168L132.166 70.8591L130.886 71.4657L130.764 71.8635ZM130.123 76.3447C132.795 76.4409 135.043 74.3489 135.14 71.6772C135.236 69.0056 133.144 66.7572 130.472 66.6608C127.8 66.5646 125.552 68.6563 125.456 71.3282C125.359 74 127.451 76.2484 130.123 76.3446L130.123 76.3447ZM132.978 73.6134C133.168 73.3785 133.337 73.0909 133.464 72.7754L133.468 72.7638L134.315 73.0236C134.141 73.4832 133.902 73.8873 133.61 74.2394L133.628 74.2154L132.978 73.6134Z" fill="white" fill-opacity="0.02"/>
</g>
<rect x="137.524" y="85.1614" width="21.8535" height="21.8535" rx="3.64224" transform="rotate(107.062 137.524 85.1614)" stroke="white" stroke-opacity="0.04" stroke-width="0.485633"/>
<rect x="131.415" y="105.892" width="22.3391" height="22.3391" rx="3.88506" transform="rotate(107.062 131.415 105.892)" fill="white" fill-opacity="0.02"/>
<rect x="142.584" y="-4.97803" width="22.3391" height="22.3391" rx="3.88506" transform="rotate(107.062 142.584 -4.97803)" fill="white" fill-opacity="0.02"/>
<g clip-path="url(#clip6_268_70293)">
<path d="M126.972 4.45065C127.027 4.27336 127.054 4.09384 127.057 3.9173L130.824 3.4239L130.403 4.79723C130.154 5.60823 130.61 6.46716 131.421 6.71607L132.308 6.98832L132.835 5.26825C133.084 4.45725 132.629 3.59832 131.818 3.3494L131.566 3.27219C132.147 3.45048 132.763 3.12409 132.941 2.54319L133.343 1.23369L132.707 1.03866C132.127 0.860365 131.511 1.18676 131.333 1.76766L131.008 2.82559L128.166 0.304215C128.258 0.165282 128.339 -0.00216035 128.395 -0.183801C128.395 -0.184381 128.395 -0.184672 128.395 -0.185252C128.708 -1.20488 128.133 -2.28868 127.114 -2.60154C126.094 -2.9144 125.011 -2.33965 124.698 -1.32031C124.385 -0.300975 124.96 0.782831 125.979 1.09569C126.628 1.29473 127.302 1.13446 127.788 0.728895L130.261 2.92336L126.983 3.35253C126.805 2.73974 126.338 2.23287 125.691 2.03416C124.672 1.72139 123.588 2.29605 123.275 3.31539C122.962 4.33473 123.537 5.41853 124.557 5.73139C125.576 6.04425 126.66 5.46949 126.973 4.45016L126.972 4.45065Z" fill="white" fill-opacity="0.02"/>
</g>
<rect x="135.869" y="16.0745" width="21.8535" height="21.8535" rx="3.64224" transform="rotate(107.062 135.869 16.0745)" stroke="white" stroke-opacity="0.04" stroke-width="0.485633"/>
<rect x="129.76" y="36.8052" width="22.3391" height="22.3391" rx="3.88506" transform="rotate(107.062 129.76 36.8052)" fill="white" fill-opacity="0.02"/>
<path d="M120.196 47.7862C120.147 47.4944 119.978 46.9751 119.786 46.6396L119.448 46.0511L119.239 46.7312C119.138 47.1156 118.926 47.6387 118.78 47.8882C118.554 48.286 118.562 48.3748 118.849 48.5668C119.04 48.6773 119.373 48.8316 119.626 48.9092C119.974 49.016 120.073 48.977 120.16 48.6924C120.207 48.4819 120.224 48.0891 120.196 47.7862Z" fill="white" fill-opacity="0.02"/>
<path d="M119.173 45.7071C119.317 44.1076 118.902 42.0767 118.146 40.8755C117.678 40.0914 117.587 40.0464 117.155 40.3289C116.798 40.5311 116.072 42.1079 116.294 42.1758C116.373 42.2001 116.392 42.3618 116.339 42.5358C116.286 42.7098 116.321 42.8764 116.416 42.9055C116.511 42.9346 116.524 43.0599 116.422 43.167C116.336 43.2789 116.333 43.3994 116.413 43.4236C116.507 43.4528 116.522 43.6303 116.469 43.8043C116.372 44.1206 116.345 44.0951 116.038 43.5163C115.872 43.154 115.738 42.8014 115.767 42.7065C115.83 42.5009 115.562 42.4184 115.377 42.5693C115.3 42.6496 115.264 43.3308 115.283 44.1153C115.308 45.1612 115.25 45.576 115.081 45.7318C114.609 46.1408 114.264 46.1386 113.437 45.677C113.007 45.4414 112.631 45.2568 112.595 45.2629C112.569 45.2896 112.667 45.6484 112.824 46.0946C113.151 47.0601 114 48.0131 114.926 48.4357C115.757 48.8292 115.843 48.7172 115.639 47.6337C115.515 47.0244 115.548 46.8614 115.871 46.3722C116.088 46.0583 116.318 45.8173 116.397 45.8416C116.682 45.9289 116.671 47.206 116.374 47.9457C116.094 48.6903 116.105 48.711 116.514 48.7326C117.808 48.801 119.005 47.4379 119.173 45.7071ZM117.922 44.1985C117.718 43.9627 117.733 42.8425 117.945 42.7171C118.037 42.6416 118.28 44.0487 118.223 44.2908C118.179 44.4331 118.111 44.4295 117.922 44.1985Z" fill="white" fill-opacity="0.02"/>
<path d="M113.435 44.7247C113.341 44.2979 113.364 44.1665 113.62 43.951C113.769 43.8062 113.985 43.4399 114.082 43.1237L114.257 42.5543L113.668 42.8929C113.059 43.2423 111.794 43.304 111.327 43.0222C110.95 42.7853 111.044 43.2121 111.469 43.6886C111.678 43.9086 111.955 44.1322 112.098 44.1759C112.224 44.2147 112.587 44.4991 112.881 44.7798C113.187 45.0813 113.449 45.3 113.49 45.2781C113.515 45.2513 113.504 45.0056 113.435 44.7247Z" fill="white" fill-opacity="0.02"/>
<rect x="123.044" y="57.8577" width="21.8535" height="21.8535" rx="3.64224" transform="rotate(107.062 123.044 57.8577)" stroke="white" stroke-opacity="0.04" stroke-width="0.485633"/>
<rect x="116.935" y="78.5884" width="22.3391" height="22.3391" rx="3.88506" transform="rotate(107.062 116.935 78.5884)" fill="white" fill-opacity="0.02"/>
<g clip-path="url(#clip7_268_70293)">
<path d="M103.282 91.0231L103.366 91.049C104.084 91.2692 105.245 89.5935 105.957 87.2722C106.669 84.9509 106.649 82.9125 105.931 82.6923L105.847 82.6664L105.889 82.6794L104.792 82.3426C104.538 82.2648 104.25 82.4533 103.854 82.8398C103.854 82.8398 102.842 83.7299 102.103 86.1356C101.792 87.1485 101.621 88.1581 101.661 89.2325C101.681 90.0699 101.918 90.6507 102.214 90.7414L103.282 91.0231ZM105.818 83.8122C106.15 84.2372 106.043 85.6362 105.577 87.1556C105.111 88.675 104.359 89.922 103.888 90.1008C103.833 90.1301 103.749 90.1041 103.706 90.0912L103.538 90.0394C103.593 90.0101 103.661 89.9387 103.716 89.9094C104.196 89.5488 104.728 88.4189 105.155 87.0261C105.583 85.6333 105.763 84.442 105.568 83.8741C105.552 83.7767 105.523 83.7215 105.464 83.6112L105.675 83.676C105.718 83.689 105.789 83.7571 105.818 83.8122ZM101.067 89.512L99.9697 89.1752C99.6743 89.0846 99.4791 88.5167 99.4169 87.6663C99.3772 86.592 99.5485 85.5824 99.8594 84.5694C100.682 82.1897 101.652 81.2866 101.652 81.2866C102.048 80.9001 102.379 80.7246 102.59 80.7894L103.771 81.1521C103.982 81.2168 104.158 81.5478 104.252 81.9924L104.21 81.9794C103.957 81.9017 103.613 82.1194 103.204 82.5482C103.204 82.5482 102.277 83.4642 101.48 85.7595C101.127 86.7595 100.985 87.8243 101.037 88.8564C101.057 89.0933 101.09 89.2881 101.067 89.512Z" fill="white" fill-opacity="0.02"/>
</g>
<rect x="110.22" y="99.6409" width="21.8535" height="21.8535" rx="3.64224" transform="rotate(107.062 110.22 99.6409)" stroke="white" stroke-opacity="0.04" stroke-width="0.485633"/>
<rect x="121.389" y="-11.2293" width="21.8535" height="21.8535" rx="3.64224" transform="rotate(107.062 121.389 -11.2293)" stroke="white" stroke-opacity="0.04" stroke-width="0.485633"/>
<rect x="115.28" y="9.50146" width="22.3391" height="22.3391" rx="3.88506" transform="rotate(107.062 115.28 9.50146)" fill="white" fill-opacity="0.02"/>
<g clip-path="url(#clip8_268_70293)">
<path d="M105.857 15.7409L102.99 12.3333L98.5607 13.1199L101.427 16.5275L105.857 15.7409ZM102.401 13.4129C102.458 13.2286 102.653 13.1251 102.837 13.1816C103.022 13.2382 103.125 13.4335 103.069 13.6177C103.012 13.802 102.817 13.9055 102.633 13.849C102.448 13.7924 102.345 13.5971 102.401 13.4129ZM100.561 13.7321C100.617 13.5479 100.812 13.4443 100.997 13.5009C101.181 13.5574 101.285 13.7527 101.228 13.937C101.171 14.1212 100.976 14.2248 100.792 14.1682C100.608 14.1117 100.504 13.9164 100.561 13.7321ZM103.524 14.7617C103.581 14.5774 103.776 14.4739 103.96 14.5304C104.144 14.587 104.248 14.7823 104.191 14.9665C104.135 15.1508 103.94 15.2543 103.755 15.1978C103.571 15.1412 103.467 14.9459 103.524 14.7617ZM101.59 15.1398C101.646 14.9556 101.841 14.8522 102.025 14.9088C102.21 14.9653 102.313 15.1603 102.257 15.3446C102.2 15.5288 102.005 15.6324 101.821 15.5759C101.636 15.5193 101.533 15.324 101.589 15.1398L101.59 15.1398ZM100.97 16.9126L98.0476 13.4386L96.4547 17.8309L99.3771 21.305L100.97 16.9126ZM97.9863 15.7319C98.0429 15.5476 98.2381 15.4443 98.422 15.5008C98.606 15.5572 98.7096 15.7525 98.6531 15.9365C98.5966 16.1208 98.4014 16.224 98.2174 16.1676C98.0334 16.1111 97.9299 15.9158 97.9863 15.7319ZM98.6245 18.8518C98.681 18.6676 98.8762 18.5643 99.0602 18.6208C99.2441 18.6772 99.3477 18.8725 99.2912 19.0565C99.2347 19.2407 99.0395 19.344 98.8555 19.2876C98.6716 19.2311 98.568 19.0358 98.6245 18.8518ZM104.484 20.7423L106.092 16.3069L101.532 17.1163L99.9239 21.5519L104.484 20.7423ZM102.597 18.9941C102.653 18.8098 102.849 18.7063 103.033 18.7628C103.217 18.8194 103.321 19.0147 103.264 19.1989C103.208 19.3832 103.012 19.4868 102.828 19.4302C102.644 19.3736 102.54 19.1784 102.597 18.9941Z" fill="white" fill-opacity="0.02"/>
</g>
<rect x="108.565" y="30.5539" width="21.8535" height="21.8535" rx="3.64224" transform="rotate(107.062 108.565 30.5539)" stroke="white" stroke-opacity="0.04" stroke-width="0.485633"/>
<rect x="102.456" y="51.2847" width="22.3391" height="22.3391" rx="3.88506" transform="rotate(107.062 102.456 51.2847)" fill="white" fill-opacity="0.02"/>
<g clip-path="url(#clip9_268_70293)">
<path d="M91.8463 59.4132C91.9211 59.0701 91.942 58.7381 91.917 58.4142L91.9181 58.4387L92.7933 58.3056C92.8341 58.729 92.8051 59.196 92.6961 59.6607L92.6928 59.6737L91.8464 59.4139L91.8463 59.4132ZM91.8352 57.8954C91.756 57.565 91.6365 57.2655 91.4778 56.9878L91.4766 56.9856L92.2083 56.4856C92.4396 56.876 92.6076 57.2978 92.7065 57.739L92.7108 57.7622L91.8352 57.8954ZM91.1661 56.5325C90.9748 56.2931 90.7384 56.0694 90.4706 55.8815L90.4494 55.8677L90.8915 55.0998C91.2997 55.3743 91.6326 55.6892 91.9082 56.0449L91.8978 56.0322L91.1661 56.5325ZM89.973 55.5932C89.8391 55.5286 89.6807 55.4666 89.5159 55.416C89.3511 55.3655 89.1851 55.3279 89.0194 55.303L89.0381 55.3062L89.1033 54.4236C89.3115 54.4507 89.5452 54.5011 89.7776 54.5725C90.0083 54.6433 90.2291 54.732 90.4381 54.8361L90.4153 54.8256L89.9733 55.5933L89.973 55.5932ZM88.4905 55.2658C88.1649 55.2681 87.8389 55.3166 87.5235 55.4122L87.1987 54.5877C87.6111 54.4533 88.0632 54.38 88.5237 54.3816L88.5553 54.3831L88.4902 55.2657L88.4905 55.2658ZM85.3429 57.4162L84.4963 57.1558C84.6705 56.6971 84.9088 56.294 85.2001 55.9427L85.182 55.9667L85.8319 56.5688C85.6428 56.8031 85.4735 57.0899 85.3474 57.4046L85.3429 57.4162ZM85.1097 58.9166L84.2345 59.0496C84.1937 58.6259 84.2229 58.1583 84.3324 57.6931L84.3356 57.6805L85.1818 57.9408C85.1069 58.2842 85.0858 58.6168 85.1107 58.9413L85.1097 58.9166ZM85.5502 60.3694L84.8183 60.8693C84.5871 60.4786 84.4191 60.0565 84.3209 59.6152L84.3166 59.592L85.192 59.4594C85.2713 59.7898 85.3907 60.0896 85.5492 60.3675L85.5505 60.3695L85.5502 60.3694ZM86.577 61.4875L86.1346 62.2556C85.7265 61.9808 85.3942 61.6661 85.1184 61.31L85.1287 61.3227L85.8603 60.8227C86.0662 61.0767 86.308 61.3017 86.577 61.4875ZM87.9881 62.0498L87.9223 62.9326C87.7144 62.9056 87.4809 62.8552 87.2488 62.784C87.0178 62.7131 86.7971 62.6244 86.5875 62.52L86.6103 62.5305L87.0526 61.7627C87.1865 61.8273 87.345 61.8892 87.5101 61.9399C87.6752 61.9906 87.8408 62.0281 88.0064 62.0532L87.9877 62.05L87.9881 62.0498ZM89.5024 61.945L89.8264 62.769C89.414 62.9034 88.9618 62.976 88.5013 62.9744L88.4699 62.973L88.5357 62.0906C88.8882 62.087 89.2095 62.0354 89.5162 61.9413L89.5027 61.9451L89.5024 61.945ZM90.8213 61.1916L91.4709 61.7938C91.1241 62.1198 90.7486 62.3742 90.3423 62.566L90.3383 62.5679L90.0144 61.7437C90.3037 61.6017 90.5708 61.4204 90.8086 61.2042L90.8213 61.1916ZM87.0123 55.6141C86.7235 55.7563 86.4565 55.9375 86.2186 56.1538L86.2056 56.1663L85.5551 55.564C85.9016 55.2379 86.2773 54.9831 86.6832 54.7911L86.6873 54.7892L87.0121 55.6137L87.0123 55.6141ZM88.9802 59.039L89.6996 60.2596L89.1574 60.5469L88.551 59.2664L88.1534 59.1444L86.9328 59.8641L86.6452 59.3218L87.9255 58.715L88.0475 58.3175L87.328 57.0972L87.8703 56.8096L88.4771 58.0899L88.8746 58.2119L90.0949 57.4924L90.3825 58.0347L89.1023 58.6412L88.9802 59.039ZM88.3391 63.5202C91.0112 63.6165 93.2598 61.5244 93.3562 58.8528C93.4526 56.1811 91.3605 53.9328 88.6888 53.8363C86.0168 53.7401 83.7683 55.8319 83.6724 58.5037C83.5756 61.1756 85.6678 63.4239 88.3398 63.5201L88.3391 63.5202ZM91.1945 60.7889C91.384 60.5541 91.5539 60.2665 91.6803 59.9509L91.6848 59.9393L92.5315 60.1992C92.3571 60.6587 92.1181 61.0629 91.8262 61.4149L91.8444 61.391L91.1945 60.7889Z" fill="white" fill-opacity="0.02"/>
</g>
<rect x="95.7401" y="72.3372" width="21.8535" height="21.8535" rx="3.64224" transform="rotate(107.062 95.7401 72.3372)" stroke="white" stroke-opacity="0.04" stroke-width="0.485633"/>
<rect x="89.6314" y="93.0679" width="22.3391" height="22.3391" rx="3.88506" transform="rotate(107.062 89.6314 93.0679)" fill="white" fill-opacity="0.02"/>
<path d="M79.0436 101.97C79.1885 100.37 78.7735 98.3394 78.0174 97.1382C77.5485 96.3541 77.4585 96.3091 77.0257 96.5916C76.6695 96.7938 75.9433 98.3706 76.1647 98.4385C76.2438 98.4628 76.2633 98.6245 76.2099 98.7985C76.1565 98.9725 76.1919 99.1391 76.2868 99.1682C76.3817 99.1973 76.3952 99.3226 76.2931 99.4297C76.2068 99.5416 76.2045 99.6621 76.2835 99.6863C76.3784 99.7154 76.3931 99.893 76.3398 100.067C76.2427 100.383 76.2159 100.358 75.909 99.779C75.7433 99.4167 75.6093 99.0641 75.6384 98.9692C75.7015 98.7636 75.4327 98.6811 75.2479 98.832C75.1713 98.9123 75.1353 99.5935 75.1541 100.378C75.1792 101.424 75.1211 101.839 74.9521 101.995C74.4805 102.404 74.1351 102.401 73.3077 101.94C72.8782 101.704 72.5022 101.519 72.4658 101.526C72.4402 101.552 72.5378 101.911 72.695 102.357C73.0216 103.323 73.8713 104.276 74.7971 104.698C75.6281 105.092 75.7144 104.98 75.5105 103.896C75.386 103.287 75.4188 103.124 75.7419 102.635C75.9594 102.321 76.1891 102.08 76.2682 102.104C76.5529 102.192 76.5416 103.469 76.2454 104.208C75.9649 104.953 75.9759 104.974 76.3846 104.995C77.6787 105.064 78.8758 103.701 79.0436 101.97ZM77.7935 100.461C77.589 100.225 77.604 99.1052 77.8155 98.9798C77.9079 98.9043 78.1509 100.311 78.094 100.553C78.0503 100.696 77.9822 100.692 77.7935 100.461Z" fill="white" fill-opacity="0.02"/>
<path d="M73.3059 100.987C73.2119 100.561 73.2349 100.429 73.4914 100.214C73.6397 100.069 73.8559 99.7026 73.953 99.3863L74.1278 98.817L73.5393 99.1555C72.9302 99.505 71.6654 99.5667 71.1981 99.2849C70.8209 99.048 70.9149 99.4748 71.3397 99.9513C71.549 100.171 71.8265 100.395 71.9688 100.439C72.0953 100.477 72.458 100.762 72.7525 101.043C73.058 101.344 73.3197 101.563 73.361 101.541C73.3865 101.514 73.3754 101.268 73.3059 100.987Z" fill="white" fill-opacity="0.02"/>
</g>
</g>
<path d="M9.00426 23V12.8182H12.8224C13.6046 12.8182 14.2609 12.9541 14.7912 13.2259C15.3248 13.4976 15.7275 13.8788 15.9993 14.3693C16.2744 14.8565 16.4119 15.425 16.4119 16.0746C16.4119 16.7275 16.2727 17.2943 15.9943 17.7749C15.7192 18.2521 15.3132 18.6217 14.7763 18.8835C14.2393 19.142 13.5798 19.2713 12.7976 19.2713H10.0781V17.7401H12.549C13.0064 17.7401 13.3809 17.6771 13.6726 17.5511C13.9643 17.4219 14.1797 17.2346 14.3189 16.9893C14.4614 16.7408 14.5327 16.4358 14.5327 16.0746C14.5327 15.7133 14.4614 15.4051 14.3189 15.1499C14.1764 14.8913 13.9593 14.6958 13.6676 14.5632C13.3759 14.4273 12.9998 14.3594 12.5391 14.3594H10.8487V23H9.00426ZM14.2642 18.3864L16.7848 23H14.7266L12.2507 18.3864H14.2642ZM18.1097 23V12.8182H24.7319V14.3643H19.9542V17.1286H24.3888V18.6747H19.9542V21.4538H24.7717V23H18.1097ZM33.4347 16.0696C33.3518 15.8011 33.2375 15.5608 33.0916 15.3487C32.9491 15.1333 32.7768 14.9493 32.5746 14.7969C32.3757 14.6444 32.147 14.5301 31.8885 14.4538C31.63 14.3743 31.3482 14.3345 31.0433 14.3345C30.4964 14.3345 30.0092 14.4721 29.5817 14.7472C29.1541 15.0223 28.8177 15.4266 28.5724 15.9602C28.3305 16.4905 28.2095 17.1368 28.2095 17.8991C28.2095 18.6681 28.3305 19.3194 28.5724 19.853C28.8144 20.3866 29.1508 20.7926 29.5817 21.071C30.0125 21.3461 30.513 21.4837 31.0831 21.4837C31.6001 21.4837 32.0476 21.3842 32.4254 21.1854C32.8066 20.9865 33.0999 20.7048 33.3054 20.3402C33.5109 19.9723 33.6136 19.5414 33.6136 19.0476L34.0312 19.1122H31.267V17.6705H35.3984V18.8935C35.3984 19.7652 35.2128 20.5192 34.8416 21.1555C34.4704 21.7919 33.96 22.2824 33.3104 22.6271C32.6607 22.9685 31.915 23.1392 31.0732 23.1392C30.1352 23.1392 29.3116 22.9287 28.6023 22.5078C27.8963 22.0836 27.3445 21.482 26.9467 20.7031C26.5523 19.9209 26.3551 18.9929 26.3551 17.919C26.3551 17.0971 26.4711 16.3629 26.7031 15.7166C26.9384 15.0703 27.2666 14.5218 27.6875 14.071C28.1084 13.617 28.6023 13.2723 29.169 13.0369C29.7358 12.7983 30.3523 12.679 31.0185 12.679C31.5819 12.679 32.1072 12.7618 32.5945 12.9276C33.0817 13.09 33.5142 13.322 33.892 13.6236C34.2732 13.9252 34.5864 14.2831 34.8317 14.6974C35.0769 15.1117 35.2377 15.5691 35.3139 16.0696H33.4347ZM43.6003 12.8182H45.4448V19.4702C45.4448 20.1993 45.2724 20.8407 44.9277 21.3942C44.5864 21.9477 44.1058 22.3802 43.486 22.6918C42.8662 23 42.142 23.1541 41.3134 23.1541C40.4815 23.1541 39.7556 23 39.1358 22.6918C38.516 22.3802 38.0355 21.9477 37.6941 21.3942C37.3527 20.8407 37.182 20.1993 37.182 19.4702V12.8182H39.0265V19.3161C39.0265 19.7403 39.1193 20.1181 39.3049 20.4496C39.4938 20.781 39.7589 21.0412 40.1003 21.2301C40.4417 21.4157 40.8461 21.5085 41.3134 21.5085C41.7807 21.5085 42.1851 21.4157 42.5265 21.2301C42.8712 21.0412 43.1363 20.781 43.3219 20.4496C43.5075 20.1181 43.6003 19.7403 43.6003 19.3161V12.8182ZM47.4496 23V12.8182H49.294V21.4538H53.7784V23H47.4496ZM57.0696 23H55.1009L58.6854 12.8182H60.9624L64.5518 23H62.5831L59.8636 14.9062H59.7841L57.0696 23ZM57.1342 19.0078H62.5036V20.4893H57.1342V19.0078ZM65.8929 23V12.8182H69.7111C70.4933 12.8182 71.1496 12.9541 71.6799 13.2259C72.2135 13.4976 72.6162 13.8788 72.888 14.3693C73.1631 14.8565 73.3006 15.425 73.3006 16.0746C73.3006 16.7275 73.1614 17.2943 72.883 17.7749C72.6079 18.2521 72.2019 18.6217 71.665 18.8835C71.128 19.142 70.4685 19.2713 69.6863 19.2713H66.9668V17.7401H69.4377C69.8951 17.7401 70.2696 17.6771 70.5613 17.5511C70.8529 17.4219 71.0684 17.2346 71.2076 16.9893C71.3501 16.7408 71.4213 16.4358 71.4213 16.0746C71.4213 15.7133 71.3501 15.4051 71.2076 15.1499C71.065 14.8913 70.848 14.6958 70.5563 14.5632C70.2646 14.4273 69.8884 14.3594 69.4277 14.3594H67.7374V23H65.8929ZM71.1529 18.3864L73.6735 23H71.6152L69.1394 18.3864H71.1529Z" fill="white"/>
<path d="M8.2642 78.2031V77.6364H11.6413V78.2031H10.2798V82H9.62358V78.2031H8.2642ZM12.9735 80.0568V82H12.3365V77.6364H12.965V79.2599H13.0055C13.0822 79.0838 13.1994 78.9439 13.3571 78.8402C13.5147 78.7365 13.7207 78.6847 13.975 78.6847C14.1994 78.6847 14.3954 78.7308 14.563 78.8232C14.7321 78.9155 14.8627 79.0533 14.9551 79.2365C15.0488 79.4183 15.0957 79.6456 15.0957 79.9183V82H14.4586V79.995C14.4586 79.755 14.3968 79.5689 14.2733 79.4368C14.1497 79.3033 13.9778 79.2365 13.7576 79.2365C13.6071 79.2365 13.4721 79.2685 13.3528 79.3324C13.2349 79.3963 13.1419 79.4901 13.0737 79.6136C13.0069 79.7358 12.9735 79.8835 12.9735 80.0568ZM15.9458 82V78.7273H16.5829V82H15.9458ZM16.2676 78.2223C16.1568 78.2223 16.0616 78.1854 15.9821 78.1115C15.9039 78.0362 15.8649 77.9467 15.8649 77.843C15.8649 77.7379 15.9039 77.6484 15.9821 77.5746C16.0616 77.4993 16.1568 77.4616 16.2676 77.4616C16.3784 77.4616 16.4728 77.4993 16.551 77.5746C16.6305 77.6484 16.6703 77.7379 16.6703 77.843C16.6703 77.9467 16.6305 78.0362 16.551 78.1115C16.4728 78.1854 16.3784 78.2223 16.2676 78.2223ZM19.8924 79.5263L19.315 79.6286C19.2908 79.5547 19.2525 79.4844 19.1999 79.4176C19.1488 79.3509 19.0792 79.2962 18.9911 79.2536C18.9031 79.2109 18.793 79.1896 18.6609 79.1896C18.4805 79.1896 18.3299 79.2301 18.2092 79.3111C18.0884 79.3906 18.0281 79.4936 18.0281 79.62C18.0281 79.7294 18.0685 79.8175 18.1495 79.8842C18.2305 79.951 18.3612 80.0057 18.5415 80.0483L19.0614 80.1676C19.3626 80.2372 19.587 80.3445 19.7347 80.4893C19.8825 80.6342 19.9563 80.8224 19.9563 81.054C19.9563 81.25 19.8995 81.4247 19.7859 81.5781C19.6737 81.7301 19.5167 81.8494 19.315 81.9361C19.1147 82.0227 18.8825 82.0661 18.6183 82.0661C18.2518 82.0661 17.9528 81.9879 17.7212 81.8317C17.4897 81.674 17.3477 81.4503 17.2951 81.1605L17.9109 81.0668C17.9492 81.2273 18.0281 81.3487 18.1474 81.4311C18.2667 81.5121 18.4222 81.5526 18.614 81.5526C18.8228 81.5526 18.9897 81.5092 19.1147 81.4226C19.2397 81.3345 19.3022 81.2273 19.3022 81.1009C19.3022 80.9986 19.2638 80.9126 19.1871 80.843C19.1119 80.7734 18.9961 80.7209 18.8398 80.6854L18.2859 80.5639C17.9805 80.4943 17.7546 80.3835 17.6083 80.2315C17.4634 80.0795 17.391 79.8871 17.391 79.6541C17.391 79.4609 17.445 79.2919 17.5529 79.147C17.6609 79.0021 17.81 78.8892 18.0004 78.8082C18.1907 78.7259 18.4087 78.6847 18.6545 78.6847C19.0082 78.6847 19.2866 78.7614 19.4897 78.9148C19.6928 79.0668 19.8271 79.2706 19.8924 79.5263ZM24.6971 79.5263L24.1197 79.6286C24.0955 79.5547 24.0572 79.4844 24.0046 79.4176C23.9535 79.3509 23.8839 79.2962 23.7958 79.2536C23.7077 79.2109 23.5977 79.1896 23.4656 79.1896C23.2852 79.1896 23.1346 79.2301 23.0138 79.3111C22.8931 79.3906 22.8327 79.4936 22.8327 79.62C22.8327 79.7294 22.8732 79.8175 22.9542 79.8842C23.0352 79.951 23.1658 80.0057 23.3462 80.0483L23.8661 80.1676C24.1673 80.2372 24.3917 80.3445 24.5394 80.4893C24.6871 80.6342 24.761 80.8224 24.761 81.054C24.761 81.25 24.7042 81.4247 24.5906 81.5781C24.4783 81.7301 24.3214 81.8494 24.1197 81.9361C23.9194 82.0227 23.6871 82.0661 23.4229 82.0661C23.0565 82.0661 22.7575 81.9879 22.5259 81.8317C22.2944 81.674 22.1523 81.4503 22.0998 81.1605L22.7156 81.0668C22.7539 81.2273 22.8327 81.3487 22.9521 81.4311C23.0714 81.5121 23.2269 81.5526 23.4187 81.5526C23.6275 81.5526 23.7944 81.5092 23.9194 81.4226C24.0444 81.3345 24.1069 81.2273 24.1069 81.1009C24.1069 80.9986 24.0685 80.9126 23.9918 80.843C23.9165 80.7734 23.8008 80.7209 23.6445 80.6854L23.0906 80.5639C22.7852 80.4943 22.5593 80.3835 22.413 80.2315C22.2681 80.0795 22.1957 79.8871 22.1957 79.6541C22.1957 79.4609 22.2496 79.2919 22.3576 79.147C22.4656 79.0021 22.6147 78.8892 22.805 78.8082C22.9954 78.7259 23.2134 78.6847 23.4592 78.6847C23.8129 78.6847 24.0913 78.7614 24.2944 78.9148C24.4975 79.0668 24.6317 79.2706 24.6971 79.5263ZM26.9892 78.7273V79.2386H25.2015V78.7273H26.9892ZM25.6809 77.9432H26.318V81.0391C26.318 81.1626 26.3365 81.2557 26.3734 81.3182C26.4103 81.3793 26.4579 81.4212 26.5162 81.4439C26.5758 81.4652 26.6404 81.4759 26.71 81.4759C26.7612 81.4759 26.8059 81.4723 26.8443 81.4652C26.8826 81.4581 26.9125 81.4524 26.9338 81.4482L27.0488 81.9744C27.0119 81.9886 26.9593 82.0028 26.8912 82.017C26.823 82.0327 26.7377 82.0412 26.6355 82.0426C26.4679 82.0455 26.3116 82.0156 26.1667 81.9531C26.0218 81.8906 25.9047 81.794 25.8152 81.6634C25.7257 81.5327 25.6809 81.3686 25.6809 81.1712V77.9432ZM28.6463 82.0724C28.4389 82.0724 28.2514 82.0341 28.0838 81.9574C27.9162 81.8793 27.7834 81.7663 27.6854 81.6186C27.5888 81.4709 27.5405 81.2898 27.5405 81.0753C27.5405 80.8906 27.576 80.7386 27.647 80.6193C27.718 80.5 27.8139 80.4055 27.9347 80.3359C28.0554 80.2663 28.1903 80.2138 28.3395 80.1783C28.4886 80.1428 28.6406 80.1158 28.7955 80.0973C28.9915 80.0746 29.1506 80.0561 29.2727 80.0419C29.3949 80.0263 29.4837 80.0014 29.5391 79.9673C29.5945 79.9332 29.6222 79.8778 29.6222 79.8011V79.7862C29.6222 79.6001 29.5696 79.456 29.4645 79.3537C29.3608 79.2514 29.206 79.2003 29 79.2003C28.7855 79.2003 28.6165 79.2479 28.4929 79.343C28.3707 79.4368 28.2862 79.5412 28.2393 79.6562L27.6406 79.5199C27.7116 79.321 27.8153 79.1605 27.9517 79.0384C28.0895 78.9148 28.2479 78.8253 28.4268 78.7699C28.6058 78.7131 28.794 78.6847 28.9915 78.6847C29.1222 78.6847 29.2607 78.7003 29.407 78.7315C29.5547 78.7614 29.6925 78.8168 29.8203 78.8977C29.9496 78.9787 30.0554 79.0945 30.1378 79.245C30.2202 79.3942 30.2614 79.5881 30.2614 79.8267V82H29.6392V81.5526H29.6136C29.5724 81.6349 29.5107 81.7159 29.4283 81.7955C29.3459 81.875 29.2401 81.9411 29.1108 81.9936C28.9815 82.0462 28.8267 82.0724 28.6463 82.0724ZM28.7848 81.5611C28.9609 81.5611 29.1115 81.5263 29.2365 81.4567C29.3629 81.3871 29.4588 81.2962 29.5241 81.1839C29.5909 81.0703 29.6243 80.9489 29.6243 80.8196V80.3977C29.6016 80.4205 29.5575 80.4418 29.4922 80.4616C29.4283 80.4801 29.3551 80.4964 29.2727 80.5107C29.1903 80.5234 29.1101 80.5355 29.032 80.5469C28.9538 80.5568 28.8885 80.5653 28.8359 80.5724C28.7124 80.5881 28.5994 80.6143 28.4972 80.6513C28.3963 80.6882 28.3153 80.7415 28.2543 80.8111C28.1946 80.8793 28.1648 80.9702 28.1648 81.0838C28.1648 81.2415 28.223 81.3608 28.3395 81.4418C28.456 81.5213 28.6044 81.5611 28.7848 81.5611ZM32.6376 78.7273V79.2386H30.85V78.7273H32.6376ZM31.3294 77.9432H31.9664V81.0391C31.9664 81.1626 31.9849 81.2557 32.0218 81.3182C32.0588 81.3793 32.1064 81.4212 32.1646 81.4439C32.2243 81.4652 32.2889 81.4759 32.3585 81.4759C32.4096 81.4759 32.4544 81.4723 32.4927 81.4652C32.5311 81.4581 32.5609 81.4524 32.5822 81.4482L32.6973 81.9744C32.6603 81.9886 32.6078 82.0028 32.5396 82.017C32.4714 82.0327 32.3862 82.0412 32.2839 82.0426C32.1163 82.0455 31.96 82.0156 31.8152 81.9531C31.6703 81.8906 31.5531 81.794 31.4636 81.6634C31.3741 81.5327 31.3294 81.3686 31.3294 81.1712V77.9432ZM35.4155 80.6428V78.7273H36.0547V82H35.4283V81.4332H35.3942C35.3189 81.608 35.1982 81.7536 35.032 81.87C34.8672 81.9851 34.6619 82.0426 34.4162 82.0426C34.206 82.0426 34.0199 81.9964 33.858 81.9041C33.6974 81.8104 33.571 81.6719 33.4787 81.4886C33.3878 81.3054 33.3423 81.0788 33.3423 80.8089V78.7273H33.9794V80.7322C33.9794 80.9553 34.0412 81.1328 34.1648 81.2649C34.2884 81.397 34.4489 81.4631 34.6463 81.4631C34.7656 81.4631 34.8842 81.4332 35.0021 81.3736C35.1214 81.3139 35.2202 81.2237 35.2983 81.103C35.3778 80.9822 35.4169 80.8288 35.4155 80.6428ZM39.3631 79.5263L38.7857 79.6286C38.7615 79.5547 38.7232 79.4844 38.6706 79.4176C38.6195 79.3509 38.5499 79.2962 38.4618 79.2536C38.3738 79.2109 38.2637 79.1896 38.1316 79.1896C37.9512 79.1896 37.8006 79.2301 37.6799 79.3111C37.5591 79.3906 37.4988 79.4936 37.4988 79.62C37.4988 79.7294 37.5392 79.8175 37.6202 79.8842C37.7012 79.951 37.8319 80.0057 38.0123 80.0483L38.5321 80.1676C38.8333 80.2372 39.0577 80.3445 39.2054 80.4893C39.3532 80.6342 39.427 80.8224 39.427 81.054C39.427 81.25 39.3702 81.4247 39.2566 81.5781C39.1444 81.7301 38.9874 81.8494 38.7857 81.9361C38.5854 82.0227 38.3532 82.0661 38.089 82.0661C37.7225 82.0661 37.4235 81.9879 37.1919 81.8317C36.9604 81.674 36.8184 81.4503 36.7658 81.1605L37.3816 81.0668C37.4199 81.2273 37.4988 81.3487 37.6181 81.4311C37.7374 81.5121 37.8929 81.5526 38.0847 81.5526C38.2935 81.5526 38.4604 81.5092 38.5854 81.4226C38.7104 81.3345 38.7729 81.2273 38.7729 81.1009C38.7729 80.9986 38.7346 80.9126 38.6578 80.843C38.5826 80.7734 38.4668 80.7209 38.3105 80.6854L37.7566 80.5639C37.4512 80.4943 37.2253 80.3835 37.079 80.2315C36.9341 80.0795 36.8617 79.8871 36.8617 79.6541C36.8617 79.4609 36.9157 79.2919 37.0236 79.147C37.1316 79.0021 37.2807 78.8892 37.4711 78.8082C37.6614 78.7259 37.8794 78.6847 38.1252 78.6847C38.4789 78.6847 38.7573 78.7614 38.9604 78.9148C39.1635 79.0668 39.2978 79.2706 39.3631 79.5263ZM41.7154 82V78.7273H42.3525V82H41.7154ZM42.0371 78.2223C41.9263 78.2223 41.8311 78.1854 41.7516 78.1115C41.6735 78.0362 41.6344 77.9467 41.6344 77.843C41.6344 77.7379 41.6735 77.6484 41.7516 77.5746C41.8311 77.4993 41.9263 77.4616 42.0371 77.4616C42.1479 77.4616 42.2424 77.4993 42.3205 77.5746C42.4 77.6484 42.4398 77.7379 42.4398 77.843C42.4398 77.9467 42.4 78.0362 42.3205 78.1115C42.2424 78.1854 42.1479 78.2223 42.0371 78.2223ZM45.6619 79.5263L45.0845 79.6286C45.0604 79.5547 45.022 79.4844 44.9695 79.4176C44.9183 79.3509 44.8487 79.2962 44.7607 79.2536C44.6726 79.2109 44.5625 79.1896 44.4304 79.1896C44.25 79.1896 44.0994 79.2301 43.9787 79.3111C43.858 79.3906 43.7976 79.4936 43.7976 79.62C43.7976 79.7294 43.8381 79.8175 43.919 79.8842C44 79.951 44.1307 80.0057 44.3111 80.0483L44.831 80.1676C45.1321 80.2372 45.3565 80.3445 45.5043 80.4893C45.652 80.6342 45.7259 80.8224 45.7259 81.054C45.7259 81.25 45.669 81.4247 45.5554 81.5781C45.4432 81.7301 45.2862 81.8494 45.0845 81.9361C44.8842 82.0227 44.652 82.0661 44.3878 82.0661C44.0213 82.0661 43.7223 81.9879 43.4908 81.8317C43.2592 81.674 43.1172 81.4503 43.0646 81.1605L43.6804 81.0668C43.7188 81.2273 43.7976 81.3487 43.9169 81.4311C44.0362 81.5121 44.1918 81.5526 44.3835 81.5526C44.5923 81.5526 44.7592 81.5092 44.8842 81.4226C45.0092 81.3345 45.0717 81.2273 45.0717 81.1009C45.0717 80.9986 45.0334 80.9126 44.9567 80.843C44.8814 80.7734 44.7656 80.7209 44.6094 80.6854L44.0554 80.5639C43.75 80.4943 43.5241 80.3835 43.3778 80.2315C43.233 80.0795 43.1605 79.8871 43.1605 79.6541C43.1605 79.4609 43.2145 79.2919 43.3224 79.147C43.4304 79.0021 43.5795 78.8892 43.7699 78.8082C43.9602 78.7259 44.1783 78.6847 44.424 78.6847C44.7777 78.6847 45.0561 78.7614 45.2592 78.9148C45.4624 79.0668 45.5966 79.2706 45.6619 79.5263ZM49.3864 83.2955C49.1264 83.2955 48.9027 83.2614 48.7152 83.1932C48.5291 83.125 48.3771 83.0348 48.2592 82.9226C48.1413 82.8104 48.0533 82.6875 47.995 82.554L48.5426 82.3281C48.581 82.3906 48.6321 82.4567 48.696 82.5263C48.7614 82.5973 48.8494 82.6577 48.9602 82.7074C49.0724 82.7571 49.2166 82.782 49.3928 82.782C49.6342 82.782 49.8338 82.723 49.9915 82.6051C50.1491 82.4886 50.228 82.3026 50.228 82.0469V81.4034H50.1875C50.1491 81.473 50.0938 81.5504 50.0213 81.6357C49.9503 81.7209 49.8523 81.7947 49.7273 81.8572C49.6023 81.9197 49.4396 81.951 49.2393 81.951C48.9808 81.951 48.7479 81.8906 48.5405 81.7699C48.3345 81.6477 48.1712 81.468 48.0504 81.2308C47.9311 80.9922 47.8714 80.6989 47.8714 80.3509C47.8714 80.0028 47.9304 79.7045 48.0483 79.456C48.1676 79.2074 48.331 79.017 48.5384 78.8849C48.7457 78.7514 48.9808 78.6847 49.2436 78.6847C49.4467 78.6847 49.6108 78.7188 49.7358 78.7869C49.8608 78.8537 49.9581 78.9318 50.0277 79.0213C50.0987 79.1108 50.1534 79.1896 50.1918 79.2578H50.2386V78.7273H50.8629V82.0724C50.8629 82.3537 50.7976 82.5845 50.6669 82.7649C50.5362 82.9453 50.3594 83.0788 50.1364 83.1655C49.9148 83.2521 49.6648 83.2955 49.3864 83.2955ZM49.38 81.4226C49.5632 81.4226 49.718 81.38 49.8445 81.2947C49.9723 81.2081 50.0689 81.0845 50.1342 80.924C50.201 80.7621 50.2344 80.5682 50.2344 80.3423C50.2344 80.1222 50.2017 79.9283 50.1364 79.7607C50.071 79.593 49.9751 79.4624 49.8487 79.3686C49.7223 79.2734 49.5661 79.2259 49.38 79.2259C49.1882 79.2259 49.0284 79.2756 48.9006 79.375C48.7727 79.473 48.6761 79.6065 48.6108 79.7756C48.5469 79.9446 48.5149 80.1335 48.5149 80.3423C48.5149 80.5568 48.5476 80.745 48.6129 80.907C48.6783 81.0689 48.7749 81.1953 48.9027 81.2862C49.032 81.3771 49.1911 81.4226 49.38 81.4226ZM51.7173 82V78.7273H52.3544V82H51.7173ZM52.0391 78.2223C51.9283 78.2223 51.8331 78.1854 51.7536 78.1115C51.6754 78.0362 51.6364 77.9467 51.6364 77.843C51.6364 77.7379 51.6754 77.6484 51.7536 77.5746C51.8331 77.4993 51.9283 77.4616 52.0391 77.4616C52.1499 77.4616 52.2443 77.4993 52.3224 77.5746C52.402 77.6484 52.4418 77.7379 52.4418 77.843C52.4418 77.9467 52.402 78.0362 52.3224 78.1115C52.2443 78.1854 52.1499 78.2223 52.0391 78.2223ZM56.0112 78.7273L54.8244 82H54.1426L52.9537 78.7273H53.6376L54.4664 81.2457H54.5005L55.3272 78.7273H56.0112ZM57.9091 82.0661C57.5866 82.0661 57.3089 81.9972 57.076 81.8594C56.8445 81.7202 56.6655 81.5249 56.5391 81.2734C56.4141 81.0206 56.3516 80.7244 56.3516 80.3849C56.3516 80.0497 56.4141 79.7543 56.5391 79.4986C56.6655 79.2429 56.8416 79.0433 57.0675 78.8999C57.2947 78.7564 57.5604 78.6847 57.8643 78.6847C58.049 78.6847 58.228 78.7152 58.4013 78.7763C58.5746 78.8374 58.7301 78.9332 58.8679 79.0639C59.0057 79.1946 59.1143 79.3643 59.1939 79.5732C59.2734 79.7805 59.3132 80.0327 59.3132 80.3295V80.5554H56.7116V80.0781H58.6889C58.6889 79.9105 58.6548 79.7621 58.5866 79.6328C58.5185 79.5021 58.4226 79.3991 58.299 79.3239C58.1768 79.2486 58.0334 79.2109 57.8686 79.2109C57.6896 79.2109 57.5334 79.255 57.3999 79.343C57.2678 79.4297 57.1655 79.5433 57.093 79.6839C57.022 79.8232 56.9865 79.9744 56.9865 80.1378V80.5107C56.9865 80.7294 57.0249 80.9155 57.1016 81.0689C57.1797 81.2223 57.2884 81.3395 57.4276 81.4205C57.5668 81.5 57.7294 81.5398 57.9155 81.5398C58.0362 81.5398 58.1463 81.5227 58.2457 81.4886C58.3452 81.4531 58.4311 81.4006 58.5036 81.331C58.576 81.2614 58.6314 81.1754 58.6697 81.0732L59.2727 81.1818C59.2244 81.3594 59.1378 81.5149 59.0128 81.6484C58.8892 81.7805 58.7337 81.8835 58.5462 81.9574C58.3601 82.0298 58.1477 82.0661 57.9091 82.0661ZM60.6571 80.0568V82H60.0201V78.7273H60.6316V79.2599H60.6721C60.7473 79.0866 60.8652 78.9474 61.0257 78.8423C61.1877 78.7372 61.3915 78.6847 61.6373 78.6847C61.8603 78.6847 62.0556 78.7315 62.2232 78.8253C62.3908 78.9176 62.5208 79.0554 62.6131 79.2386C62.7054 79.4219 62.7516 79.6484 62.7516 79.9183V82H62.1145V79.995C62.1145 79.7578 62.0527 79.5724 61.9292 79.4389C61.8056 79.304 61.6358 79.2365 61.4199 79.2365C61.2722 79.2365 61.1408 79.2685 61.0257 79.3324C60.9121 79.3963 60.8219 79.4901 60.7551 79.6136C60.6898 79.7358 60.6571 79.8835 60.6571 80.0568ZM66.7216 78.7273V79.2386H64.9339V78.7273H66.7216ZM65.4134 77.9432H66.0504V81.0391C66.0504 81.1626 66.0689 81.2557 66.1058 81.3182C66.1428 81.3793 66.1903 81.4212 66.2486 81.4439C66.3082 81.4652 66.3729 81.4759 66.4425 81.4759C66.4936 81.4759 66.5384 81.4723 66.5767 81.4652C66.6151 81.4581 66.6449 81.4524 66.6662 81.4482L66.7812 81.9744C66.7443 81.9886 66.6918 82.0028 66.6236 82.017C66.5554 82.0327 66.4702 82.0412 66.3679 82.0426C66.2003 82.0455 66.044 82.0156 65.8991 81.9531C65.7543 81.8906 65.6371 81.794 65.5476 81.6634C65.4581 81.5327 65.4134 81.3686 65.4134 81.1712V77.9432ZM68.7697 82.0661C68.4629 82.0661 68.1951 81.9957 67.9664 81.8551C67.7377 81.7145 67.5602 81.5178 67.4338 81.2649C67.3074 81.0121 67.2441 80.7166 67.2441 80.3786C67.2441 80.0391 67.3074 79.7422 67.4338 79.4879C67.5602 79.2337 67.7377 79.0362 67.9664 78.8956C68.1951 78.755 68.4629 78.6847 68.7697 78.6847C69.0765 78.6847 69.3443 78.755 69.573 78.8956C69.8017 79.0362 69.9792 79.2337 70.1056 79.4879C70.2321 79.7422 70.2953 80.0391 70.2953 80.3786C70.2953 80.7166 70.2321 81.0121 70.1056 81.2649C69.9792 81.5178 69.8017 81.7145 69.573 81.8551C69.3443 81.9957 69.0765 82.0661 68.7697 82.0661ZM68.7718 81.5312C68.9707 81.5312 69.1355 81.4787 69.2662 81.3736C69.3968 81.2685 69.4934 81.1286 69.5559 80.9538C69.6199 80.7791 69.6518 80.5866 69.6518 80.3764C69.6518 80.1676 69.6199 79.9759 69.5559 79.8011C69.4934 79.625 69.3968 79.4837 69.2662 79.3771C69.1355 79.2706 68.9707 79.2173 68.7718 79.2173C68.5716 79.2173 68.4054 79.2706 68.2733 79.3771C68.1426 79.4837 68.0453 79.625 67.9814 79.8011C67.9189 79.9759 67.8876 80.1676 67.8876 80.3764C67.8876 80.5866 67.9189 80.7791 67.9814 80.9538C68.0453 81.1286 68.1426 81.2685 68.2733 81.3736C68.4054 81.4787 68.5716 81.5312 68.7718 81.5312ZM73.5467 82.0724C73.3393 82.0724 73.1518 82.0341 72.9842 81.9574C72.8166 81.8793 72.6838 81.7663 72.5858 81.6186C72.4892 81.4709 72.4409 81.2898 72.4409 81.0753C72.4409 80.8906 72.4764 80.7386 72.5474 80.6193C72.6184 80.5 72.7143 80.4055 72.835 80.3359C72.9558 80.2663 73.0907 80.2138 73.2399 80.1783C73.389 80.1428 73.541 80.1158 73.6958 80.0973C73.8919 80.0746 74.051 80.0561 74.1731 80.0419C74.2953 80.0263 74.3841 80.0014 74.4395 79.9673C74.4949 79.9332 74.5225 79.8778 74.5225 79.8011V79.7862C74.5225 79.6001 74.47 79.456 74.3649 79.3537C74.2612 79.2514 74.1064 79.2003 73.9004 79.2003C73.6859 79.2003 73.5169 79.2479 73.3933 79.343C73.2711 79.4368 73.1866 79.5412 73.1397 79.6562L72.541 79.5199C72.612 79.321 72.7157 79.1605 72.8521 79.0384C72.9899 78.9148 73.1483 78.8253 73.3272 78.7699C73.5062 78.7131 73.6944 78.6847 73.8919 78.6847C74.0225 78.6847 74.161 78.7003 74.3074 78.7315C74.4551 78.7614 74.5929 78.8168 74.7207 78.8977C74.85 78.9787 74.9558 79.0945 75.0382 79.245C75.1206 79.3942 75.1618 79.5881 75.1618 79.8267V82H74.5396V81.5526H74.514C74.4728 81.6349 74.411 81.7159 74.3287 81.7955C74.2463 81.875 74.1404 81.9411 74.0112 81.9936C73.8819 82.0462 73.7271 82.0724 73.5467 82.0724ZM73.6852 81.5611C73.8613 81.5611 74.0119 81.5263 74.1369 81.4567C74.2633 81.3871 74.3592 81.2962 74.4245 81.1839C74.4913 81.0703 74.5247 80.9489 74.5247 80.8196V80.3977C74.502 80.4205 74.4579 80.4418 74.3926 80.4616C74.3287 80.4801 74.2555 80.4964 74.1731 80.5107C74.0907 80.5234 74.0105 80.5355 73.9324 80.5469C73.8542 80.5568 73.7889 80.5653 73.7363 80.5724C73.6127 80.5881 73.4998 80.6143 73.3975 80.6513C73.2967 80.6882 73.2157 80.7415 73.1547 80.8111C73.095 80.8793 73.0652 80.9702 73.0652 81.0838C73.0652 81.2415 73.1234 81.3608 73.2399 81.4418C73.3564 81.5213 73.5048 81.5611 73.6852 81.5611ZM76.6474 77.6364V82H76.0103V77.6364H76.6474ZM78.1415 77.6364V82H77.5044V77.6364H78.1415ZM82.6596 80.6428V78.7273H83.2988V82H82.6724V81.4332H82.6383C82.563 81.608 82.4423 81.7536 82.2761 81.87C82.1113 81.9851 81.9061 82.0426 81.6603 82.0426C81.4501 82.0426 81.264 81.9964 81.1021 81.9041C80.9416 81.8104 80.8152 81.6719 80.7228 81.4886C80.6319 81.3054 80.5865 81.0788 80.5865 80.8089V78.7273H81.2235V80.7322C81.2235 80.9553 81.2853 81.1328 81.4089 81.2649C81.5325 81.397 81.693 81.4631 81.8904 81.4631C82.0098 81.4631 82.1284 81.4332 82.2463 81.3736C82.3656 81.3139 82.4643 81.2237 82.5424 81.103C82.622 80.9822 82.661 80.8288 82.6596 80.6428ZM86.6072 79.5263L86.0298 79.6286C86.0057 79.5547 85.9673 79.4844 85.9148 79.4176C85.8636 79.3509 85.794 79.2962 85.706 79.2536C85.6179 79.2109 85.5078 79.1896 85.3757 79.1896C85.1953 79.1896 85.0447 79.2301 84.924 79.3111C84.8033 79.3906 84.7429 79.4936 84.7429 79.62C84.7429 79.7294 84.7834 79.8175 84.8643 79.8842C84.9453 79.951 85.076 80.0057 85.2564 80.0483L85.7763 80.1676C86.0774 80.2372 86.3018 80.3445 86.4496 80.4893C86.5973 80.6342 86.6712 80.8224 86.6712 81.054C86.6712 81.25 86.6143 81.4247 86.5007 81.5781C86.3885 81.7301 86.2315 81.8494 86.0298 81.9361C85.8295 82.0227 85.5973 82.0661 85.3331 82.0661C84.9666 82.0661 84.6676 81.9879 84.4361 81.8317C84.2045 81.674 84.0625 81.4503 84.0099 81.1605L84.6257 81.0668C84.6641 81.2273 84.7429 81.3487 84.8622 81.4311C84.9815 81.5121 85.1371 81.5526 85.3288 81.5526C85.5376 81.5526 85.7045 81.5092 85.8295 81.4226C85.9545 81.3345 86.017 81.2273 86.017 81.1009C86.017 80.9986 85.9787 80.9126 85.902 80.843C85.8267 80.7734 85.7109 80.7209 85.5547 80.6854L85.0007 80.5639C84.6953 80.4943 84.4695 80.3835 84.3232 80.2315C84.1783 80.0795 84.1058 79.8871 84.1058 79.6541C84.1058 79.4609 84.1598 79.2919 84.2678 79.147C84.3757 79.0021 84.5249 78.8892 84.7152 78.8082C84.9055 78.7259 85.1236 78.6847 85.3693 78.6847C85.723 78.6847 86.0014 78.7614 86.2045 78.9148C86.4077 79.0668 86.5419 79.2706 86.6072 79.5263ZM88.7821 82.0661C88.4597 82.0661 88.182 81.9972 87.949 81.8594C87.7175 81.7202 87.5385 81.5249 87.4121 81.2734C87.2871 81.0206 87.2246 80.7244 87.2246 80.3849C87.2246 80.0497 87.2871 79.7543 87.4121 79.4986C87.5385 79.2429 87.7147 79.0433 87.9405 78.8999C88.1678 78.7564 88.4334 78.6847 88.7374 78.6847C88.9221 78.6847 89.101 78.7152 89.2743 78.7763C89.4476 78.8374 89.6032 78.9332 89.7409 79.0639C89.8787 79.1946 89.9874 79.3643 90.0669 79.5732C90.1465 79.7805 90.1863 80.0327 90.1863 80.3295V80.5554H87.5847V80.0781H89.562C89.562 79.9105 89.5279 79.7621 89.4597 79.6328C89.3915 79.5021 89.2956 79.3991 89.1721 79.3239C89.0499 79.2486 88.9064 79.2109 88.7417 79.2109C88.5627 79.2109 88.4064 79.255 88.2729 79.343C88.1408 79.4297 88.0385 79.5433 87.9661 79.6839C87.8951 79.8232 87.8596 79.9744 87.8596 80.1378V80.5107C87.8596 80.7294 87.8979 80.9155 87.9746 81.0689C88.0527 81.2223 88.1614 81.3395 88.3006 81.4205C88.4398 81.5 88.6025 81.5398 88.7885 81.5398C88.9093 81.5398 89.0194 81.5227 89.1188 81.4886C89.2182 81.4531 89.3042 81.4006 89.3766 81.331C89.449 81.2614 89.5044 81.1754 89.5428 81.0732L90.1458 81.1818C90.0975 81.3594 90.0108 81.5149 89.8858 81.6484C89.7623 81.7805 89.6067 81.8835 89.4192 81.9574C89.2331 82.0298 89.0208 82.0661 88.7821 82.0661ZM90.8931 82V78.7273H91.5089V79.2472H91.543C91.6026 79.071 91.7077 78.9325 91.8583 78.8317C92.0103 78.7294 92.1822 78.6783 92.3739 78.6783C92.4137 78.6783 92.4606 78.6797 92.5146 78.6825C92.57 78.6854 92.6133 78.6889 92.6445 78.6932V79.3026C92.619 79.2955 92.5735 79.2876 92.5082 79.2791C92.4428 79.2692 92.3775 79.2642 92.3121 79.2642C92.1616 79.2642 92.0273 79.2962 91.9094 79.3601C91.793 79.4226 91.7006 79.5099 91.6325 79.6222C91.5643 79.733 91.5302 79.8594 91.5302 80.0014V82H90.8931ZM95.6483 79.5263L95.0708 79.6286C95.0467 79.5547 95.0083 79.4844 94.9558 79.4176C94.9047 79.3509 94.835 79.2962 94.747 79.2536C94.6589 79.2109 94.5488 79.1896 94.4167 79.1896C94.2363 79.1896 94.0858 79.2301 93.965 79.3111C93.8443 79.3906 93.7839 79.4936 93.7839 79.62C93.7839 79.7294 93.8244 79.8175 93.9054 79.8842C93.9863 79.951 94.117 80.0057 94.2974 80.0483L94.8173 80.1676C95.1184 80.2372 95.3429 80.3445 95.4906 80.4893C95.6383 80.6342 95.7122 80.8224 95.7122 81.054C95.7122 81.25 95.6554 81.4247 95.5417 81.5781C95.4295 81.7301 95.2725 81.8494 95.0708 81.9361C94.8706 82.0227 94.6383 82.0661 94.3741 82.0661C94.0076 82.0661 93.7086 81.9879 93.4771 81.8317C93.2456 81.674 93.1035 81.4503 93.051 81.1605L93.6667 81.0668C93.7051 81.2273 93.7839 81.3487 93.9032 81.4311C94.0225 81.5121 94.1781 81.5526 94.3699 81.5526C94.5787 81.5526 94.7456 81.5092 94.8706 81.4226C94.9956 81.3345 95.0581 81.2273 95.0581 81.1009C95.0581 80.9986 95.0197 80.9126 94.943 80.843C94.8677 80.7734 94.752 80.7209 94.5957 80.6854L94.0417 80.5639C93.7363 80.4943 93.5105 80.3835 93.3642 80.2315C93.2193 80.0795 93.1468 79.8871 93.1468 79.6541C93.1468 79.4609 93.2008 79.2919 93.3088 79.147C93.4167 79.0021 93.5659 78.8892 93.7562 78.8082C93.9466 78.7259 94.1646 78.6847 94.4103 78.6847C94.764 78.6847 95.0424 78.7614 95.2456 78.9148C95.4487 79.0668 95.5829 79.2706 95.6483 79.5263ZM98.9529 82.0724C98.7456 82.0724 98.5581 82.0341 98.3904 81.9574C98.2228 81.8793 98.09 81.7663 97.992 81.6186C97.8954 81.4709 97.8471 81.2898 97.8471 81.0753C97.8471 80.8906 97.8826 80.7386 97.9537 80.6193C98.0247 80.5 98.1206 80.4055 98.2413 80.3359C98.362 80.2663 98.497 80.2138 98.6461 80.1783C98.7953 80.1428 98.9473 80.1158 99.1021 80.0973C99.2981 80.0746 99.4572 80.0561 99.5794 80.0419C99.7015 80.0263 99.7903 80.0014 99.8457 79.9673C99.9011 79.9332 99.9288 79.8778 99.9288 79.8011V79.7862C99.9288 79.6001 99.8762 79.456 99.7711 79.3537C99.6674 79.2514 99.5126 79.2003 99.3066 79.2003C99.0922 79.2003 98.9231 79.2479 98.7995 79.343C98.6774 79.4368 98.5929 79.5412 98.546 79.6562L97.9473 79.5199C98.0183 79.321 98.122 79.1605 98.2583 79.0384C98.3961 78.9148 98.5545 78.8253 98.7335 78.7699C98.9125 78.7131 99.1007 78.6847 99.2981 78.6847C99.4288 78.6847 99.5673 78.7003 99.7136 78.7315C99.8613 78.7614 99.9991 78.8168 100.127 78.8977C100.256 78.9787 100.362 79.0945 100.444 79.245C100.527 79.3942 100.568 79.5881 100.568 79.8267V82H99.9458V81.5526H99.9203C99.8791 81.6349 99.8173 81.7159 99.7349 81.7955C99.6525 81.875 99.5467 81.9411 99.4174 81.9936C99.2882 82.0462 99.1333 82.0724 98.9529 82.0724ZM99.0914 81.5611C99.2676 81.5611 99.4181 81.5263 99.5431 81.4567C99.6696 81.3871 99.7654 81.2962 99.8308 81.1839C99.8975 81.0703 99.9309 80.9489 99.9309 80.8196V80.3977C99.9082 80.4205 99.8642 80.4418 99.7988 80.4616C99.7349 80.4801 99.6618 80.4964 99.5794 80.5107C99.497 80.5234 99.4167 80.5355 99.3386 80.5469C99.2605 80.5568 99.1951 80.5653 99.1426 80.5724C99.019 80.5881 98.9061 80.6143 98.8038 80.6513C98.7029 80.6882 98.622 80.7415 98.5609 80.8111C98.5012 80.8793 98.4714 80.9702 98.4714 81.0838C98.4714 81.2415 98.5297 81.3608 98.6461 81.4418C98.7626 81.5213 98.911 81.5611 99.0914 81.5611ZM102.974 78.7273V79.2386H101.125V78.7273H102.974ZM101.632 82V78.348C101.632 78.1435 101.676 77.9737 101.766 77.8388C101.855 77.7024 101.974 77.6009 102.122 77.5341C102.27 77.4659 102.43 77.4318 102.603 77.4318C102.731 77.4318 102.841 77.4425 102.931 77.4638C103.022 77.4837 103.09 77.5021 103.134 77.5192L102.985 78.0348C102.955 78.0263 102.917 78.0163 102.87 78.005C102.823 77.9922 102.766 77.9858 102.699 77.9858C102.544 77.9858 102.434 78.0241 102.367 78.1009C102.301 78.1776 102.269 78.2884 102.269 78.4332V82H101.632ZM105.159 78.7273V79.2386H103.371V78.7273H105.159ZM103.851 77.9432H104.488V81.0391C104.488 81.1626 104.506 81.2557 104.543 81.3182C104.58 81.3793 104.628 81.4212 104.686 81.4439C104.746 81.4652 104.81 81.4759 104.88 81.4759C104.931 81.4759 104.976 81.4723 105.014 81.4652C105.053 81.4581 105.082 81.4524 105.104 81.4482L105.219 81.9744C105.182 81.9886 105.129 82.0028 105.061 82.017C104.993 82.0327 104.908 82.0412 104.805 82.0426C104.638 82.0455 104.482 82.0156 104.337 81.9531C104.192 81.8906 104.075 81.794 103.985 81.6634C103.896 81.5327 103.851 81.3686 103.851 81.1712V77.9432ZM107.239 82.0661C106.917 82.0661 106.639 81.9972 106.406 81.8594C106.175 81.7202 105.996 81.5249 105.869 81.2734C105.744 81.0206 105.682 80.7244 105.682 80.3849C105.682 80.0497 105.744 79.7543 105.869 79.4986C105.996 79.2429 106.172 79.0433 106.398 78.8999C106.625 78.7564 106.89 78.6847 107.194 78.6847C107.379 78.6847 107.558 78.7152 107.731 78.7763C107.905 78.8374 108.06 78.9332 108.198 79.0639C108.336 79.1946 108.444 79.3643 108.524 79.5732C108.604 79.7805 108.643 80.0327 108.643 80.3295V80.5554H106.042V80.0781H108.019C108.019 79.9105 107.985 79.7621 107.917 79.6328C107.849 79.5021 107.753 79.3991 107.629 79.3239C107.507 79.2486 107.363 79.2109 107.199 79.2109C107.02 79.2109 106.863 79.255 106.73 79.343C106.598 79.4297 106.496 79.5433 106.423 79.6839C106.352 79.8232 106.317 79.9744 106.317 80.1378V80.5107C106.317 80.7294 106.355 80.9155 106.432 81.0689C106.51 81.2223 106.618 81.3395 106.758 81.4205C106.897 81.5 107.059 81.5398 107.246 81.5398C107.366 81.5398 107.476 81.5227 107.576 81.4886C107.675 81.4531 107.761 81.4006 107.834 81.331C107.906 81.2614 107.961 81.1754 108 81.0732L108.603 81.1818C108.555 81.3594 108.468 81.5149 108.343 81.6484C108.219 81.7805 108.064 81.8835 107.876 81.9574C107.69 82.0298 107.478 82.0661 107.239 82.0661ZM109.35 82V78.7273H109.966V79.2472H110C110.06 79.071 110.165 78.9325 110.315 78.8317C110.467 78.7294 110.639 78.6783 110.831 78.6783C110.871 78.6783 110.918 78.6797 110.972 78.6825C111.027 78.6854 111.07 78.6889 111.102 78.6932V79.3026C111.076 79.2955 111.031 79.2876 110.965 79.2791C110.9 79.2692 110.835 79.2642 110.769 79.2642C110.619 79.2642 110.484 79.2962 110.366 79.3601C110.25 79.4226 110.158 79.5099 110.089 79.6222C110.021 79.733 109.987 79.8594 109.987 80.0014V82H109.35ZM8.42827 90V86.7273H9.04403V87.2472H9.07812C9.13778 87.071 9.2429 86.9325 9.39347 86.8317C9.54545 86.7294 9.71733 86.6783 9.90909 86.6783C9.94886 86.6783 9.99574 86.6797 10.0497 86.6825C10.1051 86.6854 10.1484 86.6889 10.1797 86.6932V87.3026C10.1541 87.2955 10.1087 87.2876 10.0433 87.2791C9.97798 87.2692 9.91264 87.2642 9.8473 87.2642C9.69673 87.2642 9.5625 87.2962 9.4446 87.3601C9.32813 87.4226 9.2358 87.5099 9.16761 87.6222C9.09943 87.733 9.06534 87.8594 9.06534 88.0014V90H8.42827ZM12.0243 90.0661C11.7019 90.0661 11.4242 89.9972 11.1912 89.8594C10.9597 89.7202 10.7807 89.5249 10.6543 89.2734C10.5293 89.0206 10.4668 88.7244 10.4668 88.3849C10.4668 88.0497 10.5293 87.7543 10.6543 87.4986C10.7807 87.2429 10.9569 87.0433 11.1827 86.8999C11.41 86.7564 11.6756 86.6847 11.9796 86.6847C12.1642 86.6847 12.3432 86.7152 12.5165 86.7763C12.6898 86.8374 12.8453 86.9332 12.9831 87.0639C13.1209 87.1946 13.2296 87.3643 13.3091 87.5732C13.3887 87.7805 13.4284 88.0327 13.4284 88.3295V88.5554H10.8269V88.0781H12.8042C12.8042 87.9105 12.7701 87.7621 12.7019 87.6328C12.6337 87.5021 12.5378 87.3991 12.4142 87.3239C12.2921 87.2486 12.1486 87.2109 11.9838 87.2109C11.8049 87.2109 11.6486 87.255 11.5151 87.343C11.383 87.4297 11.2807 87.5433 11.2083 87.6839C11.1373 87.8232 11.1017 87.9744 11.1017 88.1378V88.5107C11.1017 88.7294 11.1401 88.9155 11.2168 89.0689C11.2949 89.2223 11.4036 89.3395 11.5428 89.4205C11.682 89.5 11.8446 89.5398 12.0307 89.5398C12.1515 89.5398 12.2615 89.5227 12.361 89.4886C12.4604 89.4531 12.5463 89.4006 12.6188 89.331C12.6912 89.2614 12.7466 89.1754 12.785 89.0732L13.388 89.1818C13.3397 89.3594 13.253 89.5149 13.128 89.6484C13.0044 89.7805 12.8489 89.8835 12.6614 89.9574C12.4753 90.0298 12.263 90.0661 12.0243 90.0661ZM15.5075 91.2955C15.2475 91.2955 15.0238 91.2614 14.8363 91.1932C14.6502 91.125 14.4982 91.0348 14.3803 90.9226C14.2624 90.8104 14.1744 90.6875 14.1161 90.554L14.6637 90.3281C14.7021 90.3906 14.7532 90.4567 14.8171 90.5263C14.8825 90.5973 14.9705 90.6577 15.0813 90.7074C15.1935 90.7571 15.3377 90.782 15.5138 90.782C15.7553 90.782 15.9549 90.723 16.1126 90.6051C16.2702 90.4886 16.3491 90.3026 16.3491 90.0469V89.4034H16.3086C16.2702 89.473 16.2148 89.5504 16.1424 89.6357C16.0714 89.7209 15.9734 89.7947 15.8484 89.8572C15.7234 89.9197 15.5607 89.951 15.3604 89.951C15.1019 89.951 14.869 89.8906 14.6616 89.7699C14.4556 89.6477 14.2923 89.468 14.1715 89.2308C14.0522 88.9922 13.9925 88.6989 13.9925 88.3509C13.9925 88.0028 14.0515 87.7045 14.1694 87.456C14.2887 87.2074 14.4521 87.017 14.6594 86.8849C14.8668 86.7514 15.1019 86.6847 15.3647 86.6847C15.5678 86.6847 15.7319 86.7188 15.8569 86.7869C15.9819 86.8537 16.0792 86.9318 16.1488 87.0213C16.2198 87.1108 16.2745 87.1896 16.3129 87.2578H16.3597V86.7273H16.984V90.0724C16.984 90.3537 16.9187 90.5845 16.788 90.7649C16.6573 90.9453 16.4805 91.0788 16.2575 91.1655C16.0359 91.2521 15.7859 91.2955 15.5075 91.2955ZM15.5011 89.4226C15.6843 89.4226 15.8391 89.38 15.9656 89.2947C16.0934 89.2081 16.19 89.0845 16.2553 88.924C16.3221 88.7621 16.3555 88.5682 16.3555 88.3423C16.3555 88.1222 16.3228 87.9283 16.2575 87.7607C16.1921 87.593 16.0962 87.4624 15.9698 87.3686C15.8434 87.2734 15.6871 87.2259 15.5011 87.2259C15.3093 87.2259 15.1495 87.2756 15.0217 87.375C14.8938 87.473 14.7972 87.6065 14.7319 87.7756C14.668 87.9446 14.636 88.1335 14.636 88.3423C14.636 88.5568 14.6687 88.745 14.734 88.907C14.7994 89.0689 14.896 89.1953 15.0238 89.2862C15.1531 89.3771 15.3121 89.4226 15.5011 89.4226ZM17.8384 90V86.7273H18.4755V90H17.8384ZM18.1602 86.2223C18.0494 86.2223 17.9542 86.1854 17.8746 86.1115C17.7965 86.0362 17.7575 85.9467 17.7575 85.843C17.7575 85.7379 17.7965 85.6484 17.8746 85.5746C17.9542 85.4993 18.0494 85.4616 18.1602 85.4616C18.271 85.4616 18.3654 85.4993 18.4435 85.5746C18.5231 85.6484 18.5629 85.7379 18.5629 85.843C18.5629 85.9467 18.5231 86.0362 18.4435 86.1115C18.3654 86.1854 18.271 86.2223 18.1602 86.2223ZM21.785 87.5263L21.2076 87.6286C21.1834 87.5547 21.1451 87.4844 21.0925 87.4176C21.0414 87.3509 20.9718 87.2962 20.8837 87.2536C20.7956 87.2109 20.6855 87.1896 20.5534 87.1896C20.373 87.1896 20.2225 87.2301 20.1017 87.3111C19.981 87.3906 19.9206 87.4936 19.9206 87.62C19.9206 87.7294 19.9611 87.8175 20.0421 87.8842C20.123 87.951 20.2537 88.0057 20.4341 88.0483L20.954 88.1676C21.2551 88.2372 21.4796 88.3445 21.6273 88.4893C21.775 88.6342 21.8489 88.8224 21.8489 89.054C21.8489 89.25 21.7921 89.4247 21.6784 89.5781C21.5662 89.7301 21.4093 89.8494 21.2076 89.9361C21.0073 90.0227 20.775 90.0661 20.5108 90.0661C20.1444 90.0661 19.8453 89.9879 19.6138 89.8317C19.3823 89.674 19.2402 89.4503 19.1877 89.1605L19.8034 89.0668C19.8418 89.2273 19.9206 89.3487 20.04 89.4311C20.1593 89.5121 20.3148 89.5526 20.5066 89.5526C20.7154 89.5526 20.8823 89.5092 21.0073 89.4226C21.1323 89.3345 21.1948 89.2273 21.1948 89.1009C21.1948 88.9986 21.1564 88.9126 21.0797 88.843C21.0044 88.7734 20.8887 88.7209 20.7324 88.6854L20.1784 88.5639C19.873 88.4943 19.6472 88.3835 19.5009 88.2315C19.356 88.0795 19.2836 87.8871 19.2836 87.6541C19.2836 87.4609 19.3375 87.2919 19.4455 87.147C19.5534 87.0021 19.7026 86.8892 19.8929 86.8082C20.0833 86.7259 20.3013 86.6847 20.5471 86.6847C20.9007 86.6847 21.1792 86.7614 21.3823 86.9148C21.5854 87.0668 21.7196 87.2706 21.785 87.5263ZM24.0771 86.7273V87.2386H22.2894V86.7273H24.0771ZM22.7688 85.9432H23.4059V89.0391C23.4059 89.1626 23.4244 89.2557 23.4613 89.3182C23.4982 89.3793 23.5458 89.4212 23.604 89.4439C23.6637 89.4652 23.7283 89.4759 23.7979 89.4759C23.8491 89.4759 23.8938 89.4723 23.9322 89.4652C23.9705 89.4581 24.0004 89.4524 24.0217 89.4482L24.1367 89.9744C24.0998 89.9886 24.0472 90.0028 23.979 90.017C23.9109 90.0327 23.8256 90.0412 23.7234 90.0426C23.5558 90.0455 23.3995 90.0156 23.2546 89.9531C23.1097 89.8906 22.9925 89.794 22.9031 89.6634C22.8136 89.5327 22.7688 89.3686 22.7688 89.1712V85.9432ZM24.7818 90V86.7273H25.3975V87.2472H25.4316C25.4913 87.071 25.5964 86.9325 25.747 86.8317C25.899 86.7294 26.0708 86.6783 26.2626 86.6783C26.3024 86.6783 26.3493 86.6797 26.4032 86.6825C26.4586 86.6854 26.502 86.6889 26.5332 86.6932V87.3026C26.5076 87.2955 26.4622 87.2876 26.3968 87.2791C26.3315 87.2692 26.2662 87.2642 26.2008 87.2642C26.0502 87.2642 25.916 87.2962 25.7981 87.3601C25.6816 87.4226 25.5893 87.5099 25.5211 87.6222C25.4529 87.733 25.4189 87.8594 25.4189 88.0014V90H24.7818ZM28.0076 90.0724C27.8002 90.0724 27.6127 90.0341 27.4451 89.9574C27.2775 89.8793 27.1447 89.7663 27.0467 89.6186C26.9501 89.4709 26.9018 89.2898 26.9018 89.0753C26.9018 88.8906 26.9373 88.7386 27.0083 88.6193C27.0794 88.5 27.1752 88.4055 27.296 88.3359C27.4167 88.2663 27.5517 88.2138 27.7008 88.1783C27.85 88.1428 28.002 88.1158 28.1568 88.0973C28.3528 88.0746 28.5119 88.0561 28.6341 88.0419C28.7562 88.0263 28.845 88.0014 28.9004 87.9673C28.9558 87.9332 28.9835 87.8778 28.9835 87.8011V87.7862C28.9835 87.6001 28.9309 87.456 28.8258 87.3537C28.7221 87.2514 28.5673 87.2003 28.3613 87.2003C28.1468 87.2003 27.9778 87.2479 27.8542 87.343C27.7321 87.4368 27.6475 87.5412 27.6007 87.6562L27.002 87.5199C27.073 87.321 27.1767 87.1605 27.313 87.0384C27.4508 86.9148 27.6092 86.8253 27.7882 86.7699C27.9672 86.7131 28.1554 86.6847 28.3528 86.6847C28.4835 86.6847 28.622 86.7003 28.7683 86.7315C28.916 86.7614 29.0538 86.8168 29.1816 86.8977C29.3109 86.9787 29.4167 87.0945 29.4991 87.245C29.5815 87.3942 29.6227 87.5881 29.6227 87.8267V90H29.0005V89.5526H28.975C28.9338 89.6349 28.872 89.7159 28.7896 89.7955C28.7072 89.875 28.6014 89.9411 28.4721 89.9936C28.3429 90.0462 28.188 90.0724 28.0076 90.0724ZM28.1461 89.5611C28.3223 89.5611 28.4728 89.5263 28.5978 89.4567C28.7243 89.3871 28.8201 89.2962 28.8855 89.1839C28.9522 89.0703 28.9856 88.9489 28.9856 88.8196V88.3977C28.9629 88.4205 28.9189 88.4418 28.8535 88.4616C28.7896 88.4801 28.7164 88.4964 28.6341 88.5107C28.5517 88.5234 28.4714 88.5355 28.3933 88.5469C28.3152 88.5568 28.2498 88.5653 28.1973 88.5724C28.0737 88.5881 27.9608 88.6143 27.8585 88.6513C27.7576 88.6882 27.6767 88.7415 27.6156 88.8111C27.5559 88.8793 27.5261 88.9702 27.5261 89.0838C27.5261 89.2415 27.5843 89.3608 27.7008 89.4418C27.8173 89.5213 27.9657 89.5611 28.1461 89.5611ZM31.9989 86.7273V87.2386H30.2113V86.7273H31.9989ZM30.6907 85.9432H31.3278V89.0391C31.3278 89.1626 31.3462 89.2557 31.3832 89.3182C31.4201 89.3793 31.4677 89.4212 31.5259 89.4439C31.5856 89.4652 31.6502 89.4759 31.7198 89.4759C31.771 89.4759 31.8157 89.4723 31.854 89.4652C31.8924 89.4581 31.9222 89.4524 31.9435 89.4482L32.0586 89.9744C32.0217 89.9886 31.9691 90.0028 31.9009 90.017C31.8327 90.0327 31.7475 90.0412 31.6452 90.0426C31.4776 90.0455 31.3214 90.0156 31.1765 89.9531C31.0316 89.8906 30.9144 89.794 30.8249 89.6634C30.7354 89.5327 30.6907 89.3686 30.6907 89.1712V85.9432ZM32.7037 90V86.7273H33.3407V90H32.7037ZM33.0254 86.2223C32.9146 86.2223 32.8194 86.1854 32.7399 86.1115C32.6618 86.0362 32.6227 85.9467 32.6227 85.843C32.6227 85.7379 32.6618 85.6484 32.7399 85.5746C32.8194 85.4993 32.9146 85.4616 33.0254 85.4616C33.1362 85.4616 33.2306 85.4993 33.3088 85.5746C33.3883 85.6484 33.4281 85.7379 33.4281 85.843C33.4281 85.9467 33.3883 86.0362 33.3088 86.1115C33.2306 86.1854 33.1362 86.2223 33.0254 86.2223ZM35.5763 90.0661C35.2695 90.0661 35.0018 89.9957 34.7731 89.8551C34.5444 89.7145 34.3668 89.5178 34.2404 89.2649C34.114 89.0121 34.0508 88.7166 34.0508 88.3786C34.0508 88.0391 34.114 87.7422 34.2404 87.4879C34.3668 87.2337 34.5444 87.0362 34.7731 86.8956C35.0018 86.755 35.2695 86.6847 35.5763 86.6847C35.8832 86.6847 36.1509 86.755 36.3796 86.8956C36.6083 87.0362 36.7859 87.2337 36.9123 87.4879C37.0387 87.7422 37.1019 88.0391 37.1019 88.3786C37.1019 88.7166 37.0387 89.0121 36.9123 89.2649C36.7859 89.5178 36.6083 89.7145 36.3796 89.8551C36.1509 89.9957 35.8832 90.0661 35.5763 90.0661ZM35.5785 89.5312C35.7773 89.5312 35.9421 89.4787 36.0728 89.3736C36.2035 89.2685 36.3001 89.1286 36.3626 88.9538C36.4265 88.7791 36.4585 88.5866 36.4585 88.3764C36.4585 88.1676 36.4265 87.9759 36.3626 87.8011C36.3001 87.625 36.2035 87.4837 36.0728 87.3771C35.9421 87.2706 35.7773 87.2173 35.5785 87.2173C35.3782 87.2173 35.212 87.2706 35.0799 87.3771C34.9492 87.4837 34.8519 87.625 34.788 87.8011C34.7255 87.9759 34.6942 88.1676 34.6942 88.3764C34.6942 88.5866 34.7255 88.7791 34.788 88.9538C34.8519 89.1286 34.9492 89.2685 35.0799 89.3736C35.212 89.4787 35.3782 89.5312 35.5785 89.5312ZM38.4501 88.0568V90H37.813V86.7273H38.4245V87.2599H38.465C38.5403 87.0866 38.6582 86.9474 38.8187 86.8423C38.9806 86.7372 39.1845 86.6847 39.4302 86.6847C39.6532 86.6847 39.8485 86.7315 40.0162 86.8253C40.1838 86.9176 40.3137 87.0554 40.4061 87.2386C40.4984 87.4219 40.5446 87.6484 40.5446 87.9183V90H39.9075V87.995C39.9075 87.7578 39.8457 87.5724 39.7221 87.4389C39.5985 87.304 39.4288 87.2365 39.2129 87.2365C39.0652 87.2365 38.9338 87.2685 38.8187 87.3324C38.7051 87.3963 38.6149 87.4901 38.5481 87.6136C38.4828 87.7358 38.4501 87.8835 38.4501 88.0568Z" fill="#555A71"/>
<g filter="url(#filter0_f_268_70293)">
<ellipse cx="51.3247" cy="118.667" rx="51.3247" ry="118.667" transform="matrix(-0.330843 0.943686 0.943686 0.330843 126.312 16.6421)" fill="#363B49"/>
</g>
</g>
<defs>
<filter id="filter0_f_268_70293" x="-37.0489" y="-103.098" width="516.73" height="414.87" filterUnits="userSpaceOnUse" color-interpolation-filters="sRGB">
<feFlood flood-opacity="0" result="BackgroundImageFix"/>
<feBlend mode="normal" in="SourceGraphic" in2="BackgroundImageFix" result="shape"/>
<feGaussianBlur stdDeviation="72.5426" result="effect1_foregroundBlur_268_70293"/>
</filter>
<clipPath id="clip0_268_70293">
<rect width="160" height="100" rx="8" fill="white"/>
</clipPath>
<clipPath id="clip1_268_70293">
<rect width="262.727" height="109.335" fill="white" transform="translate(217.738 -28.283) rotate(107.062)"/>
</clipPath>
<clipPath id="clip2_268_70293">
<rect x="364.324" y="17.3601" width="262.727" height="262.727" rx="131.364" transform="rotate(107.062 364.324 17.3601)" fill="white"/>
</clipPath>
<clipPath id="clip3_268_70293">
<rect width="9.71265" height="9.71265" fill="white" transform="translate(150.83 95.5955) rotate(107.062)"/>
</clipPath>
<clipPath id="clip4_268_70293">
<rect width="9.71265" height="9.71265" fill="white" transform="translate(149.176 26.5085) rotate(107.062)"/>
</clipPath>
<clipPath id="clip5_268_70293">
<rect width="9.71265" height="9.71265" fill="white" transform="translate(136.352 68.292) rotate(107.062)"/>
</clipPath>
<clipPath id="clip6_268_70293">
<rect width="9.71265" height="9.71265" fill="white" transform="translate(134.696 -0.794922) rotate(107.062)"/>
</clipPath>
<clipPath id="clip7_268_70293">
<rect width="9.71265" height="9.71265" fill="white" transform="translate(109.047 82.7712) rotate(107.062)"/>
</clipPath>
<clipPath id="clip8_268_70293">
<rect width="9.71265" height="9.71265" fill="white" transform="translate(107.392 13.6843) rotate(107.062)"/>
</clipPath>
<clipPath id="clip9_268_70293">
<rect width="9.71265" height="9.71265" fill="white" transform="translate(94.5682 55.4675) rotate(107.062)"/>
</clipPath>
</defs>
</svg>
