<svg width="160" height="100" viewBox="0 0 160 100" fill="none" xmlns="http://www.w3.org/2000/svg">
<g clip-path="url(#clip0_268_70306)">
<rect width="160" height="100" rx="8" fill="#4A4E62"/>
<g clip-path="url(#clip1_268_70306)">
<g clip-path="url(#clip2_268_70306)">
<rect x="186.022" y="76.9331" width="22.3391" height="22.3391" rx="3.88506" transform="rotate(107.062 186.022 76.9331)" fill="white" fill-opacity="0.02"/>
<rect x="179.307" y="97.9856" width="21.8535" height="21.8535" rx="3.64224" transform="rotate(107.062 179.307 97.9856)" stroke="white" stroke-opacity="0.04" stroke-width="0.485633"/>
<rect x="184.367" y="7.84619" width="22.3391" height="22.3391" rx="3.88506" transform="rotate(107.062 184.367 7.84619)" fill="white" fill-opacity="0.02"/>
<rect x="177.651" y="28.8987" width="21.8535" height="21.8535" rx="3.64224" transform="rotate(107.062 177.651 28.8987)" stroke="white" stroke-opacity="0.04" stroke-width="0.485633"/>
<rect x="171.543" y="49.6294" width="22.3391" height="22.3391" rx="3.88506" transform="rotate(107.062 171.543 49.6294)" fill="white" fill-opacity="0.02"/>
<path d="M160.955 58.5313C161.1 56.9318 160.685 54.9009 159.929 53.6998C159.46 52.9156 159.37 52.8707 158.938 53.1531C158.581 53.3553 157.855 54.9321 158.076 55C158.156 55.0243 158.175 55.1861 158.122 55.36C158.068 55.534 158.104 55.7006 158.199 55.7297C158.294 55.7588 158.307 55.8841 158.205 55.9912C158.119 56.1032 158.116 56.2236 158.195 56.2478C158.29 56.277 158.305 56.4545 158.252 56.6285C158.154 56.9448 158.128 56.9193 157.821 56.3405C157.655 55.9782 157.521 55.6256 157.55 55.5307C157.613 55.3251 157.344 55.2426 157.16 55.3935C157.083 55.4739 157.047 56.155 157.066 56.9395C157.091 57.9855 157.033 58.4002 156.864 58.556C156.392 58.965 156.047 58.9628 155.22 58.5012C154.79 58.2656 154.414 58.081 154.378 58.0871C154.352 58.1139 154.45 58.4726 154.607 58.9189C154.933 59.8843 155.783 60.8373 156.709 61.2599C157.54 61.6534 157.626 61.5414 157.422 60.4579C157.298 59.8486 157.331 59.6856 157.654 59.1965C157.871 58.8825 158.101 58.6415 158.18 58.6658C158.465 58.7532 158.453 60.0303 158.157 60.77C157.877 61.5145 157.888 61.5352 158.296 61.5568C159.591 61.6252 160.788 60.2621 160.955 58.5313ZM159.705 57.0228C159.501 56.787 159.516 55.6668 159.727 55.5413C159.82 55.4659 160.063 56.8729 160.006 57.115C159.962 57.2573 159.894 57.2537 159.705 57.0228Z" fill="white" fill-opacity="0.02"/>
<path d="M155.218 57.5489C155.124 57.1221 155.147 56.9907 155.403 56.7753C155.552 56.6304 155.768 56.2642 155.865 55.9479L156.04 55.3785L155.451 55.7171C154.842 56.0666 153.577 56.1283 153.11 55.8464C152.733 55.6095 152.827 56.0364 153.251 56.5128C153.461 56.7328 153.738 56.9564 153.881 57.0001C154.007 57.0389 154.37 57.3233 154.664 57.6041C154.97 57.9055 155.231 58.1242 155.273 58.1023C155.298 58.0755 155.287 57.8298 155.218 57.5489Z" fill="white" fill-opacity="0.02"/>
<rect x="164.827" y="70.6819" width="21.8535" height="21.8535" rx="3.64224" transform="rotate(107.062 164.827 70.6819)" stroke="white" stroke-opacity="0.04" stroke-width="0.485633"/>
<rect x="158.718" y="91.4126" width="22.3391" height="22.3391" rx="3.88506" transform="rotate(107.062 158.718 91.4126)" fill="white" fill-opacity="0.02"/>
<g clip-path="url(#clip3_268_70306)">
<path d="M143.106 100.841C143.16 100.664 143.188 100.484 143.191 100.308L146.958 99.8143L146.537 101.188C146.288 101.999 146.743 102.858 147.554 103.106L148.441 103.379L148.969 101.659C149.218 100.848 148.763 99.9887 147.952 99.7398L147.7 99.6626C148.281 99.8409 148.897 99.5145 149.075 98.9336L149.477 97.6241L148.841 97.429C148.26 97.2507 147.645 97.5771 147.467 98.158L147.142 99.216L144.3 96.6946C144.392 96.5557 144.473 96.3882 144.528 96.2066C144.529 96.206 144.529 96.2057 144.529 96.2051C144.842 95.1855 144.267 94.1017 143.248 93.7888C142.228 93.476 141.145 94.0507 140.832 95.0701C140.519 96.0894 141.094 97.1732 142.113 97.4861C142.761 97.6851 143.436 97.5248 143.922 97.1193L146.395 99.3137L143.117 99.7429C142.939 99.1301 142.472 98.6232 141.825 98.4245C140.806 98.1118 139.722 98.6864 139.409 99.7058C139.096 100.725 139.671 101.809 140.69 102.122C141.71 102.435 142.794 101.86 143.106 100.841L143.106 100.841Z" fill="white" fill-opacity="0.02"/>
</g>
<rect x="169.888" y="-19.4575" width="22.3391" height="22.3391" rx="3.88506" transform="rotate(107.062 169.888 -19.4575)" fill="white" fill-opacity="0.02"/>
<rect x="163.172" y="1.59496" width="21.8535" height="21.8535" rx="3.64224" transform="rotate(107.062 163.172 1.59496)" stroke="white" stroke-opacity="0.04" stroke-width="0.485633"/>
<rect x="157.064" y="22.3257" width="22.3391" height="22.3391" rx="3.88506" transform="rotate(107.062 157.064 22.3257)" fill="white" fill-opacity="0.02"/>
<g clip-path="url(#clip4_268_70306)">
<path d="M143.411 34.7604L143.495 34.7863C144.213 35.0065 145.373 33.3308 146.086 31.0095C146.798 28.6882 146.778 26.6498 146.06 26.4296L145.976 26.4037L146.018 26.4167L144.92 26.0799C144.667 26.0022 144.378 26.1906 143.983 26.5772C143.983 26.5772 142.971 27.4672 142.232 29.8729C141.921 30.8859 141.75 31.8954 141.79 32.9698C141.81 33.8072 142.047 34.388 142.343 34.4787L143.411 34.7604ZM145.947 27.5495C146.279 27.9745 146.172 29.3735 145.706 30.8929C145.24 32.4123 144.488 33.6593 144.017 33.8381C143.962 33.8674 143.878 33.8415 143.835 33.8285L143.666 33.7767C143.722 33.7474 143.79 33.676 143.845 33.6467C144.325 33.2861 144.857 32.1562 145.284 30.7634C145.712 29.3706 145.892 28.1793 145.697 27.6114C145.681 27.514 145.652 27.4589 145.593 27.3485L145.804 27.4133C145.846 27.4263 145.918 27.4944 145.947 27.5495ZM141.196 33.2493L140.099 32.9125C139.803 32.8219 139.608 32.254 139.546 31.4036C139.506 30.3293 139.677 29.3197 139.988 28.3068C140.811 25.927 141.781 25.0239 141.781 25.0239C142.177 24.6374 142.508 24.4619 142.719 24.5267L143.9 24.8894C144.111 24.9541 144.287 25.2851 144.381 25.7297L144.339 25.7167C144.086 25.639 143.742 25.8567 143.333 26.2855C143.333 26.2855 142.406 27.2015 141.609 29.4968C141.256 30.4968 141.114 31.5616 141.166 32.5937C141.186 32.8306 141.219 33.0254 141.196 33.2493Z" fill="white" fill-opacity="0.02"/>
</g>
<rect x="150.348" y="43.3782" width="21.8535" height="21.8535" rx="3.64224" transform="rotate(107.062 150.348 43.3782)" stroke="white" stroke-opacity="0.04" stroke-width="0.485633"/>
<rect x="144.239" y="64.1089" width="22.3391" height="22.3391" rx="3.88506" transform="rotate(107.062 144.239 64.1089)" fill="white" fill-opacity="0.02"/>
<g clip-path="url(#clip5_268_70306)">
<path d="M133.63 72.2377C133.704 71.8946 133.725 71.5626 133.7 71.2387L133.701 71.2631L134.577 71.1301C134.618 71.5535 134.588 72.0205 134.479 72.4852L134.476 72.4981L133.63 72.2384L133.63 72.2377ZM133.619 70.7199C133.539 70.3895 133.42 70.0899 133.261 69.8123L133.26 69.81L133.992 69.3101C134.223 69.7005 134.391 70.1222 134.49 70.5634L134.494 70.5867L133.619 70.7199ZM132.95 69.3569C132.758 69.1175 132.522 68.8938 132.254 68.7059L132.233 68.6921L132.675 67.9242C133.083 68.1987 133.416 68.5136 133.692 68.8694L133.681 68.8567L132.95 69.3569ZM131.756 68.4176C131.623 68.3531 131.464 68.2911 131.299 68.2405C131.134 68.1899 130.969 68.1523 130.803 68.1275L130.821 68.1307L130.887 67.2481C131.095 67.2751 131.329 67.3256 131.561 67.3969C131.792 67.4677 132.012 67.5564 132.221 67.6606L132.199 67.6501L131.757 68.4177L131.756 68.4176ZM130.274 68.0902C129.948 68.0926 129.622 68.1411 129.307 68.2367L128.982 67.4122C129.395 67.2778 129.847 67.2044 130.307 67.2061L130.339 67.2075L130.274 68.0902L130.274 68.0902ZM127.126 70.2407L126.28 69.9802C126.454 69.5216 126.692 69.1185 126.984 68.7672L126.965 68.7912L127.615 69.3932C127.426 69.6276 127.257 69.9144 127.131 70.2291L127.126 70.2407ZM126.893 71.7411L126.018 71.8741C125.977 71.4504 126.006 70.9828 126.116 70.5176L126.119 70.5049L126.965 70.7653C126.89 71.1087 126.869 71.4413 126.894 71.7658L126.893 71.7411ZM127.334 73.1939L126.602 73.6938C126.37 73.3031 126.203 72.881 126.104 72.4397L126.1 72.4165L126.975 72.2838C127.055 72.6142 127.174 72.9141 127.333 73.192L127.334 73.194L127.334 73.1939ZM128.36 74.312L127.918 75.0801C127.51 74.8053 127.178 74.4906 126.902 74.1344L126.912 74.1472L127.644 73.6472C127.85 73.9012 128.091 74.1262 128.36 74.312ZM129.772 74.8743L129.706 75.757C129.498 75.73 129.264 75.6797 129.032 75.6084C128.801 75.5375 128.58 75.4488 128.371 75.3445L128.394 75.355L128.836 74.5872C128.97 74.6517 129.128 74.7137 129.293 74.7644C129.459 74.8151 129.624 74.8526 129.79 74.8777L129.771 74.8745L129.772 74.8743ZM131.286 74.7695L131.61 75.5934C131.197 75.7278 130.745 75.8005 130.285 75.7988L130.253 75.7975L130.319 74.915C130.672 74.9115 130.993 74.8599 131.3 74.7658L131.286 74.7695L131.286 74.7695ZM132.605 74.0161L133.254 74.6183C132.908 74.9443 132.532 75.1986 132.126 75.3905L132.122 75.3924L131.798 74.5681C132.087 74.4261 132.354 74.2449 132.592 74.0286L132.605 74.0161ZM128.796 68.4386C128.507 68.5807 128.24 68.762 128.002 68.9782L127.989 68.9907L127.338 68.3885C127.685 68.0624 128.061 67.8075 128.467 67.6156L128.471 67.6136L128.795 68.4382L128.796 68.4386ZM130.764 71.8635L131.483 73.0841L130.941 73.3714L130.334 72.0908L129.937 71.9688L128.716 72.6886L128.429 72.1463L129.709 71.5395L129.831 71.1419L129.111 69.9216L129.654 69.634L130.26 70.9144L130.658 71.0364L131.878 70.3168L132.166 70.8591L130.886 71.4657L130.764 71.8635ZM130.123 76.3447C132.795 76.4409 135.043 74.3489 135.14 71.6772C135.236 69.0056 133.144 66.7572 130.472 66.6608C127.8 66.5646 125.552 68.6563 125.456 71.3282C125.359 74 127.451 76.2484 130.123 76.3446L130.123 76.3447ZM132.978 73.6134C133.167 73.3785 133.337 73.0909 133.464 72.7754L133.468 72.7638L134.315 73.0236C134.14 73.4832 133.902 73.8873 133.61 74.2394L133.628 74.2154L132.978 73.6134Z" fill="white" fill-opacity="0.02"/>
</g>
<rect x="137.524" y="85.1614" width="21.8535" height="21.8535" rx="3.64224" transform="rotate(107.062 137.524 85.1614)" stroke="white" stroke-opacity="0.04" stroke-width="0.485633"/>
<rect x="131.415" y="105.892" width="22.3391" height="22.3391" rx="3.88506" transform="rotate(107.062 131.415 105.892)" fill="white" fill-opacity="0.02"/>
<rect x="142.584" y="-4.97803" width="22.3391" height="22.3391" rx="3.88506" transform="rotate(107.062 142.584 -4.97803)" fill="white" fill-opacity="0.02"/>
<g clip-path="url(#clip6_268_70306)">
<path d="M126.972 4.45065C127.027 4.27336 127.054 4.09384 127.057 3.9173L130.824 3.4239L130.403 4.79723C130.154 5.60823 130.61 6.46716 131.421 6.71607L132.308 6.98832L132.836 5.26825C133.084 4.45725 132.629 3.59832 131.818 3.3494L131.566 3.27219C132.147 3.45048 132.763 3.12409 132.941 2.54319L133.343 1.23369L132.708 1.03866C132.127 0.860365 131.511 1.18676 131.333 1.76766L131.008 2.82559L128.166 0.304215C128.259 0.165282 128.339 -0.00216035 128.395 -0.183801C128.395 -0.184381 128.395 -0.184672 128.395 -0.185252C128.708 -1.20488 128.133 -2.28868 127.114 -2.60154C126.095 -2.9144 125.011 -2.33965 124.698 -1.32031C124.385 -0.300975 124.96 0.782831 125.979 1.09569C126.628 1.29473 127.302 1.13446 127.788 0.728895L130.261 2.92336L126.983 3.35253C126.805 2.73974 126.338 2.23287 125.691 2.03416C124.672 1.72139 123.588 2.29605 123.275 3.31539C122.963 4.33473 123.537 5.41853 124.557 5.73139C125.576 6.04425 126.66 5.46949 126.973 4.45016L126.972 4.45065Z" fill="white" fill-opacity="0.02"/>
</g>
<rect x="135.869" y="16.0745" width="21.8535" height="21.8535" rx="3.64224" transform="rotate(107.062 135.869 16.0745)" stroke="white" stroke-opacity="0.04" stroke-width="0.485633"/>
<rect x="129.76" y="36.8052" width="22.3391" height="22.3391" rx="3.88506" transform="rotate(107.062 129.76 36.8052)" fill="white" fill-opacity="0.02"/>
<path d="M120.196 47.7862C120.147 47.4944 119.978 46.9751 119.786 46.6396L119.448 46.0511L119.239 46.7312C119.138 47.1156 118.926 47.6387 118.78 47.8882C118.554 48.286 118.562 48.3748 118.849 48.5668C119.04 48.6773 119.373 48.8316 119.626 48.9092C119.974 49.016 120.073 48.977 120.16 48.6924C120.207 48.4819 120.224 48.0891 120.196 47.7862Z" fill="white" fill-opacity="0.02"/>
<path d="M119.173 45.7071C119.317 44.1076 118.902 42.0767 118.146 40.8755C117.678 40.0914 117.587 40.0464 117.155 40.3289C116.798 40.5311 116.072 42.1079 116.294 42.1758C116.373 42.2001 116.392 42.3618 116.339 42.5358C116.286 42.7098 116.321 42.8764 116.416 42.9055C116.511 42.9346 116.524 43.0599 116.422 43.167C116.336 43.2789 116.333 43.3994 116.413 43.4236C116.507 43.4528 116.522 43.6303 116.469 43.8043C116.372 44.1206 116.345 44.0951 116.038 43.5163C115.872 43.154 115.738 42.8014 115.767 42.7065C115.83 42.5009 115.562 42.4184 115.377 42.5693C115.3 42.6496 115.264 43.3308 115.283 44.1153C115.308 45.1612 115.25 45.576 115.081 45.7318C114.609 46.1408 114.264 46.1386 113.437 45.677C113.007 45.4414 112.631 45.2568 112.595 45.2629C112.569 45.2896 112.667 45.6484 112.824 46.0946C113.151 47.0601 114 48.0131 114.926 48.4357C115.757 48.8292 115.843 48.7172 115.639 47.6337C115.515 47.0244 115.548 46.8614 115.871 46.3722C116.088 46.0583 116.318 45.8173 116.397 45.8416C116.682 45.9289 116.671 47.206 116.374 47.9457C116.094 48.6903 116.105 48.711 116.514 48.7326C117.808 48.801 119.005 47.4379 119.173 45.7071ZM117.922 44.1985C117.718 43.9627 117.733 42.8425 117.945 42.7171C118.037 42.6416 118.28 44.0487 118.223 44.2908C118.179 44.4331 118.111 44.4295 117.922 44.1985Z" fill="white" fill-opacity="0.02"/>
<path d="M113.435 44.7247C113.341 44.2979 113.364 44.1665 113.62 43.951C113.769 43.8062 113.985 43.4399 114.082 43.1237L114.257 42.5543L113.668 42.8929C113.059 43.2423 111.794 43.304 111.327 43.0222C110.95 42.7853 111.044 43.2121 111.469 43.6886C111.678 43.9086 111.955 44.1322 112.098 44.1759C112.224 44.2147 112.587 44.4991 112.881 44.7798C113.187 45.0813 113.449 45.3 113.49 45.2781C113.515 45.2513 113.504 45.0056 113.435 44.7247Z" fill="white" fill-opacity="0.02"/>
<rect x="123.044" y="57.8577" width="21.8535" height="21.8535" rx="3.64224" transform="rotate(107.062 123.044 57.8577)" stroke="white" stroke-opacity="0.04" stroke-width="0.485633"/>
<rect x="116.935" y="78.5884" width="22.3391" height="22.3391" rx="3.88506" transform="rotate(107.062 116.935 78.5884)" fill="white" fill-opacity="0.02"/>
<g clip-path="url(#clip7_268_70306)">
<path d="M103.282 91.0231L103.366 91.049C104.084 91.2692 105.245 89.5935 105.957 87.2722C106.67 84.9509 106.649 82.9125 105.931 82.6923L105.847 82.6664L105.889 82.6794L104.792 82.3426C104.538 82.2648 104.25 82.4533 103.854 82.8398C103.854 82.8398 102.842 83.7299 102.103 86.1356C101.793 87.1485 101.621 88.1581 101.661 89.2325C101.681 90.0699 101.918 90.6507 102.214 90.7414L103.282 91.0231ZM105.818 83.8122C106.15 84.2372 106.044 85.6362 105.577 87.1556C105.111 88.675 104.359 89.922 103.888 90.1008C103.833 90.1301 103.749 90.1041 103.706 90.0912L103.538 90.0394C103.593 90.0101 103.661 89.9387 103.716 89.9094C104.196 89.5488 104.728 88.4189 105.155 87.0261C105.583 85.6333 105.764 84.442 105.568 83.8741C105.552 83.7767 105.523 83.7215 105.464 83.6112L105.675 83.676C105.718 83.689 105.789 83.7571 105.818 83.8122ZM101.067 89.512L99.9698 89.1752C99.6743 89.0846 99.4792 88.5167 99.4169 87.6663C99.3772 86.592 99.5485 85.5824 99.8594 84.5694C100.682 82.1897 101.652 81.2866 101.652 81.2866C102.048 80.9001 102.379 80.7246 102.59 80.7894L103.772 81.1521C103.983 81.2168 104.158 81.5478 104.253 81.9924L104.21 81.9794C103.957 81.9017 103.613 82.1194 103.204 82.5482C103.204 82.5482 102.277 83.4642 101.48 85.7595C101.127 86.7595 100.985 87.8243 101.037 88.8564C101.057 89.0933 101.09 89.2881 101.067 89.512Z" fill="white" fill-opacity="0.02"/>
</g>
<rect x="110.22" y="99.6409" width="21.8535" height="21.8535" rx="3.64224" transform="rotate(107.062 110.22 99.6409)" stroke="white" stroke-opacity="0.04" stroke-width="0.485633"/>
<rect x="121.389" y="-11.2293" width="21.8535" height="21.8535" rx="3.64224" transform="rotate(107.062 121.389 -11.2293)" stroke="white" stroke-opacity="0.04" stroke-width="0.485633"/>
<rect x="115.28" y="9.50146" width="22.3391" height="22.3391" rx="3.88506" transform="rotate(107.062 115.28 9.50146)" fill="white" fill-opacity="0.02"/>
<g clip-path="url(#clip8_268_70306)">
<path d="M105.857 15.7409L102.991 12.3333L98.5607 13.1199L101.427 16.5275L105.857 15.7409ZM102.401 13.4129C102.458 13.2286 102.653 13.1251 102.837 13.1816C103.022 13.2382 103.125 13.4335 103.069 13.6177C103.012 13.802 102.817 13.9055 102.633 13.849C102.448 13.7924 102.345 13.5971 102.401 13.4129ZM100.561 13.7321C100.617 13.5479 100.813 13.4443 100.997 13.5009C101.181 13.5574 101.285 13.7527 101.228 13.937C101.171 14.1212 100.976 14.2248 100.792 14.1682C100.608 14.1117 100.504 13.9164 100.561 13.7321ZM103.524 14.7617C103.581 14.5774 103.776 14.4739 103.96 14.5304C104.144 14.587 104.248 14.7823 104.191 14.9665C104.135 15.1508 103.94 15.2543 103.755 15.1978C103.571 15.1412 103.468 14.9459 103.524 14.7617ZM101.59 15.1398C101.646 14.9556 101.841 14.8522 102.025 14.9088C102.21 14.9653 102.313 15.1603 102.257 15.3446C102.2 15.5288 102.005 15.6324 101.821 15.5759C101.636 15.5193 101.533 15.324 101.589 15.1398L101.59 15.1398ZM100.97 16.9126L98.0476 13.4386L96.4547 17.8309L99.3771 21.305L100.97 16.9126ZM97.9864 15.7319C98.0429 15.5476 98.2381 15.4443 98.4221 15.5008C98.6061 15.5572 98.7096 15.7525 98.6532 15.9365C98.5966 16.1208 98.4014 16.224 98.2175 16.1676C98.0335 16.1111 97.9299 15.9158 97.9864 15.7319ZM98.6245 18.8518C98.6811 18.6676 98.8763 18.5643 99.0602 18.6208C99.2442 18.6772 99.3478 18.8725 99.2913 19.0565C99.2348 19.2407 99.0395 19.344 98.8556 19.2876C98.6716 19.2311 98.5681 19.0358 98.6245 18.8518ZM104.484 20.7423L106.092 16.3069L101.532 17.1163L99.924 21.5519L104.484 20.7423ZM102.597 18.9941C102.653 18.8098 102.849 18.7063 103.033 18.7628C103.217 18.8194 103.321 19.0147 103.264 19.1989C103.208 19.3832 103.012 19.4868 102.828 19.4302C102.644 19.3736 102.54 19.1784 102.597 18.9941Z" fill="white" fill-opacity="0.02"/>
</g>
<rect x="108.565" y="30.5539" width="21.8535" height="21.8535" rx="3.64224" transform="rotate(107.062 108.565 30.5539)" stroke="white" stroke-opacity="0.04" stroke-width="0.485633"/>
<rect x="102.456" y="51.2847" width="22.3391" height="22.3391" rx="3.88506" transform="rotate(107.062 102.456 51.2847)" fill="white" fill-opacity="0.02"/>
<g clip-path="url(#clip9_268_70306)">
<path d="M91.8462 59.4132C91.921 59.0701 91.942 58.7381 91.9169 58.4142L91.918 58.4387L92.7932 58.3056C92.8341 58.729 92.805 59.196 92.696 59.6607L92.6927 59.6737L91.8463 59.4139L91.8462 59.4132ZM91.8352 57.8954C91.7559 57.565 91.6364 57.2655 91.4778 56.9878L91.4766 56.9856L92.2082 56.4856C92.4395 56.876 92.6076 57.2978 92.7065 57.739L92.7108 57.7622L91.8352 57.8954ZM91.1661 56.5325C90.9748 56.2931 90.7383 56.0694 90.4705 55.8815L90.4494 55.8677L90.8914 55.0998C91.2996 55.3743 91.6325 55.6892 91.9082 56.0449L91.8978 56.0322L91.1661 56.5325ZM89.9729 55.5932C89.8391 55.5286 89.6806 55.4666 89.5158 55.416C89.351 55.3655 89.1851 55.3279 89.0193 55.303L89.038 55.3062L89.1032 54.4236C89.3114 54.4507 89.5452 54.5011 89.7776 54.5725C90.0083 54.6433 90.229 54.732 90.438 54.8361L90.4152 54.8256L89.9732 55.5933L89.9729 55.5932ZM88.4904 55.2658C88.1649 55.2681 87.8388 55.3166 87.5234 55.4122L87.1987 54.5877C87.6111 54.4533 88.0631 54.38 88.5236 54.3816L88.5553 54.3831L88.4901 55.2657L88.4904 55.2658ZM85.3428 57.4162L84.4963 57.1558C84.6704 56.6971 84.9087 56.294 85.2001 55.9427L85.1819 55.9667L85.8318 56.5688C85.6427 56.8031 85.4734 57.0899 85.3473 57.4046L85.3428 57.4162ZM85.1096 58.9166L84.2344 59.0496C84.1936 58.6259 84.2229 58.1583 84.3323 57.6931L84.3356 57.6805L85.1818 57.9408C85.1069 58.2842 85.0857 58.6168 85.1106 58.9413L85.1096 58.9166ZM85.5502 60.3694L84.8183 60.8693C84.587 60.4786 84.4191 60.0565 84.3208 59.6152L84.3165 59.592L85.1919 59.4594C85.2712 59.7898 85.3906 60.0896 85.5492 60.3675L85.5505 60.3695L85.5502 60.3694ZM86.577 61.4875L86.1345 62.2556C85.7265 61.9808 85.3941 61.6661 85.1183 61.31L85.1287 61.3227L85.8603 60.8227C86.0662 61.0767 86.3079 61.3017 86.577 61.4875ZM87.9881 62.0498L87.9222 62.9326C87.7143 62.9056 87.4808 62.8552 87.2487 62.784C87.0177 62.7131 86.797 62.6244 86.5874 62.52L86.6102 62.5305L87.0526 61.7627C87.1864 61.8273 87.3449 61.8892 87.51 61.9399C87.6751 61.9906 87.8407 62.0281 88.0064 62.0532L87.9877 62.05L87.9881 62.0498ZM89.5023 61.945L89.8263 62.769C89.4139 62.9034 88.9617 62.976 88.5012 62.9744L88.4699 62.973L88.5356 62.0906C88.8882 62.087 89.2094 62.0354 89.5161 61.9413L89.5026 61.9451L89.5023 61.945ZM90.8213 61.1916L91.4708 61.7938C91.1241 62.1198 90.7485 62.3742 90.3423 62.566L90.3382 62.5679L90.0143 61.7437C90.3036 61.6017 90.5707 61.4204 90.8085 61.2042L90.8213 61.1916ZM87.0122 55.6141C86.7235 55.7563 86.4564 55.9375 86.2186 56.1538L86.2055 56.1663L85.5551 55.564C85.9015 55.2379 86.2772 54.9831 86.6832 54.7911L86.6873 54.7892L87.012 55.6137L87.0122 55.6141ZM88.9801 59.039L89.6995 60.2596L89.1574 60.5469L88.5509 59.2664L88.1534 59.1444L86.9327 59.8641L86.6451 59.3218L87.9254 58.715L88.0475 58.3175L87.3279 57.0972L87.8702 56.8096L88.477 58.0899L88.8745 58.2119L90.0949 57.4924L90.3824 58.0347L89.1022 58.6412L88.9801 59.039ZM88.3391 63.5202C91.0111 63.6165 93.2597 61.5244 93.3561 58.8528C93.4526 56.1811 91.3604 53.9328 88.6888 53.8363C86.0167 53.7401 83.7682 55.8319 83.6724 58.5037C83.5756 61.1756 85.6677 63.4239 88.3397 63.5201L88.3391 63.5202ZM91.1944 60.7889C91.384 60.5541 91.5538 60.2665 91.6802 59.9509L91.6847 59.9393L92.5314 60.1992C92.357 60.6587 92.1181 61.0629 91.8262 61.4149L91.8443 61.391L91.1944 60.7889Z" fill="white" fill-opacity="0.02"/>
</g>
<rect x="95.7401" y="72.3372" width="21.8535" height="21.8535" rx="3.64224" transform="rotate(107.062 95.7401 72.3372)" stroke="white" stroke-opacity="0.04" stroke-width="0.485633"/>
<rect x="89.6313" y="93.0679" width="22.3391" height="22.3391" rx="3.88506" transform="rotate(107.062 89.6313 93.0679)" fill="white" fill-opacity="0.02"/>
<path d="M79.0436 101.97C79.1884 100.37 78.7734 98.3394 78.0173 97.1382C77.5485 96.3541 77.4585 96.3091 77.0257 96.5916C76.6694 96.7938 75.9432 98.3706 76.1646 98.4385C76.2437 98.4628 76.2633 98.6245 76.2099 98.7985C76.1565 98.9725 76.1919 99.1391 76.2868 99.1682C76.3817 99.1973 76.3951 99.3226 76.293 99.4297C76.2067 99.5416 76.2044 99.6621 76.2835 99.6863C76.3784 99.7154 76.3931 99.893 76.3397 100.067C76.2426 100.383 76.2158 100.358 75.9089 99.779C75.7433 99.4167 75.6092 99.0641 75.6384 98.9692C75.7015 98.7636 75.4326 98.6811 75.2478 98.832C75.1713 98.9123 75.1353 99.5935 75.154 100.378C75.1791 101.424 75.121 101.839 74.9521 101.995C74.4804 102.404 74.135 102.401 73.3076 101.94C72.8781 101.704 72.5022 101.519 72.4657 101.526C72.4402 101.552 72.5377 101.911 72.6949 102.357C73.0216 103.323 73.8712 104.276 74.7971 104.698C75.6281 105.092 75.7143 104.98 75.5105 103.896C75.386 103.287 75.4187 103.124 75.7419 102.635C75.9594 102.321 76.1891 102.08 76.2681 102.104C76.5528 102.192 76.5415 103.469 76.2453 104.208C75.9649 104.953 75.9758 104.974 76.3845 104.995C77.6787 105.064 78.8757 103.701 79.0436 101.97ZM77.7934 100.461C77.5889 100.225 77.6039 99.1052 77.8155 98.9798C77.9079 98.9043 78.1509 100.311 78.0939 100.553C78.0502 100.696 77.9821 100.692 77.7934 100.461Z" fill="white" fill-opacity="0.02"/>
<path d="M73.3058 100.987C73.2119 100.561 73.2349 100.429 73.4914 100.214C73.6396 100.069 73.8559 99.7026 73.953 99.3863L74.1277 98.817L73.5393 99.1555C72.9302 99.505 71.6653 99.5667 71.198 99.2849C70.8208 99.048 70.9148 99.4748 71.3396 99.9513C71.549 100.171 71.8264 100.395 71.9688 100.439C72.0953 100.477 72.4579 100.762 72.7525 101.043C73.0579 101.344 73.3196 101.563 73.3609 101.541C73.3865 101.514 73.3753 101.268 73.3058 100.987Z" fill="white" fill-opacity="0.02"/>
</g>
</g>
<path d="M14.5376 15.6172C14.4912 15.183 14.2957 14.8449 13.951 14.603C13.6096 14.361 13.1655 14.2401 12.6186 14.2401C12.2341 14.2401 11.9044 14.2981 11.6293 14.4141C11.3542 14.5301 11.1437 14.6875 10.9979 14.8864C10.852 15.0852 10.7775 15.3123 10.7741 15.5675C10.7741 15.7796 10.8222 15.9635 10.9183 16.1193C11.0178 16.2751 11.152 16.4077 11.321 16.517C11.4901 16.6231 11.6773 16.7126 11.8828 16.7855C12.0883 16.8584 12.2955 16.9197 12.5043 16.9695L13.4588 17.2081C13.8433 17.2976 14.2128 17.4186 14.5675 17.571C14.9254 17.7235 15.2453 17.9157 15.527 18.1477C15.812 18.3797 16.0374 18.6598 16.2031 18.9879C16.3688 19.3161 16.4517 19.7005 16.4517 20.1413C16.4517 20.7379 16.2992 21.2633 15.9943 21.7173C15.6894 22.1681 15.2486 22.5211 14.6719 22.7763C14.0985 23.0282 13.4041 23.1541 12.5888 23.1541C11.7966 23.1541 11.1089 23.0315 10.5256 22.7862C9.94555 22.541 9.49148 22.183 9.16335 21.7124C8.83854 21.2417 8.66288 20.6683 8.63636 19.9922H10.451C10.4775 20.3468 10.5869 20.6418 10.7791 20.8771C10.9714 21.1125 11.2216 21.2881 11.5298 21.4041C11.8414 21.5201 12.1894 21.5781 12.5739 21.5781C12.9749 21.5781 13.3262 21.5185 13.6278 21.3991C13.9328 21.2765 14.1714 21.1075 14.3438 20.892C14.5161 20.6733 14.6039 20.4181 14.6072 20.1264C14.6039 19.8613 14.526 19.6425 14.3736 19.4702C14.2211 19.2945 14.0073 19.1487 13.7322 19.0327C13.4605 18.9134 13.1423 18.8073 12.7777 18.7145L11.6193 18.4162C10.7808 18.2008 10.1179 17.8743 9.63068 17.4368C9.14678 16.996 8.90483 16.411 8.90483 15.6818C8.90483 15.0819 9.06723 14.5566 9.39205 14.1058C9.72017 13.6551 10.166 13.3054 10.7294 13.0568C11.2929 12.8049 11.9309 12.679 12.6435 12.679C13.366 12.679 13.9991 12.8049 14.5426 13.0568C15.0895 13.3054 15.5187 13.6518 15.8303 14.0959C16.1418 14.5367 16.3026 15.0438 16.3125 15.6172H14.5376ZM19.9405 12.8182V23H18.0961V12.8182H19.9405ZM21.9379 23V12.8182H23.7823V21.4538H28.2667V23H21.9379ZM30.177 12.8182L32.8269 20.8324H32.9313L35.5762 12.8182H37.6046L34.0151 23H31.7381L28.1536 12.8182H30.177ZM38.9457 23V12.8182H45.5678V14.3643H40.7901V17.1286H45.2248V18.6747H40.7901V21.4538H45.6076V23H38.9457ZM47.4496 23V12.8182H51.2678C52.05 12.8182 52.7062 12.9541 53.2365 13.2259C53.7701 13.4976 54.1728 13.8788 54.4446 14.3693C54.7197 14.8565 54.8572 15.425 54.8572 16.0746C54.8572 16.7275 54.718 17.2943 54.4396 17.7749C54.1645 18.2521 53.7585 18.6217 53.2216 18.8835C52.6847 19.142 52.0251 19.2713 51.2429 19.2713H48.5234V17.7401H50.9943C51.4517 17.7401 51.8262 17.6771 52.1179 17.5511C52.4096 17.4219 52.625 17.2346 52.7642 16.9893C52.9067 16.7408 52.978 16.4358 52.978 16.0746C52.978 15.7133 52.9067 15.4051 52.7642 15.1499C52.6217 14.8913 52.4046 14.6958 52.1129 14.5632C51.8213 14.4273 51.4451 14.3594 50.9844 14.3594H49.294V23H47.4496ZM52.7095 18.3864L55.2301 23H53.1719L50.696 18.3864H52.7095Z" fill="white"/>
<path d="M8.2642 78.2031V77.6364H11.6413V78.2031H10.2798V82H9.62358V78.2031H8.2642ZM12.9735 80.0568V82H12.3365V77.6364H12.965V79.2599H13.0055C13.0822 79.0838 13.1994 78.9439 13.3571 78.8402C13.5147 78.7365 13.7207 78.6847 13.975 78.6847C14.1994 78.6847 14.3954 78.7308 14.563 78.8232C14.7321 78.9155 14.8627 79.0533 14.9551 79.2365C15.0488 79.4183 15.0957 79.6456 15.0957 79.9183V82H14.4586V79.995C14.4586 79.755 14.3968 79.5689 14.2733 79.4368C14.1497 79.3033 13.9778 79.2365 13.7576 79.2365C13.6071 79.2365 13.4721 79.2685 13.3528 79.3324C13.2349 79.3963 13.1419 79.4901 13.0737 79.6136C13.0069 79.7358 12.9735 79.8835 12.9735 80.0568ZM15.9458 82V78.7273H16.5829V82H15.9458ZM16.2676 78.2223C16.1568 78.2223 16.0616 78.1854 15.9821 78.1115C15.9039 78.0362 15.8649 77.9467 15.8649 77.843C15.8649 77.7379 15.9039 77.6484 15.9821 77.5746C16.0616 77.4993 16.1568 77.4616 16.2676 77.4616C16.3784 77.4616 16.4728 77.4993 16.551 77.5746C16.6305 77.6484 16.6703 77.7379 16.6703 77.843C16.6703 77.9467 16.6305 78.0362 16.551 78.1115C16.4728 78.1854 16.3784 78.2223 16.2676 78.2223ZM19.8924 79.5263L19.315 79.6286C19.2908 79.5547 19.2525 79.4844 19.1999 79.4176C19.1488 79.3509 19.0792 79.2962 18.9911 79.2536C18.9031 79.2109 18.793 79.1896 18.6609 79.1896C18.4805 79.1896 18.3299 79.2301 18.2092 79.3111C18.0884 79.3906 18.0281 79.4936 18.0281 79.62C18.0281 79.7294 18.0685 79.8175 18.1495 79.8842C18.2305 79.951 18.3612 80.0057 18.5415 80.0483L19.0614 80.1676C19.3626 80.2372 19.587 80.3445 19.7347 80.4893C19.8825 80.6342 19.9563 80.8224 19.9563 81.054C19.9563 81.25 19.8995 81.4247 19.7859 81.5781C19.6737 81.7301 19.5167 81.8494 19.315 81.9361C19.1147 82.0227 18.8825 82.0661 18.6183 82.0661C18.2518 82.0661 17.9528 81.9879 17.7212 81.8317C17.4897 81.674 17.3477 81.4503 17.2951 81.1605L17.9109 81.0668C17.9492 81.2273 18.0281 81.3487 18.1474 81.4311C18.2667 81.5121 18.4222 81.5526 18.614 81.5526C18.8228 81.5526 18.9897 81.5092 19.1147 81.4226C19.2397 81.3345 19.3022 81.2273 19.3022 81.1009C19.3022 80.9986 19.2638 80.9126 19.1871 80.843C19.1119 80.7734 18.9961 80.7209 18.8398 80.6854L18.2859 80.5639C17.9805 80.4943 17.7546 80.3835 17.6083 80.2315C17.4634 80.0795 17.391 79.8871 17.391 79.6541C17.391 79.4609 17.445 79.2919 17.5529 79.147C17.6609 79.0021 17.81 78.8892 18.0004 78.8082C18.1907 78.7259 18.4087 78.6847 18.6545 78.6847C19.0082 78.6847 19.2866 78.7614 19.4897 78.9148C19.6928 79.0668 19.8271 79.2706 19.8924 79.5263ZM24.6971 79.5263L24.1197 79.6286C24.0955 79.5547 24.0572 79.4844 24.0046 79.4176C23.9535 79.3509 23.8839 79.2962 23.7958 79.2536C23.7077 79.2109 23.5977 79.1896 23.4656 79.1896C23.2852 79.1896 23.1346 79.2301 23.0138 79.3111C22.8931 79.3906 22.8327 79.4936 22.8327 79.62C22.8327 79.7294 22.8732 79.8175 22.9542 79.8842C23.0352 79.951 23.1658 80.0057 23.3462 80.0483L23.8661 80.1676C24.1673 80.2372 24.3917 80.3445 24.5394 80.4893C24.6871 80.6342 24.761 80.8224 24.761 81.054C24.761 81.25 24.7042 81.4247 24.5906 81.5781C24.4783 81.7301 24.3214 81.8494 24.1197 81.9361C23.9194 82.0227 23.6871 82.0661 23.4229 82.0661C23.0565 82.0661 22.7575 81.9879 22.5259 81.8317C22.2944 81.674 22.1523 81.4503 22.0998 81.1605L22.7156 81.0668C22.7539 81.2273 22.8327 81.3487 22.9521 81.4311C23.0714 81.5121 23.2269 81.5526 23.4187 81.5526C23.6275 81.5526 23.7944 81.5092 23.9194 81.4226C24.0444 81.3345 24.1069 81.2273 24.1069 81.1009C24.1069 80.9986 24.0685 80.9126 23.9918 80.843C23.9165 80.7734 23.8008 80.7209 23.6445 80.6854L23.0906 80.5639C22.7852 80.4943 22.5593 80.3835 22.413 80.2315C22.2681 80.0795 22.1957 79.8871 22.1957 79.6541C22.1957 79.4609 22.2496 79.2919 22.3576 79.147C22.4656 79.0021 22.6147 78.8892 22.805 78.8082C22.9954 78.7259 23.2134 78.6847 23.4592 78.6847C23.8129 78.6847 24.0913 78.7614 24.2944 78.9148C24.4975 79.0668 24.6317 79.2706 24.6971 79.5263ZM26.9892 78.7273V79.2386H25.2015V78.7273H26.9892ZM25.6809 77.9432H26.318V81.0391C26.318 81.1626 26.3365 81.2557 26.3734 81.3182C26.4103 81.3793 26.4579 81.4212 26.5162 81.4439C26.5758 81.4652 26.6404 81.4759 26.71 81.4759C26.7612 81.4759 26.8059 81.4723 26.8443 81.4652C26.8826 81.4581 26.9125 81.4524 26.9338 81.4482L27.0488 81.9744C27.0119 81.9886 26.9593 82.0028 26.8912 82.017C26.823 82.0327 26.7377 82.0412 26.6355 82.0426C26.4679 82.0455 26.3116 82.0156 26.1667 81.9531C26.0218 81.8906 25.9047 81.794 25.8152 81.6634C25.7257 81.5327 25.6809 81.3686 25.6809 81.1712V77.9432ZM28.6463 82.0724C28.4389 82.0724 28.2514 82.0341 28.0838 81.9574C27.9162 81.8793 27.7834 81.7663 27.6854 81.6186C27.5888 81.4709 27.5405 81.2898 27.5405 81.0753C27.5405 80.8906 27.576 80.7386 27.647 80.6193C27.718 80.5 27.8139 80.4055 27.9347 80.3359C28.0554 80.2663 28.1903 80.2138 28.3395 80.1783C28.4886 80.1428 28.6406 80.1158 28.7955 80.0973C28.9915 80.0746 29.1506 80.0561 29.2727 80.0419C29.3949 80.0263 29.4837 80.0014 29.5391 79.9673C29.5945 79.9332 29.6222 79.8778 29.6222 79.8011V79.7862C29.6222 79.6001 29.5696 79.456 29.4645 79.3537C29.3608 79.2514 29.206 79.2003 29 79.2003C28.7855 79.2003 28.6165 79.2479 28.4929 79.343C28.3707 79.4368 28.2862 79.5412 28.2393 79.6562L27.6406 79.5199C27.7116 79.321 27.8153 79.1605 27.9517 79.0384C28.0895 78.9148 28.2479 78.8253 28.4268 78.7699C28.6058 78.7131 28.794 78.6847 28.9915 78.6847C29.1222 78.6847 29.2607 78.7003 29.407 78.7315C29.5547 78.7614 29.6925 78.8168 29.8203 78.8977C29.9496 78.9787 30.0554 79.0945 30.1378 79.245C30.2202 79.3942 30.2614 79.5881 30.2614 79.8267V82H29.6392V81.5526H29.6136C29.5724 81.6349 29.5107 81.7159 29.4283 81.7955C29.3459 81.875 29.2401 81.9411 29.1108 81.9936C28.9815 82.0462 28.8267 82.0724 28.6463 82.0724ZM28.7848 81.5611C28.9609 81.5611 29.1115 81.5263 29.2365 81.4567C29.3629 81.3871 29.4588 81.2962 29.5241 81.1839C29.5909 81.0703 29.6243 80.9489 29.6243 80.8196V80.3977C29.6016 80.4205 29.5575 80.4418 29.4922 80.4616C29.4283 80.4801 29.3551 80.4964 29.2727 80.5107C29.1903 80.5234 29.1101 80.5355 29.032 80.5469C28.9538 80.5568 28.8885 80.5653 28.8359 80.5724C28.7124 80.5881 28.5994 80.6143 28.4972 80.6513C28.3963 80.6882 28.3153 80.7415 28.2543 80.8111C28.1946 80.8793 28.1648 80.9702 28.1648 81.0838C28.1648 81.2415 28.223 81.3608 28.3395 81.4418C28.456 81.5213 28.6044 81.5611 28.7848 81.5611ZM32.6376 78.7273V79.2386H30.85V78.7273H32.6376ZM31.3294 77.9432H31.9664V81.0391C31.9664 81.1626 31.9849 81.2557 32.0218 81.3182C32.0588 81.3793 32.1064 81.4212 32.1646 81.4439C32.2243 81.4652 32.2889 81.4759 32.3585 81.4759C32.4096 81.4759 32.4544 81.4723 32.4927 81.4652C32.5311 81.4581 32.5609 81.4524 32.5822 81.4482L32.6973 81.9744C32.6603 81.9886 32.6078 82.0028 32.5396 82.017C32.4714 82.0327 32.3862 82.0412 32.2839 82.0426C32.1163 82.0455 31.96 82.0156 31.8152 81.9531C31.6703 81.8906 31.5531 81.794 31.4636 81.6634C31.3741 81.5327 31.3294 81.3686 31.3294 81.1712V77.9432ZM35.4155 80.6428V78.7273H36.0547V82H35.4283V81.4332H35.3942C35.3189 81.608 35.1982 81.7536 35.032 81.87C34.8672 81.9851 34.6619 82.0426 34.4162 82.0426C34.206 82.0426 34.0199 81.9964 33.858 81.9041C33.6974 81.8104 33.571 81.6719 33.4787 81.4886C33.3878 81.3054 33.3423 81.0788 33.3423 80.8089V78.7273H33.9794V80.7322C33.9794 80.9553 34.0412 81.1328 34.1648 81.2649C34.2884 81.397 34.4489 81.4631 34.6463 81.4631C34.7656 81.4631 34.8842 81.4332 35.0021 81.3736C35.1214 81.3139 35.2202 81.2237 35.2983 81.103C35.3778 80.9822 35.4169 80.8288 35.4155 80.6428ZM39.3631 79.5263L38.7857 79.6286C38.7615 79.5547 38.7232 79.4844 38.6706 79.4176C38.6195 79.3509 38.5499 79.2962 38.4618 79.2536C38.3738 79.2109 38.2637 79.1896 38.1316 79.1896C37.9512 79.1896 37.8006 79.2301 37.6799 79.3111C37.5591 79.3906 37.4988 79.4936 37.4988 79.62C37.4988 79.7294 37.5392 79.8175 37.6202 79.8842C37.7012 79.951 37.8319 80.0057 38.0123 80.0483L38.5321 80.1676C38.8333 80.2372 39.0577 80.3445 39.2054 80.4893C39.3532 80.6342 39.427 80.8224 39.427 81.054C39.427 81.25 39.3702 81.4247 39.2566 81.5781C39.1444 81.7301 38.9874 81.8494 38.7857 81.9361C38.5854 82.0227 38.3532 82.0661 38.089 82.0661C37.7225 82.0661 37.4235 81.9879 37.1919 81.8317C36.9604 81.674 36.8184 81.4503 36.7658 81.1605L37.3816 81.0668C37.4199 81.2273 37.4988 81.3487 37.6181 81.4311C37.7374 81.5121 37.8929 81.5526 38.0847 81.5526C38.2935 81.5526 38.4604 81.5092 38.5854 81.4226C38.7104 81.3345 38.7729 81.2273 38.7729 81.1009C38.7729 80.9986 38.7346 80.9126 38.6578 80.843C38.5826 80.7734 38.4668 80.7209 38.3105 80.6854L37.7566 80.5639C37.4512 80.4943 37.2253 80.3835 37.079 80.2315C36.9341 80.0795 36.8617 79.8871 36.8617 79.6541C36.8617 79.4609 36.9157 79.2919 37.0236 79.147C37.1316 79.0021 37.2807 78.8892 37.4711 78.8082C37.6614 78.7259 37.8794 78.6847 38.1252 78.6847C38.4789 78.6847 38.7573 78.7614 38.9604 78.9148C39.1635 79.0668 39.2978 79.2706 39.3631 79.5263ZM41.7154 82V78.7273H42.3525V82H41.7154ZM42.0371 78.2223C41.9263 78.2223 41.8311 78.1854 41.7516 78.1115C41.6735 78.0362 41.6344 77.9467 41.6344 77.843C41.6344 77.7379 41.6735 77.6484 41.7516 77.5746C41.8311 77.4993 41.9263 77.4616 42.0371 77.4616C42.1479 77.4616 42.2424 77.4993 42.3205 77.5746C42.4 77.6484 42.4398 77.7379 42.4398 77.843C42.4398 77.9467 42.4 78.0362 42.3205 78.1115C42.2424 78.1854 42.1479 78.2223 42.0371 78.2223ZM45.6619 79.5263L45.0845 79.6286C45.0604 79.5547 45.022 79.4844 44.9695 79.4176C44.9183 79.3509 44.8487 79.2962 44.7607 79.2536C44.6726 79.2109 44.5625 79.1896 44.4304 79.1896C44.25 79.1896 44.0994 79.2301 43.9787 79.3111C43.858 79.3906 43.7976 79.4936 43.7976 79.62C43.7976 79.7294 43.8381 79.8175 43.919 79.8842C44 79.951 44.1307 80.0057 44.3111 80.0483L44.831 80.1676C45.1321 80.2372 45.3565 80.3445 45.5043 80.4893C45.652 80.6342 45.7259 80.8224 45.7259 81.054C45.7259 81.25 45.669 81.4247 45.5554 81.5781C45.4432 81.7301 45.2862 81.8494 45.0845 81.9361C44.8842 82.0227 44.652 82.0661 44.3878 82.0661C44.0213 82.0661 43.7223 81.9879 43.4908 81.8317C43.2592 81.674 43.1172 81.4503 43.0646 81.1605L43.6804 81.0668C43.7188 81.2273 43.7976 81.3487 43.9169 81.4311C44.0362 81.5121 44.1918 81.5526 44.3835 81.5526C44.5923 81.5526 44.7592 81.5092 44.8842 81.4226C45.0092 81.3345 45.0717 81.2273 45.0717 81.1009C45.0717 80.9986 45.0334 80.9126 44.9567 80.843C44.8814 80.7734 44.7656 80.7209 44.6094 80.6854L44.0554 80.5639C43.75 80.4943 43.5241 80.3835 43.3778 80.2315C43.233 80.0795 43.1605 79.8871 43.1605 79.6541C43.1605 79.4609 43.2145 79.2919 43.3224 79.147C43.4304 79.0021 43.5795 78.8892 43.7699 78.8082C43.9602 78.7259 44.1783 78.6847 44.424 78.6847C44.7777 78.6847 45.0561 78.7614 45.2592 78.9148C45.4624 79.0668 45.5966 79.2706 45.6619 79.5263ZM49.3864 83.2955C49.1264 83.2955 48.9027 83.2614 48.7152 83.1932C48.5291 83.125 48.3771 83.0348 48.2592 82.9226C48.1413 82.8104 48.0533 82.6875 47.995 82.554L48.5426 82.3281C48.581 82.3906 48.6321 82.4567 48.696 82.5263C48.7614 82.5973 48.8494 82.6577 48.9602 82.7074C49.0724 82.7571 49.2166 82.782 49.3928 82.782C49.6342 82.782 49.8338 82.723 49.9915 82.6051C50.1491 82.4886 50.228 82.3026 50.228 82.0469V81.4034H50.1875C50.1491 81.473 50.0938 81.5504 50.0213 81.6357C49.9503 81.7209 49.8523 81.7947 49.7273 81.8572C49.6023 81.9197 49.4396 81.951 49.2393 81.951C48.9808 81.951 48.7479 81.8906 48.5405 81.7699C48.3345 81.6477 48.1712 81.468 48.0504 81.2308C47.9311 80.9922 47.8714 80.6989 47.8714 80.3509C47.8714 80.0028 47.9304 79.7045 48.0483 79.456C48.1676 79.2074 48.331 79.017 48.5384 78.8849C48.7457 78.7514 48.9808 78.6847 49.2436 78.6847C49.4467 78.6847 49.6108 78.7188 49.7358 78.7869C49.8608 78.8537 49.9581 78.9318 50.0277 79.0213C50.0987 79.1108 50.1534 79.1896 50.1918 79.2578H50.2386V78.7273H50.8629V82.0724C50.8629 82.3537 50.7976 82.5845 50.6669 82.7649C50.5362 82.9453 50.3594 83.0788 50.1364 83.1655C49.9148 83.2521 49.6648 83.2955 49.3864 83.2955ZM49.38 81.4226C49.5632 81.4226 49.718 81.38 49.8445 81.2947C49.9723 81.2081 50.0689 81.0845 50.1342 80.924C50.201 80.7621 50.2344 80.5682 50.2344 80.3423C50.2344 80.1222 50.2017 79.9283 50.1364 79.7607C50.071 79.593 49.9751 79.4624 49.8487 79.3686C49.7223 79.2734 49.5661 79.2259 49.38 79.2259C49.1882 79.2259 49.0284 79.2756 48.9006 79.375C48.7727 79.473 48.6761 79.6065 48.6108 79.7756C48.5469 79.9446 48.5149 80.1335 48.5149 80.3423C48.5149 80.5568 48.5476 80.745 48.6129 80.907C48.6783 81.0689 48.7749 81.1953 48.9027 81.2862C49.032 81.3771 49.1911 81.4226 49.38 81.4226ZM51.7173 82V78.7273H52.3544V82H51.7173ZM52.0391 78.2223C51.9283 78.2223 51.8331 78.1854 51.7536 78.1115C51.6754 78.0362 51.6364 77.9467 51.6364 77.843C51.6364 77.7379 51.6754 77.6484 51.7536 77.5746C51.8331 77.4993 51.9283 77.4616 52.0391 77.4616C52.1499 77.4616 52.2443 77.4993 52.3224 77.5746C52.402 77.6484 52.4418 77.7379 52.4418 77.843C52.4418 77.9467 52.402 78.0362 52.3224 78.1115C52.2443 78.1854 52.1499 78.2223 52.0391 78.2223ZM56.0112 78.7273L54.8244 82H54.1426L52.9537 78.7273H53.6376L54.4664 81.2457H54.5005L55.3272 78.7273H56.0112ZM57.9091 82.0661C57.5866 82.0661 57.3089 81.9972 57.076 81.8594C56.8445 81.7202 56.6655 81.5249 56.5391 81.2734C56.4141 81.0206 56.3516 80.7244 56.3516 80.3849C56.3516 80.0497 56.4141 79.7543 56.5391 79.4986C56.6655 79.2429 56.8416 79.0433 57.0675 78.8999C57.2947 78.7564 57.5604 78.6847 57.8643 78.6847C58.049 78.6847 58.228 78.7152 58.4013 78.7763C58.5746 78.8374 58.7301 78.9332 58.8679 79.0639C59.0057 79.1946 59.1143 79.3643 59.1939 79.5732C59.2734 79.7805 59.3132 80.0327 59.3132 80.3295V80.5554H56.7116V80.0781H58.6889C58.6889 79.9105 58.6548 79.7621 58.5866 79.6328C58.5185 79.5021 58.4226 79.3991 58.299 79.3239C58.1768 79.2486 58.0334 79.2109 57.8686 79.2109C57.6896 79.2109 57.5334 79.255 57.3999 79.343C57.2678 79.4297 57.1655 79.5433 57.093 79.6839C57.022 79.8232 56.9865 79.9744 56.9865 80.1378V80.5107C56.9865 80.7294 57.0249 80.9155 57.1016 81.0689C57.1797 81.2223 57.2884 81.3395 57.4276 81.4205C57.5668 81.5 57.7294 81.5398 57.9155 81.5398C58.0362 81.5398 58.1463 81.5227 58.2457 81.4886C58.3452 81.4531 58.4311 81.4006 58.5036 81.331C58.576 81.2614 58.6314 81.1754 58.6697 81.0732L59.2727 81.1818C59.2244 81.3594 59.1378 81.5149 59.0128 81.6484C58.8892 81.7805 58.7337 81.8835 58.5462 81.9574C58.3601 82.0298 58.1477 82.0661 57.9091 82.0661ZM60.6571 80.0568V82H60.0201V78.7273H60.6316V79.2599H60.6721C60.7473 79.0866 60.8652 78.9474 61.0257 78.8423C61.1877 78.7372 61.3915 78.6847 61.6373 78.6847C61.8603 78.6847 62.0556 78.7315 62.2232 78.8253C62.3908 78.9176 62.5208 79.0554 62.6131 79.2386C62.7054 79.4219 62.7516 79.6484 62.7516 79.9183V82H62.1145V79.995C62.1145 79.7578 62.0527 79.5724 61.9292 79.4389C61.8056 79.304 61.6358 79.2365 61.4199 79.2365C61.2722 79.2365 61.1408 79.2685 61.0257 79.3324C60.9121 79.3963 60.8219 79.4901 60.7551 79.6136C60.6898 79.7358 60.6571 79.8835 60.6571 80.0568ZM66.7216 78.7273V79.2386H64.9339V78.7273H66.7216ZM65.4134 77.9432H66.0504V81.0391C66.0504 81.1626 66.0689 81.2557 66.1058 81.3182C66.1428 81.3793 66.1903 81.4212 66.2486 81.4439C66.3082 81.4652 66.3729 81.4759 66.4425 81.4759C66.4936 81.4759 66.5384 81.4723 66.5767 81.4652C66.6151 81.4581 66.6449 81.4524 66.6662 81.4482L66.7812 81.9744C66.7443 81.9886 66.6918 82.0028 66.6236 82.017C66.5554 82.0327 66.4702 82.0412 66.3679 82.0426C66.2003 82.0455 66.044 82.0156 65.8991 81.9531C65.7543 81.8906 65.6371 81.794 65.5476 81.6634C65.4581 81.5327 65.4134 81.3686 65.4134 81.1712V77.9432ZM68.7697 82.0661C68.4629 82.0661 68.1951 81.9957 67.9664 81.8551C67.7377 81.7145 67.5602 81.5178 67.4338 81.2649C67.3074 81.0121 67.2441 80.7166 67.2441 80.3786C67.2441 80.0391 67.3074 79.7422 67.4338 79.4879C67.5602 79.2337 67.7377 79.0362 67.9664 78.8956C68.1951 78.755 68.4629 78.6847 68.7697 78.6847C69.0765 78.6847 69.3443 78.755 69.573 78.8956C69.8017 79.0362 69.9792 79.2337 70.1056 79.4879C70.2321 79.7422 70.2953 80.0391 70.2953 80.3786C70.2953 80.7166 70.2321 81.0121 70.1056 81.2649C69.9792 81.5178 69.8017 81.7145 69.573 81.8551C69.3443 81.9957 69.0765 82.0661 68.7697 82.0661ZM68.7718 81.5312C68.9707 81.5312 69.1355 81.4787 69.2662 81.3736C69.3968 81.2685 69.4934 81.1286 69.5559 80.9538C69.6199 80.7791 69.6518 80.5866 69.6518 80.3764C69.6518 80.1676 69.6199 79.9759 69.5559 79.8011C69.4934 79.625 69.3968 79.4837 69.2662 79.3771C69.1355 79.2706 68.9707 79.2173 68.7718 79.2173C68.5716 79.2173 68.4054 79.2706 68.2733 79.3771C68.1426 79.4837 68.0453 79.625 67.9814 79.8011C67.9189 79.9759 67.8876 80.1676 67.8876 80.3764C67.8876 80.5866 67.9189 80.7791 67.9814 80.9538C68.0453 81.1286 68.1426 81.2685 68.2733 81.3736C68.4054 81.4787 68.5716 81.5312 68.7718 81.5312ZM74.6674 80.6428V78.7273H75.3066V82H74.6802V81.4332H74.6461C74.5708 81.608 74.4501 81.7536 74.2839 81.87C74.1191 81.9851 73.9139 82.0426 73.6681 82.0426C73.4579 82.0426 73.2718 81.9964 73.1099 81.9041C72.9494 81.8104 72.823 81.6719 72.7306 81.4886C72.6397 81.3054 72.5943 81.0788 72.5943 80.8089V78.7273H73.2314V80.7322C73.2314 80.9553 73.2931 81.1328 73.4167 81.2649C73.5403 81.397 73.7008 81.4631 73.8983 81.4631C74.0176 81.4631 74.1362 81.4332 74.2541 81.3736C74.3734 81.3139 74.4721 81.2237 74.5502 81.103C74.6298 80.9822 74.6689 80.8288 74.6674 80.6428ZM78.6151 79.5263L78.0376 79.6286C78.0135 79.5547 77.9751 79.4844 77.9226 79.4176C77.8714 79.3509 77.8018 79.2962 77.7138 79.2536C77.6257 79.2109 77.5156 79.1896 77.3835 79.1896C77.2031 79.1896 77.0526 79.2301 76.9318 79.3111C76.8111 79.3906 76.7507 79.4936 76.7507 79.62C76.7507 79.7294 76.7912 79.8175 76.8722 79.8842C76.9531 79.951 77.0838 80.0057 77.2642 80.0483L77.7841 80.1676C78.0852 80.2372 78.3097 80.3445 78.4574 80.4893C78.6051 80.6342 78.679 80.8224 78.679 81.054C78.679 81.25 78.6222 81.4247 78.5085 81.5781C78.3963 81.7301 78.2393 81.8494 78.0376 81.9361C77.8374 82.0227 77.6051 82.0661 77.3409 82.0661C76.9744 82.0661 76.6754 81.9879 76.4439 81.8317C76.2124 81.674 76.0703 81.4503 76.0178 81.1605L76.6335 81.0668C76.6719 81.2273 76.7507 81.3487 76.87 81.4311C76.9893 81.5121 77.1449 81.5526 77.3366 81.5526C77.5455 81.5526 77.7124 81.5092 77.8374 81.4226C77.9624 81.3345 78.0249 81.2273 78.0249 81.1009C78.0249 80.9986 77.9865 80.9126 77.9098 80.843C77.8345 80.7734 77.7188 80.7209 77.5625 80.6854L77.0085 80.5639C76.7031 80.4943 76.4773 80.3835 76.331 80.2315C76.1861 80.0795 76.1136 79.8871 76.1136 79.6541C76.1136 79.4609 76.1676 79.2919 76.2756 79.147C76.3835 79.0021 76.5327 78.8892 76.723 78.8082C76.9134 78.7259 77.1314 78.6847 77.3771 78.6847C77.7308 78.6847 78.0092 78.7614 78.2124 78.9148C78.4155 79.0668 78.5497 79.2706 78.6151 79.5263ZM80.79 82.0661C80.4675 82.0661 80.1898 81.9972 79.9569 81.8594C79.7253 81.7202 79.5463 81.5249 79.4199 81.2734C79.2949 81.0206 79.2324 80.7244 79.2324 80.3849C79.2324 80.0497 79.2949 79.7543 79.4199 79.4986C79.5463 79.2429 79.7225 79.0433 79.9483 78.8999C80.1756 78.7564 80.4412 78.6847 80.7452 78.6847C80.9299 78.6847 81.1088 78.7152 81.2821 78.7763C81.4554 78.8374 81.611 78.9332 81.7488 79.0639C81.8865 79.1946 81.9952 79.3643 82.0748 79.5732C82.1543 79.7805 82.1941 80.0327 82.1941 80.3295V80.5554H79.5925V80.0781H81.5698C81.5698 79.9105 81.5357 79.7621 81.4675 79.6328C81.3993 79.5021 81.3034 79.3991 81.1799 79.3239C81.0577 79.2486 80.9142 79.2109 80.7495 79.2109C80.5705 79.2109 80.4142 79.255 80.2807 79.343C80.1486 79.4297 80.0463 79.5433 79.9739 79.6839C79.9029 79.8232 79.8674 79.9744 79.8674 80.1378V80.5107C79.8674 80.7294 79.9057 80.9155 79.9824 81.0689C80.0605 81.2223 80.1692 81.3395 80.3084 81.4205C80.4476 81.5 80.6103 81.5398 80.7963 81.5398C80.9171 81.5398 81.0272 81.5227 81.1266 81.4886C81.226 81.4531 81.312 81.4006 81.3844 81.331C81.4569 81.2614 81.5123 81.1754 81.5506 81.0732L82.1536 81.1818C82.1053 81.3594 82.0186 81.5149 81.8936 81.6484C81.7701 81.7805 81.6145 81.8835 81.427 81.9574C81.2409 82.0298 81.0286 82.0661 80.79 82.0661ZM82.9009 82V78.7273H83.5167V79.2472H83.5508C83.6104 79.071 83.7156 78.9325 83.8661 78.8317C84.0181 78.7294 84.19 78.6783 84.3817 78.6783C84.4215 78.6783 84.4684 78.6797 84.5224 78.6825C84.5778 78.6854 84.6211 78.6889 84.6523 78.6932V79.3026C84.6268 79.2955 84.5813 79.2876 84.516 79.2791C84.4506 79.2692 84.3853 79.2642 84.32 79.2642C84.1694 79.2642 84.0352 79.2962 83.9173 79.3601C83.8008 79.4226 83.7085 79.5099 83.6403 79.6222C83.5721 79.733 83.538 79.8594 83.538 80.0014V82H82.9009ZM87.6561 79.5263L87.0787 79.6286C87.0545 79.5547 87.0162 79.4844 86.9636 79.4176C86.9125 79.3509 86.8429 79.2962 86.7548 79.2536C86.6667 79.2109 86.5566 79.1896 86.4245 79.1896C86.2441 79.1896 86.0936 79.2301 85.9728 79.3111C85.8521 79.3906 85.7917 79.4936 85.7917 79.62C85.7917 79.7294 85.8322 79.8175 85.9132 79.8842C85.9941 79.951 86.1248 80.0057 86.3052 80.0483L86.8251 80.1676C87.1262 80.2372 87.3507 80.3445 87.4984 80.4893C87.6461 80.6342 87.72 80.8224 87.72 81.054C87.72 81.25 87.6632 81.4247 87.5495 81.5781C87.4373 81.7301 87.2804 81.8494 87.0787 81.9361C86.8784 82.0227 86.6461 82.0661 86.3819 82.0661C86.0154 82.0661 85.7164 81.9879 85.4849 81.8317C85.2534 81.674 85.1113 81.4503 85.0588 81.1605L85.6745 81.0668C85.7129 81.2273 85.7917 81.3487 85.911 81.4311C86.0304 81.5121 86.1859 81.5526 86.3777 81.5526C86.5865 81.5526 86.7534 81.5092 86.8784 81.4226C87.0034 81.3345 87.0659 81.2273 87.0659 81.1009C87.0659 80.9986 87.0275 80.9126 86.9508 80.843C86.8755 80.7734 86.7598 80.7209 86.6035 80.6854L86.0495 80.5639C85.7441 80.4943 85.5183 80.3835 85.372 80.2315C85.2271 80.0795 85.1547 79.8871 85.1547 79.6541C85.1547 79.4609 85.2086 79.2919 85.3166 79.147C85.4245 79.0021 85.5737 78.8892 85.764 78.8082C85.9544 78.7259 86.1724 78.6847 86.4181 78.6847C86.7718 78.6847 87.0502 78.7614 87.2534 78.9148C87.4565 79.0668 87.5907 79.2706 87.6561 79.5263ZM90.7179 82L89.7548 78.7273H90.4132L91.0545 81.1307H91.0865L91.7299 78.7273H92.3883L93.0275 81.12H93.0595L93.6966 78.7273H94.3549L93.394 82H92.7441L92.0794 79.6371H92.0304L91.3656 82H90.7179ZM95.5966 80.0568V82H94.9595V77.6364H95.5881V79.2599H95.6286C95.7053 79.0838 95.8224 78.9439 95.9801 78.8402C96.1378 78.7365 96.3438 78.6847 96.598 78.6847C96.8224 78.6847 97.0185 78.7308 97.1861 78.8232C97.3551 78.9155 97.4858 79.0533 97.5781 79.2365C97.6719 79.4183 97.7188 79.6456 97.7188 79.9183V82H97.0817V79.995C97.0817 79.755 97.0199 79.5689 96.8963 79.4368C96.7727 79.3033 96.6009 79.2365 96.3807 79.2365C96.2301 79.2365 96.0952 79.2685 95.9759 79.3324C95.858 79.3963 95.7649 79.4901 95.6967 79.6136C95.63 79.7358 95.5966 79.8835 95.5966 80.0568ZM99.9474 82.0661C99.6406 82.0661 99.3729 81.9957 99.1442 81.8551C98.9155 81.7145 98.7379 81.5178 98.6115 81.2649C98.4851 81.0121 98.4219 80.7166 98.4219 80.3786C98.4219 80.0391 98.4851 79.7422 98.6115 79.4879C98.7379 79.2337 98.9155 79.0362 99.1442 78.8956C99.3729 78.755 99.6406 78.6847 99.9474 78.6847C100.254 78.6847 100.522 78.755 100.751 78.8956C100.979 79.0362 101.157 79.2337 101.283 79.4879C101.41 79.7422 101.473 80.0391 101.473 80.3786C101.473 80.7166 101.41 81.0121 101.283 81.2649C101.157 81.5178 100.979 81.7145 100.751 81.8551C100.522 81.9957 100.254 82.0661 99.9474 82.0661ZM99.9496 81.5312C100.148 81.5312 100.313 81.4787 100.444 81.3736C100.575 81.2685 100.671 81.1286 100.734 80.9538C100.798 80.7791 100.83 80.5866 100.83 80.3764C100.83 80.1676 100.798 79.9759 100.734 79.8011C100.671 79.625 100.575 79.4837 100.444 79.3771C100.313 79.2706 100.148 79.2173 99.9496 79.2173C99.7493 79.2173 99.5831 79.2706 99.451 79.3771C99.3203 79.4837 99.223 79.625 99.1591 79.8011C99.0966 79.9759 99.0653 80.1676 99.0653 80.3764C99.0653 80.5866 99.0966 80.7791 99.1591 80.9538C99.223 81.1286 99.3203 81.2685 99.451 81.3736C99.5831 81.4787 99.7493 81.5312 99.9496 81.5312ZM9.06534 88.0568V90H8.42827V85.6364H9.05682V87.2599H9.0973C9.17401 87.0838 9.29119 86.9439 9.44886 86.8402C9.60653 86.7365 9.8125 86.6847 10.0668 86.6847C10.2912 86.6847 10.4872 86.7308 10.6548 86.8232C10.8239 86.9155 10.9545 87.0533 11.0469 87.2365C11.1406 87.4183 11.1875 87.6456 11.1875 87.9183V90H10.5504V87.995C10.5504 87.755 10.4886 87.5689 10.3651 87.4368C10.2415 87.3033 10.0696 87.2365 9.84943 87.2365C9.69886 87.2365 9.56392 87.2685 9.4446 87.3324C9.3267 87.3963 9.23366 87.4901 9.16548 87.6136C9.09872 87.7358 9.06534 87.8835 9.06534 88.0568ZM12.9901 90.0724C12.7827 90.0724 12.5952 90.0341 12.4276 89.9574C12.2599 89.8793 12.1271 89.7663 12.0291 89.6186C11.9325 89.4709 11.8842 89.2898 11.8842 89.0753C11.8842 88.8906 11.9197 88.7386 11.9908 88.6193C12.0618 88.5 12.1577 88.4055 12.2784 88.3359C12.3991 88.2663 12.5341 88.2138 12.6832 88.1783C12.8324 88.1428 12.9844 88.1158 13.1392 88.0973C13.3352 88.0746 13.4943 88.0561 13.6165 88.0419C13.7386 88.0263 13.8274 88.0014 13.8828 87.9673C13.9382 87.9332 13.9659 87.8778 13.9659 87.8011V87.7862C13.9659 87.6001 13.9134 87.456 13.8082 87.3537C13.7045 87.2514 13.5497 87.2003 13.3438 87.2003C13.1293 87.2003 12.9602 87.2479 12.8366 87.343C12.7145 87.4368 12.63 87.5412 12.5831 87.6562L11.9844 87.5199C12.0554 87.321 12.1591 87.1605 12.2955 87.0384C12.4332 86.9148 12.5916 86.8253 12.7706 86.7699C12.9496 86.7131 13.1378 86.6847 13.3352 86.6847C13.4659 86.6847 13.6044 86.7003 13.7507 86.7315C13.8984 86.7614 14.0362 86.8168 14.1641 86.8977C14.2933 86.9787 14.3991 87.0945 14.4815 87.245C14.5639 87.3942 14.6051 87.5881 14.6051 87.8267V90H13.983V89.5526H13.9574C13.9162 89.6349 13.8544 89.7159 13.772 89.7955C13.6896 89.875 13.5838 89.9411 13.4545 89.9936C13.3253 90.0462 13.1705 90.0724 12.9901 90.0724ZM13.1286 89.5611C13.3047 89.5611 13.4553 89.5263 13.5803 89.4567C13.7067 89.3871 13.8026 89.2962 13.8679 89.1839C13.9347 89.0703 13.968 88.9489 13.968 88.8196V88.3977C13.9453 88.4205 13.9013 88.4418 13.8359 88.4616C13.772 88.4801 13.6989 88.4964 13.6165 88.5107C13.5341 88.5234 13.4538 88.5355 13.3757 88.5469C13.2976 88.5568 13.2322 88.5653 13.1797 88.5724C13.0561 88.5881 12.9432 88.6143 12.8409 88.6513C12.7401 88.6882 12.6591 88.7415 12.598 88.8111C12.5384 88.8793 12.5085 88.9702 12.5085 89.0838C12.5085 89.2415 12.5668 89.3608 12.6832 89.4418C12.7997 89.5213 12.9482 89.5611 13.1286 89.5611ZM18.1362 86.7273L16.9494 90H16.2676L15.0787 86.7273H15.7626L16.5914 89.2457H16.6255L17.4522 86.7273H18.1362ZM20.0341 90.0661C19.7116 90.0661 19.4339 89.9972 19.201 89.8594C18.9695 89.7202 18.7905 89.5249 18.6641 89.2734C18.5391 89.0206 18.4766 88.7244 18.4766 88.3849C18.4766 88.0497 18.5391 87.7543 18.6641 87.4986C18.7905 87.2429 18.9666 87.0433 19.1925 86.8999C19.4197 86.7564 19.6854 86.6847 19.9893 86.6847C20.174 86.6847 20.353 86.7152 20.5263 86.7763C20.6996 86.8374 20.8551 86.9332 20.9929 87.0639C21.1307 87.1946 21.2393 87.3643 21.3189 87.5732C21.3984 87.7805 21.4382 88.0327 21.4382 88.3295V88.5554H18.8366V88.0781H20.8139C20.8139 87.9105 20.7798 87.7621 20.7116 87.6328C20.6435 87.5021 20.5476 87.3991 20.424 87.3239C20.3018 87.2486 20.1584 87.2109 19.9936 87.2109C19.8146 87.2109 19.6584 87.255 19.5249 87.343C19.3928 87.4297 19.2905 87.5433 19.218 87.6839C19.147 87.8232 19.1115 87.9744 19.1115 88.1378V88.5107C19.1115 88.7294 19.1499 88.9155 19.2266 89.0689C19.3047 89.2223 19.4134 89.3395 19.5526 89.4205C19.6918 89.5 19.8544 89.5398 20.0405 89.5398C20.1612 89.5398 20.2713 89.5227 20.3707 89.4886C20.4702 89.4531 20.5561 89.4006 20.6286 89.331C20.701 89.2614 20.7564 89.1754 20.7947 89.0732L21.3977 89.1818C21.3494 89.3594 21.2628 89.5149 21.1378 89.6484C21.0142 89.7805 20.8587 89.8835 20.6712 89.9574C20.4851 90.0298 20.2727 90.0661 20.0341 90.0661ZM23.733 90V86.7273H24.3487V87.2472H24.3828C24.4425 87.071 24.5476 86.9325 24.6982 86.8317C24.8501 86.7294 25.022 86.6783 25.2138 86.6783C25.2536 86.6783 25.3004 86.6797 25.3544 86.6825C25.4098 86.6854 25.4531 86.6889 25.4844 86.6932V87.3026C25.4588 87.2955 25.4134 87.2876 25.348 87.2791C25.2827 87.2692 25.2173 87.2642 25.152 87.2642C25.0014 87.2642 24.8672 87.2962 24.7493 87.3601C24.6328 87.4226 24.5405 87.5099 24.4723 87.6222C24.4041 87.733 24.37 87.8594 24.37 88.0014V90H23.733ZM27.329 90.0661C27.0066 90.0661 26.7289 89.9972 26.4959 89.8594C26.2644 89.7202 26.0854 89.5249 25.959 89.2734C25.834 89.0206 25.7715 88.7244 25.7715 88.3849C25.7715 88.0497 25.834 87.7543 25.959 87.4986C26.0854 87.2429 26.2615 87.0433 26.4874 86.8999C26.7147 86.7564 26.9803 86.6847 27.2843 86.6847C27.4689 86.6847 27.6479 86.7152 27.8212 86.7763C27.9945 86.8374 28.15 86.9332 28.2878 87.0639C28.4256 87.1946 28.5343 87.3643 28.6138 87.5732C28.6934 87.7805 28.7331 88.0327 28.7331 88.3295V88.5554H26.1316V88.0781H28.1088C28.1088 87.9105 28.0748 87.7621 28.0066 87.6328C27.9384 87.5021 27.8425 87.3991 27.7189 87.3239C27.5968 87.2486 27.4533 87.2109 27.2885 87.2109C27.1096 87.2109 26.9533 87.255 26.8198 87.343C26.6877 87.4297 26.5854 87.5433 26.513 87.6839C26.4419 87.8232 26.4064 87.9744 26.4064 88.1378V88.5107C26.4064 88.7294 26.4448 88.9155 26.5215 89.0689C26.5996 89.2223 26.7083 89.3395 26.8475 89.4205C26.9867 89.5 27.1493 89.5398 27.3354 89.5398C27.4561 89.5398 27.5662 89.5227 27.6657 89.4886C27.7651 89.4531 27.851 89.4006 27.9235 89.331C27.9959 89.2614 28.0513 89.1754 28.0897 89.0732L28.6926 89.1818C28.6444 89.3594 28.5577 89.5149 28.4327 89.6484C28.3091 89.7805 28.1536 89.8835 27.9661 89.9574C27.78 90.0298 27.5676 90.0661 27.329 90.0661ZM30.3924 90.0724C30.185 90.0724 29.9975 90.0341 29.8299 89.9574C29.6623 89.8793 29.5295 89.7663 29.4315 89.6186C29.3349 89.4709 29.2866 89.2898 29.2866 89.0753C29.2866 88.8906 29.3221 88.7386 29.3931 88.6193C29.4641 88.5 29.56 88.4055 29.6808 88.3359C29.8015 88.2663 29.9364 88.2138 30.0856 88.1783C30.2347 88.1428 30.3867 88.1158 30.5415 88.0973C30.7376 88.0746 30.8967 88.0561 31.0188 88.0419C31.141 88.0263 31.2298 88.0014 31.2852 87.9673C31.3406 87.9332 31.3683 87.8778 31.3683 87.8011V87.7862C31.3683 87.6001 31.3157 87.456 31.2106 87.3537C31.1069 87.2514 30.9521 87.2003 30.7461 87.2003C30.5316 87.2003 30.3626 87.2479 30.239 87.343C30.1168 87.4368 30.0323 87.5412 29.9854 87.6562L29.3867 87.5199C29.4577 87.321 29.5614 87.1605 29.6978 87.0384C29.8356 86.9148 29.994 86.8253 30.1729 86.7699C30.3519 86.7131 30.5401 86.6847 30.7376 86.6847C30.8683 86.6847 31.0067 86.7003 31.1531 86.7315C31.3008 86.7614 31.4386 86.8168 31.5664 86.8977C31.6957 86.9787 31.8015 87.0945 31.8839 87.245C31.9663 87.3942 32.0075 87.5881 32.0075 87.8267V90H31.3853V89.5526H31.3597C31.3185 89.6349 31.2567 89.7159 31.1744 89.7955C31.092 89.875 30.9862 89.9411 30.8569 89.9936C30.7276 90.0462 30.5728 90.0724 30.3924 90.0724ZM30.5309 89.5611C30.707 89.5611 30.8576 89.5263 30.9826 89.4567C31.109 89.3871 31.2049 89.2962 31.2702 89.1839C31.337 89.0703 31.3704 88.9489 31.3704 88.8196V88.3977C31.3477 88.4205 31.3036 88.4418 31.2383 88.4616C31.1744 88.4801 31.1012 88.4964 31.0188 88.5107C30.9364 88.5234 30.8562 88.5355 30.7781 88.5469C30.6999 88.5568 30.6346 88.5653 30.582 88.5724C30.4585 88.5881 30.3455 88.6143 30.2433 88.6513C30.1424 88.6882 30.0614 88.7415 30.0004 88.8111C29.9407 88.8793 29.9109 88.9702 29.9109 89.0838C29.9109 89.2415 29.9691 89.3608 30.0856 89.4418C30.2021 89.5213 30.3505 89.5611 30.5309 89.5611ZM34.2346 90.0661C33.9178 90.0661 33.6451 89.9943 33.4164 89.8509C33.1891 89.706 33.0144 89.5064 32.8922 89.2521C32.7701 88.9979 32.709 88.7067 32.709 88.3786C32.709 88.0462 32.7715 87.7528 32.8965 87.4986C33.0215 87.2429 33.1976 87.0433 33.4249 86.8999C33.6522 86.7564 33.9199 86.6847 34.2282 86.6847C34.4767 86.6847 34.6983 86.7308 34.8929 86.8232C35.0875 86.9141 35.2445 87.0419 35.3638 87.2067C35.4846 87.3714 35.5563 87.5639 35.579 87.7841H34.959C34.9249 87.6307 34.8468 87.4986 34.7246 87.3878C34.6039 87.277 34.4419 87.2216 34.2388 87.2216C34.0613 87.2216 33.9057 87.2685 33.7722 87.3622C33.6401 87.4545 33.5371 87.5866 33.4632 87.7585C33.3894 87.929 33.3525 88.1307 33.3525 88.3636C33.3525 88.6023 33.3887 88.8082 33.4611 88.9815C33.5336 89.1548 33.6358 89.2891 33.7679 89.3842C33.9015 89.4794 34.0584 89.527 34.2388 89.527C34.3596 89.527 34.4689 89.505 34.5669 89.4609C34.6664 89.4155 34.7495 89.3509 34.8162 89.267C34.8844 89.1832 34.932 89.0824 34.959 88.9645H35.579C35.5563 89.1761 35.4874 89.3651 35.3723 89.5312C35.2573 89.6974 35.1032 89.8281 34.91 89.9233C34.7182 90.0185 34.4931 90.0661 34.2346 90.0661ZM36.8974 88.0568V90H36.2603V85.6364H36.8888V87.2599H36.9293C37.006 87.0838 37.1232 86.9439 37.2809 86.8402C37.4386 86.7365 37.6445 86.6847 37.8988 86.6847C38.1232 86.6847 38.3192 86.7308 38.4869 86.8232C38.6559 86.9155 38.7866 87.0533 38.8789 87.2365C38.9727 87.4183 39.0195 87.6456 39.0195 87.9183V90H38.3825V87.995C38.3825 87.755 38.3207 87.5689 38.1971 87.4368C38.0735 87.3033 37.9016 87.2365 37.6815 87.2365C37.5309 87.2365 37.396 87.2685 37.2766 87.3324C37.1587 87.3963 37.0657 87.4901 36.9975 87.6136C36.9308 87.7358 36.8974 87.8835 36.8974 88.0568ZM41.2802 90.0661C40.9577 90.0661 40.68 89.9972 40.4471 89.8594C40.2156 89.7202 40.0366 89.5249 39.9102 89.2734C39.7852 89.0206 39.7227 88.7244 39.7227 88.3849C39.7227 88.0497 39.7852 87.7543 39.9102 87.4986C40.0366 87.2429 40.2127 87.0433 40.4386 86.8999C40.6658 86.7564 40.9315 86.6847 41.2354 86.6847C41.4201 86.6847 41.5991 86.7152 41.7724 86.7763C41.9457 86.8374 42.1012 86.9332 42.239 87.0639C42.3768 87.1946 42.4854 87.3643 42.565 87.5732C42.6445 87.7805 42.6843 88.0327 42.6843 88.3295V88.5554H40.0827V88.0781H42.06C42.06 87.9105 42.0259 87.7621 41.9577 87.6328C41.8896 87.5021 41.7937 87.3991 41.6701 87.3239C41.5479 87.2486 41.4045 87.2109 41.2397 87.2109C41.0607 87.2109 40.9045 87.255 40.771 87.343C40.6388 87.4297 40.5366 87.5433 40.4641 87.6839C40.3931 87.8232 40.3576 87.9744 40.3576 88.1378V88.5107C40.3576 88.7294 40.396 88.9155 40.4727 89.0689C40.5508 89.2223 40.6594 89.3395 40.7987 89.4205C40.9379 89.5 41.1005 89.5398 41.2866 89.5398C41.4073 89.5398 41.5174 89.5227 41.6168 89.4886C41.7163 89.4531 41.8022 89.4006 41.8746 89.331C41.9471 89.2614 42.0025 89.1754 42.0408 89.0732L42.6438 89.1818C42.5955 89.3594 42.5089 89.5149 42.3839 89.6484C42.2603 89.7805 42.1048 89.8835 41.9173 89.9574C41.7312 90.0298 41.5188 90.0661 41.2802 90.0661ZM44.6163 90.0639C44.3521 90.0639 44.1163 89.9964 43.9089 89.8615C43.7029 89.7251 43.541 89.5312 43.4231 89.2798C43.3066 89.027 43.2484 88.7237 43.2484 88.37C43.2484 88.0163 43.3074 87.7138 43.4252 87.4624C43.5446 87.2109 43.7079 87.0185 43.9153 86.8849C44.1227 86.7514 44.3578 86.6847 44.6206 86.6847C44.8237 86.6847 44.987 86.7188 45.1106 86.7869C45.2356 86.8537 45.3322 86.9318 45.4004 87.0213C45.47 87.1108 45.524 87.1896 45.5623 87.2578H45.6007V85.6364H46.2377V90H45.6156V89.4908H45.5623C45.524 89.5604 45.4686 89.6399 45.3961 89.7294C45.3251 89.8189 45.2271 89.897 45.1021 89.9638C44.9771 90.0305 44.8152 90.0639 44.6163 90.0639ZM44.7569 89.5206C44.9402 89.5206 45.095 89.4723 45.2214 89.3757C45.3493 89.2777 45.4458 89.142 45.5112 88.9688C45.5779 88.7955 45.6113 88.5937 45.6113 88.3636C45.6113 88.1364 45.5787 87.9375 45.5133 87.767C45.448 87.5966 45.3521 87.4638 45.2257 87.3686C45.0993 87.2734 44.943 87.2259 44.7569 87.2259C44.5652 87.2259 44.4054 87.2756 44.2775 87.375C44.1497 87.4744 44.0531 87.6101 43.9877 87.782C43.9238 87.9538 43.8919 88.1477 43.8919 88.3636C43.8919 88.5824 43.9245 88.7791 43.9899 88.9538C44.0552 89.1286 44.1518 89.267 44.2797 89.3693C44.4089 89.4702 44.568 89.5206 44.7569 89.5206ZM49.372 85.6364V90H48.7349V85.6364H49.372ZM51.6396 90.0661C51.3171 90.0661 51.0394 89.9972 50.8065 89.8594C50.5749 89.7202 50.396 89.5249 50.2695 89.2734C50.1445 89.0206 50.082 88.7244 50.082 88.3849C50.082 88.0497 50.1445 87.7543 50.2695 87.4986C50.396 87.2429 50.5721 87.0433 50.7979 86.8999C51.0252 86.7564 51.2908 86.6847 51.5948 86.6847C51.7795 86.6847 51.9585 86.7152 52.1317 86.7763C52.305 86.8374 52.4606 86.9332 52.5984 87.0639C52.7362 87.1946 52.8448 87.3643 52.9244 87.5732C53.0039 87.7805 53.0437 88.0327 53.0437 88.3295V88.5554H50.4421V88.0781H52.4194C52.4194 87.9105 52.3853 87.7621 52.3171 87.6328C52.2489 87.5021 52.1531 87.3991 52.0295 87.3239C51.9073 87.2486 51.7638 87.2109 51.5991 87.2109C51.4201 87.2109 51.2638 87.255 51.1303 87.343C50.9982 87.4297 50.896 87.5433 50.8235 87.6839C50.7525 87.8232 50.717 87.9744 50.717 88.1378V88.5107C50.717 88.7294 50.7553 88.9155 50.832 89.0689C50.9102 89.2223 51.0188 89.3395 51.158 89.4205C51.2972 89.5 51.4599 89.5398 51.646 89.5398C51.7667 89.5398 51.8768 89.5227 51.9762 89.4886C52.0756 89.4531 52.1616 89.4006 52.234 89.331C52.3065 89.2614 52.3619 89.1754 52.4002 89.0732L53.0032 89.1818C52.9549 89.3594 52.8683 89.5149 52.7433 89.6484C52.6197 89.7805 52.4641 89.8835 52.2766 89.9574C52.0906 90.0298 51.8782 90.0661 51.6396 90.0661ZM56.4565 86.7273L55.2697 90H54.5879L53.399 86.7273H54.0829L54.9118 89.2457H54.9458L55.7725 86.7273H56.4565ZM58.3544 90.0661C58.032 90.0661 57.7543 89.9972 57.5213 89.8594C57.2898 89.7202 57.1108 89.5249 56.9844 89.2734C56.8594 89.0206 56.7969 88.7244 56.7969 88.3849C56.7969 88.0497 56.8594 87.7543 56.9844 87.4986C57.1108 87.2429 57.2869 87.0433 57.5128 86.8999C57.7401 86.7564 58.0057 86.6847 58.3097 86.6847C58.4943 86.6847 58.6733 86.7152 58.8466 86.7763C59.0199 86.8374 59.1754 86.9332 59.3132 87.0639C59.451 87.1946 59.5597 87.3643 59.6392 87.5732C59.7188 87.7805 59.7585 88.0327 59.7585 88.3295V88.5554H57.157V88.0781H59.1342C59.1342 87.9105 59.1001 87.7621 59.032 87.6328C58.9638 87.5021 58.8679 87.3991 58.7443 87.3239C58.6222 87.2486 58.4787 87.2109 58.3139 87.2109C58.1349 87.2109 57.9787 87.255 57.8452 87.343C57.7131 87.4297 57.6108 87.5433 57.5384 87.6839C57.4673 87.8232 57.4318 87.9744 57.4318 88.1378V88.5107C57.4318 88.7294 57.4702 88.9155 57.5469 89.0689C57.625 89.2223 57.7337 89.3395 57.8729 89.4205C58.0121 89.5 58.1747 89.5398 58.3608 89.5398C58.4815 89.5398 58.5916 89.5227 58.6911 89.4886C58.7905 89.4531 58.8764 89.4006 58.9489 89.331C59.0213 89.2614 59.0767 89.1754 59.1151 89.0732L59.718 89.1818C59.6697 89.3594 59.5831 89.5149 59.4581 89.6484C59.3345 89.7805 59.179 89.8835 58.9915 89.9574C58.8054 90.0298 58.593 90.0661 58.3544 90.0661ZM61.1025 85.6364V90H60.4654V85.6364H61.1025ZM65.0751 86.7273V87.2386H63.2875V86.7273H65.0751ZM63.7669 85.9432H64.4039V89.0391C64.4039 89.1626 64.4224 89.2557 64.4593 89.3182C64.4963 89.3793 64.5439 89.4212 64.6021 89.4439C64.6618 89.4652 64.7264 89.4759 64.796 89.4759C64.8471 89.4759 64.8919 89.4723 64.9302 89.4652C64.9686 89.4581 64.9984 89.4524 65.0197 89.4482L65.1348 89.9744C65.0978 89.9886 65.0453 90.0028 64.9771 90.017C64.9089 90.0327 64.8237 90.0412 64.7214 90.0426C64.5538 90.0455 64.3975 90.0156 64.2527 89.9531C64.1078 89.8906 63.9906 89.794 63.9011 89.6634C63.8116 89.5327 63.7669 89.3686 63.7669 89.1712V85.9432ZM66.4893 90L65.5263 86.7273H66.1847L66.826 89.1307H66.858L67.5014 86.7273H68.1598L68.799 89.12H68.831L69.468 86.7273H70.1264L69.1655 90H68.5156L67.8509 87.6371H67.8018L67.1371 90H66.4893ZM72.0099 90.0661C71.7031 90.0661 71.4354 89.9957 71.2067 89.8551C70.978 89.7145 70.8004 89.5178 70.674 89.2649C70.5476 89.0121 70.4844 88.7166 70.4844 88.3786C70.4844 88.0391 70.5476 87.7422 70.674 87.4879C70.8004 87.2337 70.978 87.0362 71.2067 86.8956C71.4354 86.755 71.7031 86.6847 72.0099 86.6847C72.3168 86.6847 72.5845 86.755 72.8132 86.8956C73.0419 87.0362 73.2195 87.2337 73.3459 87.4879C73.4723 87.7422 73.5355 88.0391 73.5355 88.3786C73.5355 88.7166 73.4723 89.0121 73.3459 89.2649C73.2195 89.5178 73.0419 89.7145 72.8132 89.8551C72.5845 89.9957 72.3168 90.0661 72.0099 90.0661ZM72.0121 89.5312C72.2109 89.5312 72.3757 89.4787 72.5064 89.3736C72.6371 89.2685 72.7337 89.1286 72.7962 88.9538C72.8601 88.7791 72.892 88.5866 72.892 88.3764C72.892 88.1676 72.8601 87.9759 72.7962 87.8011C72.7337 87.625 72.6371 87.4837 72.5064 87.3771C72.3757 87.2706 72.2109 87.2173 72.0121 87.2173C71.8118 87.2173 71.6456 87.2706 71.5135 87.3771C71.3828 87.4837 71.2855 87.625 71.2216 87.8011C71.1591 87.9759 71.1278 88.1676 71.1278 88.3764C71.1278 88.5866 71.1591 88.7791 71.2216 88.9538C71.2855 89.1286 71.3828 89.2685 71.5135 89.3736C71.6456 89.4787 71.8118 89.5312 72.0121 89.5312Z" fill="white"/>
<g filter="url(#filter0_f_268_70306)">
<ellipse cx="51.3247" cy="118.667" rx="51.3247" ry="118.667" transform="matrix(-0.330843 0.943686 0.943686 0.330843 126.312 16.6421)" fill="#363B49"/>
</g>
</g>
<defs>
<filter id="filter0_f_268_70306" x="-37.0489" y="-103.098" width="516.73" height="414.87" filterUnits="userSpaceOnUse" color-interpolation-filters="sRGB">
<feFlood flood-opacity="0" result="BackgroundImageFix"/>
<feBlend mode="normal" in="SourceGraphic" in2="BackgroundImageFix" result="shape"/>
<feGaussianBlur stdDeviation="72.5426" result="effect1_foregroundBlur_268_70306"/>
</filter>
<clipPath id="clip0_268_70306">
<rect width="160" height="100" rx="8" fill="white"/>
</clipPath>
<clipPath id="clip1_268_70306">
<rect width="262.727" height="109.335" fill="white" transform="translate(217.738 -28.283) rotate(107.062)"/>
</clipPath>
<clipPath id="clip2_268_70306">
<rect x="364.324" y="17.3601" width="262.727" height="262.727" rx="131.364" transform="rotate(107.062 364.324 17.3601)" fill="white"/>
</clipPath>
<clipPath id="clip3_268_70306">
<rect width="9.71265" height="9.71265" fill="white" transform="translate(150.83 95.5955) rotate(107.062)"/>
</clipPath>
<clipPath id="clip4_268_70306">
<rect width="9.71265" height="9.71265" fill="white" transform="translate(149.176 26.5085) rotate(107.062)"/>
</clipPath>
<clipPath id="clip5_268_70306">
<rect width="9.71265" height="9.71265" fill="white" transform="translate(136.351 68.292) rotate(107.062)"/>
</clipPath>
<clipPath id="clip6_268_70306">
<rect width="9.71265" height="9.71265" fill="white" transform="translate(134.696 -0.794922) rotate(107.062)"/>
</clipPath>
<clipPath id="clip7_268_70306">
<rect width="9.71265" height="9.71265" fill="white" transform="translate(109.047 82.7712) rotate(107.062)"/>
</clipPath>
<clipPath id="clip8_268_70306">
<rect width="9.71265" height="9.71265" fill="white" transform="translate(107.392 13.6843) rotate(107.062)"/>
</clipPath>
<clipPath id="clip9_268_70306">
<rect width="9.71265" height="9.71265" fill="white" transform="translate(94.5681 55.4675) rotate(107.062)"/>
</clipPath>
</defs>
</svg>
