<svg width="160" height="100" viewBox="0 0 160 100" fill="none" xmlns="http://www.w3.org/2000/svg">
<g clip-path="url(#clip0_268_70319)">
<rect width="160" height="100" rx="8" fill="#FFC30E"/>
<g clip-path="url(#clip1_268_70319)">
<g clip-path="url(#clip2_268_70319)">
<rect x="186.022" y="76.9331" width="22.3391" height="22.3391" rx="3.88506" transform="rotate(107.062 186.022 76.9331)" fill="white" fill-opacity="0.25"/>
<rect x="179.307" y="97.9856" width="21.8535" height="21.8535" rx="3.64224" transform="rotate(107.062 179.307 97.9856)" stroke="white" stroke-opacity="0.3" stroke-width="0.485633"/>
<rect x="184.367" y="7.84619" width="22.3391" height="22.3391" rx="3.88506" transform="rotate(107.062 184.367 7.84619)" fill="white" fill-opacity="0.25"/>
<rect x="177.651" y="28.8987" width="21.8535" height="21.8535" rx="3.64224" transform="rotate(107.062 177.651 28.8987)" stroke="white" stroke-opacity="0.3" stroke-width="0.485633"/>
<rect x="171.543" y="49.6294" width="22.3391" height="22.3391" rx="3.88506" transform="rotate(107.062 171.543 49.6294)" fill="white" fill-opacity="0.25"/>
<path d="M160.955 58.5313C161.1 56.9318 160.685 54.9009 159.929 53.6998C159.46 52.9156 159.37 52.8707 158.938 53.1531C158.581 53.3553 157.855 54.9321 158.076 55C158.156 55.0243 158.175 55.1861 158.122 55.36C158.068 55.534 158.104 55.7006 158.199 55.7297C158.294 55.7588 158.307 55.8841 158.205 55.9912C158.119 56.1032 158.116 56.2236 158.195 56.2478C158.29 56.277 158.305 56.4545 158.252 56.6285C158.154 56.9448 158.128 56.9193 157.821 56.3405C157.655 55.9782 157.521 55.6256 157.55 55.5307C157.613 55.3251 157.344 55.2426 157.16 55.3935C157.083 55.4739 157.047 56.155 157.066 56.9395C157.091 57.9855 157.033 58.4002 156.864 58.556C156.392 58.965 156.047 58.9628 155.22 58.5012C154.79 58.2656 154.414 58.081 154.378 58.0871C154.352 58.1139 154.45 58.4726 154.607 58.9189C154.933 59.8843 155.783 60.8373 156.709 61.2599C157.54 61.6534 157.626 61.5414 157.422 60.4579C157.298 59.8486 157.331 59.6856 157.654 59.1965C157.871 58.8825 158.101 58.6415 158.18 58.6658C158.465 58.7532 158.453 60.0303 158.157 60.77C157.877 61.5145 157.888 61.5352 158.296 61.5568C159.591 61.6252 160.788 60.2621 160.955 58.5313ZM159.705 57.0228C159.501 56.787 159.516 55.6668 159.727 55.5413C159.82 55.4659 160.063 56.8729 160.006 57.115C159.962 57.2573 159.894 57.2537 159.705 57.0228Z" fill="white" fill-opacity="0.25"/>
<path d="M155.218 57.5489C155.124 57.1221 155.147 56.9907 155.403 56.7753C155.552 56.6304 155.768 56.2642 155.865 55.9479L156.04 55.3785L155.451 55.7171C154.842 56.0666 153.577 56.1283 153.11 55.8464C152.733 55.6095 152.827 56.0364 153.251 56.5128C153.461 56.7328 153.738 56.9564 153.881 57.0001C154.007 57.0389 154.37 57.3233 154.664 57.6041C154.97 57.9055 155.231 58.1242 155.273 58.1023C155.298 58.0755 155.287 57.8298 155.218 57.5489Z" fill="white" fill-opacity="0.25"/>
<rect x="164.827" y="70.6819" width="21.8535" height="21.8535" rx="3.64224" transform="rotate(107.062 164.827 70.6819)" stroke="white" stroke-opacity="0.3" stroke-width="0.485633"/>
<rect x="158.718" y="91.4126" width="22.3391" height="22.3391" rx="3.88506" transform="rotate(107.062 158.718 91.4126)" fill="white" fill-opacity="0.25"/>
<g clip-path="url(#clip3_268_70319)">
<path d="M143.106 100.841C143.16 100.664 143.188 100.484 143.191 100.308L146.958 99.8143L146.537 101.188C146.288 101.999 146.743 102.858 147.554 103.106L148.441 103.379L148.969 101.659C149.218 100.848 148.763 99.9887 147.952 99.7398L147.7 99.6626C148.281 99.8409 148.897 99.5145 149.075 98.9336L149.477 97.6241L148.841 97.429C148.26 97.2507 147.645 97.5771 147.467 98.158L147.142 99.216L144.3 96.6946C144.392 96.5557 144.473 96.3882 144.528 96.2066C144.529 96.206 144.529 96.2057 144.529 96.2051C144.842 95.1855 144.267 94.1017 143.248 93.7888C142.228 93.476 141.145 94.0507 140.832 95.0701C140.519 96.0894 141.094 97.1732 142.113 97.4861C142.761 97.6851 143.436 97.5248 143.922 97.1193L146.395 99.3137L143.117 99.7429C142.939 99.1301 142.472 98.6232 141.825 98.4245C140.806 98.1118 139.722 98.6864 139.409 99.7058C139.096 100.725 139.671 101.809 140.69 102.122C141.71 102.435 142.794 101.86 143.106 100.841L143.106 100.841Z" fill="white" fill-opacity="0.25"/>
</g>
<rect x="169.888" y="-19.4575" width="22.3391" height="22.3391" rx="3.88506" transform="rotate(107.062 169.888 -19.4575)" fill="white" fill-opacity="0.25"/>
<rect x="163.172" y="1.59496" width="21.8535" height="21.8535" rx="3.64224" transform="rotate(107.062 163.172 1.59496)" stroke="white" stroke-opacity="0.3" stroke-width="0.485633"/>
<rect x="157.064" y="22.3257" width="22.3391" height="22.3391" rx="3.88506" transform="rotate(107.062 157.064 22.3257)" fill="white" fill-opacity="0.25"/>
<g clip-path="url(#clip4_268_70319)">
<path d="M143.411 34.7604L143.495 34.7863C144.213 35.0065 145.373 33.3308 146.086 31.0095C146.798 28.6882 146.778 26.6498 146.06 26.4296L145.976 26.4037L146.018 26.4167L144.92 26.0799C144.667 26.0022 144.378 26.1906 143.983 26.5772C143.983 26.5772 142.971 27.4672 142.232 29.8729C141.921 30.8859 141.75 31.8954 141.79 32.9698C141.81 33.8072 142.047 34.388 142.343 34.4787L143.411 34.7604ZM145.947 27.5495C146.279 27.9745 146.172 29.3735 145.706 30.8929C145.24 32.4123 144.488 33.6593 144.017 33.8381C143.962 33.8674 143.878 33.8415 143.835 33.8285L143.666 33.7767C143.722 33.7474 143.79 33.676 143.845 33.6467C144.325 33.2861 144.857 32.1562 145.284 30.7634C145.712 29.3706 145.892 28.1793 145.697 27.6114C145.681 27.514 145.652 27.4589 145.593 27.3485L145.804 27.4133C145.846 27.4263 145.918 27.4944 145.947 27.5495ZM141.196 33.2493L140.099 32.9125C139.803 32.8219 139.608 32.254 139.546 31.4036C139.506 30.3293 139.677 29.3197 139.988 28.3068C140.811 25.927 141.781 25.0239 141.781 25.0239C142.177 24.6374 142.508 24.4619 142.719 24.5267L143.9 24.8894C144.111 24.9541 144.287 25.2851 144.381 25.7297L144.339 25.7167C144.086 25.639 143.742 25.8567 143.333 26.2855C143.333 26.2855 142.406 27.2015 141.609 29.4968C141.256 30.4968 141.114 31.5616 141.166 32.5937C141.186 32.8306 141.219 33.0254 141.196 33.2493Z" fill="white" fill-opacity="0.25"/>
</g>
<rect x="150.348" y="43.3782" width="21.8535" height="21.8535" rx="3.64224" transform="rotate(107.062 150.348 43.3782)" stroke="white" stroke-opacity="0.3" stroke-width="0.485633"/>
<rect x="144.239" y="64.1089" width="22.3391" height="22.3391" rx="3.88506" transform="rotate(107.062 144.239 64.1089)" fill="white" fill-opacity="0.25"/>
<g clip-path="url(#clip5_268_70319)">
<path d="M133.63 72.2377C133.704 71.8946 133.725 71.5626 133.7 71.2387L133.701 71.2631L134.577 71.1301C134.618 71.5535 134.588 72.0205 134.479 72.4852L134.476 72.4981L133.63 72.2384L133.63 72.2377ZM133.619 70.7199C133.539 70.3895 133.42 70.0899 133.261 69.8123L133.26 69.81L133.992 69.3101C134.223 69.7005 134.391 70.1222 134.49 70.5634L134.494 70.5867L133.619 70.7199ZM132.95 69.3569C132.758 69.1175 132.522 68.8938 132.254 68.7059L132.233 68.6921L132.675 67.9242C133.083 68.1987 133.416 68.5136 133.692 68.8694L133.681 68.8567L132.95 69.3569ZM131.756 68.4176C131.623 68.3531 131.464 68.2911 131.299 68.2405C131.134 68.1899 130.969 68.1523 130.803 68.1275L130.821 68.1307L130.887 67.2481C131.095 67.2751 131.329 67.3256 131.561 67.3969C131.792 67.4677 132.012 67.5564 132.221 67.6606L132.199 67.6501L131.757 68.4177L131.756 68.4176ZM130.274 68.0902C129.948 68.0926 129.622 68.1411 129.307 68.2367L128.982 67.4122C129.395 67.2778 129.847 67.2044 130.307 67.2061L130.339 67.2075L130.274 68.0902L130.274 68.0902ZM127.126 70.2407L126.28 69.9802C126.454 69.5216 126.692 69.1185 126.984 68.7672L126.965 68.7912L127.615 69.3932C127.426 69.6276 127.257 69.9144 127.131 70.2291L127.126 70.2407ZM126.893 71.7411L126.018 71.8741C125.977 71.4504 126.006 70.9828 126.116 70.5176L126.119 70.5049L126.965 70.7653C126.89 71.1087 126.869 71.4413 126.894 71.7658L126.893 71.7411ZM127.334 73.1939L126.602 73.6938C126.37 73.3031 126.203 72.881 126.104 72.4397L126.1 72.4165L126.975 72.2838C127.055 72.6142 127.174 72.9141 127.333 73.192L127.334 73.194L127.334 73.1939ZM128.36 74.312L127.918 75.0801C127.51 74.8053 127.178 74.4906 126.902 74.1344L126.912 74.1472L127.644 73.6472C127.85 73.9012 128.091 74.1262 128.36 74.312ZM129.772 74.8743L129.706 75.757C129.498 75.73 129.264 75.6797 129.032 75.6084C128.801 75.5375 128.58 75.4488 128.371 75.3445L128.394 75.355L128.836 74.5872C128.97 74.6517 129.128 74.7137 129.293 74.7644C129.459 74.8151 129.624 74.8526 129.79 74.8777L129.771 74.8745L129.772 74.8743ZM131.286 74.7695L131.61 75.5934C131.197 75.7278 130.745 75.8005 130.285 75.7988L130.253 75.7975L130.319 74.915C130.672 74.9115 130.993 74.8599 131.3 74.7658L131.286 74.7695L131.286 74.7695ZM132.605 74.0161L133.254 74.6183C132.908 74.9443 132.532 75.1986 132.126 75.3905L132.122 75.3924L131.798 74.5681C132.087 74.4261 132.354 74.2449 132.592 74.0286L132.605 74.0161ZM128.796 68.4386C128.507 68.5807 128.24 68.762 128.002 68.9782L127.989 68.9907L127.338 68.3885C127.685 68.0624 128.061 67.8075 128.467 67.6156L128.471 67.6136L128.795 68.4382L128.796 68.4386ZM130.764 71.8635L131.483 73.0841L130.941 73.3714L130.334 72.0908L129.937 71.9688L128.716 72.6886L128.429 72.1463L129.709 71.5395L129.831 71.1419L129.111 69.9216L129.654 69.634L130.26 70.9144L130.658 71.0364L131.878 70.3168L132.166 70.8591L130.886 71.4657L130.764 71.8635ZM130.123 76.3447C132.795 76.4409 135.043 74.3489 135.14 71.6772C135.236 69.0056 133.144 66.7572 130.472 66.6608C127.8 66.5646 125.552 68.6563 125.456 71.3282C125.359 74 127.451 76.2484 130.123 76.3446L130.123 76.3447ZM132.978 73.6134C133.167 73.3785 133.337 73.0909 133.464 72.7754L133.468 72.7638L134.315 73.0236C134.14 73.4832 133.902 73.8873 133.61 74.2394L133.628 74.2154L132.978 73.6134Z" fill="white" fill-opacity="0.25"/>
</g>
<rect x="137.524" y="85.1614" width="21.8535" height="21.8535" rx="3.64224" transform="rotate(107.062 137.524 85.1614)" stroke="white" stroke-opacity="0.3" stroke-width="0.485633"/>
<rect x="131.415" y="105.892" width="22.3391" height="22.3391" rx="3.88506" transform="rotate(107.062 131.415 105.892)" fill="white" fill-opacity="0.25"/>
<rect x="142.584" y="-4.97803" width="22.3391" height="22.3391" rx="3.88506" transform="rotate(107.062 142.584 -4.97803)" fill="white" fill-opacity="0.25"/>
<g clip-path="url(#clip6_268_70319)">
<path d="M126.972 4.45065C127.027 4.27336 127.054 4.09384 127.057 3.9173L130.824 3.4239L130.403 4.79723C130.154 5.60823 130.61 6.46716 131.421 6.71607L132.308 6.98832L132.836 5.26825C133.084 4.45725 132.629 3.59832 131.818 3.3494L131.566 3.27219C132.147 3.45048 132.763 3.12409 132.941 2.54319L133.343 1.23369L132.708 1.03866C132.127 0.860365 131.511 1.18676 131.333 1.76766L131.008 2.82559L128.166 0.304215C128.259 0.165282 128.339 -0.00216035 128.395 -0.183801C128.395 -0.184381 128.395 -0.184672 128.395 -0.185252C128.708 -1.20488 128.133 -2.28868 127.114 -2.60154C126.095 -2.9144 125.011 -2.33965 124.698 -1.32031C124.385 -0.300975 124.96 0.782831 125.979 1.09569C126.628 1.29473 127.302 1.13446 127.788 0.728895L130.261 2.92336L126.983 3.35253C126.805 2.73974 126.338 2.23287 125.691 2.03416C124.672 1.72139 123.588 2.29605 123.275 3.31539C122.963 4.33473 123.537 5.41853 124.557 5.73139C125.576 6.04425 126.66 5.46949 126.973 4.45016L126.972 4.45065Z" fill="white" fill-opacity="0.25"/>
</g>
<rect x="135.869" y="16.0745" width="21.8535" height="21.8535" rx="3.64224" transform="rotate(107.062 135.869 16.0745)" stroke="white" stroke-opacity="0.3" stroke-width="0.485633"/>
<rect x="129.76" y="36.8052" width="22.3391" height="22.3391" rx="3.88506" transform="rotate(107.062 129.76 36.8052)" fill="white" fill-opacity="0.25"/>
<path d="M120.196 47.7862C120.147 47.4944 119.978 46.9751 119.786 46.6396L119.448 46.0511L119.239 46.7312C119.138 47.1156 118.926 47.6387 118.78 47.8882C118.554 48.286 118.562 48.3748 118.849 48.5668C119.04 48.6773 119.373 48.8316 119.626 48.9092C119.974 49.016 120.073 48.977 120.16 48.6924C120.207 48.4819 120.224 48.0891 120.196 47.7862Z" fill="white" fill-opacity="0.25"/>
<path d="M119.173 45.7071C119.317 44.1076 118.902 42.0767 118.146 40.8755C117.678 40.0914 117.587 40.0464 117.155 40.3289C116.798 40.5311 116.072 42.1079 116.294 42.1758C116.373 42.2001 116.392 42.3618 116.339 42.5358C116.286 42.7098 116.321 42.8764 116.416 42.9055C116.511 42.9346 116.524 43.0599 116.422 43.167C116.336 43.2789 116.333 43.3994 116.413 43.4236C116.507 43.4528 116.522 43.6303 116.469 43.8043C116.372 44.1206 116.345 44.0951 116.038 43.5163C115.872 43.154 115.738 42.8014 115.767 42.7065C115.83 42.5009 115.562 42.4184 115.377 42.5693C115.3 42.6496 115.264 43.3308 115.283 44.1153C115.308 45.1612 115.25 45.576 115.081 45.7318C114.609 46.1408 114.264 46.1386 113.437 45.677C113.007 45.4414 112.631 45.2568 112.595 45.2629C112.569 45.2896 112.667 45.6484 112.824 46.0946C113.151 47.0601 114 48.0131 114.926 48.4357C115.757 48.8292 115.843 48.7172 115.639 47.6337C115.515 47.0244 115.548 46.8614 115.871 46.3722C116.088 46.0583 116.318 45.8173 116.397 45.8416C116.682 45.9289 116.671 47.206 116.374 47.9457C116.094 48.6903 116.105 48.711 116.514 48.7326C117.808 48.801 119.005 47.4379 119.173 45.7071ZM117.922 44.1985C117.718 43.9627 117.733 42.8425 117.945 42.7171C118.037 42.6416 118.28 44.0487 118.223 44.2908C118.179 44.4331 118.111 44.4295 117.922 44.1985Z" fill="white" fill-opacity="0.25"/>
<path d="M113.435 44.7247C113.341 44.2979 113.364 44.1665 113.62 43.951C113.769 43.8062 113.985 43.4399 114.082 43.1237L114.257 42.5543L113.668 42.8929C113.059 43.2423 111.794 43.304 111.327 43.0222C110.95 42.7853 111.044 43.2121 111.469 43.6886C111.678 43.9086 111.955 44.1322 112.098 44.1759C112.224 44.2147 112.587 44.4991 112.881 44.7798C113.187 45.0813 113.449 45.3 113.49 45.2781C113.515 45.2513 113.504 45.0056 113.435 44.7247Z" fill="white" fill-opacity="0.25"/>
<rect x="123.044" y="57.8577" width="21.8535" height="21.8535" rx="3.64224" transform="rotate(107.062 123.044 57.8577)" stroke="white" stroke-opacity="0.3" stroke-width="0.485633"/>
<rect x="116.935" y="78.5884" width="22.3391" height="22.3391" rx="3.88506" transform="rotate(107.062 116.935 78.5884)" fill="white" fill-opacity="0.25"/>
<g clip-path="url(#clip7_268_70319)">
<path d="M103.282 91.0231L103.366 91.049C104.084 91.2692 105.245 89.5935 105.957 87.2722C106.67 84.9509 106.649 82.9125 105.931 82.6923L105.847 82.6664L105.889 82.6794L104.792 82.3426C104.538 82.2648 104.25 82.4533 103.854 82.8398C103.854 82.8398 102.842 83.7299 102.103 86.1356C101.793 87.1485 101.621 88.1581 101.661 89.2325C101.681 90.0699 101.918 90.6507 102.214 90.7414L103.282 91.0231ZM105.818 83.8122C106.15 84.2372 106.044 85.6362 105.577 87.1556C105.111 88.675 104.359 89.922 103.888 90.1008C103.833 90.1301 103.749 90.1041 103.706 90.0912L103.538 90.0394C103.593 90.0101 103.661 89.9387 103.716 89.9094C104.196 89.5488 104.728 88.4189 105.155 87.0261C105.583 85.6333 105.764 84.442 105.568 83.8741C105.552 83.7767 105.523 83.7215 105.464 83.6112L105.675 83.676C105.718 83.689 105.789 83.7571 105.818 83.8122ZM101.067 89.512L99.9698 89.1752C99.6743 89.0846 99.4792 88.5167 99.4169 87.6663C99.3772 86.592 99.5485 85.5824 99.8594 84.5694C100.682 82.1897 101.652 81.2866 101.652 81.2866C102.048 80.9001 102.379 80.7246 102.59 80.7894L103.772 81.1521C103.983 81.2168 104.158 81.5478 104.253 81.9924L104.21 81.9794C103.957 81.9017 103.613 82.1194 103.204 82.5482C103.204 82.5482 102.277 83.4642 101.48 85.7595C101.127 86.7595 100.985 87.8243 101.037 88.8564C101.057 89.0933 101.09 89.2881 101.067 89.512Z" fill="white" fill-opacity="0.25"/>
</g>
<rect x="110.22" y="99.6409" width="21.8535" height="21.8535" rx="3.64224" transform="rotate(107.062 110.22 99.6409)" stroke="white" stroke-opacity="0.3" stroke-width="0.485633"/>
<rect x="121.389" y="-11.2293" width="21.8535" height="21.8535" rx="3.64224" transform="rotate(107.062 121.389 -11.2293)" stroke="white" stroke-opacity="0.3" stroke-width="0.485633"/>
<rect x="115.28" y="9.50146" width="22.3391" height="22.3391" rx="3.88506" transform="rotate(107.062 115.28 9.50146)" fill="white" fill-opacity="0.25"/>
<g clip-path="url(#clip8_268_70319)">
<path d="M105.857 15.7409L102.991 12.3333L98.5607 13.1199L101.427 16.5275L105.857 15.7409ZM102.401 13.4129C102.458 13.2286 102.653 13.1251 102.837 13.1816C103.022 13.2382 103.125 13.4335 103.069 13.6177C103.012 13.802 102.817 13.9055 102.633 13.849C102.448 13.7924 102.345 13.5971 102.401 13.4129ZM100.561 13.7321C100.617 13.5479 100.813 13.4443 100.997 13.5009C101.181 13.5574 101.285 13.7527 101.228 13.937C101.171 14.1212 100.976 14.2248 100.792 14.1682C100.608 14.1117 100.504 13.9164 100.561 13.7321ZM103.524 14.7617C103.581 14.5774 103.776 14.4739 103.96 14.5304C104.144 14.587 104.248 14.7823 104.191 14.9665C104.135 15.1508 103.94 15.2543 103.755 15.1978C103.571 15.1412 103.468 14.9459 103.524 14.7617ZM101.59 15.1398C101.646 14.9556 101.841 14.8522 102.025 14.9088C102.21 14.9653 102.313 15.1603 102.257 15.3446C102.2 15.5288 102.005 15.6324 101.821 15.5759C101.636 15.5193 101.533 15.324 101.589 15.1398L101.59 15.1398ZM100.97 16.9126L98.0476 13.4386L96.4547 17.8309L99.3771 21.305L100.97 16.9126ZM97.9864 15.7319C98.0429 15.5476 98.2381 15.4443 98.4221 15.5008C98.6061 15.5572 98.7096 15.7525 98.6532 15.9365C98.5966 16.1208 98.4014 16.224 98.2175 16.1676C98.0335 16.1111 97.9299 15.9158 97.9864 15.7319ZM98.6245 18.8518C98.6811 18.6676 98.8763 18.5643 99.0602 18.6208C99.2442 18.6772 99.3478 18.8725 99.2913 19.0565C99.2348 19.2407 99.0395 19.344 98.8556 19.2876C98.6716 19.2311 98.5681 19.0358 98.6245 18.8518ZM104.484 20.7423L106.092 16.3069L101.532 17.1163L99.924 21.5519L104.484 20.7423ZM102.597 18.9941C102.653 18.8098 102.849 18.7063 103.033 18.7628C103.217 18.8194 103.321 19.0147 103.264 19.1989C103.208 19.3832 103.012 19.4868 102.828 19.4302C102.644 19.3736 102.54 19.1784 102.597 18.9941Z" fill="white" fill-opacity="0.25"/>
</g>
<rect x="108.565" y="30.5539" width="21.8535" height="21.8535" rx="3.64224" transform="rotate(107.062 108.565 30.5539)" stroke="white" stroke-opacity="0.3" stroke-width="0.485633"/>
<rect x="102.456" y="51.2847" width="22.3391" height="22.3391" rx="3.88506" transform="rotate(107.062 102.456 51.2847)" fill="white" fill-opacity="0.25"/>
<g clip-path="url(#clip9_268_70319)">
<path d="M91.8462 59.4132C91.921 59.0701 91.942 58.7381 91.9169 58.4142L91.918 58.4387L92.7932 58.3056C92.8341 58.729 92.805 59.196 92.696 59.6607L92.6927 59.6737L91.8463 59.4139L91.8462 59.4132ZM91.8352 57.8954C91.7559 57.565 91.6364 57.2655 91.4778 56.9878L91.4766 56.9856L92.2082 56.4856C92.4395 56.876 92.6076 57.2978 92.7065 57.739L92.7108 57.7622L91.8352 57.8954ZM91.1661 56.5325C90.9748 56.2931 90.7383 56.0694 90.4705 55.8815L90.4494 55.8677L90.8914 55.0998C91.2996 55.3743 91.6325 55.6892 91.9082 56.0449L91.8978 56.0322L91.1661 56.5325ZM89.9729 55.5932C89.8391 55.5286 89.6806 55.4666 89.5158 55.416C89.351 55.3655 89.1851 55.3279 89.0193 55.303L89.038 55.3062L89.1032 54.4236C89.3114 54.4507 89.5452 54.5011 89.7776 54.5725C90.0083 54.6433 90.229 54.732 90.438 54.8361L90.4152 54.8256L89.9732 55.5933L89.9729 55.5932ZM88.4904 55.2658C88.1649 55.2681 87.8388 55.3166 87.5234 55.4122L87.1987 54.5877C87.6111 54.4533 88.0631 54.38 88.5236 54.3816L88.5553 54.3831L88.4901 55.2657L88.4904 55.2658ZM85.3428 57.4162L84.4963 57.1558C84.6704 56.6971 84.9087 56.294 85.2001 55.9427L85.1819 55.9667L85.8318 56.5688C85.6427 56.8031 85.4734 57.0899 85.3473 57.4046L85.3428 57.4162ZM85.1096 58.9166L84.2344 59.0496C84.1936 58.6259 84.2229 58.1583 84.3323 57.6931L84.3356 57.6805L85.1818 57.9408C85.1069 58.2842 85.0857 58.6168 85.1106 58.9413L85.1096 58.9166ZM85.5502 60.3694L84.8183 60.8693C84.587 60.4786 84.4191 60.0565 84.3208 59.6152L84.3165 59.592L85.1919 59.4594C85.2712 59.7898 85.3906 60.0896 85.5492 60.3675L85.5505 60.3695L85.5502 60.3694ZM86.577 61.4875L86.1345 62.2556C85.7265 61.9808 85.3941 61.6661 85.1183 61.31L85.1287 61.3227L85.8603 60.8227C86.0662 61.0767 86.3079 61.3017 86.577 61.4875ZM87.9881 62.0498L87.9222 62.9326C87.7143 62.9056 87.4808 62.8552 87.2487 62.784C87.0177 62.7131 86.797 62.6244 86.5874 62.52L86.6102 62.5305L87.0526 61.7627C87.1864 61.8273 87.3449 61.8892 87.51 61.9399C87.6751 61.9906 87.8407 62.0281 88.0064 62.0532L87.9877 62.05L87.9881 62.0498ZM89.5023 61.945L89.8263 62.769C89.4139 62.9034 88.9617 62.976 88.5012 62.9744L88.4699 62.973L88.5356 62.0906C88.8882 62.087 89.2094 62.0354 89.5161 61.9413L89.5026 61.9451L89.5023 61.945ZM90.8213 61.1916L91.4708 61.7938C91.1241 62.1198 90.7485 62.3742 90.3423 62.566L90.3382 62.5679L90.0143 61.7437C90.3036 61.6017 90.5707 61.4204 90.8085 61.2042L90.8213 61.1916ZM87.0122 55.6141C86.7235 55.7563 86.4564 55.9375 86.2186 56.1538L86.2055 56.1663L85.5551 55.564C85.9015 55.2379 86.2772 54.9831 86.6832 54.7911L86.6873 54.7892L87.012 55.6137L87.0122 55.6141ZM88.9801 59.039L89.6995 60.2596L89.1574 60.5469L88.5509 59.2664L88.1534 59.1444L86.9327 59.8641L86.6451 59.3218L87.9254 58.715L88.0475 58.3175L87.3279 57.0972L87.8702 56.8096L88.477 58.0899L88.8745 58.2119L90.0949 57.4924L90.3824 58.0347L89.1022 58.6412L88.9801 59.039ZM88.3391 63.5202C91.0111 63.6165 93.2597 61.5244 93.3561 58.8528C93.4526 56.1811 91.3604 53.9328 88.6888 53.8363C86.0167 53.7401 83.7682 55.8319 83.6724 58.5037C83.5756 61.1756 85.6677 63.4239 88.3397 63.5201L88.3391 63.5202ZM91.1944 60.7889C91.384 60.5541 91.5538 60.2665 91.6802 59.9509L91.6847 59.9393L92.5314 60.1992C92.357 60.6587 92.1181 61.0629 91.8262 61.4149L91.8443 61.391L91.1944 60.7889Z" fill="white" fill-opacity="0.25"/>
</g>
<rect x="95.7401" y="72.3372" width="21.8535" height="21.8535" rx="3.64224" transform="rotate(107.062 95.7401 72.3372)" stroke="white" stroke-opacity="0.3" stroke-width="0.485633"/>
<rect x="89.6313" y="93.0679" width="22.3391" height="22.3391" rx="3.88506" transform="rotate(107.062 89.6313 93.0679)" fill="white" fill-opacity="0.25"/>
<path d="M79.0436 101.97C79.1884 100.37 78.7734 98.3394 78.0173 97.1382C77.5485 96.3541 77.4585 96.3091 77.0257 96.5916C76.6694 96.7938 75.9432 98.3706 76.1646 98.4385C76.2437 98.4628 76.2633 98.6245 76.2099 98.7985C76.1565 98.9725 76.1919 99.1391 76.2868 99.1682C76.3817 99.1973 76.3951 99.3226 76.293 99.4297C76.2067 99.5416 76.2044 99.6621 76.2835 99.6863C76.3784 99.7154 76.3931 99.893 76.3397 100.067C76.2426 100.383 76.2158 100.358 75.9089 99.779C75.7433 99.4167 75.6092 99.0641 75.6384 98.9692C75.7015 98.7636 75.4326 98.6811 75.2478 98.832C75.1713 98.9123 75.1353 99.5935 75.154 100.378C75.1791 101.424 75.121 101.839 74.9521 101.995C74.4804 102.404 74.135 102.401 73.3076 101.94C72.8781 101.704 72.5022 101.519 72.4657 101.526C72.4402 101.552 72.5377 101.911 72.6949 102.357C73.0216 103.323 73.8712 104.276 74.7971 104.698C75.6281 105.092 75.7143 104.98 75.5105 103.896C75.386 103.287 75.4187 103.124 75.7419 102.635C75.9594 102.321 76.1891 102.08 76.2681 102.104C76.5528 102.192 76.5415 103.469 76.2453 104.208C75.9649 104.953 75.9758 104.974 76.3845 104.995C77.6787 105.064 78.8757 103.701 79.0436 101.97ZM77.7934 100.461C77.5889 100.225 77.6039 99.1052 77.8155 98.9798C77.9079 98.9043 78.1509 100.311 78.0939 100.553C78.0502 100.696 77.9821 100.692 77.7934 100.461Z" fill="white" fill-opacity="0.25"/>
<path d="M73.3058 100.987C73.2119 100.561 73.2349 100.429 73.4914 100.214C73.6396 100.069 73.8559 99.7026 73.953 99.3863L74.1277 98.817L73.5393 99.1555C72.9302 99.505 71.6653 99.5667 71.198 99.2849C70.8208 99.048 70.9148 99.4748 71.3396 99.9513C71.549 100.171 71.8264 100.395 71.9688 100.439C72.0953 100.477 72.4579 100.762 72.7525 101.043C73.0579 101.344 73.3196 101.563 73.3609 101.541C73.3865 101.514 73.3753 101.268 73.3058 100.987Z" fill="white" fill-opacity="0.25"/>
</g>
</g>
<path d="M15.8253 16.0696C15.7424 15.8011 15.6281 15.5608 15.4822 15.3487C15.3397 15.1333 15.1674 14.9493 14.9652 14.7969C14.7663 14.6444 14.5376 14.5301 14.2791 14.4538C14.0206 14.3743 13.7389 14.3345 13.4339 14.3345C12.8871 14.3345 12.3999 14.4721 11.9723 14.7472C11.5447 15.0223 11.2083 15.4266 10.9631 15.9602C10.7211 16.4905 10.6001 17.1368 10.6001 17.8991C10.6001 18.6681 10.7211 19.3194 10.9631 19.853C11.205 20.3866 11.5414 20.7926 11.9723 21.071C12.4032 21.3461 12.9036 21.4837 13.4737 21.4837C13.9908 21.4837 14.4382 21.3842 14.8161 21.1854C15.1972 20.9865 15.4905 20.7048 15.696 20.3402C15.9015 19.9723 16.0043 19.5414 16.0043 19.0476L16.4219 19.1122H13.6577V17.6705H17.7891V18.8935C17.7891 19.7652 17.6035 20.5192 17.2322 21.1555C16.861 21.7919 16.3506 22.2824 15.701 22.6271C15.0514 22.9685 14.3056 23.1392 13.4638 23.1392C12.5258 23.1392 11.7022 22.9287 10.9929 22.5078C10.2869 22.0836 9.73509 21.482 9.33736 20.7031C8.94295 19.9209 8.74574 18.9929 8.74574 17.919C8.74574 17.0971 8.86174 16.3629 9.09375 15.7166C9.32907 15.0703 9.6572 14.5218 10.0781 14.071C10.4991 13.617 10.9929 13.2723 11.5597 13.0369C12.1264 12.7983 12.7429 12.679 13.4091 12.679C13.9725 12.679 14.4979 12.7618 14.9851 12.9276C15.4723 13.09 15.9048 13.322 16.2827 13.6236C16.6638 13.9252 16.977 14.2831 17.2223 14.6974C17.4676 15.1117 17.6283 15.5691 17.7045 16.0696H15.8253ZM28.6706 17.9091C28.6706 19.0062 28.4651 19.9458 28.0542 20.728C27.6465 21.5069 27.0897 22.1035 26.3837 22.5178C25.681 22.9321 24.8839 23.1392 23.9924 23.1392C23.1008 23.1392 22.302 22.9321 21.5961 22.5178C20.8934 22.1001 20.3366 21.5019 19.9256 20.723C19.5179 19.9408 19.3141 19.0028 19.3141 17.9091C19.3141 16.812 19.5179 15.8741 19.9256 15.0952C20.3366 14.313 20.8934 13.7147 21.5961 13.3004C22.302 12.8861 23.1008 12.679 23.9924 12.679C24.8839 12.679 25.681 12.8861 26.3837 13.3004C27.0897 13.7147 27.6465 14.313 28.0542 15.0952C28.4651 15.8741 28.6706 16.812 28.6706 17.9091ZM26.8162 17.9091C26.8162 17.1368 26.6953 16.4856 26.4533 15.9553C26.2147 15.4216 25.8832 15.0189 25.459 14.7472C25.0347 14.4721 24.5459 14.3345 23.9924 14.3345C23.4389 14.3345 22.95 14.4721 22.5257 14.7472C22.1015 15.0189 21.7684 15.4216 21.5265 15.9553C21.2878 16.4856 21.1685 17.1368 21.1685 17.9091C21.1685 18.6813 21.2878 19.3343 21.5265 19.8679C21.7684 20.3982 22.1015 20.8009 22.5257 21.076C22.95 21.3478 23.4389 21.4837 23.9924 21.4837C24.5459 21.4837 25.0347 21.3478 25.459 21.076C25.8832 20.8009 26.2147 20.3982 26.4533 19.8679C26.6953 19.3343 26.8162 18.6813 26.8162 17.9091ZM30.4144 23V12.8182H32.2589V21.4538H36.7433V23H30.4144ZM41.7944 23H38.3441V12.8182H41.864C42.8749 12.8182 43.7433 13.022 44.4691 13.4297C45.1983 13.834 45.7584 14.4157 46.1495 15.1747C46.5406 15.9337 46.7362 16.8419 46.7362 17.8991C46.7362 18.9598 46.5389 19.8712 46.1445 20.6335C45.7534 21.3958 45.1883 21.9808 44.4492 22.3885C43.7134 22.7962 42.8285 23 41.7944 23ZM40.1886 21.4041H41.7049C42.4142 21.4041 43.0058 21.2749 43.4798 21.0163C43.9537 20.7545 44.31 20.3651 44.5487 19.848C44.7873 19.3277 44.9066 18.678 44.9066 17.8991C44.9066 17.1203 44.7873 16.474 44.5487 15.9602C44.31 15.4432 43.957 15.0571 43.4897 14.8018C43.0257 14.5433 42.449 14.4141 41.7596 14.4141H40.1886V21.4041Z" fill="white"/>
<path d="M8.2642 78.2031V77.6364H11.6413V78.2031H10.2798V82H9.62358V78.2031H8.2642ZM12.9735 80.0568V82H12.3365V77.6364H12.965V79.2599H13.0055C13.0822 79.0838 13.1994 78.9439 13.3571 78.8402C13.5147 78.7365 13.7207 78.6847 13.975 78.6847C14.1994 78.6847 14.3954 78.7308 14.563 78.8232C14.7321 78.9155 14.8627 79.0533 14.9551 79.2365C15.0488 79.4183 15.0957 79.6456 15.0957 79.9183V82H14.4586V79.995C14.4586 79.755 14.3968 79.5689 14.2733 79.4368C14.1497 79.3033 13.9778 79.2365 13.7576 79.2365C13.6071 79.2365 13.4721 79.2685 13.3528 79.3324C13.2349 79.3963 13.1419 79.4901 13.0737 79.6136C13.0069 79.7358 12.9735 79.8835 12.9735 80.0568ZM15.9458 82V78.7273H16.5829V82H15.9458ZM16.2676 78.2223C16.1568 78.2223 16.0616 78.1854 15.9821 78.1115C15.9039 78.0362 15.8649 77.9467 15.8649 77.843C15.8649 77.7379 15.9039 77.6484 15.9821 77.5746C16.0616 77.4993 16.1568 77.4616 16.2676 77.4616C16.3784 77.4616 16.4728 77.4993 16.551 77.5746C16.6305 77.6484 16.6703 77.7379 16.6703 77.843C16.6703 77.9467 16.6305 78.0362 16.551 78.1115C16.4728 78.1854 16.3784 78.2223 16.2676 78.2223ZM19.8924 79.5263L19.315 79.6286C19.2908 79.5547 19.2525 79.4844 19.1999 79.4176C19.1488 79.3509 19.0792 79.2962 18.9911 79.2536C18.9031 79.2109 18.793 79.1896 18.6609 79.1896C18.4805 79.1896 18.3299 79.2301 18.2092 79.3111C18.0884 79.3906 18.0281 79.4936 18.0281 79.62C18.0281 79.7294 18.0685 79.8175 18.1495 79.8842C18.2305 79.951 18.3612 80.0057 18.5415 80.0483L19.0614 80.1676C19.3626 80.2372 19.587 80.3445 19.7347 80.4893C19.8825 80.6342 19.9563 80.8224 19.9563 81.054C19.9563 81.25 19.8995 81.4247 19.7859 81.5781C19.6737 81.7301 19.5167 81.8494 19.315 81.9361C19.1147 82.0227 18.8825 82.0661 18.6183 82.0661C18.2518 82.0661 17.9528 81.9879 17.7212 81.8317C17.4897 81.674 17.3477 81.4503 17.2951 81.1605L17.9109 81.0668C17.9492 81.2273 18.0281 81.3487 18.1474 81.4311C18.2667 81.5121 18.4222 81.5526 18.614 81.5526C18.8228 81.5526 18.9897 81.5092 19.1147 81.4226C19.2397 81.3345 19.3022 81.2273 19.3022 81.1009C19.3022 80.9986 19.2638 80.9126 19.1871 80.843C19.1119 80.7734 18.9961 80.7209 18.8398 80.6854L18.2859 80.5639C17.9805 80.4943 17.7546 80.3835 17.6083 80.2315C17.4634 80.0795 17.391 79.8871 17.391 79.6541C17.391 79.4609 17.445 79.2919 17.5529 79.147C17.6609 79.0021 17.81 78.8892 18.0004 78.8082C18.1907 78.7259 18.4087 78.6847 18.6545 78.6847C19.0082 78.6847 19.2866 78.7614 19.4897 78.9148C19.6928 79.0668 19.8271 79.2706 19.8924 79.5263ZM24.6971 79.5263L24.1197 79.6286C24.0955 79.5547 24.0572 79.4844 24.0046 79.4176C23.9535 79.3509 23.8839 79.2962 23.7958 79.2536C23.7077 79.2109 23.5977 79.1896 23.4656 79.1896C23.2852 79.1896 23.1346 79.2301 23.0138 79.3111C22.8931 79.3906 22.8327 79.4936 22.8327 79.62C22.8327 79.7294 22.8732 79.8175 22.9542 79.8842C23.0352 79.951 23.1658 80.0057 23.3462 80.0483L23.8661 80.1676C24.1673 80.2372 24.3917 80.3445 24.5394 80.4893C24.6871 80.6342 24.761 80.8224 24.761 81.054C24.761 81.25 24.7042 81.4247 24.5906 81.5781C24.4783 81.7301 24.3214 81.8494 24.1197 81.9361C23.9194 82.0227 23.6871 82.0661 23.4229 82.0661C23.0565 82.0661 22.7575 81.9879 22.5259 81.8317C22.2944 81.674 22.1523 81.4503 22.0998 81.1605L22.7156 81.0668C22.7539 81.2273 22.8327 81.3487 22.9521 81.4311C23.0714 81.5121 23.2269 81.5526 23.4187 81.5526C23.6275 81.5526 23.7944 81.5092 23.9194 81.4226C24.0444 81.3345 24.1069 81.2273 24.1069 81.1009C24.1069 80.9986 24.0685 80.9126 23.9918 80.843C23.9165 80.7734 23.8008 80.7209 23.6445 80.6854L23.0906 80.5639C22.7852 80.4943 22.5593 80.3835 22.413 80.2315C22.2681 80.0795 22.1957 79.8871 22.1957 79.6541C22.1957 79.4609 22.2496 79.2919 22.3576 79.147C22.4656 79.0021 22.6147 78.8892 22.805 78.8082C22.9954 78.7259 23.2134 78.6847 23.4592 78.6847C23.8129 78.6847 24.0913 78.7614 24.2944 78.9148C24.4975 79.0668 24.6317 79.2706 24.6971 79.5263ZM26.9892 78.7273V79.2386H25.2015V78.7273H26.9892ZM25.6809 77.9432H26.318V81.0391C26.318 81.1626 26.3365 81.2557 26.3734 81.3182C26.4103 81.3793 26.4579 81.4212 26.5162 81.4439C26.5758 81.4652 26.6404 81.4759 26.71 81.4759C26.7612 81.4759 26.8059 81.4723 26.8443 81.4652C26.8826 81.4581 26.9125 81.4524 26.9338 81.4482L27.0488 81.9744C27.0119 81.9886 26.9593 82.0028 26.8912 82.017C26.823 82.0327 26.7377 82.0412 26.6355 82.0426C26.4679 82.0455 26.3116 82.0156 26.1667 81.9531C26.0218 81.8906 25.9047 81.794 25.8152 81.6634C25.7257 81.5327 25.6809 81.3686 25.6809 81.1712V77.9432ZM28.6463 82.0724C28.4389 82.0724 28.2514 82.0341 28.0838 81.9574C27.9162 81.8793 27.7834 81.7663 27.6854 81.6186C27.5888 81.4709 27.5405 81.2898 27.5405 81.0753C27.5405 80.8906 27.576 80.7386 27.647 80.6193C27.718 80.5 27.8139 80.4055 27.9347 80.3359C28.0554 80.2663 28.1903 80.2138 28.3395 80.1783C28.4886 80.1428 28.6406 80.1158 28.7955 80.0973C28.9915 80.0746 29.1506 80.0561 29.2727 80.0419C29.3949 80.0263 29.4837 80.0014 29.5391 79.9673C29.5945 79.9332 29.6222 79.8778 29.6222 79.8011V79.7862C29.6222 79.6001 29.5696 79.456 29.4645 79.3537C29.3608 79.2514 29.206 79.2003 29 79.2003C28.7855 79.2003 28.6165 79.2479 28.4929 79.343C28.3707 79.4368 28.2862 79.5412 28.2393 79.6562L27.6406 79.5199C27.7116 79.321 27.8153 79.1605 27.9517 79.0384C28.0895 78.9148 28.2479 78.8253 28.4268 78.7699C28.6058 78.7131 28.794 78.6847 28.9915 78.6847C29.1222 78.6847 29.2607 78.7003 29.407 78.7315C29.5547 78.7614 29.6925 78.8168 29.8203 78.8977C29.9496 78.9787 30.0554 79.0945 30.1378 79.245C30.2202 79.3942 30.2614 79.5881 30.2614 79.8267V82H29.6392V81.5526H29.6136C29.5724 81.6349 29.5107 81.7159 29.4283 81.7955C29.3459 81.875 29.2401 81.9411 29.1108 81.9936C28.9815 82.0462 28.8267 82.0724 28.6463 82.0724ZM28.7848 81.5611C28.9609 81.5611 29.1115 81.5263 29.2365 81.4567C29.3629 81.3871 29.4588 81.2962 29.5241 81.1839C29.5909 81.0703 29.6243 80.9489 29.6243 80.8196V80.3977C29.6016 80.4205 29.5575 80.4418 29.4922 80.4616C29.4283 80.4801 29.3551 80.4964 29.2727 80.5107C29.1903 80.5234 29.1101 80.5355 29.032 80.5469C28.9538 80.5568 28.8885 80.5653 28.8359 80.5724C28.7124 80.5881 28.5994 80.6143 28.4972 80.6513C28.3963 80.6882 28.3153 80.7415 28.2543 80.8111C28.1946 80.8793 28.1648 80.9702 28.1648 81.0838C28.1648 81.2415 28.223 81.3608 28.3395 81.4418C28.456 81.5213 28.6044 81.5611 28.7848 81.5611ZM32.6376 78.7273V79.2386H30.85V78.7273H32.6376ZM31.3294 77.9432H31.9664V81.0391C31.9664 81.1626 31.9849 81.2557 32.0218 81.3182C32.0588 81.3793 32.1064 81.4212 32.1646 81.4439C32.2243 81.4652 32.2889 81.4759 32.3585 81.4759C32.4096 81.4759 32.4544 81.4723 32.4927 81.4652C32.5311 81.4581 32.5609 81.4524 32.5822 81.4482L32.6973 81.9744C32.6603 81.9886 32.6078 82.0028 32.5396 82.017C32.4714 82.0327 32.3862 82.0412 32.2839 82.0426C32.1163 82.0455 31.96 82.0156 31.8152 81.9531C31.6703 81.8906 31.5531 81.794 31.4636 81.6634C31.3741 81.5327 31.3294 81.3686 31.3294 81.1712V77.9432ZM35.4155 80.6428V78.7273H36.0547V82H35.4283V81.4332H35.3942C35.3189 81.608 35.1982 81.7536 35.032 81.87C34.8672 81.9851 34.6619 82.0426 34.4162 82.0426C34.206 82.0426 34.0199 81.9964 33.858 81.9041C33.6974 81.8104 33.571 81.6719 33.4787 81.4886C33.3878 81.3054 33.3423 81.0788 33.3423 80.8089V78.7273H33.9794V80.7322C33.9794 80.9553 34.0412 81.1328 34.1648 81.2649C34.2884 81.397 34.4489 81.4631 34.6463 81.4631C34.7656 81.4631 34.8842 81.4332 35.0021 81.3736C35.1214 81.3139 35.2202 81.2237 35.2983 81.103C35.3778 80.9822 35.4169 80.8288 35.4155 80.6428ZM39.3631 79.5263L38.7857 79.6286C38.7615 79.5547 38.7232 79.4844 38.6706 79.4176C38.6195 79.3509 38.5499 79.2962 38.4618 79.2536C38.3738 79.2109 38.2637 79.1896 38.1316 79.1896C37.9512 79.1896 37.8006 79.2301 37.6799 79.3111C37.5591 79.3906 37.4988 79.4936 37.4988 79.62C37.4988 79.7294 37.5392 79.8175 37.6202 79.8842C37.7012 79.951 37.8319 80.0057 38.0123 80.0483L38.5321 80.1676C38.8333 80.2372 39.0577 80.3445 39.2054 80.4893C39.3532 80.6342 39.427 80.8224 39.427 81.054C39.427 81.25 39.3702 81.4247 39.2566 81.5781C39.1444 81.7301 38.9874 81.8494 38.7857 81.9361C38.5854 82.0227 38.3532 82.0661 38.089 82.0661C37.7225 82.0661 37.4235 81.9879 37.1919 81.8317C36.9604 81.674 36.8184 81.4503 36.7658 81.1605L37.3816 81.0668C37.4199 81.2273 37.4988 81.3487 37.6181 81.4311C37.7374 81.5121 37.8929 81.5526 38.0847 81.5526C38.2935 81.5526 38.4604 81.5092 38.5854 81.4226C38.7104 81.3345 38.7729 81.2273 38.7729 81.1009C38.7729 80.9986 38.7346 80.9126 38.6578 80.843C38.5826 80.7734 38.4668 80.7209 38.3105 80.6854L37.7566 80.5639C37.4512 80.4943 37.2253 80.3835 37.079 80.2315C36.9341 80.0795 36.8617 79.8871 36.8617 79.6541C36.8617 79.4609 36.9157 79.2919 37.0236 79.147C37.1316 79.0021 37.2807 78.8892 37.4711 78.8082C37.6614 78.7259 37.8794 78.6847 38.1252 78.6847C38.4789 78.6847 38.7573 78.7614 38.9604 78.9148C39.1635 79.0668 39.2978 79.2706 39.3631 79.5263ZM41.7154 82V78.7273H42.3525V82H41.7154ZM42.0371 78.2223C41.9263 78.2223 41.8311 78.1854 41.7516 78.1115C41.6735 78.0362 41.6344 77.9467 41.6344 77.843C41.6344 77.7379 41.6735 77.6484 41.7516 77.5746C41.8311 77.4993 41.9263 77.4616 42.0371 77.4616C42.1479 77.4616 42.2424 77.4993 42.3205 77.5746C42.4 77.6484 42.4398 77.7379 42.4398 77.843C42.4398 77.9467 42.4 78.0362 42.3205 78.1115C42.2424 78.1854 42.1479 78.2223 42.0371 78.2223ZM45.6619 79.5263L45.0845 79.6286C45.0604 79.5547 45.022 79.4844 44.9695 79.4176C44.9183 79.3509 44.8487 79.2962 44.7607 79.2536C44.6726 79.2109 44.5625 79.1896 44.4304 79.1896C44.25 79.1896 44.0994 79.2301 43.9787 79.3111C43.858 79.3906 43.7976 79.4936 43.7976 79.62C43.7976 79.7294 43.8381 79.8175 43.919 79.8842C44 79.951 44.1307 80.0057 44.3111 80.0483L44.831 80.1676C45.1321 80.2372 45.3565 80.3445 45.5043 80.4893C45.652 80.6342 45.7259 80.8224 45.7259 81.054C45.7259 81.25 45.669 81.4247 45.5554 81.5781C45.4432 81.7301 45.2862 81.8494 45.0845 81.9361C44.8842 82.0227 44.652 82.0661 44.3878 82.0661C44.0213 82.0661 43.7223 81.9879 43.4908 81.8317C43.2592 81.674 43.1172 81.4503 43.0646 81.1605L43.6804 81.0668C43.7188 81.2273 43.7976 81.3487 43.9169 81.4311C44.0362 81.5121 44.1918 81.5526 44.3835 81.5526C44.5923 81.5526 44.7592 81.5092 44.8842 81.4226C45.0092 81.3345 45.0717 81.2273 45.0717 81.1009C45.0717 80.9986 45.0334 80.9126 44.9567 80.843C44.8814 80.7734 44.7656 80.7209 44.6094 80.6854L44.0554 80.5639C43.75 80.4943 43.5241 80.3835 43.3778 80.2315C43.233 80.0795 43.1605 79.8871 43.1605 79.6541C43.1605 79.4609 43.2145 79.2919 43.3224 79.147C43.4304 79.0021 43.5795 78.8892 43.7699 78.8082C43.9602 78.7259 44.1783 78.6847 44.424 78.6847C44.7777 78.6847 45.0561 78.7614 45.2592 78.9148C45.4624 79.0668 45.5966 79.2706 45.6619 79.5263ZM48.9666 82.0724C48.7592 82.0724 48.5717 82.0341 48.4041 81.9574C48.2365 81.8793 48.1037 81.7663 48.0057 81.6186C47.9091 81.4709 47.8608 81.2898 47.8608 81.0753C47.8608 80.8906 47.8963 80.7386 47.9673 80.6193C48.0384 80.5 48.1342 80.4055 48.255 80.3359C48.3757 80.2663 48.5107 80.2138 48.6598 80.1783C48.8089 80.1428 48.9609 80.1158 49.1158 80.0973C49.3118 80.0746 49.4709 80.0561 49.593 80.0419C49.7152 80.0263 49.804 80.0014 49.8594 79.9673C49.9148 79.9332 49.9425 79.8778 49.9425 79.8011V79.7862C49.9425 79.6001 49.8899 79.456 49.7848 79.3537C49.6811 79.2514 49.5263 79.2003 49.3203 79.2003C49.1058 79.2003 48.9368 79.2479 48.8132 79.343C48.6911 79.4368 48.6065 79.5412 48.5597 79.6562L47.9609 79.5199C48.032 79.321 48.1357 79.1605 48.272 79.0384C48.4098 78.9148 48.5682 78.8253 48.7472 78.7699C48.9261 78.7131 49.1143 78.6847 49.3118 78.6847C49.4425 78.6847 49.581 78.7003 49.7273 78.7315C49.875 78.7614 50.0128 78.8168 50.1406 78.8977C50.2699 78.9787 50.3757 79.0945 50.4581 79.245C50.5405 79.3942 50.5817 79.5881 50.5817 79.8267V82H49.9595V81.5526H49.9339C49.8928 81.6349 49.831 81.7159 49.7486 81.7955C49.6662 81.875 49.5604 81.9411 49.4311 81.9936C49.3018 82.0462 49.147 82.0724 48.9666 82.0724ZM49.1051 81.5611C49.2813 81.5611 49.4318 81.5263 49.5568 81.4567C49.6832 81.3871 49.7791 81.2962 49.8445 81.1839C49.9112 81.0703 49.9446 80.9489 49.9446 80.8196V80.3977C49.9219 80.4205 49.8778 80.4418 49.8125 80.4616C49.7486 80.4801 49.6754 80.4964 49.593 80.5107C49.5107 80.5234 49.4304 80.5355 49.3523 80.5469C49.2741 80.5568 49.2088 80.5653 49.1562 80.5724C49.0327 80.5881 48.9197 80.6143 48.8175 80.6513C48.7166 80.6882 48.6357 80.7415 48.5746 80.8111C48.5149 80.8793 48.4851 80.9702 48.4851 81.0838C48.4851 81.2415 48.5433 81.3608 48.6598 81.4418C48.7763 81.5213 48.9247 81.5611 49.1051 81.5611ZM53.8826 79.5263L53.3052 79.6286C53.2811 79.5547 53.2427 79.4844 53.1902 79.4176C53.139 79.3509 53.0694 79.2962 52.9814 79.2536C52.8933 79.2109 52.7832 79.1896 52.6511 79.1896C52.4707 79.1896 52.3201 79.2301 52.1994 79.3111C52.0787 79.3906 52.0183 79.4936 52.0183 79.62C52.0183 79.7294 52.0588 79.8175 52.1397 79.8842C52.2207 79.951 52.3514 80.0057 52.5318 80.0483L53.0517 80.1676C53.3528 80.2372 53.5772 80.3445 53.725 80.4893C53.8727 80.6342 53.9466 80.8224 53.9466 81.054C53.9466 81.25 53.8897 81.4247 53.7761 81.5781C53.6639 81.7301 53.5069 81.8494 53.3052 81.9361C53.1049 82.0227 52.8727 82.0661 52.6085 82.0661C52.242 82.0661 51.943 81.9879 51.7115 81.8317C51.4799 81.674 51.3379 81.4503 51.2853 81.1605L51.9011 81.0668C51.9395 81.2273 52.0183 81.3487 52.1376 81.4311C52.2569 81.5121 52.4125 81.5526 52.6042 81.5526C52.813 81.5526 52.9799 81.5092 53.1049 81.4226C53.2299 81.3345 53.2924 81.2273 53.2924 81.1009C53.2924 80.9986 53.2541 80.9126 53.1774 80.843C53.1021 80.7734 52.9863 80.7209 52.8301 80.6854L52.2761 80.5639C51.9707 80.4943 51.7449 80.3835 51.5985 80.2315C51.4537 80.0795 51.3812 79.8871 51.3812 79.6541C51.3812 79.4609 51.4352 79.2919 51.5431 79.147C51.6511 79.0021 51.8002 78.8892 51.9906 78.8082C52.1809 78.7259 52.399 78.6847 52.6447 78.6847C52.9984 78.6847 53.2768 78.7614 53.4799 78.9148C53.6831 79.0668 53.8173 79.2706 53.8826 79.5263ZM57.0994 79.5263L56.522 79.6286C56.4979 79.5547 56.4595 79.4844 56.407 79.4176C56.3558 79.3509 56.2862 79.2962 56.1982 79.2536C56.1101 79.2109 56 79.1896 55.8679 79.1896C55.6875 79.1896 55.5369 79.2301 55.4162 79.3111C55.2955 79.3906 55.2351 79.4936 55.2351 79.62C55.2351 79.7294 55.2756 79.8175 55.3565 79.8842C55.4375 79.951 55.5682 80.0057 55.7486 80.0483L56.2685 80.1676C56.5696 80.2372 56.794 80.3445 56.9418 80.4893C57.0895 80.6342 57.1634 80.8224 57.1634 81.054C57.1634 81.25 57.1065 81.4247 56.9929 81.5781C56.8807 81.7301 56.7237 81.8494 56.522 81.9361C56.3217 82.0227 56.0895 82.0661 55.8253 82.0661C55.4588 82.0661 55.1598 81.9879 54.9283 81.8317C54.6967 81.674 54.5547 81.4503 54.5021 81.1605L55.1179 81.0668C55.1563 81.2273 55.2351 81.3487 55.3544 81.4311C55.4737 81.5121 55.6293 81.5526 55.821 81.5526C56.0298 81.5526 56.1967 81.5092 56.3217 81.4226C56.4467 81.3345 56.5092 81.2273 56.5092 81.1009C56.5092 80.9986 56.4709 80.9126 56.3942 80.843C56.3189 80.7734 56.2031 80.7209 56.0469 80.6854L55.4929 80.5639C55.1875 80.4943 54.9616 80.3835 54.8153 80.2315C54.6705 80.0795 54.598 79.8871 54.598 79.6541C54.598 79.4609 54.652 79.2919 54.7599 79.147C54.8679 79.0021 55.017 78.8892 55.2074 78.8082C55.3977 78.7259 55.6158 78.6847 55.8615 78.6847C56.2152 78.6847 56.4936 78.7614 56.6967 78.9148C56.8999 79.0668 57.0341 79.2706 57.0994 79.5263ZM57.8638 82V78.7273H58.5009V82H57.8638ZM58.1855 78.2223C58.0748 78.2223 57.9796 78.1854 57.9 78.1115C57.8219 78.0362 57.7828 77.9467 57.7828 77.843C57.7828 77.7379 57.8219 77.6484 57.9 77.5746C57.9796 77.4993 58.0748 77.4616 58.1855 77.4616C58.2963 77.4616 58.3908 77.4993 58.4689 77.5746C58.5485 77.6484 58.5882 77.7379 58.5882 77.843C58.5882 77.9467 58.5485 78.0362 58.4689 78.1115C58.3908 78.1854 58.2963 78.2223 58.1855 78.2223ZM60.7301 83.2955C60.4702 83.2955 60.2464 83.2614 60.0589 83.1932C59.8729 83.125 59.7209 83.0348 59.603 82.9226C59.4851 82.8104 59.397 82.6875 59.3388 82.554L59.8864 82.3281C59.9247 82.3906 59.9759 82.4567 60.0398 82.5263C60.1051 82.5973 60.1932 82.6577 60.304 82.7074C60.4162 82.7571 60.5604 82.782 60.7365 82.782C60.978 82.782 61.1776 82.723 61.3352 82.6051C61.4929 82.4886 61.5717 82.3026 61.5717 82.0469V81.4034H61.5312C61.4929 81.473 61.4375 81.5504 61.3651 81.6357C61.294 81.7209 61.196 81.7947 61.071 81.8572C60.946 81.9197 60.7834 81.951 60.5831 81.951C60.3246 81.951 60.0916 81.8906 59.8842 81.7699C59.6783 81.6477 59.5149 81.468 59.3942 81.2308C59.2749 80.9922 59.2152 80.6989 59.2152 80.3509C59.2152 80.0028 59.2741 79.7045 59.392 79.456C59.5114 79.2074 59.6747 79.017 59.8821 78.8849C60.0895 78.7514 60.3246 78.6847 60.5874 78.6847C60.7905 78.6847 60.9545 78.7188 61.0795 78.7869C61.2045 78.8537 61.3018 78.9318 61.3714 79.0213C61.4425 79.1108 61.4972 79.1896 61.5355 79.2578H61.5824V78.7273H62.2067V82.0724C62.2067 82.3537 62.1413 82.5845 62.0107 82.7649C61.88 82.9453 61.7031 83.0788 61.4801 83.1655C61.2585 83.2521 61.0085 83.2955 60.7301 83.2955ZM60.7237 81.4226C60.907 81.4226 61.0618 81.38 61.1882 81.2947C61.3161 81.2081 61.4126 81.0845 61.478 80.924C61.5447 80.7621 61.5781 80.5682 61.5781 80.3423C61.5781 80.1222 61.5455 79.9283 61.4801 79.7607C61.4148 79.593 61.3189 79.4624 61.1925 79.3686C61.0661 79.2734 60.9098 79.2259 60.7237 79.2259C60.532 79.2259 60.3722 79.2756 60.2443 79.375C60.1165 79.473 60.0199 79.6065 59.9545 79.7756C59.8906 79.9446 59.8587 80.1335 59.8587 80.3423C59.8587 80.5568 59.8913 80.745 59.9567 80.907C60.022 81.0689 60.1186 81.1953 60.2464 81.2862C60.3757 81.3771 60.5348 81.4226 60.7237 81.4226ZM63.6982 80.0568V82H63.0611V78.7273H63.6726V79.2599H63.7131C63.7884 79.0866 63.9063 78.9474 64.0668 78.8423C64.2287 78.7372 64.4325 78.6847 64.6783 78.6847C64.9013 78.6847 65.0966 78.7315 65.2642 78.8253C65.4318 78.9176 65.5618 79.0554 65.6541 79.2386C65.7464 79.4219 65.7926 79.6484 65.7926 79.9183V82H65.1555V79.995C65.1555 79.7578 65.0938 79.5724 64.9702 79.4389C64.8466 79.304 64.6768 79.2365 64.4609 79.2365C64.3132 79.2365 64.1818 79.2685 64.0668 79.3324C63.9531 79.3963 63.8629 79.4901 63.7962 79.6136C63.7308 79.7358 63.6982 79.8835 63.6982 80.0568ZM68.0575 82.0661C67.7351 82.0661 67.4574 81.9972 67.2244 81.8594C66.9929 81.7202 66.8139 81.5249 66.6875 81.2734C66.5625 81.0206 66.5 80.7244 66.5 80.3849C66.5 80.0497 66.5625 79.7543 66.6875 79.4986C66.8139 79.2429 66.9901 79.0433 67.2159 78.8999C67.4432 78.7564 67.7088 78.6847 68.0128 78.6847C68.1974 78.6847 68.3764 78.7152 68.5497 78.7763C68.723 78.8374 68.8786 78.9332 69.0163 79.0639C69.1541 79.1946 69.2628 79.3643 69.3423 79.5732C69.4219 79.7805 69.4616 80.0327 69.4616 80.3295V80.5554H66.8601V80.0781H68.8374C68.8374 79.9105 68.8033 79.7621 68.7351 79.6328C68.6669 79.5021 68.571 79.3991 68.4474 79.3239C68.3253 79.2486 68.1818 79.2109 68.017 79.2109C67.8381 79.2109 67.6818 79.255 67.5483 79.343C67.4162 79.4297 67.3139 79.5433 67.2415 79.6839C67.1705 79.8232 67.1349 79.9744 67.1349 80.1378V80.5107C67.1349 80.7294 67.1733 80.9155 67.25 81.0689C67.3281 81.2223 67.4368 81.3395 67.576 81.4205C67.7152 81.5 67.8778 81.5398 68.0639 81.5398C68.1847 81.5398 68.2947 81.5227 68.3942 81.4886C68.4936 81.4531 68.5795 81.4006 68.652 81.331C68.7244 81.2614 68.7798 81.1754 68.8182 81.0732L69.4212 81.1818C69.3729 81.3594 69.2862 81.5149 69.1612 81.6484C69.0376 81.7805 68.8821 81.8835 68.6946 81.9574C68.5085 82.0298 68.2962 82.0661 68.0575 82.0661ZM71.3936 82.0639C71.1294 82.0639 70.8936 81.9964 70.6863 81.8615C70.4803 81.7251 70.3184 81.5312 70.2005 81.2798C70.084 81.027 70.0257 80.7237 70.0257 80.37C70.0257 80.0163 70.0847 79.7138 70.2026 79.4624C70.3219 79.2109 70.4853 79.0185 70.6926 78.8849C70.9 78.7514 71.1351 78.6847 71.3979 78.6847C71.601 78.6847 71.7644 78.7188 71.888 78.7869C72.013 78.8537 72.1096 78.9318 72.1777 79.0213C72.2473 79.1108 72.3013 79.1896 72.3397 79.2578H72.378V77.6364H73.0151V82H72.3929V81.4908H72.3397C72.3013 81.5604 72.2459 81.6399 72.1735 81.7294C72.1025 81.8189 72.0044 81.897 71.8794 81.9638C71.7544 82.0305 71.5925 82.0639 71.3936 82.0639ZM71.5343 81.5206C71.7175 81.5206 71.8723 81.4723 71.9988 81.3757C72.1266 81.2777 72.2232 81.142 72.2885 80.9688C72.3553 80.7955 72.3887 80.5937 72.3887 80.3636C72.3887 80.1364 72.356 79.9375 72.2907 79.767C72.2253 79.5966 72.1294 79.4638 72.003 79.3686C71.8766 79.2734 71.7203 79.2259 71.5343 79.2259C71.3425 79.2259 71.1827 79.2756 71.0549 79.375C70.927 79.4744 70.8304 79.6101 70.7651 79.782C70.7012 79.9538 70.6692 80.1477 70.6692 80.3636C70.6692 80.5824 70.7019 80.7791 70.7672 80.9538C70.8326 81.1286 70.9292 81.267 71.057 81.3693C71.1863 81.4702 71.3453 81.5206 71.5343 81.5206ZM77.04 78.7273V79.2386H75.2523V78.7273H77.04ZM75.7317 77.9432H76.3688V81.0391C76.3688 81.1626 76.3873 81.2557 76.4242 81.3182C76.4611 81.3793 76.5087 81.4212 76.5669 81.4439C76.6266 81.4652 76.6912 81.4759 76.7608 81.4759C76.812 81.4759 76.8567 81.4723 76.8951 81.4652C76.9334 81.4581 76.9632 81.4524 76.9846 81.4482L77.0996 81.9744C77.0627 81.9886 77.0101 82.0028 76.9419 82.017C76.8738 82.0327 76.7885 82.0412 76.6863 82.0426C76.5186 82.0455 76.3624 82.0156 76.2175 81.9531C76.0726 81.8906 75.9554 81.794 75.8659 81.6634C75.7765 81.5327 75.7317 81.3686 75.7317 81.1712V77.9432ZM79.0881 82.0661C78.7813 82.0661 78.5135 81.9957 78.2848 81.8551C78.0561 81.7145 77.8786 81.5178 77.7521 81.2649C77.6257 81.0121 77.5625 80.7166 77.5625 80.3786C77.5625 80.0391 77.6257 79.7422 77.7521 79.4879C77.8786 79.2337 78.0561 79.0362 78.2848 78.8956C78.5135 78.755 78.7813 78.6847 79.0881 78.6847C79.3949 78.6847 79.6626 78.755 79.8913 78.8956C80.12 79.0362 80.2976 79.2337 80.424 79.4879C80.5504 79.7422 80.6136 80.0391 80.6136 80.3786C80.6136 80.7166 80.5504 81.0121 80.424 81.2649C80.2976 81.5178 80.12 81.7145 79.8913 81.8551C79.6626 81.9957 79.3949 82.0661 79.0881 82.0661ZM79.0902 81.5312C79.2891 81.5312 79.4538 81.4787 79.5845 81.3736C79.7152 81.2685 79.8118 81.1286 79.8743 80.9538C79.9382 80.7791 79.9702 80.5866 79.9702 80.3764C79.9702 80.1676 79.9382 79.9759 79.8743 79.8011C79.8118 79.625 79.7152 79.4837 79.5845 79.3771C79.4538 79.2706 79.2891 79.2173 79.0902 79.2173C78.8899 79.2173 78.7237 79.2706 78.5916 79.3771C78.4609 79.4837 78.3636 79.625 78.2997 79.8011C78.2372 79.9759 78.206 80.1676 78.206 80.3764C78.206 80.5866 78.2372 80.7791 78.2997 80.9538C78.3636 81.1286 78.4609 81.2685 78.5916 81.3736C78.7237 81.4787 78.8899 81.5312 79.0902 81.5312ZM84.9858 80.6428V78.7273H85.625V82H84.9986V81.4332H84.9645C84.8892 81.608 84.7685 81.7536 84.6023 81.87C84.4375 81.9851 84.2322 82.0426 83.9865 82.0426C83.7763 82.0426 83.5902 81.9964 83.4283 81.9041C83.2678 81.8104 83.1413 81.6719 83.049 81.4886C82.9581 81.3054 82.9126 81.0788 82.9126 80.8089V78.7273H83.5497V80.7322C83.5497 80.9553 83.6115 81.1328 83.7351 81.2649C83.8587 81.397 84.0192 81.4631 84.2166 81.4631C84.3359 81.4631 84.4545 81.4332 84.5724 81.3736C84.6918 81.3139 84.7905 81.2237 84.8686 81.103C84.9482 80.9822 84.9872 80.8288 84.9858 80.6428ZM88.9334 79.5263L88.356 79.6286C88.3319 79.5547 88.2935 79.4844 88.2409 79.4176C88.1898 79.3509 88.1202 79.2962 88.0321 79.2536C87.9441 79.2109 87.834 79.1896 87.7019 79.1896C87.5215 79.1896 87.3709 79.2301 87.2502 79.3111C87.1294 79.3906 87.0691 79.4936 87.0691 79.62C87.0691 79.7294 87.1096 79.8175 87.1905 79.8842C87.2715 79.951 87.4022 80.0057 87.5826 80.0483L88.1025 80.1676C88.4036 80.2372 88.628 80.3445 88.7757 80.4893C88.9235 80.6342 88.9973 80.8224 88.9973 81.054C88.9973 81.25 88.9405 81.4247 88.8269 81.5781C88.7147 81.7301 88.5577 81.8494 88.356 81.9361C88.1557 82.0227 87.9235 82.0661 87.6593 82.0661C87.2928 82.0661 86.9938 81.9879 86.7623 81.8317C86.5307 81.674 86.3887 81.4503 86.3361 81.1605L86.9519 81.0668C86.9902 81.2273 87.0691 81.3487 87.1884 81.4311C87.3077 81.5121 87.4632 81.5526 87.655 81.5526C87.8638 81.5526 88.0307 81.5092 88.1557 81.4226C88.2807 81.3345 88.3432 81.2273 88.3432 81.1009C88.3432 80.9986 88.3049 80.9126 88.2282 80.843C88.1529 80.7734 88.0371 80.7209 87.8809 80.6854L87.3269 80.5639C87.0215 80.4943 86.7956 80.3835 86.6493 80.2315C86.5044 80.0795 86.432 79.8871 86.432 79.6541C86.432 79.4609 86.486 79.2919 86.5939 79.147C86.7019 79.0021 86.851 78.8892 87.0414 78.8082C87.2317 78.7259 87.4498 78.6847 87.6955 78.6847C88.0492 78.6847 88.3276 78.7614 88.5307 78.9148C88.7338 79.0668 88.8681 79.2706 88.9334 79.5263ZM91.1083 82.0661C90.7859 82.0661 90.5082 81.9972 90.2752 81.8594C90.0437 81.7202 89.8647 81.5249 89.7383 81.2734C89.6133 81.0206 89.5508 80.7244 89.5508 80.3849C89.5508 80.0497 89.6133 79.7543 89.7383 79.4986C89.8647 79.2429 90.0408 79.0433 90.2667 78.8999C90.494 78.7564 90.7596 78.6847 91.0636 78.6847C91.2482 78.6847 91.4272 78.7152 91.6005 78.7763C91.7738 78.8374 91.9293 78.9332 92.0671 79.0639C92.2049 79.1946 92.3136 79.3643 92.3931 79.5732C92.4727 79.7805 92.5124 80.0327 92.5124 80.3295V80.5554H89.9109V80.0781H91.8881C91.8881 79.9105 91.854 79.7621 91.7859 79.6328C91.7177 79.5021 91.6218 79.3991 91.4982 79.3239C91.3761 79.2486 91.2326 79.2109 91.0678 79.2109C90.8888 79.2109 90.7326 79.255 90.5991 79.343C90.467 79.4297 90.3647 79.5433 90.2923 79.6839C90.2212 79.8232 90.1857 79.9744 90.1857 80.1378V80.5107C90.1857 80.7294 90.2241 80.9155 90.3008 81.0689C90.3789 81.2223 90.4876 81.3395 90.6268 81.4205C90.766 81.5 90.9286 81.5398 91.1147 81.5398C91.2354 81.5398 91.3455 81.5227 91.445 81.4886C91.5444 81.4531 91.6303 81.4006 91.7028 81.331C91.7752 81.2614 91.8306 81.1754 91.869 81.0732L92.4719 81.1818C92.4237 81.3594 92.337 81.5149 92.212 81.6484C92.0884 81.7805 91.9329 81.8835 91.7454 81.9574C91.5593 82.0298 91.3469 82.0661 91.1083 82.0661ZM93.2193 82V78.7273H93.835V79.2472H93.8691C93.9288 79.071 94.0339 78.9325 94.1845 78.8317C94.3365 78.7294 94.5083 78.6783 94.7001 78.6783C94.7399 78.6783 94.7868 78.6797 94.8407 78.6825C94.8961 78.6854 94.9395 78.6889 94.9707 78.6932V79.3026C94.9451 79.2955 94.8997 79.2876 94.8343 79.2791C94.769 79.2692 94.7037 79.2642 94.6383 79.2642C94.4877 79.2642 94.3535 79.2962 94.2356 79.3601C94.1191 79.4226 94.0268 79.5099 93.9586 79.6222C93.8904 79.733 93.8564 79.8594 93.8564 80.0014V82H93.2193ZM97.9744 79.5263L97.397 79.6286C97.3729 79.5547 97.3345 79.4844 97.282 79.4176C97.2308 79.3509 97.1612 79.2962 97.0732 79.2536C96.9851 79.2109 96.875 79.1896 96.7429 79.1896C96.5625 79.1896 96.4119 79.2301 96.2912 79.3111C96.1705 79.3906 96.1101 79.4936 96.1101 79.62C96.1101 79.7294 96.1506 79.8175 96.2315 79.8842C96.3125 79.951 96.4432 80.0057 96.6236 80.0483L97.1435 80.1676C97.4446 80.2372 97.669 80.3445 97.8168 80.4893C97.9645 80.6342 98.0384 80.8224 98.0384 81.054C98.0384 81.25 97.9815 81.4247 97.8679 81.5781C97.7557 81.7301 97.5987 81.8494 97.397 81.9361C97.1967 82.0227 96.9645 82.0661 96.7003 82.0661C96.3338 82.0661 96.0348 81.9879 95.8033 81.8317C95.5717 81.674 95.4297 81.4503 95.3771 81.1605L95.9929 81.0668C96.0313 81.2273 96.1101 81.3487 96.2294 81.4311C96.3487 81.5121 96.5043 81.5526 96.696 81.5526C96.9048 81.5526 97.0717 81.5092 97.1967 81.4226C97.3217 81.3345 97.3842 81.2273 97.3842 81.1009C97.3842 80.9986 97.3459 80.9126 97.2692 80.843C97.1939 80.7734 97.0781 80.7209 96.9219 80.6854L96.3679 80.5639C96.0625 80.4943 95.8366 80.3835 95.6903 80.2315C95.5455 80.0795 95.473 79.8871 95.473 79.6541C95.473 79.4609 95.527 79.2919 95.6349 79.147C95.7429 79.0021 95.892 78.8892 96.0824 78.8082C96.2727 78.7259 96.4908 78.6847 96.7365 78.6847C97.0902 78.6847 97.3686 78.7614 97.5717 78.9148C97.7749 79.0668 97.9091 79.2706 97.9744 79.5263ZM101.036 82L100.073 78.7273H100.732L101.373 81.1307H101.405L102.048 78.7273H102.707L103.346 81.12H103.378L104.015 78.7273H104.673L103.712 82H103.062L102.398 79.6371H102.349L101.684 82H101.036ZM105.915 80.0568V82H105.278V77.6364H105.906V79.2599H105.947C106.024 79.0838 106.141 78.9439 106.298 78.8402C106.456 78.7365 106.662 78.6847 106.916 78.6847C107.141 78.6847 107.337 78.7308 107.504 78.8232C107.673 78.9155 107.804 79.0533 107.896 79.2365C107.99 79.4183 108.037 79.6456 108.037 79.9183V82H107.4V79.995C107.4 79.755 107.338 79.5689 107.215 79.4368C107.091 79.3033 106.919 79.2365 106.699 79.2365C106.548 79.2365 106.414 79.2685 106.294 79.3324C106.176 79.3963 106.083 79.4901 106.015 79.6136C105.948 79.7358 105.915 79.8835 105.915 80.0568ZM110.266 82.0661C109.959 82.0661 109.691 81.9957 109.463 81.8551C109.234 81.7145 109.056 81.5178 108.93 81.2649C108.803 81.0121 108.74 80.7166 108.74 80.3786C108.74 80.0391 108.803 79.7422 108.93 79.4879C109.056 79.2337 109.234 79.0362 109.463 78.8956C109.691 78.755 109.959 78.6847 110.266 78.6847C110.573 78.6847 110.84 78.755 111.069 78.8956C111.298 79.0362 111.475 79.2337 111.602 79.4879C111.728 79.7422 111.791 80.0391 111.791 80.3786C111.791 80.7166 111.728 81.0121 111.602 81.2649C111.475 81.5178 111.298 81.7145 111.069 81.8551C110.84 81.9957 110.573 82.0661 110.266 82.0661ZM110.268 81.5312C110.467 81.5312 110.632 81.4787 110.762 81.3736C110.893 81.2685 110.99 81.1286 111.052 80.9538C111.116 80.7791 111.148 80.5866 111.148 80.3764C111.148 80.1676 111.116 79.9759 111.052 79.8011C110.99 79.625 110.893 79.4837 110.762 79.3771C110.632 79.2706 110.467 79.2173 110.268 79.2173C110.068 79.2173 109.901 79.2706 109.769 79.3771C109.639 79.4837 109.541 79.625 109.477 79.8011C109.415 79.9759 109.384 80.1676 109.384 80.3764C109.384 80.5866 109.415 80.7791 109.477 80.9538C109.541 81.1286 109.639 81.2685 109.769 81.3736C109.901 81.4787 110.068 81.5312 110.268 81.5312ZM9.06534 88.0568V90H8.42827V85.6364H9.05682V87.2599H9.0973C9.17401 87.0838 9.29119 86.9439 9.44886 86.8402C9.60653 86.7365 9.8125 86.6847 10.0668 86.6847C10.2912 86.6847 10.4872 86.7308 10.6548 86.8232C10.8239 86.9155 10.9545 87.0533 11.0469 87.2365C11.1406 87.4183 11.1875 87.6456 11.1875 87.9183V90H10.5504V87.995C10.5504 87.755 10.4886 87.5689 10.3651 87.4368C10.2415 87.3033 10.0696 87.2365 9.84943 87.2365C9.69886 87.2365 9.56392 87.2685 9.4446 87.3324C9.3267 87.3963 9.23366 87.4901 9.16548 87.6136C9.09872 87.7358 9.06534 87.8835 9.06534 88.0568ZM12.9901 90.0724C12.7827 90.0724 12.5952 90.0341 12.4276 89.9574C12.2599 89.8793 12.1271 89.7663 12.0291 89.6186C11.9325 89.4709 11.8842 89.2898 11.8842 89.0753C11.8842 88.8906 11.9197 88.7386 11.9908 88.6193C12.0618 88.5 12.1577 88.4055 12.2784 88.3359C12.3991 88.2663 12.5341 88.2138 12.6832 88.1783C12.8324 88.1428 12.9844 88.1158 13.1392 88.0973C13.3352 88.0746 13.4943 88.0561 13.6165 88.0419C13.7386 88.0263 13.8274 88.0014 13.8828 87.9673C13.9382 87.9332 13.9659 87.8778 13.9659 87.8011V87.7862C13.9659 87.6001 13.9134 87.456 13.8082 87.3537C13.7045 87.2514 13.5497 87.2003 13.3438 87.2003C13.1293 87.2003 12.9602 87.2479 12.8366 87.343C12.7145 87.4368 12.63 87.5412 12.5831 87.6562L11.9844 87.5199C12.0554 87.321 12.1591 87.1605 12.2955 87.0384C12.4332 86.9148 12.5916 86.8253 12.7706 86.7699C12.9496 86.7131 13.1378 86.6847 13.3352 86.6847C13.4659 86.6847 13.6044 86.7003 13.7507 86.7315C13.8984 86.7614 14.0362 86.8168 14.1641 86.8977C14.2933 86.9787 14.3991 87.0945 14.4815 87.245C14.5639 87.3942 14.6051 87.5881 14.6051 87.8267V90H13.983V89.5526H13.9574C13.9162 89.6349 13.8544 89.7159 13.772 89.7955C13.6896 89.875 13.5838 89.9411 13.4545 89.9936C13.3253 90.0462 13.1705 90.0724 12.9901 90.0724ZM13.1286 89.5611C13.3047 89.5611 13.4553 89.5263 13.5803 89.4567C13.7067 89.3871 13.8026 89.2962 13.8679 89.1839C13.9347 89.0703 13.968 88.9489 13.968 88.8196V88.3977C13.9453 88.4205 13.9013 88.4418 13.8359 88.4616C13.772 88.4801 13.6989 88.4964 13.6165 88.5107C13.5341 88.5234 13.4538 88.5355 13.3757 88.5469C13.2976 88.5568 13.2322 88.5653 13.1797 88.5724C13.0561 88.5881 12.9432 88.6143 12.8409 88.6513C12.7401 88.6882 12.6591 88.7415 12.598 88.8111C12.5384 88.8793 12.5085 88.9702 12.5085 89.0838C12.5085 89.2415 12.5668 89.3608 12.6832 89.4418C12.7997 89.5213 12.9482 89.5611 13.1286 89.5611ZM18.1362 86.7273L16.9494 90H16.2676L15.0787 86.7273H15.7626L16.5914 89.2457H16.6255L17.4522 86.7273H18.1362ZM20.0341 90.0661C19.7116 90.0661 19.4339 89.9972 19.201 89.8594C18.9695 89.7202 18.7905 89.5249 18.6641 89.2734C18.5391 89.0206 18.4766 88.7244 18.4766 88.3849C18.4766 88.0497 18.5391 87.7543 18.6641 87.4986C18.7905 87.2429 18.9666 87.0433 19.1925 86.8999C19.4197 86.7564 19.6854 86.6847 19.9893 86.6847C20.174 86.6847 20.353 86.7152 20.5263 86.7763C20.6996 86.8374 20.8551 86.9332 20.9929 87.0639C21.1307 87.1946 21.2393 87.3643 21.3189 87.5732C21.3984 87.7805 21.4382 88.0327 21.4382 88.3295V88.5554H18.8366V88.0781H20.8139C20.8139 87.9105 20.7798 87.7621 20.7116 87.6328C20.6435 87.5021 20.5476 87.3991 20.424 87.3239C20.3018 87.2486 20.1584 87.2109 19.9936 87.2109C19.8146 87.2109 19.6584 87.255 19.5249 87.343C19.3928 87.4297 19.2905 87.5433 19.218 87.6839C19.147 87.8232 19.1115 87.9744 19.1115 88.1378V88.5107C19.1115 88.7294 19.1499 88.9155 19.2266 89.0689C19.3047 89.2223 19.4134 89.3395 19.5526 89.4205C19.6918 89.5 19.8544 89.5398 20.0405 89.5398C20.1612 89.5398 20.2713 89.5227 20.3707 89.4886C20.4702 89.4531 20.5561 89.4006 20.6286 89.331C20.701 89.2614 20.7564 89.1754 20.7947 89.0732L21.3977 89.1818C21.3494 89.3594 21.2628 89.5149 21.1378 89.6484C21.0142 89.7805 20.8587 89.8835 20.6712 89.9574C20.4851 90.0298 20.2727 90.0661 20.0341 90.0661ZM23.733 90V86.7273H24.3487V87.2472H24.3828C24.4425 87.071 24.5476 86.9325 24.6982 86.8317C24.8501 86.7294 25.022 86.6783 25.2138 86.6783C25.2536 86.6783 25.3004 86.6797 25.3544 86.6825C25.4098 86.6854 25.4531 86.6889 25.4844 86.6932V87.3026C25.4588 87.2955 25.4134 87.2876 25.348 87.2791C25.2827 87.2692 25.2173 87.2642 25.152 87.2642C25.0014 87.2642 24.8672 87.2962 24.7493 87.3601C24.6328 87.4226 24.5405 87.5099 24.4723 87.6222C24.4041 87.733 24.37 87.8594 24.37 88.0014V90H23.733ZM27.329 90.0661C27.0066 90.0661 26.7289 89.9972 26.4959 89.8594C26.2644 89.7202 26.0854 89.5249 25.959 89.2734C25.834 89.0206 25.7715 88.7244 25.7715 88.3849C25.7715 88.0497 25.834 87.7543 25.959 87.4986C26.0854 87.2429 26.2615 87.0433 26.4874 86.8999C26.7147 86.7564 26.9803 86.6847 27.2843 86.6847C27.4689 86.6847 27.6479 86.7152 27.8212 86.7763C27.9945 86.8374 28.15 86.9332 28.2878 87.0639C28.4256 87.1946 28.5343 87.3643 28.6138 87.5732C28.6934 87.7805 28.7331 88.0327 28.7331 88.3295V88.5554H26.1316V88.0781H28.1088C28.1088 87.9105 28.0748 87.7621 28.0066 87.6328C27.9384 87.5021 27.8425 87.3991 27.7189 87.3239C27.5968 87.2486 27.4533 87.2109 27.2885 87.2109C27.1096 87.2109 26.9533 87.255 26.8198 87.343C26.6877 87.4297 26.5854 87.5433 26.513 87.6839C26.4419 87.8232 26.4064 87.9744 26.4064 88.1378V88.5107C26.4064 88.7294 26.4448 88.9155 26.5215 89.0689C26.5996 89.2223 26.7083 89.3395 26.8475 89.4205C26.9867 89.5 27.1493 89.5398 27.3354 89.5398C27.4561 89.5398 27.5662 89.5227 27.6657 89.4886C27.7651 89.4531 27.851 89.4006 27.9235 89.331C27.9959 89.2614 28.0513 89.1754 28.0897 89.0732L28.6926 89.1818C28.6444 89.3594 28.5577 89.5149 28.4327 89.6484C28.3091 89.7805 28.1536 89.8835 27.9661 89.9574C27.78 90.0298 27.5676 90.0661 27.329 90.0661ZM30.3924 90.0724C30.185 90.0724 29.9975 90.0341 29.8299 89.9574C29.6623 89.8793 29.5295 89.7663 29.4315 89.6186C29.3349 89.4709 29.2866 89.2898 29.2866 89.0753C29.2866 88.8906 29.3221 88.7386 29.3931 88.6193C29.4641 88.5 29.56 88.4055 29.6808 88.3359C29.8015 88.2663 29.9364 88.2138 30.0856 88.1783C30.2347 88.1428 30.3867 88.1158 30.5415 88.0973C30.7376 88.0746 30.8967 88.0561 31.0188 88.0419C31.141 88.0263 31.2298 88.0014 31.2852 87.9673C31.3406 87.9332 31.3683 87.8778 31.3683 87.8011V87.7862C31.3683 87.6001 31.3157 87.456 31.2106 87.3537C31.1069 87.2514 30.9521 87.2003 30.7461 87.2003C30.5316 87.2003 30.3626 87.2479 30.239 87.343C30.1168 87.4368 30.0323 87.5412 29.9854 87.6562L29.3867 87.5199C29.4577 87.321 29.5614 87.1605 29.6978 87.0384C29.8356 86.9148 29.994 86.8253 30.1729 86.7699C30.3519 86.7131 30.5401 86.6847 30.7376 86.6847C30.8683 86.6847 31.0067 86.7003 31.1531 86.7315C31.3008 86.7614 31.4386 86.8168 31.5664 86.8977C31.6957 86.9787 31.8015 87.0945 31.8839 87.245C31.9663 87.3942 32.0075 87.5881 32.0075 87.8267V90H31.3853V89.5526H31.3597C31.3185 89.6349 31.2567 89.7159 31.1744 89.7955C31.092 89.875 30.9862 89.9411 30.8569 89.9936C30.7276 90.0462 30.5728 90.0724 30.3924 90.0724ZM30.5309 89.5611C30.707 89.5611 30.8576 89.5263 30.9826 89.4567C31.109 89.3871 31.2049 89.2962 31.2702 89.1839C31.337 89.0703 31.3704 88.9489 31.3704 88.8196V88.3977C31.3477 88.4205 31.3036 88.4418 31.2383 88.4616C31.1744 88.4801 31.1012 88.4964 31.0188 88.5107C30.9364 88.5234 30.8562 88.5355 30.7781 88.5469C30.6999 88.5568 30.6346 88.5653 30.582 88.5724C30.4585 88.5881 30.3455 88.6143 30.2433 88.6513C30.1424 88.6882 30.0614 88.7415 30.0004 88.8111C29.9407 88.8793 29.9109 88.9702 29.9109 89.0838C29.9109 89.2415 29.9691 89.3608 30.0856 89.4418C30.2021 89.5213 30.3505 89.5611 30.5309 89.5611ZM34.2346 90.0661C33.9178 90.0661 33.6451 89.9943 33.4164 89.8509C33.1891 89.706 33.0144 89.5064 32.8922 89.2521C32.7701 88.9979 32.709 88.7067 32.709 88.3786C32.709 88.0462 32.7715 87.7528 32.8965 87.4986C33.0215 87.2429 33.1976 87.0433 33.4249 86.8999C33.6522 86.7564 33.9199 86.6847 34.2282 86.6847C34.4767 86.6847 34.6983 86.7308 34.8929 86.8232C35.0875 86.9141 35.2445 87.0419 35.3638 87.2067C35.4846 87.3714 35.5563 87.5639 35.579 87.7841H34.959C34.9249 87.6307 34.8468 87.4986 34.7246 87.3878C34.6039 87.277 34.4419 87.2216 34.2388 87.2216C34.0613 87.2216 33.9057 87.2685 33.7722 87.3622C33.6401 87.4545 33.5371 87.5866 33.4632 87.7585C33.3894 87.929 33.3525 88.1307 33.3525 88.3636C33.3525 88.6023 33.3887 88.8082 33.4611 88.9815C33.5336 89.1548 33.6358 89.2891 33.7679 89.3842C33.9015 89.4794 34.0584 89.527 34.2388 89.527C34.3596 89.527 34.4689 89.505 34.5669 89.4609C34.6664 89.4155 34.7495 89.3509 34.8162 89.267C34.8844 89.1832 34.932 89.0824 34.959 88.9645H35.579C35.5563 89.1761 35.4874 89.3651 35.3723 89.5312C35.2573 89.6974 35.1032 89.8281 34.91 89.9233C34.7182 90.0185 34.4931 90.0661 34.2346 90.0661ZM36.8974 88.0568V90H36.2603V85.6364H36.8888V87.2599H36.9293C37.006 87.0838 37.1232 86.9439 37.2809 86.8402C37.4386 86.7365 37.6445 86.6847 37.8988 86.6847C38.1232 86.6847 38.3192 86.7308 38.4869 86.8232C38.6559 86.9155 38.7866 87.0533 38.8789 87.2365C38.9727 87.4183 39.0195 87.6456 39.0195 87.9183V90H38.3825V87.995C38.3825 87.755 38.3207 87.5689 38.1971 87.4368C38.0735 87.3033 37.9016 87.2365 37.6815 87.2365C37.5309 87.2365 37.396 87.2685 37.2766 87.3324C37.1587 87.3963 37.0657 87.4901 36.9975 87.6136C36.9308 87.7358 36.8974 87.8835 36.8974 88.0568ZM41.2802 90.0661C40.9577 90.0661 40.68 89.9972 40.4471 89.8594C40.2156 89.7202 40.0366 89.5249 39.9102 89.2734C39.7852 89.0206 39.7227 88.7244 39.7227 88.3849C39.7227 88.0497 39.7852 87.7543 39.9102 87.4986C40.0366 87.2429 40.2127 87.0433 40.4386 86.8999C40.6658 86.7564 40.9315 86.6847 41.2354 86.6847C41.4201 86.6847 41.5991 86.7152 41.7724 86.7763C41.9457 86.8374 42.1012 86.9332 42.239 87.0639C42.3768 87.1946 42.4854 87.3643 42.565 87.5732C42.6445 87.7805 42.6843 88.0327 42.6843 88.3295V88.5554H40.0827V88.0781H42.06C42.06 87.9105 42.0259 87.7621 41.9577 87.6328C41.8896 87.5021 41.7937 87.3991 41.6701 87.3239C41.5479 87.2486 41.4045 87.2109 41.2397 87.2109C41.0607 87.2109 40.9045 87.255 40.771 87.343C40.6388 87.4297 40.5366 87.5433 40.4641 87.6839C40.3931 87.8232 40.3576 87.9744 40.3576 88.1378V88.5107C40.3576 88.7294 40.396 88.9155 40.4727 89.0689C40.5508 89.2223 40.6594 89.3395 40.7987 89.4205C40.9379 89.5 41.1005 89.5398 41.2866 89.5398C41.4073 89.5398 41.5174 89.5227 41.6168 89.4886C41.7163 89.4531 41.8022 89.4006 41.8746 89.331C41.9471 89.2614 42.0025 89.1754 42.0408 89.0732L42.6438 89.1818C42.5955 89.3594 42.5089 89.5149 42.3839 89.6484C42.2603 89.7805 42.1048 89.8835 41.9173 89.9574C41.7312 90.0298 41.5188 90.0661 41.2802 90.0661ZM44.6163 90.0639C44.3521 90.0639 44.1163 89.9964 43.9089 89.8615C43.7029 89.7251 43.541 89.5312 43.4231 89.2798C43.3066 89.027 43.2484 88.7237 43.2484 88.37C43.2484 88.0163 43.3074 87.7138 43.4252 87.4624C43.5446 87.2109 43.7079 87.0185 43.9153 86.8849C44.1227 86.7514 44.3578 86.6847 44.6206 86.6847C44.8237 86.6847 44.987 86.7188 45.1106 86.7869C45.2356 86.8537 45.3322 86.9318 45.4004 87.0213C45.47 87.1108 45.524 87.1896 45.5623 87.2578H45.6007V85.6364H46.2377V90H45.6156V89.4908H45.5623C45.524 89.5604 45.4686 89.6399 45.3961 89.7294C45.3251 89.8189 45.2271 89.897 45.1021 89.9638C44.9771 90.0305 44.8152 90.0639 44.6163 90.0639ZM44.7569 89.5206C44.9402 89.5206 45.095 89.4723 45.2214 89.3757C45.3493 89.2777 45.4458 89.142 45.5112 88.9688C45.5779 88.7955 45.6113 88.5937 45.6113 88.3636C45.6113 88.1364 45.5787 87.9375 45.5133 87.767C45.448 87.5966 45.3521 87.4638 45.2257 87.3686C45.0993 87.2734 44.943 87.2259 44.7569 87.2259C44.5652 87.2259 44.4054 87.2756 44.2775 87.375C44.1497 87.4744 44.0531 87.6101 43.9877 87.782C43.9238 87.9538 43.8919 88.1477 43.8919 88.3636C43.8919 88.5824 43.9245 88.7791 43.9899 88.9538C44.0552 89.1286 44.1518 89.267 44.2797 89.3693C44.4089 89.4702 44.568 89.5206 44.7569 89.5206ZM50.2626 86.7273V87.2386H48.475V86.7273H50.2626ZM48.9544 85.9432H49.5914V89.0391C49.5914 89.1626 49.6099 89.2557 49.6468 89.3182C49.6838 89.3793 49.7314 89.4212 49.7896 89.4439C49.8493 89.4652 49.9139 89.4759 49.9835 89.4759C50.0346 89.4759 50.0794 89.4723 50.1177 89.4652C50.1561 89.4581 50.1859 89.4524 50.2072 89.4482L50.3223 89.9744C50.2853 89.9886 50.2328 90.0028 50.1646 90.017C50.0964 90.0327 50.0112 90.0412 49.9089 90.0426C49.7413 90.0455 49.585 90.0156 49.4402 89.9531C49.2953 89.8906 49.1781 89.794 49.0886 89.6634C48.9991 89.5327 48.9544 89.3686 48.9544 89.1712V85.9432ZM51.6747 88.0568V90H51.0376V85.6364H51.6662V87.2599H51.7067C51.7834 87.0838 51.9006 86.9439 52.0582 86.8402C52.2159 86.7365 52.4219 86.6847 52.6761 86.6847C52.9006 86.6847 53.0966 86.7308 53.2642 86.8232C53.4332 86.9155 53.5639 87.0533 53.6562 87.2365C53.75 87.4183 53.7969 87.6456 53.7969 87.9183V90H53.1598V87.995C53.1598 87.755 53.098 87.5689 52.9744 87.4368C52.8509 87.3033 52.679 87.2365 52.4588 87.2365C52.3082 87.2365 52.1733 87.2685 52.054 87.3324C51.9361 87.3963 51.843 87.4901 51.7749 87.6136C51.7081 87.7358 51.6747 87.8835 51.6747 88.0568ZM56.0575 90.0661C55.7351 90.0661 55.4574 89.9972 55.2244 89.8594C54.9929 89.7202 54.8139 89.5249 54.6875 89.2734C54.5625 89.0206 54.5 88.7244 54.5 88.3849C54.5 88.0497 54.5625 87.7543 54.6875 87.4986C54.8139 87.2429 54.9901 87.0433 55.2159 86.8999C55.4432 86.7564 55.7088 86.6847 56.0128 86.6847C56.1974 86.6847 56.3764 86.7152 56.5497 86.7763C56.723 86.8374 56.8786 86.9332 57.0163 87.0639C57.1541 87.1946 57.2628 87.3643 57.3423 87.5732C57.4219 87.7805 57.4616 88.0327 57.4616 88.3295V88.5554H54.8601V88.0781H56.8374C56.8374 87.9105 56.8033 87.7621 56.7351 87.6328C56.6669 87.5021 56.571 87.3991 56.4474 87.3239C56.3253 87.2486 56.1818 87.2109 56.017 87.2109C55.8381 87.2109 55.6818 87.255 55.5483 87.343C55.4162 87.4297 55.3139 87.5433 55.2415 87.6839C55.1705 87.8232 55.1349 87.9744 55.1349 88.1378V88.5107C55.1349 88.7294 55.1733 88.9155 55.25 89.0689C55.3281 89.2223 55.4368 89.3395 55.576 89.4205C55.7152 89.5 55.8778 89.5398 56.0639 89.5398C56.1847 89.5398 56.2947 89.5227 56.3942 89.4886C56.4936 89.4531 56.5795 89.4006 56.652 89.331C56.7244 89.2614 56.7798 89.1754 56.8182 89.0732L57.4212 89.1818C57.3729 89.3594 57.2862 89.5149 57.1612 89.6484C57.0376 89.7805 56.8821 89.8835 56.6946 89.9574C56.5085 90.0298 56.2962 90.0661 56.0575 90.0661ZM60.3935 85.6364V90H59.7564V85.6364H60.3935ZM62.2029 90.0724C61.9956 90.0724 61.8081 90.0341 61.6404 89.9574C61.4728 89.8793 61.34 89.7663 61.242 89.6186C61.1454 89.4709 61.0971 89.2898 61.0971 89.0753C61.0971 88.8906 61.1326 88.7386 61.2037 88.6193C61.2747 88.5 61.3706 88.4055 61.4913 88.3359C61.612 88.2663 61.747 88.2138 61.8961 88.1783C62.0453 88.1428 62.1973 88.1158 62.3521 88.0973C62.5481 88.0746 62.7072 88.0561 62.8294 88.0419C62.9515 88.0263 63.0403 88.0014 63.0957 87.9673C63.1511 87.9332 63.1788 87.8778 63.1788 87.8011V87.7862C63.1788 87.6001 63.1262 87.456 63.0211 87.3537C62.9174 87.2514 62.7626 87.2003 62.5566 87.2003C62.3422 87.2003 62.1731 87.2479 62.0495 87.343C61.9274 87.4368 61.8429 87.5412 61.796 87.6562L61.1973 87.5199C61.2683 87.321 61.372 87.1605 61.5083 87.0384C61.6461 86.9148 61.8045 86.8253 61.9835 86.7699C62.1625 86.7131 62.3507 86.6847 62.5481 86.6847C62.6788 86.6847 62.8173 86.7003 62.9636 86.7315C63.1113 86.7614 63.2491 86.8168 63.377 86.8977C63.5062 86.9787 63.612 87.0945 63.6944 87.245C63.7768 87.3942 63.818 87.5881 63.818 87.8267V90H63.1958V89.5526H63.1703C63.1291 89.6349 63.0673 89.7159 62.9849 89.7955C62.9025 89.875 62.7967 89.9411 62.6674 89.9936C62.5382 90.0462 62.3833 90.0724 62.2029 90.0724ZM62.3414 89.5611C62.5176 89.5611 62.6681 89.5263 62.7931 89.4567C62.9196 89.3871 63.0154 89.2962 63.0808 89.1839C63.1475 89.0703 63.1809 88.9489 63.1809 88.8196V88.3977C63.1582 88.4205 63.1142 88.4418 63.0488 88.4616C62.9849 88.4801 62.9118 88.4964 62.8294 88.5107C62.747 88.5234 62.6667 88.5355 62.5886 88.5469C62.5105 88.5568 62.4451 88.5653 62.3926 88.5724C62.269 88.5881 62.1561 88.6143 62.0538 88.6513C61.9529 88.6882 61.872 88.7415 61.8109 88.8111C61.7512 88.8793 61.7214 88.9702 61.7214 89.0838C61.7214 89.2415 61.7797 89.3608 61.8961 89.4418C62.0126 89.5213 62.161 89.5611 62.3414 89.5611ZM67.119 87.5263L66.5415 87.6286C66.5174 87.5547 66.479 87.4844 66.4265 87.4176C66.3754 87.3509 66.3058 87.2962 66.2177 87.2536C66.1296 87.2109 66.0195 87.1896 65.8874 87.1896C65.707 87.1896 65.5565 87.2301 65.4357 87.3111C65.315 87.3906 65.2546 87.4936 65.2546 87.62C65.2546 87.7294 65.2951 87.8175 65.3761 87.8842C65.457 87.951 65.5877 88.0057 65.7681 88.0483L66.288 88.1676C66.5891 88.2372 66.8136 88.3445 66.9613 88.4893C67.109 88.6342 67.1829 88.8224 67.1829 89.054C67.1829 89.25 67.1261 89.4247 67.0124 89.5781C66.9002 89.7301 66.7433 89.8494 66.5415 89.9361C66.3413 90.0227 66.109 90.0661 65.8448 90.0661C65.4783 90.0661 65.1793 89.9879 64.9478 89.8317C64.7163 89.674 64.5742 89.4503 64.5217 89.1605L65.1374 89.0668C65.1758 89.2273 65.2546 89.3487 65.3739 89.4311C65.4933 89.5121 65.6488 89.5526 65.8406 89.5526C66.0494 89.5526 66.2163 89.5092 66.3413 89.4226C66.4663 89.3345 66.5288 89.2273 66.5288 89.1009C66.5288 88.9986 66.4904 88.9126 66.4137 88.843C66.3384 88.7734 66.2227 88.7209 66.0664 88.6854L65.5124 88.5639C65.207 88.4943 64.9812 88.3835 64.8349 88.2315C64.69 88.0795 64.6175 87.8871 64.6175 87.6541C64.6175 87.4609 64.6715 87.2919 64.7795 87.147C64.8874 87.0021 65.0366 86.8892 65.2269 86.8082C65.4173 86.7259 65.6353 86.6847 65.881 86.6847C66.2347 86.6847 66.5131 86.7614 66.7163 86.9148C66.9194 87.0668 67.0536 87.2706 67.119 87.5263ZM69.411 86.7273V87.2386H67.6234V86.7273H69.411ZM68.1028 85.9432H68.7399V89.0391C68.7399 89.1626 68.7583 89.2557 68.7953 89.3182C68.8322 89.3793 68.8798 89.4212 68.938 89.4439C68.9977 89.4652 69.0623 89.4759 69.1319 89.4759C69.1831 89.4759 69.2278 89.4723 69.2662 89.4652C69.3045 89.4581 69.3343 89.4524 69.3556 89.4482L69.4707 89.9744C69.4338 89.9886 69.3812 90.0028 69.313 90.017C69.2449 90.0327 69.1596 90.0412 69.0574 90.0426C68.8897 90.0455 68.7335 90.0156 68.5886 89.9531C68.4437 89.8906 68.3265 89.794 68.237 89.6634C68.1475 89.5327 68.1028 89.3686 68.1028 89.1712V85.9432ZM72.3407 85.6364V90H71.7037V85.6364H72.3407ZM74.6083 90.0661C74.2859 90.0661 74.0082 89.9972 73.7752 89.8594C73.5437 89.7202 73.3647 89.5249 73.2383 89.2734C73.1133 89.0206 73.0508 88.7244 73.0508 88.3849C73.0508 88.0497 73.1133 87.7543 73.2383 87.4986C73.3647 87.2429 73.5408 87.0433 73.7667 86.8999C73.994 86.7564 74.2596 86.6847 74.5636 86.6847C74.7482 86.6847 74.9272 86.7152 75.1005 86.7763C75.2738 86.8374 75.4293 86.9332 75.5671 87.0639C75.7049 87.1946 75.8136 87.3643 75.8931 87.5732C75.9727 87.7805 76.0124 88.0327 76.0124 88.3295V88.5554H73.4109V88.0781H75.3881C75.3881 87.9105 75.354 87.7621 75.2859 87.6328C75.2177 87.5021 75.1218 87.3991 74.9982 87.3239C74.8761 87.2486 74.7326 87.2109 74.5678 87.2109C74.3888 87.2109 74.2326 87.255 74.0991 87.343C73.967 87.4297 73.8647 87.5433 73.7923 87.6839C73.7212 87.8232 73.6857 87.9744 73.6857 88.1378V88.5107C73.6857 88.7294 73.7241 88.9155 73.8008 89.0689C73.8789 89.2223 73.9876 89.3395 74.1268 89.4205C74.266 89.5 74.4286 89.5398 74.6147 89.5398C74.7354 89.5398 74.8455 89.5227 74.945 89.4886C75.0444 89.4531 75.1303 89.4006 75.2028 89.331C75.2752 89.2614 75.3306 89.1754 75.369 89.0732L75.9719 89.1818C75.9237 89.3594 75.837 89.5149 75.712 89.6484C75.5884 89.7805 75.4329 89.8835 75.2454 89.9574C75.0593 90.0298 74.8469 90.0661 74.6083 90.0661ZM79.4252 86.7273L78.2385 90H77.5566L76.3677 86.7273H77.0517L77.8805 89.2457H77.9146L78.7413 86.7273H79.4252ZM81.3232 90.0661C81.0007 90.0661 80.723 89.9972 80.4901 89.8594C80.2585 89.7202 80.0795 89.5249 79.9531 89.2734C79.8281 89.0206 79.7656 88.7244 79.7656 88.3849C79.7656 88.0497 79.8281 87.7543 79.9531 87.4986C80.0795 87.2429 80.2557 87.0433 80.4815 86.8999C80.7088 86.7564 80.9744 86.6847 81.2784 86.6847C81.4631 86.6847 81.642 86.7152 81.8153 86.7763C81.9886 86.8374 82.1442 86.9332 82.282 87.0639C82.4197 87.1946 82.5284 87.3643 82.608 87.5732C82.6875 87.7805 82.7273 88.0327 82.7273 88.3295V88.5554H80.1257V88.0781H82.103C82.103 87.9105 82.0689 87.7621 82.0007 87.6328C81.9325 87.5021 81.8366 87.3991 81.7131 87.3239C81.5909 87.2486 81.4474 87.2109 81.2827 87.2109C81.1037 87.2109 80.9474 87.255 80.8139 87.343C80.6818 87.4297 80.5795 87.5433 80.5071 87.6839C80.4361 87.8232 80.4006 87.9744 80.4006 88.1378V88.5107C80.4006 88.7294 80.4389 88.9155 80.5156 89.0689C80.5938 89.2223 80.7024 89.3395 80.8416 89.4205C80.9808 89.5 81.1435 89.5398 81.3295 89.5398C81.4503 89.5398 81.5604 89.5227 81.6598 89.4886C81.7592 89.4531 81.8452 89.4006 81.9176 89.331C81.9901 89.2614 82.0455 89.1754 82.0838 89.0732L82.6868 89.1818C82.6385 89.3594 82.5518 89.5149 82.4268 89.6484C82.3033 89.7805 82.1477 89.8835 81.9602 89.9574C81.7741 90.0298 81.5618 90.0661 81.3232 90.0661ZM84.0712 85.6364V90H83.4341V85.6364H84.0712Z" fill="white"/>
</g>
<defs>
<clipPath id="clip0_268_70319">
<rect width="160" height="100" rx="8" fill="white"/>
</clipPath>
<clipPath id="clip1_268_70319">
<rect width="262.727" height="109.335" fill="white" transform="translate(217.738 -28.283) rotate(107.062)"/>
</clipPath>
<clipPath id="clip2_268_70319">
<rect x="364.324" y="17.3601" width="262.727" height="262.727" rx="131.364" transform="rotate(107.062 364.324 17.3601)" fill="white"/>
</clipPath>
<clipPath id="clip3_268_70319">
<rect width="9.71265" height="9.71265" fill="white" transform="translate(150.83 95.5955) rotate(107.062)"/>
</clipPath>
<clipPath id="clip4_268_70319">
<rect width="9.71265" height="9.71265" fill="white" transform="translate(149.176 26.5085) rotate(107.062)"/>
</clipPath>
<clipPath id="clip5_268_70319">
<rect width="9.71265" height="9.71265" fill="white" transform="translate(136.351 68.292) rotate(107.062)"/>
</clipPath>
<clipPath id="clip6_268_70319">
<rect width="9.71265" height="9.71265" fill="white" transform="translate(134.696 -0.794922) rotate(107.062)"/>
</clipPath>
<clipPath id="clip7_268_70319">
<rect width="9.71265" height="9.71265" fill="white" transform="translate(109.047 82.7712) rotate(107.062)"/>
</clipPath>
<clipPath id="clip8_268_70319">
<rect width="9.71265" height="9.71265" fill="white" transform="translate(107.392 13.6843) rotate(107.062)"/>
</clipPath>
<clipPath id="clip9_268_70319">
<rect width="9.71265" height="9.71265" fill="white" transform="translate(94.5681 55.4675) rotate(107.062)"/>
</clipPath>
</defs>
</svg>
