<svg width="20" height="20" viewBox="0 0 20 20" fill="none" xmlns="http://www.w3.org/2000/svg">
<g clip-path="url(#clip0_469_15506)">
<path d="M9.16435 13.3333C9.16435 13.7945 9.53819 14.1683 9.99935 14.1683C10.4605 14.1683 10.8343 13.7945 10.8343 13.3333H9.16435ZM9.99935 6.66667L10.5898 6.07624C10.2637 5.75015 9.735 5.75015 9.40892 6.07624L9.99935 6.66667ZM11.9089 9.75711C12.235 10.0832 12.7637 10.0832 13.0898 9.75711C13.4159 9.43102 13.4159 8.90233 13.0898 8.57624L11.9089 9.75711ZM6.90892 8.57624C6.58283 8.90233 6.58283 9.43102 6.90892 9.75711C7.235 10.0832 7.7637 10.0832 8.08978 9.75711L6.90892 8.57624ZM17.4977 10C17.4977 14.1412 14.1406 17.4983 9.99935 17.4983V19.1683C15.0629 19.1683 19.1677 15.0635 19.1677 10H17.4977ZM9.99935 17.4983C5.85813 17.4983 2.50102 14.1412 2.50102 10H0.831016C0.831016 15.0635 4.93582 19.1683 9.99935 19.1683V17.4983ZM2.50102 10C2.50102 5.85879 5.85813 2.50167 9.99935 2.50167V0.831672C4.93582 0.831672 0.831016 4.93647 0.831016 10H2.50102ZM9.99935 2.50167C14.1406 2.50167 17.4977 5.85879 17.4977 10H19.1677C19.1677 4.93647 15.0629 0.831672 9.99935 0.831672V2.50167ZM10.8343 13.3333V6.66667H9.16435V13.3333H10.8343ZM9.40892 7.25711L11.9089 9.75711L13.0898 8.57624L10.5898 6.07624L9.40892 7.25711ZM9.40892 6.07624L6.90892 8.57624L8.08978 9.75711L10.5898 7.25711L9.40892 6.07624Z" fill="#4A4E62"/>
</g>
<defs>
<clipPath id="clip0_469_15506">
<rect width="20" height="20" fill="white"/>
</clipPath>
</defs>
</svg>
