<svg width="52" height="52" viewBox="0 0 52 52" fill="none" xmlns="http://www.w3.org/2000/svg">
<path fill-rule="evenodd" clip-rule="evenodd" d="M12.1579 8.18663L4.1929 24.917C4.16259 24.9793 4.15299 25.0496 4.16549 25.1176C4.178 25.1857 4.21195 25.248 4.2624 25.2954L25.7738 45.9085C25.8349 45.9671 25.9163 45.9999 26.001 45.9999C26.0856 45.9999 26.167 45.9671 26.2281 45.9085L47.7396 25.2967C47.79 25.2493 47.824 25.187 47.8365 25.1189C47.849 25.0508 47.8394 24.9806 47.8091 24.9183L39.8441 8.18792C39.8184 8.13173 39.7771 8.08413 39.725 8.05081C39.673 8.01749 39.6125 7.99986 39.5507 8.00002H12.4539C12.3918 7.99925 12.3308 8.01646 12.2783 8.04957C12.2258 8.08268 12.1839 8.13028 12.1579 8.18663Z" fill="#50AF95"/>
<path fill-rule="evenodd" clip-rule="evenodd" d="M28.7628 26.6351C28.6084 26.6467 27.8105 26.6943 26.0306 26.6943C24.615 26.6943 23.6099 26.6519 23.2572 26.6351C17.7864 26.3945 13.7029 25.4421 13.7029 24.3019C13.7029 23.1616 17.7864 22.2106 23.2572 21.9661V25.6866C23.615 25.7124 24.6394 25.7729 26.0551 25.7729C27.7538 25.7729 28.6045 25.7021 28.7577 25.6879V21.9686C34.2169 22.2119 38.2914 23.1642 38.2914 24.3019C38.2914 25.4395 34.2182 26.3919 28.7577 26.6338L28.7628 26.6351ZM28.7628 21.5838V18.2545H36.3816V13.1774H15.6385V18.2545H23.2559V21.5825C17.0644 21.867 12.4082 23.0934 12.4082 24.5631C12.4082 26.0328 17.0644 27.258 23.2559 27.5437V38.2126H28.7615V27.5399C34.9389 27.2554 39.5874 26.0303 39.5874 24.5618C39.5874 23.0934 34.9428 21.8682 28.7615 21.5825L28.7628 21.5838Z" fill="white"/>
</svg>
